<svg xmlns="http://www.w3.org/2000/svg" viewBox="0 0 446 446"><defs><style>.cls-1{fill:#f9f9f9;}</style></defs><g id="Layer_2" data-name="Layer 2"><g id="Layer_1-2" data-name="Layer 1"><rect class="cls-1" x="5" y="5" width="436" height="436" rx="8.6"/><path d="M432.4,10a3.6,3.6,0,0,1,3.6,3.6V432.4a3.6,3.6,0,0,1-3.6,3.6H13.6a3.6,3.6,0,0,1-3.6-3.6V13.6A3.6,3.6,0,0,1,13.6,10H432.4m0-10H13.6A13.6,13.6,0,0,0,0,13.6V432.4A13.6,13.6,0,0,0,13.6,446H432.4A13.6,13.6,0,0,0,446,432.4V13.6A13.6,13.6,0,0,0,432.4,0Z"/><path d="M36.85,427.9,34.1,419H34c.1,1.82.15,3,.15,3.65v5.3H32V416.5h3.29l2.7,8.72h.05l2.86-8.72h3.29v11.4H42v-5.4c0-.25,0-.54,0-.88s0-1.21.11-2.65H42l-2.95,8.93Z"/><path d="M45.65,419.18h2.61l1.64,4.91a6.64,6.64,0,0,1,.29,1.51h.05a7.22,7.22,0,0,1,.33-1.51l1.62-4.91h2.55L51.05,429a4.23,4.23,0,0,1-1.45,2,3.59,3.59,0,0,1-2.19.68,5.34,5.34,0,0,1-1.21-.13v-1.89a3.84,3.84,0,0,0,.93.1,1.76,1.76,0,0,0,1.11-.38,2.51,2.51,0,0,0,.73-1.17l.14-.43Z"/><path d="M64.93,428.06a2.88,2.88,0,0,1-2.41-1.12h-.13c.09.73.13,1.15.13,1.27v3.53H60.14V419.18h1.93l.34,1.13h.11A2.76,2.76,0,0,1,65,419a2.82,2.82,0,0,1,2.42,1.19,5.55,5.55,0,0,1,.88,3.32,6.55,6.55,0,0,1-.41,2.42,3.48,3.48,0,0,1-1.17,1.57A3,3,0,0,1,64.93,428.06Zm-.7-7.14a1.51,1.51,0,0,0-1.29.54,3.11,3.11,0,0,0-.42,1.79v.26a3.62,3.62,0,0,0,.42,2,1.47,1.47,0,0,0,1.32.61c1.07,0,1.6-.88,1.6-2.63a3.72,3.72,0,0,0-.4-1.94A1.33,1.33,0,0,0,64.23,420.92Z"/><path d="M74.2,428.06a4.52,4.52,0,0,1-3.29-1.16,4.43,4.43,0,0,1-1.19-3.3,4.85,4.85,0,0,1,1.1-3.39,3.92,3.92,0,0,1,3-1.19,3.86,3.86,0,0,1,2.88,1.05,4,4,0,0,1,1,2.91v1.15H72.13a2.34,2.34,0,0,0,.6,1.59,2.13,2.13,0,0,0,1.58.57,6.54,6.54,0,0,0,1.49-.17,7.43,7.43,0,0,0,1.47-.52v1.84a5.46,5.46,0,0,1-1.34.47A8.49,8.49,0,0,1,74.2,428.06Zm-.34-7.35a1.49,1.49,0,0,0-1.18.48,2.18,2.18,0,0,0-.49,1.36h3.34a2,2,0,0,0-.46-1.36A1.57,1.57,0,0,0,73.86,420.71Z"/><path d="M84.56,419a3.75,3.75,0,0,1,.81.07l-.18,2.23a2.9,2.9,0,0,0-.71-.08,2.46,2.46,0,0,0-1.77.59,2.07,2.07,0,0,0-.64,1.63v4.44H79.69v-8.72H81.5l.35,1.47H82a3.31,3.31,0,0,1,1.1-1.19A2.76,2.76,0,0,1,84.56,419Z"/><path d="M93,425.31a2.42,2.42,0,0,1-.94,2.05,4.59,4.59,0,0,1-2.79.7,8.42,8.42,0,0,1-1.62-.13,6.16,6.16,0,0,1-1.26-.38v-2a9.06,9.06,0,0,0,1.5.52,6,6,0,0,0,1.46.21c.87,0,1.3-.25,1.3-.75a.62.62,0,0,0-.18-.46,2.37,2.37,0,0,0-.59-.39,11.48,11.48,0,0,0-1.12-.52,6.91,6.91,0,0,1-1.48-.78,2.34,2.34,0,0,1-.69-.83,2.76,2.76,0,0,1-.21-1.14,2.09,2.09,0,0,1,.9-1.8,4.42,4.42,0,0,1,2.56-.63,7.33,7.33,0,0,1,3.06.68l-.72,1.72A11.83,11.83,0,0,0,91,421a3.85,3.85,0,0,0-1.16-.18c-.71,0-1.06.19-1.06.57a.68.68,0,0,0,.34.55,9,9,0,0,0,1.49.7,6.76,6.76,0,0,1,1.5.77,2.29,2.29,0,0,1,.7.83A2.53,2.53,0,0,1,93,425.31Z"/><path d="M102.82,423.53a4.68,4.68,0,0,1-1.12,3.33,4.09,4.09,0,0,1-3.13,1.2,4.35,4.35,0,0,1-2.22-.55,3.63,3.63,0,0,1-1.47-1.58,5.24,5.24,0,0,1-.52-2.4,4.64,4.64,0,0,1,1.12-3.33A4.09,4.09,0,0,1,98.61,419a4.45,4.45,0,0,1,2.22.54,3.66,3.66,0,0,1,1.47,1.57A5.18,5.18,0,0,1,102.82,423.53Zm-6,0a3.67,3.67,0,0,0,.42,2,1.52,1.52,0,0,0,1.39.67,1.5,1.5,0,0,0,1.37-.66,3.71,3.71,0,0,0,.42-2,3.61,3.61,0,0,0-.43-1.95,1.8,1.8,0,0,0-2.75,0A3.62,3.62,0,0,0,96.79,423.53Z"/><path d="M112.84,427.9h-2.38v-5.09a2.42,2.42,0,0,0-.34-1.42,1.23,1.23,0,0,0-1.07-.47,1.6,1.6,0,0,0-1.44.67,4.09,4.09,0,0,0-.44,2.21v4.1h-2.38v-8.72h1.81l.32,1.12h.14a2.48,2.48,0,0,1,1.09-1,3.7,3.7,0,0,1,1.59-.32,3.06,3.06,0,0,1,2.31.82,3.28,3.28,0,0,1,.79,2.37Z"/><path d="M120.83,427.9l-.46-1.18h-.06a3.76,3.76,0,0,1-1.24,1,4.12,4.12,0,0,1-1.66.29,2.68,2.68,0,0,1-2-.72,2.76,2.76,0,0,1-.72-2,2.29,2.29,0,0,1,1-2.05,5.68,5.68,0,0,1,2.93-.73l1.52,0v-.38a1.19,1.19,0,0,0-1.36-1.33,6.06,6.06,0,0,0-2.46.64l-.79-1.61a7.06,7.06,0,0,1,3.34-.79,4.15,4.15,0,0,1,2.69.77,2.8,2.8,0,0,1,.94,2.32v5.81Zm-.7-4-.92,0a2.93,2.93,0,0,0-1.55.38,1.16,1.16,0,0,0-.51,1c0,.67.39,1,1.16,1a1.82,1.82,0,0,0,1.32-.48,1.66,1.66,0,0,0,.5-1.26Z"/><path d="M127.32,427.9h-2.38V415.76h2.38Z"/><path d="M139,427.9,136.24,419h-.07c.1,1.82.15,3,.15,3.65v5.3h-2.16V416.5h3.29l2.7,8.72h0l2.87-8.72h3.29v11.4H144.1v-5.4c0-.25,0-.54,0-.88s0-1.21.1-2.65h-.07l-2.94,8.93Z"/><path d="M155.21,427.9l-.32-1.11h-.12a2.61,2.61,0,0,1-1.08.94,3.75,3.75,0,0,1-1.6.33,3,3,0,0,1-2.32-.82,3.32,3.32,0,0,1-.78-2.37v-5.69h2.38v5.1a2.47,2.47,0,0,0,.33,1.41,1.21,1.21,0,0,0,1.07.47,1.62,1.62,0,0,0,1.45-.66,4.25,4.25,0,0,0,.44-2.22v-4.1H157v8.72Z"/><path d="M165.62,425.31a2.41,2.41,0,0,1-.93,2.05,4.59,4.59,0,0,1-2.79.7,8.42,8.42,0,0,1-1.62-.13,6.16,6.16,0,0,1-1.26-.38v-2a8.75,8.75,0,0,0,1.5.52,6,6,0,0,0,1.46.21q1.29,0,1.29-.75a.61.61,0,0,0-.17-.46,2.37,2.37,0,0,0-.59-.39c-.28-.15-.66-.33-1.12-.52a6.91,6.91,0,0,1-1.48-.78,2.15,2.15,0,0,1-.69-.83,2.76,2.76,0,0,1-.21-1.14,2.09,2.09,0,0,1,.9-1.8,4.41,4.41,0,0,1,2.55-.63,7.37,7.37,0,0,1,3.07.68l-.72,1.72a12.76,12.76,0,0,0-1.22-.46,3.86,3.86,0,0,0-1.17-.18q-1,0-1,.57a.65.65,0,0,0,.34.55,9,9,0,0,0,1.49.7,6.42,6.42,0,0,1,1.49.77,2.23,2.23,0,0,1,.71.83A2.53,2.53,0,0,1,165.62,425.31Z"/><path d="M167.38,416.92c0-.77.43-1.16,1.29-1.16s1.3.39,1.3,1.16a1.16,1.16,0,0,1-.32.87,1.4,1.4,0,0,1-1,.31C167.81,418.1,167.38,417.71,167.38,416.92Zm2.48,11h-2.38v-8.72h2.38Z"/><path d="M175.9,428.06c-2.72,0-4.07-1.49-4.07-4.47a4.81,4.81,0,0,1,1.1-3.4,4.17,4.17,0,0,1,3.18-1.17,6,6,0,0,1,2.71.59l-.7,1.84c-.37-.15-.72-.27-1-.37a3.3,3.3,0,0,0-1-.14c-1.24,0-1.86.87-1.86,2.63s.62,2.56,1.86,2.56a4.28,4.28,0,0,0,1.27-.18,4.5,4.5,0,0,0,1.17-.57v2a3.58,3.58,0,0,1-1.16.51A6.85,6.85,0,0,1,175.9,428.06Z"/><path d="M189.51,428.06a2.89,2.89,0,0,1-2.41-1.12H187c.08.73.12,1.15.12,1.27v3.53h-2.38V419.18h1.94l.33,1.13h.11a2.76,2.76,0,0,1,2.48-1.29,2.83,2.83,0,0,1,2.42,1.19,5.55,5.55,0,0,1,.87,3.32,6.55,6.55,0,0,1-.41,2.42,3.35,3.35,0,0,1-1.17,1.57A3,3,0,0,1,189.51,428.06Zm-.7-7.14a1.52,1.52,0,0,0-1.29.54,3.11,3.11,0,0,0-.42,1.79v.26a3.62,3.62,0,0,0,.42,2,1.48,1.48,0,0,0,1.32.61c1.07,0,1.6-.88,1.6-2.63a3.83,3.83,0,0,0-.39-1.94A1.34,1.34,0,0,0,188.81,420.92Z"/><path d="M197.22,427.9h-2.38V415.76h2.38Z"/><path d="M205.25,427.9l-.46-1.18h-.06a3.57,3.57,0,0,1-1.24,1,4.05,4.05,0,0,1-1.66.29,2.67,2.67,0,0,1-2-.72,2.76,2.76,0,0,1-.72-2,2.29,2.29,0,0,1,1-2.05,5.62,5.62,0,0,1,2.93-.73l1.51,0v-.38a1.19,1.19,0,0,0-1.36-1.33,6.14,6.14,0,0,0-2.46.64l-.78-1.61a7,7,0,0,1,3.34-.79,4.16,4.16,0,0,1,2.69.77,2.83,2.83,0,0,1,.93,2.32v5.81Zm-.7-4-.92,0a3,3,0,0,0-1.55.38,1.18,1.18,0,0,0-.5,1c0,.67.38,1,1.15,1a1.82,1.82,0,0,0,1.32-.48,1.63,1.63,0,0,0,.5-1.26Z"/><path d="M208.12,419.18h2.6l1.65,4.91a6.64,6.64,0,0,1,.29,1.51h0a6.65,6.65,0,0,1,.34-1.51l1.61-4.91h2.56L213.52,429a4.3,4.3,0,0,1-1.45,2,3.62,3.62,0,0,1-2.2.68,5.47,5.47,0,0,1-1.21-.13v-1.89a4,4,0,0,0,.94.1,1.71,1.71,0,0,0,1.1-.38,2.52,2.52,0,0,0,.74-1.17l.14-.43Z"/><path d="M222.4,428.06a4.52,4.52,0,0,1-3.29-1.16,4.43,4.43,0,0,1-1.19-3.3,4.85,4.85,0,0,1,1.1-3.39,3.92,3.92,0,0,1,3-1.19,3.86,3.86,0,0,1,2.88,1.05,4,4,0,0,1,1,2.91v1.15h-5.63a2.3,2.3,0,0,0,.61,1.59,2.1,2.1,0,0,0,1.57.57,6.48,6.48,0,0,0,1.49-.17,7.43,7.43,0,0,0,1.47-.52v1.84a5.46,5.46,0,0,1-1.34.47A8.49,8.49,0,0,1,222.4,428.06Zm-.33-7.35a1.52,1.52,0,0,0-1.19.48,2.18,2.18,0,0,0-.49,1.36h3.34a2,2,0,0,0-.46-1.36A1.57,1.57,0,0,0,222.07,420.71Z"/><path d="M232.76,419a3.69,3.69,0,0,1,.81.07l-.18,2.23a2.81,2.81,0,0,0-.7-.08,2.5,2.5,0,0,0-1.78.59,2.1,2.1,0,0,0-.63,1.63v4.44H227.9v-8.72h1.8l.35,1.47h.12a3.28,3.28,0,0,1,1.09-1.19A2.76,2.76,0,0,1,232.76,419Z"/><path d="M110.76,263.11c0-3.54.12-7.08.38-10.61.12-1.74.28-3.46.46-5.19.09-.83.19-1.65.29-2.48,0-.41.1-.83.16-1.24-.11.84.06-.4.1-.66a151.46,151.46,0,0,1,4.5-20.74c1-3.33,2.06-6.64,3.25-9.9.62-1.69,1.27-3.38,1.95-5l.48-1.15c.19-.49,0,0,0,.11l.24-.57c.36-.83.72-1.66,1.09-2.48a151.23,151.23,0,0,1,9.91-18.54q3.15-5,6.69-9.8l.87-1.17.44-.57c.64-.82,1.29-1.64,1.94-2.45,1.27-1.56,2.58-3.09,3.91-4.61l-7.52-2,7.41,33.29a4.54,4.54,0,0,0,4.34,3.3,4.65,4.65,0,0,0,4.34-3.3c.4-1.34.84-2.67,1.33-4,.22-.59.45-1.18.68-1.77.06-.14.56-1.3.14-.33.15-.35.3-.7.46-1.05a67,67,0,0,1,3.93-7.39c.66-1.08,1.36-2.14,2.08-3.18l1.11-1.55.69-.91c-.61.8.23-.29.35-.44a65.77,65.77,0,0,1,5.51-6.05c1-1,2-1.92,3.09-2.83l1.46-1.22.6-.48c.4-.31.39-.31,0,0l.6-.46a64.33,64.33,0,0,1,7-4.56c1.17-.66,2.37-1.29,3.58-1.87.65-.31,1.29-.6,1.94-.89,1.28-.57-.8.31.5-.21l1.19-.47a65.4,65.4,0,0,1,9-2.75c1.45-.33,2.92-.62,4.4-.86l1.05-.16c1.39-.21-.9.09.5-.06.85-.09,1.7-.19,2.55-.26a68.44,68.44,0,0,1,9.17-.12c1.49.08,3,.23,4.46.4s-.53-.1.29,0l1,.16c.84.14,1.68.29,2.52.46a63.59,63.59,0,0,1,8.79,2.44c.58.21,1.14.43,1.71.65.15.06,1.28.55.27.11l.67.29c1.29.58,2.56,1.21,3.79,1.88a58,58,0,0,1,6.67,4.26c1,.73-.7-.58.26.2l.71.57c.52.43,1,.86,1.53,1.31,1,.89,2,1.82,2.89,2.78s1.64,1.78,2.4,2.71c.1.13.85,1.08.19.22.22.28.43.57.64.86.42.58.83,1.17,1.22,1.77.64,1,1.25,2,1.8,3.06.28.52.54,1.05.79,1.58.16.32.3.65.44,1-.44-1,0,0,.09.23a34.16,34.16,0,0,1,2,7.5c-.17-1.17.05.61.08.94.05.7.08,1.39.09,2.09a33.34,33.34,0,0,1-.28,4.89c.11-.83,0-.1,0,.06-.08.41-.14.83-.22,1.25-.14.69-.29,1.38-.46,2.06a45,45,0,0,1-1.44,4.67c-.27.74-.55,1.47-.85,2.19.28-.68,0,0,0,.11-.18.4-.35.79-.54,1.18-.67,1.45-1.39,2.86-2.15,4.26-1.54,2.82-3.24,5.55-5,8.23-3.61,5.46-7.44,10.77-11.25,16.08q-11.85,16.6-24.2,32.83-11.92,15.69-24.77,31.55Q167.28,332,139.77,362.18q-3.32,3.63-6.66,7.25a4.5,4.5,0,0,0,6.36,6.36q28.59-30.89,55.24-63.48,26.86-32.83,51.68-67.26c4-5.53,8-11.08,11.84-16.68a110.77,110.77,0,0,0,10-16.86c2.86-6.28,4.86-12.95,4.9-19.91a38.94,38.94,0,0,0-4.07-17.24c-4.89-10.12-14-18.21-24-23.17a68.17,68.17,0,0,0-37.6-6.38,70.23,70.23,0,0,0-35,13.8,71.53,71.53,0,0,0-22,27.74,74.84,74.84,0,0,0-3.21,8.57h8.68l-7.41-33.28c-.72-3.21-5.33-4.49-7.52-2a155.41,155.41,0,0,0-24,36.49,157.86,157.86,0,0,0-13.12,41.93,155.63,155.63,0,0,0-2.09,25,4.5,4.5,0,0,0,9,0Z"/><path d="M149.68,199.4q31.33,18.4,60.78,39.8c10.06,7.32,18.78,14,28.3,21.66s18.68,15.44,27.73,23.49q15.24,13.57,29.73,28a4.5,4.5,0,0,0,6.36-6.36Q276.65,280.17,248.26,257T189,213.38q-17.1-11.35-34.81-21.75a4.5,4.5,0,1,0-4.54,7.77Z"/><path d="M276.31,93.86c-.14-1.42-.27-2.84-.32-4.26,0-.71,0-1.42,0-2.13,0-.31,0-.63,0-.94s0-.47.05-.71c.06-.51.07-.62,0-.34-.07.6.16-.92.14-.8,0-.27.11-.55.18-.82.13-.49.3-1,.44-1.45.33-1.13-.28.48,0-.15.15-.28.27-.57.42-.85a13.71,13.71,0,0,1,1-1.59c-.54.73.29-.27.52-.5l.55-.5c-.67.61-.09.08.13-.07s.54-.3.8-.47.29-.39-.17,0a4.22,4.22,0,0,1,1.56-.44c-.05,0-.95.06-.24,0,.27,0,.54,0,.81,0s.53,0,.8,0c.64,0,0-.15-.23,0,.25-.13,1,.21,1.27.29a5.94,5.94,0,0,0,.78.26c.5.06-.72-.38,0,0,.5.26,1,.51,1.47.81s1.18.93.46.29c.38.34.77.66,1.13,1l.57.62c.58.6-.26-.42,0,0s.57.83.82,1.28c.11.19.2.39.31.59.5.92-.15-.59.05.13s.4,1.18.55,1.79c.06.27.12.54.17.81.28,1.28,0-.85.07.45a27.75,27.75,0,0,1,0,3.76c0,.16-.13.87,0,.06-.05.28-.09.56-.14.84-.13.69-.3,1.39-.49,2.07s-.36,1.23-.57,1.84c-.12.34-.25.67-.37,1,0,.13-.32.8,0,.12A36,36,0,0,1,287,99.61c-2.64,4.68-6,9-8.24,13.86-2.4,5.27-3.74,11.18-2.29,16.92,2.79,11.12,15.15,15,25,17.43a102.18,102.18,0,0,0,39.45,1.67c2.34-.35,3.83-3.42,3.14-5.54-.82-2.55-3-3.51-5.53-3.14-.95.14-1.87.27-3.41.42s-3.08.28-4.62.36q-4.39.22-8.81.06c-2.85-.11-5.7-.36-8.54-.72-.87-.11,1.06.17-.41-.06l-.92-.14c-.69-.11-1.37-.22-2.06-.35-1.44-.25-2.88-.54-4.31-.87q-4.31-1-8.49-2.34c-1.1-.36-2.19-.76-3.27-1.17-.8-.31-.13-.05,0,0l-.86-.39c-.63-.29-1.24-.6-1.85-.93-.43-.25-.86-.5-1.28-.77-.26-.16-.52-.33-.77-.51s-.84-.67-.12-.07c-.38-.31-.75-.63-1.1-1s-.43-.43-.63-.65-.81-1-.47-.53-.28-.44-.28-.44c-.13-.21-.26-.42-.38-.64l-.38-.73c.38.75,0,0-.08-.23a13.33,13.33,0,0,1-.48-1.75,7.27,7.27,0,0,1-.14-.79c.14,1,0-.2,0-.42a17.56,17.56,0,0,1,0-2c0-.27.05-.54.07-.82-.07.84,0,.14,0,0a29.81,29.81,0,0,1,1.07-4c.09-.26.19-.52.29-.78.45-1.24-.24.43.11-.27s.55-1.17.84-1.75c.68-1.31,1.43-2.58,2.2-3.84,3-4.9,6.32-9.54,8.3-15s2.55-11.62.5-17a18.36,18.36,0,0,0-11.05-10.85,14.28,14.28,0,0,0-16.17,4.77c-4.32,5.59-4.47,12.59-3.8,19.33.23,2.34,1.91,4.62,4.5,4.5,2.24-.1,4.75-2,4.5-4.5Z"/></g></g></svg>