<svg xmlns="http://www.w3.org/2000/svg" viewBox="0 0 197.65 186.57"><defs><style>.cls-1{fill:#f3d949;}.cls-1,.cls-2,.cls-3{opacity:0.5;}.cls-2{fill:#ff9cff;}.cls-3{fill:#67cff3;}.cls-4{fill:#292929;}</style></defs><g id="Layer_2" data-name="Layer 2"><g id="OBJECTS"><circle class="cls-1" cx="132.14" cy="60.98" r="60.98"/><circle class="cls-2" cx="60.98" cy="83.62" r="60.98"/><circle class="cls-3" cx="122.28" cy="125.6" r="60.98"/><path class="cls-4" d="M158.05,130.63a9.58,9.58,0,0,1-1,.08h-.36c-3.53.1-7.18.21-10.76.5a.87.87,0,0,0-.44.16,1.13,1.13,0,0,0-.22.11c-1.66,1.08-1.66,3.32-1.66,5.12,0,.35,0,.69,0,1l0,.58c-.11,1.46-.24,3.46,1.17,4.58a6.7,6.7,0,0,0,3.09,1c.32,0,.63.1.9.16,1.64.37,3.59.79,5.6,1.12.36.06.78.15,1.23.24a19.37,19.37,0,0,0,3.74.52,4.63,4.63,0,0,0,2.29-.5c1.6-.89,1.64-3.14,1.67-4.78,0-.31,0-.6,0-.86s.08-.86.13-1.37c.24-2.21.54-5-.55-6.54S159.65,130.47,158.05,130.63Zm1.45,13a15.18,15.18,0,0,1-3.29-.35l-.45-.08c-2-.29-4-.71-5.54-1l-.87-.17c-2.25-.43-3.73-.84-3.77-2.56v-.25c-.11-4.44.37-5.72.78-6a1.06,1.06,0,0,0,.29-.31c3.38.06,6.79,0,10.1-.12h.35c.27,0,.6,0,1-.08a5.38,5.38,0,0,1,1.87,0c1.5.5,1.48,1.17,1.46,2.49,0,.18,0,.37,0,.56,0,1.84-.07,3.64-.23,5.37C161,142.61,160.88,143.25,159.5,143.64Z"/><path class="cls-4" d="M36.93,57.78A.64.64,0,0,0,37,58c.71,1.62,2.77,2,4.32,2a6.68,6.68,0,0,0,1.07-.08h0a8.34,8.34,0,0,0,5.42-3.35c1.29-1.7,2.14-4.76,1.32-6.95a3.6,3.6,0,0,0-2.65-2.33,6.32,6.32,0,0,0-6.28-.07l-.21.13v0a8.39,8.39,0,0,0-4,8.16A4.16,4.16,0,0,0,36.93,57.78ZM45.21,49l.23,0a2.35,2.35,0,0,1,.94,2.13c0,2.38-2.21,4.2-3.56,5.08-1.68,1.08-3,1.32-3.94.73-1.32-.79-1.11-2.69-.87-3.76h0a7.66,7.66,0,0,1,3-4.38,9.82,9.82,0,0,1,3.57-.15A.9.9,0,0,0,45.21,49Z"/><path class="cls-4" d="M54.8,163.25A17.82,17.82,0,0,0,61.49,162c9.4-3.76,11.87-15.07,9.46-24.3-2.84-10.85-10.82-21.29-20.85-27.26a1,1,0,0,0-.37-.29l-.32-.13-.22-.11a.94.94,0,0,0-.32-.11,14.63,14.63,0,0,0-11.33.44,18.94,18.94,0,0,0-9.7,10.63c-4.12,10.95.7,23.42,6.09,30.77h0C38.66,158.05,46.69,163.25,54.8,163.25ZM43.49,110.81a13,13,0,0,1,4.55.86c-4.84-.69-10.2,0-14,3.51A15.66,15.66,0,0,1,37,112.77,12,12,0,0,1,43.49,110.81Zm5,9.14a14.14,14.14,0,0,0-.35,12.32c1.5,3.38,5,7.34,9.86,7.19,3.63-.06,6.89-2.12,9.1-5.71,1.24,5.49,3.57,20.43-6.66,24.11-9.78,3.51-18-5.33-21.14-9.3-5.54-7.1-8.29-15.55-7.53-23.17.56-5.58,3.05-9.28,7.4-11a14.52,14.52,0,0,1,5.38-1,38.06,38.06,0,0,1,7.92,1.1c.54.43,1.06.85,1.55,1.27C51.66,116,49.6,117.92,48.48,120Zm-16.9,18.87A37.73,37.73,0,0,0,45.21,157c4.28,2.92,10.89,5,16.75,2.38-6.91,3.71-16.51.84-22.62-4.84a35.49,35.49,0,0,1-10.89-25.85h0a21.07,21.07,0,0,1,2.67-9.49C28.4,125,29.45,132.87,31.58,138.82Z"/><path class="cls-4" d="M29.35,159.59c3.63,4.32,15,16.33,28.38,16.33a22.33,22.33,0,0,0,8.73-1.79c15.16-6.42,13.46-27.5,10.06-38.94C72.69,122.29,63,106.31,47.2,100a.94.94,0,0,0-.42-.3c-7.68-3-15.28-2.41-20.83,1.64-5.17,3.75-8.61,10-9.71,17.56C14.31,132.36,19.21,147.55,29.35,159.59Zm-5.07-54a17.36,17.36,0,0,1,13.08-5.66,23.92,23.92,0,0,1,8.49,1.65c10.94,4.81,20,14.08,25.6,26.1a53.32,53.32,0,0,1,5.22,21.14c.16,6.3-.71,14.88-5.77,20-11.46,11.53-28.39,1.2-35.74-5.87-10-9.61-16.26-22.3-17.2-34.8C17.47,121.44,18.17,112.15,24.28,105.55Z"/><path class="cls-4" d="M197.56,71.43s0-.06,0-.09c.16-3.9-.44-11-6.23-15.14a.79.79,0,0,0-.21-.24,43.44,43.44,0,0,0-10.29-6.23,54.23,54.23,0,0,0-5.64-2l-.83-.24c-2.21-.64-5.53-1.6-6.45-3.54a14.78,14.78,0,0,0-3.43-14.84,12.77,12.77,0,0,0-3.13-2.3c-.71-1.29-2.53-2-3.88-2.48l-.75-.28-1.36-.56A32.88,32.88,0,0,1,149,20.43a12.94,12.94,0,0,0,0-1.4,4.55,4.55,0,0,0,.72-4.37.9.9,0,0,0-.49-.54.89.89,0,0,0-.53-.76c-2.52-1.18-3.14-1.38-5.7-.07-1.12.58-2.25,1.13-3.39,1.67l-.42-.09a86.93,86.93,0,0,1-10.07-2.78,1.82,1.82,0,0,1,.07-.25.56.56,0,0,0,0-.12c.3-.14.58-.25.85-.35a.91.91,0,0,0,.61-.88,1.14,1.14,0,0,0-.07-.32L131,10h-.52a.88.88,0,0,0-.47-.32,1.55,1.55,0,0,0-.54-.05l-.07-.08a.9.9,0,0,0-.72-.24,7.77,7.77,0,0,1-2.08-.06,5.21,5.21,0,0,0-3.56.53q-1.51.81-3,1.65l-2.52,1.38c-.11.06-.67.44-1.25.83l-.77.52a3.14,3.14,0,0,0-1.07.38l-.08.14a.82.82,0,0,0,0,.61c0,.12,0,.24,0,.35-6.15.72-12.76,3-20.18,7a.86.86,0,0,0-.2-.18c-4.15-2.53-9.79-1.74-13.52-1.22l-.17,0c-1.58.22-5.05.69-5.79,2.42a.76.76,0,0,0-.56.66,40.36,40.36,0,0,0-.08,5.13,79.1,79.1,0,0,0-22.81,4.17c-2.94,1-6.28,2.14-8.9,4.45a50.39,50.39,0,0,0-6.82,8l-.35.48c-2,2.7-4.27,5.76-5.19,9.06-.65,2.35,0,4.58.67,6.74.23.74.46,1.51.62,2.25,1.53,6.94,1.11,14.13.7,21.09-.08,1.28-.15,2.56-.22,3.84a31.41,31.41,0,0,0-3.16,2.84.92.92,0,0,0-.2.31,22.63,22.63,0,0,0-6,5.67,31.55,31.55,0,0,0-9.67,11.66c-3.91,8.64-2.23,19.63-.88,25.41,3.54,15.17,14.84,30.45,28.77,38.92a36.11,36.11,0,0,0,18.17,5.18,24.46,24.46,0,0,0,12.25-3.05c1.48-.61,2.82-1.2,4.1-1.8a.82.82,0,0,0,.41-.05c5-1.72,11.24-4.26,15.86-8.75a.84.84,0,0,0,.37-.06c9-3.12,19.07-7.15,24.33-15.59l.36-.58a22,22,0,0,0,6.52-2.94l.66-.38c.68-.4,1.34-.81,2-1.24,5.42,1.58,11,2.88,16.45,4.14,2.12.49,4.23,1,6.34,1.49l11.29,2.71c.47.11,1,.26,1.51.42,2,.6,4.33,1.28,6.28.45,3.26-.07,5.76-2,8-3.77l1.9-1.49c2.37-1.85,4.81-3.76,7.12-5.75a22.79,22.79,0,0,0,6.22-7.69c1.45-3.23,1.79-6.81,2-10.21,1-14.51,2.33-33.61,4.33-52.59l.24-.07a.93.93,0,0,0,.67-.77A1,1,0,0,0,197.56,71.43Zm-31,81-.16.13c-1.26.41-3-.09-4.42-.49-.38-.11-.75-.21-1.09-.29l-4.77-1.16-10.61-2.56-5.1-1.25c-4.31-1.07-8.75-2.17-13.18-3.07a37.36,37.36,0,0,0,3.53-2.89,29.3,29.3,0,0,0,8.95-15.38c.24-1.15.43-2.32.58-3.48a7.48,7.48,0,0,0,2,.62l.07,0a9.06,9.06,0,0,0,6.54-.19,6.09,6.09,0,0,0,3.64-.32l.7-.2a16.78,16.78,0,0,0,3.29-1.25l.78-.36a8.28,8.28,0,0,0,4.62-6.87c.3-3-.79-6.11-3.23-9.27s-4-4.78-8-5.69a1.3,1.3,0,0,0-.26-.14A126.28,126.28,0,0,0,150,80.15c.83.07,1.65.1,2.4.13.6,0,1.17,0,1.67.09a126.79,126.79,0,0,0,14.38.3q-.06,8.83-.1,17.66,0,9.11-.1,18.23,0,8.85-.1,17.7c0,2.62,0,5.23,0,7.85v1.27c0,.51,0,1.13.07,1.8C168.3,147.8,168.51,151.39,166.55,152.48Zm-44.25-7.84c-.89.52-1.88,1-2.83,1.43-.65.3-1.3.61-1.94.94,5.16-10.93,3.78-23.5,2.43-30.24-4.64-23.22-21-41-41.56-45.4a48.14,48.14,0,0,0-6.38-1c.52-.26,1-.53,1.53-.8l.67-.36a72.07,72.07,0,0,1,9.53-4.41c6.36-2.26,12.64-2.27,20.36,0,7.23,2.09,12.4,4.71,16.76,8.49a73.11,73.11,0,0,1,10.68,12.14l1.16,1.62a1.45,1.45,0,0,0,.08.21A49.91,49.91,0,0,1,138,104.9a.76.76,0,0,0-.06.36.87.87,0,0,0,.15.47,61.89,61.89,0,0,1-.29,18.88,27.48,27.48,0,0,1-8.45,14.84,39.52,39.52,0,0,1-7.07,5.19ZM28.85,96.33c19.65-5.83,35.2,12,41,20,10.56,14.55,14,31,9.5,45.25-2.54,8-7.45,13.11-14.57,15.16-6.38,1.83-13.33,1.06-20.1-2.22-12.6-6.11-24.18-19.35-29.47-33.72a48.63,48.63,0,0,1-2.85-13.18c-.35-4.7-.49-9.67.89-14.16,2-6.5,7-12.09,15.38-17.07A.69.69,0,0,0,28.85,96.33Zm49.4,72.77c9.73-16.21,4.11-36.72-3.66-49.36C66.52,106.61,52.5,93.08,37.11,93.08a25.9,25.9,0,0,0-7.26,1,28.34,28.34,0,0,1,15.09-4c8.25.13,16.82,3.86,24.14,10.51,5.94,5.41,11.29,12.93,16.36,23A49.1,49.1,0,0,1,90.29,154c-1,5.79-3.47,10.36-7.28,13.58a34,34,0,0,1-6.71,4.27A20.56,20.56,0,0,0,78.25,169.1Zm7.34-1.4A21.78,21.78,0,0,0,91.12,159c3.15-9.29,2.48-21.19-1.8-31.82A80,80,0,0,0,72.09,100.6c-7.23-7.16-15.87-11.55-24.34-12.37-1.06-.1-2.13-.15-3.19-.15a32.36,32.36,0,0,0-9.19,1.32,28,28,0,0,1,20.29-3.7c8.22,1.61,16,6.35,23.17,14.1s22.79,27.81,17.37,51.05c-1.29,5.53-2.67,10.39-6.59,13.89A29.28,29.28,0,0,1,85.59,167.7Zm-52-99.52a45.8,45.8,0,0,0-1.21-5.64c-.12-.46-.23-.93-.34-1.39a14.35,14.35,0,0,0,8.67,2.75c.55,0,1.1,0,1.65-.08a14.23,14.23,0,0,0,10.72-6h0c1.9-3,2.62-7.32,0-10.24-2.32-2.54-6.41-4.16-12.48-5,.51-.59,1-1.17,1.55-1.71,2.79-2.94,6.34-4.25,10.36-5.54a84,84,0,0,1,21.36-3.78c0,.62.05,1.23.08,1.85a.92.92,0,0,0,.51.8,3.77,3.77,0,0,0,1.51.93l-.74.72a4,4,0,0,0-2.64,1.71,40.63,40.63,0,0,0-3.52,6.13l-.38.78a.81.81,0,0,0-.36.25.83.83,0,0,0,0,1.07,12.65,12.65,0,0,0,5.17,3.29,52.15,52.15,0,0,0-2.13,7.79c-.22,1-.44,2-.68,3L70,62.67c-.6,2.41-1.22,4.9-1.77,7.37-.42.16-.83.3-1.25.44A17.15,17.15,0,0,0,61.37,72,34.93,34.93,0,0,0,57.93,74a54.88,54.88,0,0,0,.22-8.75,68.44,68.44,0,0,0,10.48-4,1,1,0,0,0,.44-1.32,1,1,0,0,0-1.25-.53l-.22.08C61.29,62,55.32,64.51,48.47,64.51a.91.91,0,0,0-1,.84.89.89,0,0,0,.83.93,26.94,26.94,0,0,0,7.87-.59c-.1,2-.11,4-.12,6,0,1.18,0,2.35,0,3.52L55,75.91c-.86.58-1.71,1.16-2.57,1.72l-.24.15c-3,2-6.16,4-9.14,6.16a30,30,0,0,0-9.71,4.29A79.76,79.76,0,0,0,33.62,68.18ZM39.4,44h0a.93.93,0,0,0,.73.58,26.36,26.36,0,0,1,9.23,2.77,6,6,0,0,1,3.15,4A7.52,7.52,0,0,1,51,57.27a11.8,11.8,0,0,1-8.23,4.5,14.59,14.59,0,0,1-10.89-3,.83.83,0,0,0-.32-.13c-.34-3.27,1.94-6.56,3.8-9.23l.24-.34C36.89,47.17,38.16,45.49,39.4,44Zm94.81-26.51a.82.82,0,0,0-.46.64l0,.07-.5.19.46.18a.79.79,0,0,0,.4.6c.28.16.58.3.9.45l-.24.24a9.19,9.19,0,0,1-1.15.9.79.79,0,0,0-.32.38A43,43,0,0,0,128,19.76c-.87-.17-1.74-.3-2.61-.43a31.48,31.48,0,0,1-5-1c1.87-.87,3.72-1.81,5.49-2.72.19-.1.42-.2.66-.3a4.43,4.43,0,0,0,2-1.27,1.5,1.5,0,0,0,.15-.23,64.06,64.06,0,0,0,8.1,2.5l-1.06.49Zm.24,6.07a.69.69,0,0,1-.22.44c-.36.27-1.34,0-2.12-.24l-.84-.23q-2.55-.59-5.08-1.22l-.81-.2c-1.24-.3-2.49-.61-3.72-.94l-.29-.08a4.78,4.78,0,0,1-2.08-.88,2,2,0,0,1-.29-.65,21.87,21.87,0,0,0,6.27,1.61l1.08.17a45.47,45.47,0,0,1,6.58,1.74Zm1.6-2.48a5.59,5.59,0,0,0,.55-.46v0c0,.19-.08.36-.12.53l0,.13Zm.67,3,.16,0,1-.22-1.06.35-.42.13a1.34,1.34,0,0,0,0-.2A.8.8,0,0,0,136.72,24.06Zm6.78-4-.53.21c-1.56.61-3.15,1.14-4.71,1.65a8.48,8.48,0,0,0,.24-.9,13.67,13.67,0,0,0,3.78-1.56l.38-.21c.56-.31,1.14-.61,1.71-.91,1.23-.66,2.5-1.32,3.72-2.06C147.94,18.21,146.06,19.09,143.5,20.08Zm.9-3.72a22.23,22.23,0,0,1-6.17,3,2.65,2.65,0,0,0-1.25-.75l-.31-.11-.16-.07c1.29-.52,2.51-1,3.69-1.6.46-.21.92-.45,1.38-.68,1.85-1,3.59-1.85,5.49-1.33C146.19,15.26,145.31,15.8,144.4,16.36Zm-18.33-5.18c-.3.19-.56.35-.73.44l-.62.32c-2,1-4,2-5.93,3.13l-.63-.22c.55-.32,1.09-.67,1.59-1s.9-.6,1.26-.79h0l.86-.48a9.54,9.54,0,0,1,3.54-1.46,5.67,5.67,0,0,1,.82,0Zm-10,5.44c0-.1,0-.22,0-.33a.38.38,0,0,1,0-.1c.15,0,.33.12.49.18l.41.15.36.12c.33.11.66.22,1,.31a1,1,0,0,0,.68-.06l.19-.06c.4-.18.81-.36,1.2-.55-.78.43-1.58.88-2.39,1.37l-.23-.52-.2.46c-.33-.11-.66-.2-1-.29l-.61-.17C116,17,116,16.78,116,16.62Zm5.78,6.5.36.09q3.54.93,7.1,1.79c.52.13,1.07.3,1.65.47a14.27,14.27,0,0,0,4.44.87.94.94,0,0,0,.56-.21,49.7,49.7,0,0,0,12-4.43,17.3,17.3,0,0,0,4.86,2.83c.6.25,1.28.48,2,.72h0a21.25,21.25,0,0,0-6.32.92,96.74,96.74,0,0,0-14.46,6.06c-1.79.86-3.56,1.72-5.34,2.52l-10,4.54-1.9.88a52.63,52.63,0,0,1-8.36,3.3h-.68l-.63,0,0,1.19h.22a.84.84,0,0,0,.93.53l.73-.17a.8.8,0,0,0,.38.76c5.31,3.19,11.41,4.34,16.67,5a76.28,76.28,0,0,0,10.09.89,32,32,0,0,0,5.32-.43.65.65,0,0,0,0,.27,59.77,59.77,0,0,0-.53,14c0,.52.06,1.08.09,1.69a43.39,43.39,0,0,0,.5,5.49,2.52,2.52,0,0,0-2-.32h-.08a3.58,3.58,0,0,0-2.55,1.42,5.47,5.47,0,0,0-.82,4.22c.37,2.08,1.77,4.09,4.08,4.09h.34a3.31,3.31,0,0,0,2.62-1.57,5.19,5.19,0,0,0,.67-2.5A7.79,7.79,0,0,0,148.53,80c0,2.31,0,4.61.07,6.91.06,3.87.12,7.87,0,11.82a10.64,10.64,0,0,0-1,.69l-.44.32a52.47,52.47,0,0,0-4.72,3.31,5,5,0,0,0-1.15.47c-.19.09-.37.18-.55.25s-.52.19-.82.29c-.06-.45-.12-.9-.19-1.35a.81.81,0,0,0,.21-.59,135.45,135.45,0,0,0-2.56-18L137,81.76c-.23-1.22-.46-2.46-.7-3.69A78.38,78.38,0,0,0,133,65.54c-3.5-9.34-12.12-14.38-21-12.24a.73.73,0,0,0-.54.86.79.79,0,0,0,.87.62A17.2,17.2,0,0,1,126,58.4c3.77,3.17,5.43,8,6.55,12.25a193.52,193.52,0,0,1,3.73,19,26.36,26.36,0,0,0-1.4-2.7.94.94,0,0,0-.17-.55c-3.55-5.07-7.51-10.35-12.41-14.61-4.45-3.87-9.74-6.63-16.64-8.68-5.25-1.55-12.24-3.08-19.68-1A51.92,51.92,0,0,0,75.76,66.5c-1.73.9-3.51,1.83-5.31,2.63C71,67,71.48,64.9,72,62.77l.7-2.93c.22-.92.47-1.85.72-2.78A56,56,0,0,0,75,49.66l.26.1c3.49,1.41,7.18,2.69,11,3.82A128.36,128.36,0,0,0,107.6,58a.89.89,0,0,0,.77-.27l.08,0,.16.07,0-.12a.91.91,0,0,0,.23-.15,1,1,0,0,0,.35-1,50.06,50.06,0,0,0-2-7.63l-.29-.84a14.22,14.22,0,0,0-2.41-4.92,7.1,7.1,0,0,0-3.8-1.88l-.4-.1c-2.6-.68-5.43-1.38-8.67-2.15-2.51-.59-5.19-1.19-8.2-1.84l-1.91-.45c-1.14-.28-2.31-.56-3.48-.75,1-.72,2-1.46,3-2.19,3.61-2.65,7.34-5.38,11.26-7.71l0,0,.2-.06.07-.11c.47-.28.94-.56,1.42-.83A68.82,68.82,0,0,1,114,17.68a.78.78,0,0,0,.4.62,7.23,7.23,0,0,0,2.81,1.08C117.37,22,119.73,22.58,121.82,23.12Zm44.31,21.27a.92.92,0,0,0,.26.26c1,2.92,5.2,4.12,8,4.91l1.1.32A44.6,44.6,0,0,1,185,54.05c-3.24-.16-7.06.78-11.33,2.83a.75.75,0,0,0,.58,1.38l1.49-.47c4.69-1.51,9.54-3.08,13.81-.49,5.55,3.37,6.21,10,6.09,13.82-5.11,1.29-10.24,2.76-15.22,4.19-2.22.64-4.44,1.28-6.66,1.9a7.37,7.37,0,0,1-1.66.35,6.13,6.13,0,0,1-.05-1.73c.12-2.2.17-4.36.17-6.41a75.87,75.87,0,0,0-.53-10,1,1,0,0,0,.11-.69.93.93,0,0,0-.87-.75c-8.69-.46-17.22-2.65-27.59-7.05.46-.11.9-.22,1.32-.35,6.36-1.88,13.8-6.33,16.09-12a10,10,0,0,0-.8-9,.93.93,0,0,0-1.28-.37,1,1,0,0,0-.4,1.31,8.67,8.67,0,0,1,.31,8.27c-3.06,6.18-12.66,9.91-18,10.8-4.66.78-9.6.07-14.38-.61L125,48.81a43.8,43.8,0,0,1-14.27-4.16,61.4,61.4,0,0,0,9.75-4c1.13-.54,2.25-1.08,3.37-1.59l4.81-2.19q6.13-2.79,12.27-5.56l.33-.15c5.72-2.6,12.21-5.53,18.16-3,6.67,2.82,8.07,10,6.55,15.52A.93.93,0,0,0,166.13,44.39ZM94.18,41.63c3.41.63,7.66,1.43,9.35,3.87,1.89,2.73,2.82,7.07,3.5,10.45a135.63,135.63,0,0,1-19.28-4c-3-.86-6-1.85-9-3l-1.78-.63a23.23,23.23,0,0,1-6.69-3.11c.8-1.24,1.57-2.51,2.31-3.75l.78-1.27.31-.55c.62-1.07,1-1.78,2.29-1.9a9.6,9.6,0,0,1,2.49.39c.32.08.62.15.89.2,3.88.8,7.9,1.69,12.26,2.73C92.35,41.29,93.24,41.45,94.18,41.63ZM157.71,78.7c-2-.09-4.08-.25-6.1-.45l-1.15-.09c-2.24-.16-4.56-.33-5.68-2.14-.87-1.39-1.12-3.67-1.31-5.5,0-.39-.08-.76-.12-1.1-.25-2-.41-4-.5-6a95.85,95.85,0,0,1,.34-10.84c7.45,4.1,16.7,6.59,26.85,7.22,0,1,.05,2,.07,3,.12,5.16.25,10.49-.14,15.81h0C165.61,78.89,161.6,78.9,157.71,78.7ZM142.19,78a2.48,2.48,0,0,1-1,2,1.49,1.49,0,0,1-1.49.09A3.4,3.4,0,0,1,138,76.84a3.19,3.19,0,0,1,1.31-2.7.9.9,0,0,0,.77.08h0a.68.68,0,0,1,.68.1C141.63,75,142.2,77.2,142.19,78Zm10.74,38.42c.38-6.43-4.51-10.19-8.65-12.51l.34-.22,2.17-1.39c.15-.09.38-.26.66-.46a11.3,11.3,0,0,1,2.33-1.46c2.95.67,4.22,1.6,6.28,3.84,1.76,1.92,3.87,4.89,3.91,8.14a6.52,6.52,0,0,1-4.13,6.46,9.09,9.09,0,0,0-1.28.59,6.31,6.31,0,0,1-1.35.56c-.33.09-.67.21-1,.33l-.77.25A7.2,7.2,0,0,0,152.93,116.4ZM90.32,24.75c-7.53.8-13.15.74-14.14-.22a4.77,4.77,0,0,1,1.76-.91,16.75,16.75,0,0,1,2.58-.44l.44-.06c1.52-.2,2.78-.32,3.94-.38a20.12,20.12,0,0,1,7.2,1C91.5,24.07,90.91,24.4,90.32,24.75ZM96.63,157c3.34-10.58,3.51-20.45.54-30.16a74.25,74.25,0,0,0-14.72-26.08c-7.52-8.89-15.77-14.5-24.54-16.67a32.12,32.12,0,0,0-7.74-1q-1.34,0-2.67.12C50.05,81.64,52.57,80,55,78.4q1.84-1.22,3.72-2.41a20.19,20.19,0,0,1,6.62-3.16,26.54,26.54,0,0,1,8-.13,48,48,0,0,1,27.48,12.86c15.92,14.87,22.5,40.33,15.29,59.21-3.69,9.68-12.29,14.12-22.51,18.13A20.72,20.72,0,0,0,96.63,157Zm73.09-6.32a27.21,27.21,0,0,0,.26-6c0-.79,0-1.58,0-2.35l.23-38.31q.09-11.73.16-23.46a1,1,0,0,0,.56-.63.77.77,0,0,0,.25,0c2.83-.78,5.68-1.54,8.52-2.3,4.93-1.31,10-2.66,15-4.13-1.56,15.5-2.86,31.1-3.86,46.37l-.12,1.88c-.41,6.86-.8,13.35-5.95,18.43a66.89,66.89,0,0,1-5.9,5L177,146.56c-.47.38-.94.76-1.4,1.15a26.86,26.86,0,0,1-6.27,4.22A5.51,5.51,0,0,0,169.72,150.65Zm-54-136.28v0Z"/></g></g></svg>