<svg xmlns="http://www.w3.org/2000/svg" viewBox="0 0 556.04 556.04"><defs><style>.cls-1{fill:#fff;stroke-width:0.25px;}.cls-1,.cls-3{stroke:#000;stroke-miterlimit:10;}.cls-2{fill:#f90058;}.cls-3{fill:none;stroke-width:3px;}</style></defs><g id="Layer_2" data-name="Layer 2"><g id="Layer_1-2" data-name="Layer 1"><rect class="cls-1" x="0.12" y="0.13" width="555.79" height="555.79" rx="158.04"/><path id="color" class="cls-2" d="M342.34,370.8c-3.12,0-16.14-.13-19.68-8.78a4.28,4.28,0,0,1-.32-1.54c-.08-2.29.41-8.19,7.71-7.86a5.15,5.15,0,0,1,1.84.47c3.11,1.47,15.62,6.3,24.57-6,0,0,18.28-24.58-8.81-38.22a7.76,7.76,0,0,0-.84-.34,57.7,57.7,0,0,0-19.42-.46c-17.73,3.24-45.34,10.8-78.34,47.82l-.19.23c-14.56,14.46-37.69,44.32-63.93,65-.11.09-.23.14-.34.22-1.84,1.29-20.44,13.74-48,15.13a4.09,4.09,0,0,1-.7,0,6.79,6.79,0,0,1-6.45-6.45c-.34-3.53,2.42-5.69,4-6.66a4.94,4.94,0,0,1,2.12-.64,75,75,0,0,0,52.82-30.07s47.46-59.87,81.76-83.87l.43-.34c1.93-1.69,18.59-15.66,52.69-24,0,0,14.67-3.29,27.37-32.6.06-.13.1-.26.15-.38,1-2.87,12.83-37.07,21.76-47.72a4.93,4.93,0,0,0,1.12-3.08c.07-4.89-.43-17.75-7.19-21.19,0,0-9.72-4.39-9.91-9s4.71-6.87,8.46-5.09,16.2,12.14,19.35,24.09c0,0,1.15,2.77,1.6-1.78s7.79-21.29-3.37-45.08c0,0-2.42-8-11.77-14.29-2-1.32-1.3-12.57,7.94-7.62,0,0,11.7,6.64,18.63,30.51,0,0,9.16,26.94-3.42,48,0,0-6.55,1.23,28.37,4.79a4.85,4.85,0,0,1,3.69,2.24c1.19,2,1.13,5.21-6.89,8.6,0,0-7.38,3.62-29.39,1.49a4.82,4.82,0,0,0-2,.22c-2.36.76-7.66,3.31-9.9,11.06,0,0-5.47,19.35-9.41,35.08,0,0-7,22.87-12.33,25.54,0,0-2.22,1.4,1.63,2.77a5.07,5.07,0,0,1,1.06.48c3.09,1.9,20.64,10.47,20.83,29.61C379.64,321.11,382.71,370.49,342.34,370.8Z"/><path id="strok" class="cls-3" d="M342.34,370.81c-3.12,0-16.14-.13-19.68-8.78a4.33,4.33,0,0,1-.32-1.54c-.08-2.3.41-8.2,7.71-7.87a5.15,5.15,0,0,1,1.84.47c3.11,1.48,15.62,6.31,24.57-6,0,0,18.28-24.58-8.81-38.22a6.1,6.1,0,0,0-.84-.33,57.16,57.16,0,0,0-19.42-.46c-17.73,3.23-45.34,10.8-78.34,47.81a2.33,2.33,0,0,1-.19.23c-14.56,14.46-37.69,44.33-63.93,65-.11.08-.23.14-.34.21-1.84,1.29-20.44,13.74-48,15.14a4.09,4.09,0,0,1-.7,0,6.8,6.8,0,0,1-6.45-6.46c-.34-3.53,2.42-5.68,4-6.65a5.09,5.09,0,0,1,2.12-.65,74.94,74.94,0,0,0,52.82-30.07s47.46-59.86,81.76-83.87a4.46,4.46,0,0,0,.43-.33c1.93-1.7,18.59-15.67,52.69-24,0,0,14.67-3.29,27.37-32.6.06-.13.1-.26.15-.39,1-2.87,12.83-37.07,21.76-47.71a5,5,0,0,0,1.12-3.08c.07-4.89-.43-17.75-7.19-21.2,0,0-9.72-4.39-9.91-9s4.71-6.86,8.46-5.08,16.2,12.13,19.35,24.09c0,0,1.15,2.76,1.6-1.78s7.79-21.29-3.37-45.09c0,0-2.42-8-11.77-14.28-2-1.32-1.3-12.57,7.94-7.63,0,0,11.7,6.65,18.63,30.51,0,0,9.16,26.95-3.42,48.06,0,0-6.55,1.23,28.37,4.79a4.8,4.8,0,0,1,3.69,2.24c1.19,2,1.13,5.2-6.89,8.6,0,0-7.38,3.62-29.39,1.49a5,5,0,0,0-2,.21c-2.36.77-7.66,3.32-9.9,11.06,0,0-5.47,19.36-9.41,35.09,0,0-7,22.86-12.33,25.54,0,0-2.22,1.4,1.63,2.76a5.1,5.1,0,0,1,1.06.49c3.09,1.9,20.64,10.47,20.83,29.6C379.64,321.11,382.71,370.5,342.34,370.81Z"/></g></g></svg>