<svg xmlns="http://www.w3.org/2000/svg" viewBox="0 0 1553.09 813.81"><defs><style>.cls-1{fill:#62ff69;}.cls-1,.cls-2,.cls-3,.cls-4{stroke:#000;stroke-miterlimit:10;}.cls-2{fill:#e8ff9f;}.cls-3{fill:#ff5365;}.cls-4{fill:#fff;}</style></defs><g id="Layer_2" data-name="Layer 2"><g id="Layer_1-2" data-name="Layer 1"><rect class="cls-1" x="606.5" y="654.31" width="10" height="10" rx="5"/><rect class="cls-1" x="897.5" y="524.31" width="10" height="10" rx="5"/><rect class="cls-2" x="1088.24" y="268.64" width="10" height="10" rx="5"/><rect class="cls-2" x="783.5" y="355.31" width="10" height="10" rx="5"/><rect class="cls-2" x="1358.86" y="588.91" width="10" height="10" rx="5"/><rect class="cls-2" x="753.07" y="713.05" width="10" height="10" rx="5"/><rect class="cls-3" x="611.5" y="355.31" width="10" height="10" rx="5"/><rect class="cls-1" x="1224.5" y="534.31" width="10" height="10" rx="5"/><rect class="cls-4" x="1281.9" y="350.57" width="10" height="10" rx="5"/><rect class="cls-4" x="1542.59" y="497.05" width="10" height="10" rx="5"/><rect class="cls-3" x="1021.21" y="698.16" width="10" height="10" rx="5"/><rect class="cls-2" x="561.5" y="34.31" width="10" height="10" rx="5"/><rect class="cls-3" x="0.5" y="677.31" width="10" height="10" rx="5"/><rect class="cls-2" x="1234.72" y="0.5" width="10" height="10" rx="5"/><rect class="cls-1" x="100.5" y="217.31" width="10" height="10" rx="5"/><rect class="cls-3" x="363.5" y="764.31" width="10" height="10" rx="5"/><rect class="cls-3" x="1408.5" y="803.31" width="10" height="10" rx="5"/><rect class="cls-3" x="1507.5" y="184.31" width="10" height="10" rx="5"/><rect class="cls-1" x="393.5" y="140.31" width="10" height="10" rx="5"/><rect class="cls-4" x="442.5" y="492.31" width="10" height="10" rx="5"/><rect class="cls-3" x="847.5" y="39.31" width="10" height="10" rx="5"/><rect class="cls-2" x="201.5" y="497.31" width="10" height="10" rx="5"/><rect class="cls-2" x="421.5" y="298.31" width="10" height="10" rx="5"/><rect class="cls-1" x="767.5" y="189.31" width="10" height="10" rx="5"/></g></g></svg>