<svg xmlns="http://www.w3.org/2000/svg" viewBox="0 0 1171.91 777.69"><defs><style>.cls-1{fill:#62ff69;}.cls-1,.cls-2,.cls-3,.cls-4{stroke:#000;stroke-miterlimit:10;}.cls-2{fill:#e8ff9f;}.cls-3{fill:#ff5365;}.cls-4{fill:#fff;}</style></defs><g id="Layer_2" data-name="Layer 2"><g id="Layer_1-2" data-name="Layer 1"><rect class="cls-1" x="688.52" y="316.32" width="4.14" height="4.14" rx="2.07"/><rect class="cls-1" x="809.06" y="262.48" width="4.14" height="4.14" rx="2.07"/><rect class="cls-2" x="979.07" y="175.57" width="4.14" height="4.14" rx="2.07"/><rect class="cls-2" x="761.84" y="192.47" width="4.14" height="4.14" rx="2.07"/><rect class="cls-2" x="1091.17" y="308.24" width="4.14" height="4.14" rx="2.07"/><rect class="cls-2" x="749.23" y="340.66" width="4.14" height="4.14" rx="2.07"/><rect class="cls-3" x="690.59" y="192.47" width="4.14" height="4.14" rx="2.07"/><rect class="cls-1" x="1035.51" y="285.62" width="4.14" height="4.14" rx="2.07"/><rect class="cls-4" x="1059.29" y="209.51" width="4.14" height="4.14" rx="2.07"/><rect class="cls-4" x="1167.27" y="270.18" width="4.14" height="4.14" rx="2.07"/><rect class="cls-3" x="951.3" y="353.49" width="4.14" height="4.14" rx="2.07"/><rect class="cls-2" x="669.88" y="59.51" width="4.14" height="4.14" rx="2.07"/><rect class="cls-3" x="437.5" y="325.85" width="4.14" height="4.14" rx="2.07"/><rect class="cls-2" x="948.75" y="45.5" width="4.14" height="4.14" rx="2.07"/><rect class="cls-1" x="478.92" y="135.31" width="4.14" height="4.14" rx="2.07"/><rect class="cls-3" x="587.86" y="361.89" width="4.14" height="4.14" rx="2.07"/><rect class="cls-3" x="1111.73" y="397.04" width="4.14" height="4.14" rx="2.07"/><rect class="cls-3" x="1152.74" y="140.64" width="4.14" height="4.14" rx="2.07"/><rect class="cls-1" x="600.29" y="103.41" width="4.14" height="4.14" rx="2.07"/><rect class="cls-4" x="620.59" y="249.22" width="4.14" height="4.14" rx="2.07"/><rect class="cls-1" x="2.52" y="501.32" width="4.14" height="4.14" rx="2.07"/><rect class="cls-1" x="123.06" y="447.48" width="4.14" height="4.14" rx="2.07"/><rect class="cls-2" x="75.84" y="377.47" width="4.14" height="4.14" rx="2.07"/><rect class="cls-2" x="63.23" y="525.66" width="4.14" height="4.14" rx="2.07"/><rect class="cls-3" x="4.59" y="377.47" width="4.14" height="4.14" rx="2.07"/><rect class="cls-4" x="1116.59" y="495.22" width="4.14" height="4.14" rx="2.07"/><rect class="cls-3" x="788.35" y="61.58" width="4.14" height="4.14" rx="2.07"/><rect class="cls-2" x="520.76" y="251.29" width="4.14" height="4.14" rx="2.07"/><rect class="cls-2" x="611.89" y="168.86" width="4.14" height="4.14" rx="2.07"/><rect class="cls-1" x="755.21" y="123.71" width="4.14" height="4.14" rx="2.07"/><rect class="cls-1" x="924.06" y="233.48" width="4.14" height="4.14" rx="2.07"/><rect class="cls-2" x="876.84" y="163.47" width="4.14" height="4.14" rx="2.07"/><rect class="cls-3" x="903.35" y="32.58" width="4.14" height="4.14" rx="2.07"/><rect class="cls-1" x="870.21" y="94.71" width="4.14" height="4.14" rx="2.07"/><rect class="cls-1" x="695.52" y="711.32" width="4.14" height="4.14" rx="2.07"/><rect class="cls-1" x="816.06" y="657.48" width="4.14" height="4.14" rx="2.07"/><rect class="cls-2" x="895.07" y="551.57" width="4.14" height="4.14" rx="2.07"/><rect class="cls-2" x="768.84" y="587.47" width="4.14" height="4.14" rx="2.07"/><rect class="cls-2" x="1007.17" y="684.24" width="4.14" height="4.14" rx="2.07"/><rect class="cls-2" x="756.23" y="735.66" width="4.14" height="4.14" rx="2.07"/><rect class="cls-3" x="697.59" y="587.47" width="4.14" height="4.14" rx="2.07"/><rect class="cls-1" x="951.51" y="661.62" width="4.14" height="4.14" rx="2.07"/><rect class="cls-4" x="975.29" y="585.51" width="4.14" height="4.14" rx="2.07"/><rect class="cls-4" x="1083.27" y="646.18" width="4.14" height="4.14" rx="2.07"/><rect class="cls-3" x="867.3" y="729.49" width="4.14" height="4.14" rx="2.07"/><rect class="cls-2" x="676.88" y="454.51" width="4.14" height="4.14" rx="2.07"/><rect class="cls-3" x="444.5" y="720.85" width="4.14" height="4.14" rx="2.07"/><rect class="cls-2" x="955.75" y="440.5" width="4.14" height="4.14" rx="2.07"/><rect class="cls-1" x="485.92" y="530.31" width="4.14" height="4.14" rx="2.07"/><rect class="cls-3" x="594.86" y="756.89" width="4.14" height="4.14" rx="2.07"/><rect class="cls-3" x="1027.73" y="773.04" width="4.14" height="4.14" rx="2.07"/><rect class="cls-3" x="1068.74" y="516.64" width="4.14" height="4.14" rx="2.07"/><rect class="cls-3" x="493.3" y="495.49" width="4.14" height="4.14" rx="2.07"/><rect class="cls-3" x="653.73" y="539.04" width="4.14" height="4.14" rx="2.07"/><rect class="cls-2" x="437.07" y="693.57" width="4.14" height="4.14" rx="2.07"/><rect class="cls-4" x="517.29" y="727.51" width="4.14" height="4.14" rx="2.07"/><rect class="cls-2" x="497.75" y="582.5" width="4.14" height="4.14" rx="2.07"/><rect class="cls-3" x="610.74" y="658.64" width="4.14" height="4.14" rx="2.07"/><rect class="cls-1" x="607.29" y="498.41" width="4.14" height="4.14" rx="2.07"/><rect class="cls-4" x="627.59" y="644.22" width="4.14" height="4.14" rx="2.07"/><rect class="cls-3" x="795.35" y="456.58" width="4.14" height="4.14" rx="2.07"/><rect class="cls-2" x="527.76" y="646.29" width="4.14" height="4.14" rx="2.07"/><rect class="cls-2" x="618.89" y="563.86" width="4.14" height="4.14" rx="2.07"/><rect class="cls-1" x="762.21" y="518.71" width="4.14" height="4.14" rx="2.07"/><rect class="cls-1" x="251.52" y="271.32" width="4.14" height="4.14" rx="2.07"/><rect class="cls-1" x="372.06" y="217.48" width="4.14" height="4.14" rx="2.07"/><rect class="cls-2" x="451.07" y="111.57" width="4.14" height="4.14" rx="2.07"/><rect class="cls-2" x="324.84" y="147.47" width="4.14" height="4.14" rx="2.07"/><rect class="cls-2" x="563.17" y="244.24" width="4.14" height="4.14" rx="2.07"/><rect class="cls-2" x="312.23" y="295.66" width="4.14" height="4.14" rx="2.07"/><rect class="cls-3" x="253.59" y="147.47" width="4.14" height="4.14" rx="2.07"/><rect class="cls-1" x="507.51" y="221.62" width="4.14" height="4.14" rx="2.07"/><rect class="cls-4" x="531.29" y="145.51" width="4.14" height="4.14" rx="2.07"/><rect class="cls-4" x="639.27" y="206.18" width="4.14" height="4.14" rx="2.07"/><rect class="cls-3" x="423.3" y="289.49" width="4.14" height="4.14" rx="2.07"/><rect class="cls-2" x="232.88" y="14.51" width="4.14" height="4.14" rx="2.07"/><rect class="cls-3" x="0.5" y="280.85" width="4.14" height="4.14" rx="2.07"/><rect class="cls-2" x="511.75" y="0.5" width="4.14" height="4.14" rx="2.07"/><rect class="cls-1" x="41.92" y="90.31" width="4.14" height="4.14" rx="2.07"/><rect class="cls-3" x="150.86" y="316.89" width="4.14" height="4.14" rx="2.07"/><rect class="cls-3" x="583.73" y="333.04" width="4.14" height="4.14" rx="2.07"/><rect class="cls-3" x="624.74" y="76.64" width="4.14" height="4.14" rx="2.07"/><rect class="cls-2" x="1136.07" y="596.57" width="4.14" height="4.14" rx="2.07"/><rect class="cls-2" x="112.17" y="636.24" width="4.14" height="4.14" rx="2.07"/><rect class="cls-1" x="56.51" y="613.62" width="4.14" height="4.14" rx="2.07"/><rect class="cls-4" x="80.29" y="537.51" width="4.14" height="4.14" rx="2.07"/><rect class="cls-4" x="188.27" y="598.18" width="4.14" height="4.14" rx="2.07"/><rect class="cls-3" x="132.73" y="725.04" width="4.14" height="4.14" rx="2.07"/><rect class="cls-3" x="173.74" y="468.64" width="4.14" height="4.14" rx="2.07"/><rect class="cls-1" x="163.29" y="58.41" width="4.14" height="4.14" rx="2.07"/><rect class="cls-4" x="183.59" y="204.22" width="4.14" height="4.14" rx="2.07"/><rect class="cls-3" x="351.35" y="16.58" width="4.14" height="4.14" rx="2.07"/><rect class="cls-2" x="83.76" y="206.29" width="4.14" height="4.14" rx="2.07"/><rect class="cls-4" x="190.27" y="380.18" width="4.14" height="4.14" rx="2.07"/><rect class="cls-1" x="456.52" y="442.32" width="4.14" height="4.14" rx="2.07"/><rect class="cls-1" x="577.06" y="388.48" width="4.14" height="4.14" rx="2.07"/><rect class="cls-2" x="529.84" y="318.47" width="4.14" height="4.14" rx="2.07"/><rect class="cls-2" x="517.23" y="466.66" width="4.14" height="4.14" rx="2.07"/><rect class="cls-3" x="458.59" y="318.47" width="4.14" height="4.14" rx="2.07"/><rect class="cls-3" x="205.5" y="451.85" width="4.14" height="4.14" rx="2.07"/><rect class="cls-3" x="355.86" y="487.89" width="4.14" height="4.14" rx="2.07"/><rect class="cls-2" x="205.07" y="674.57" width="4.14" height="4.14" rx="2.07"/><rect class="cls-4" x="285.29" y="708.51" width="4.14" height="4.14" rx="2.07"/><rect class="cls-3" x="378.74" y="639.64" width="4.14" height="4.14" rx="2.07"/><rect class="cls-4" x="388.59" y="375.22" width="4.14" height="4.14" rx="2.07"/><rect class="cls-1" x="934.06" y="387.48" width="4.14" height="4.14" rx="2.07"/><rect class="cls-2" x="1125.17" y="414.24" width="4.14" height="4.14" rx="2.07"/><rect class="cls-1" x="1069.51" y="391.62" width="4.14" height="4.14" rx="2.07"/><rect class="cls-4" x="1093.29" y="315.51" width="4.14" height="4.14" rx="2.07"/><rect class="cls-3" x="985.3" y="459.49" width="4.14" height="4.14" rx="2.07"/><rect class="cls-2" x="1091.84" y="488.47" width="4.14" height="4.14" rx="2.07"/><rect class="cls-3" x="1020.59" y="488.47" width="4.14" height="4.14" rx="2.07"/><rect class="cls-4" x="950.59" y="545.22" width="4.14" height="4.14" rx="2.07"/><rect class="cls-2" x="204.23" y="543.66" width="4.14" height="4.14" rx="2.07"/><rect class="cls-1" x="839.06" y="409.48" width="4.14" height="4.14" rx="2.07"/><rect class="cls-2" x="791.84" y="339.47" width="4.14" height="4.14" rx="2.07"/><rect class="cls-2" x="779.23" y="487.66" width="4.14" height="4.14" rx="2.07"/><rect class="cls-3" x="866.86" y="278.89" width="4.14" height="4.14" rx="2.07"/><rect class="cls-4" x="796.29" y="499.51" width="4.14" height="4.14" rx="2.07"/><rect class="cls-3" x="889.74" y="430.64" width="4.14" height="4.14" rx="2.07"/><rect class="cls-4" x="906.27" y="342.18" width="4.14" height="4.14" rx="2.07"/><rect class="cls-3" x="921.5" y="413.85" width="4.14" height="4.14" rx="2.07"/><rect class="cls-2" x="920.23" y="505.66" width="4.14" height="4.14" rx="2.07"/><rect class="cls-3" x="315.3" y="537.49" width="4.14" height="4.14" rx="2.07"/><rect class="cls-3" x="350.59" y="566.47" width="4.14" height="4.14" rx="2.07"/><rect class="cls-4" x="280.59" y="623.22" width="4.14" height="4.14" rx="2.07"/><rect class="cls-2" x="288.76" y="377.29" width="4.14" height="4.14" rx="2.07"/><rect class="cls-2" x="174.89" y="123.86" width="4.14" height="4.14" rx="2.07"/><rect class="cls-1" x="318.21" y="78.71" width="4.14" height="4.14" rx="2.07"/></g></g></svg>