<svg xmlns="http://www.w3.org/2000/svg" viewBox="0 0 1403.37 761.07"><defs><style>.cls-1{fill:#62ff69;}.cls-1,.cls-2,.cls-3,.cls-4{stroke:#000;stroke-miterlimit:10;}.cls-2{fill:#e8ff9f;}.cls-3{fill:#ff5365;}.cls-4{fill:#fff;}</style></defs><g id="Layer_2" data-name="Layer 2"><g id="Layer_1-2" data-name="Layer 1"><rect class="cls-1" x="251.52" y="284.25" width="4.14" height="4.14" rx="2.07"/><rect class="cls-1" x="372.06" y="230.4" width="4.14" height="4.14" rx="2.07"/><rect class="cls-2" x="542.07" y="143.49" width="4.14" height="4.14" rx="2.07"/><rect class="cls-2" x="324.84" y="160.4" width="4.14" height="4.14" rx="2.07"/><rect class="cls-2" x="654.17" y="276.16" width="4.14" height="4.14" rx="2.07"/><rect class="cls-2" x="312.23" y="308.58" width="4.14" height="4.14" rx="2.07"/><rect class="cls-3" x="253.59" y="160.4" width="4.14" height="4.14" rx="2.07"/><rect class="cls-1" x="598.51" y="253.54" width="4.14" height="4.14" rx="2.07"/><rect class="cls-4" x="622.29" y="177.43" width="4.14" height="4.14" rx="2.07"/><rect class="cls-4" x="730.27" y="238.11" width="4.14" height="4.14" rx="2.07"/><rect class="cls-3" x="514.3" y="321.41" width="4.14" height="4.14" rx="2.07"/><rect class="cls-2" x="232.88" y="27.43" width="4.14" height="4.14" rx="2.07"/><rect class="cls-3" x="0.5" y="293.78" width="4.14" height="4.14" rx="2.07"/><rect class="cls-2" x="511.75" y="13.42" width="4.14" height="4.14" rx="2.07"/><rect class="cls-1" x="41.92" y="103.23" width="4.14" height="4.14" rx="2.07"/><rect class="cls-3" x="150.86" y="329.81" width="4.14" height="4.14" rx="2.07"/><rect class="cls-3" x="674.73" y="364.97" width="4.14" height="4.14" rx="2.07"/><rect class="cls-3" x="715.74" y="108.56" width="4.14" height="4.14" rx="2.07"/><rect class="cls-1" x="163.29" y="71.34" width="4.14" height="4.14" rx="2.07"/><rect class="cls-4" x="183.59" y="217.14" width="4.14" height="4.14" rx="2.07"/><rect class="cls-1" x="747.52" y="530.25" width="4.14" height="4.14" rx="2.07"/><rect class="cls-1" x="868.06" y="476.4" width="4.14" height="4.14" rx="2.07"/><rect class="cls-2" x="820.84" y="406.4" width="4.14" height="4.14" rx="2.07"/><rect class="cls-2" x="808.23" y="554.58" width="4.14" height="4.14" rx="2.07"/><rect class="cls-3" x="749.59" y="406.4" width="4.14" height="4.14" rx="2.07"/><rect class="cls-4" x="679.59" y="463.14" width="4.14" height="4.14" rx="2.07"/><rect class="cls-3" x="351.35" y="29.5" width="4.14" height="4.14" rx="2.07"/><rect class="cls-2" x="83.76" y="219.22" width="4.14" height="4.14" rx="2.07"/><rect class="cls-2" x="174.89" y="136.78" width="4.14" height="4.14" rx="2.07"/><rect class="cls-1" x="318.21" y="91.63" width="4.14" height="4.14" rx="2.07"/><rect class="cls-1" x="487.06" y="201.4" width="4.14" height="4.14" rx="2.07"/><rect class="cls-2" x="439.84" y="131.4" width="4.14" height="4.14" rx="2.07"/><rect class="cls-3" x="466.35" y="0.5" width="4.14" height="4.14" rx="2.07"/><rect class="cls-1" x="433.21" y="62.63" width="4.14" height="4.14" rx="2.07"/><rect class="cls-1" x="258.52" y="679.25" width="4.14" height="4.14" rx="2.07"/><rect class="cls-1" x="379.06" y="625.4" width="4.14" height="4.14" rx="2.07"/><rect class="cls-2" x="458.07" y="519.49" width="4.14" height="4.14" rx="2.07"/><rect class="cls-2" x="331.84" y="555.4" width="4.14" height="4.14" rx="2.07"/><rect class="cls-2" x="570.17" y="652.16" width="4.14" height="4.14" rx="2.07"/><rect class="cls-2" x="319.23" y="703.58" width="4.14" height="4.14" rx="2.07"/><rect class="cls-3" x="260.59" y="555.4" width="4.14" height="4.14" rx="2.07"/><rect class="cls-1" x="514.51" y="629.54" width="4.14" height="4.14" rx="2.07"/><rect class="cls-4" x="538.29" y="553.43" width="4.14" height="4.14" rx="2.07"/><rect class="cls-4" x="646.27" y="614.11" width="4.14" height="4.14" rx="2.07"/><rect class="cls-3" x="430.3" y="697.41" width="4.14" height="4.14" rx="2.07"/><rect class="cls-2" x="239.88" y="422.43" width="4.14" height="4.14" rx="2.07"/><rect class="cls-3" x="7.5" y="688.78" width="4.14" height="4.14" rx="2.07"/><rect class="cls-2" x="518.75" y="408.42" width="4.14" height="4.14" rx="2.07"/><rect class="cls-1" x="48.92" y="498.23" width="4.14" height="4.14" rx="2.07"/><rect class="cls-3" x="157.86" y="724.81" width="4.14" height="4.14" rx="2.07"/><rect class="cls-3" x="590.73" y="740.97" width="4.14" height="4.14" rx="2.07"/><rect class="cls-3" x="631.74" y="484.56" width="4.14" height="4.14" rx="2.07"/><rect class="cls-3" x="1238.3" y="524.41" width="4.14" height="4.14" rx="2.07"/><rect class="cls-3" x="1398.73" y="567.97" width="4.14" height="4.14" rx="2.07"/><rect class="cls-2" x="1182.07" y="722.49" width="4.14" height="4.14" rx="2.07"/><rect class="cls-4" x="1262.29" y="756.43" width="4.14" height="4.14" rx="2.07"/><rect class="cls-2" x="1242.75" y="611.42" width="4.14" height="4.14" rx="2.07"/><rect class="cls-3" x="1355.74" y="687.56" width="4.14" height="4.14" rx="2.07"/><rect class="cls-1" x="170.29" y="466.34" width="4.14" height="4.14" rx="2.07"/><rect class="cls-4" x="190.59" y="612.14" width="4.14" height="4.14" rx="2.07"/><rect class="cls-3" x="358.35" y="424.5" width="4.14" height="4.14" rx="2.07"/><rect class="cls-2" x="90.76" y="614.22" width="4.14" height="4.14" rx="2.07"/><rect class="cls-2" x="181.89" y="531.78" width="4.14" height="4.14" rx="2.07"/><rect class="cls-1" x="325.21" y="486.63" width="4.14" height="4.14" rx="2.07"/><rect class="cls-1" x="996.52" y="300.25" width="4.14" height="4.14" rx="2.07"/><rect class="cls-1" x="1117.06" y="246.4" width="4.14" height="4.14" rx="2.07"/><rect class="cls-2" x="1196.07" y="140.49" width="4.14" height="4.14" rx="2.07"/><rect class="cls-2" x="1069.84" y="176.4" width="4.14" height="4.14" rx="2.07"/><rect class="cls-2" x="1308.17" y="273.16" width="4.14" height="4.14" rx="2.07"/><rect class="cls-2" x="1057.23" y="324.58" width="4.14" height="4.14" rx="2.07"/><rect class="cls-3" x="998.59" y="176.4" width="4.14" height="4.14" rx="2.07"/><rect class="cls-1" x="1252.51" y="250.54" width="4.14" height="4.14" rx="2.07"/><rect class="cls-4" x="1276.29" y="174.43" width="4.14" height="4.14" rx="2.07"/><rect class="cls-4" x="1384.27" y="235.11" width="4.14" height="4.14" rx="2.07"/><rect class="cls-3" x="1168.3" y="318.41" width="4.14" height="4.14" rx="2.07"/><rect class="cls-2" x="977.88" y="43.43" width="4.14" height="4.14" rx="2.07"/><rect class="cls-3" x="745.5" y="309.78" width="4.14" height="4.14" rx="2.07"/><rect class="cls-2" x="1256.75" y="29.42" width="4.14" height="4.14" rx="2.07"/><rect class="cls-1" x="786.92" y="119.23" width="4.14" height="4.14" rx="2.07"/><rect class="cls-3" x="895.86" y="345.81" width="4.14" height="4.14" rx="2.07"/><rect class="cls-3" x="1328.73" y="361.97" width="4.14" height="4.14" rx="2.07"/><rect class="cls-3" x="1369.74" y="105.56" width="4.14" height="4.14" rx="2.07"/><rect class="cls-2" x="699.07" y="564.49" width="4.14" height="4.14" rx="2.07"/><rect class="cls-2" x="857.17" y="665.16" width="4.14" height="4.14" rx="2.07"/><rect class="cls-1" x="801.51" y="642.54" width="4.14" height="4.14" rx="2.07"/><rect class="cls-4" x="825.29" y="566.43" width="4.14" height="4.14" rx="2.07"/><rect class="cls-4" x="933.27" y="627.11" width="4.14" height="4.14" rx="2.07"/><rect class="cls-3" x="877.73" y="753.97" width="4.14" height="4.14" rx="2.07"/><rect class="cls-3" x="918.74" y="497.56" width="4.14" height="4.14" rx="2.07"/><rect class="cls-1" x="908.29" y="87.34" width="4.14" height="4.14" rx="2.07"/><rect class="cls-4" x="928.59" y="233.14" width="4.14" height="4.14" rx="2.07"/><rect class="cls-3" x="1096.35" y="45.5" width="4.14" height="4.14" rx="2.07"/><rect class="cls-2" x="828.76" y="235.22" width="4.14" height="4.14" rx="2.07"/><rect class="cls-4" x="935.27" y="409.11" width="4.14" height="4.14" rx="2.07"/><rect class="cls-1" x="1201.52" y="471.25" width="4.14" height="4.14" rx="2.07"/><rect class="cls-1" x="1322.06" y="417.4" width="4.14" height="4.14" rx="2.07"/><rect class="cls-2" x="1274.84" y="347.4" width="4.14" height="4.14" rx="2.07"/><rect class="cls-2" x="1262.23" y="495.58" width="4.14" height="4.14" rx="2.07"/><rect class="cls-3" x="1203.59" y="347.4" width="4.14" height="4.14" rx="2.07"/><rect class="cls-3" x="950.5" y="480.78" width="4.14" height="4.14" rx="2.07"/><rect class="cls-3" x="1100.86" y="516.81" width="4.14" height="4.14" rx="2.07"/><rect class="cls-2" x="950.07" y="703.49" width="4.14" height="4.14" rx="2.07"/><rect class="cls-4" x="1030.29" y="737.43" width="4.14" height="4.14" rx="2.07"/><rect class="cls-3" x="1123.74" y="668.56" width="4.14" height="4.14" rx="2.07"/><rect class="cls-4" x="1133.59" y="404.14" width="4.14" height="4.14" rx="2.07"/><rect class="cls-1" x="497.06" y="355.4" width="4.14" height="4.14" rx="2.07"/><rect class="cls-2" x="688.17" y="382.16" width="4.14" height="4.14" rx="2.07"/><rect class="cls-1" x="632.51" y="359.54" width="4.14" height="4.14" rx="2.07"/><rect class="cls-4" x="656.29" y="283.43" width="4.14" height="4.14" rx="2.07"/><rect class="cls-3" x="548.3" y="427.41" width="4.14" height="4.14" rx="2.07"/><rect class="cls-2" x="654.84" y="456.4" width="4.14" height="4.14" rx="2.07"/><rect class="cls-3" x="583.59" y="456.4" width="4.14" height="4.14" rx="2.07"/><rect class="cls-4" x="513.59" y="513.14" width="4.14" height="4.14" rx="2.07"/><rect class="cls-2" x="949.23" y="572.58" width="4.14" height="4.14" rx="2.07"/><rect class="cls-1" x="402.06" y="377.4" width="4.14" height="4.14" rx="2.07"/><rect class="cls-2" x="354.84" y="307.4" width="4.14" height="4.14" rx="2.07"/><rect class="cls-2" x="342.23" y="455.58" width="4.14" height="4.14" rx="2.07"/><rect class="cls-3" x="429.86" y="246.81" width="4.14" height="4.14" rx="2.07"/><rect class="cls-4" x="359.29" y="467.43" width="4.14" height="4.14" rx="2.07"/><rect class="cls-3" x="452.74" y="398.56" width="4.14" height="4.14" rx="2.07"/><rect class="cls-4" x="469.27" y="310.11" width="4.14" height="4.14" rx="2.07"/><rect class="cls-3" x="484.5" y="381.78" width="4.14" height="4.14" rx="2.07"/><rect class="cls-2" x="483.23" y="473.58" width="4.14" height="4.14" rx="2.07"/><rect class="cls-3" x="1060.3" y="566.41" width="4.14" height="4.14" rx="2.07"/><rect class="cls-3" x="1095.59" y="595.4" width="4.14" height="4.14" rx="2.07"/><rect class="cls-4" x="1025.59" y="652.14" width="4.14" height="4.14" rx="2.07"/><rect class="cls-2" x="1033.76" y="406.22" width="4.14" height="4.14" rx="2.07"/><rect class="cls-2" x="919.89" y="152.78" width="4.14" height="4.14" rx="2.07"/><rect class="cls-1" x="1063.21" y="107.63" width="4.14" height="4.14" rx="2.07"/></g></g></svg>