<svg xmlns="http://www.w3.org/2000/svg" viewBox="0 0 262.81 263.09"><defs><style>.cls-1{fill:#fefefe;}.cls-2{fill:#b4d4ea;}.cls-3{fill:#c0b3da;}.cls-4{fill:#fac071;}.cls-5{fill:#acdca8;}.cls-6{fill:#fdf573;}.cls-7{fill:#f89492;}.cls-8{fill:#e5b1d8;}.cls-9{fill:#dcee7b;}.cls-10{fill:#fac070;}.cls-11{fill:#abdba7;}.cls-12{fill:#f79391;}.cls-13{fill:#daed73;}.cls-14{fill:#fac275;}.cls-15{fill:#fdf46a;}.cls-16{fill:#f89a98;}.cls-17{fill:#fbd8d8;}.cls-18{fill:#8c98c9;}.cls-19{fill:#81b99c;}.cls-20{fill:#add0e8;}.cls-21{fill:#af82bb;}.cls-22{fill:#f9ba46;}.cls-23{fill:#f47851;}.cls-24{fill:#98ce5d;}.cls-25{fill:#dbe649;}.cls-26{fill:#fdf569;}.cls-27{fill:#e07180;}.cls-28{fill:#f89798;}.cls-29{fill:#8273ad;}.cls-30{fill:#81989d;}.cls-31{fill:#b5d4e9;}.cls-32{fill:#bbb1d8;}.cls-33{fill:#74af59;}.cls-34{fill:#aedca7;}.cls-35{fill:#af7180;}.cls-36{fill:#e4afd6;}.cls-37{fill:#af799a;}.cls-38{fill:#d8b03a;}.cls-39{fill:#f47746;}.cls-40{fill:#fabf6f;}.cls-41{fill:#f9f36e;}.cls-42{fill:#dd5e4b;}.cls-43{fill:#f89693;}.cls-44{fill:#98ce49;}.cls-45{fill:#dbed7b;}</style></defs><g id="Layer_2" data-name="Layer 2"><g id="Layer_1-2" data-name="Layer 1"><path class="cls-1" d="M255.5,29.76a56.73,56.73,0,0,1,6.05,18.44,67.16,67.16,0,0,1,1.22,14.08q0,70.05,0,140.11c0,5.15.21,10.29-.52,15.4-.34,2.38-1.18,4.64-1.71,7a47.73,47.73,0,0,1-11,18.48,32.58,32.58,0,0,1-4.55,4.47,47.49,47.49,0,0,1-12.94,8.53,79.29,79.29,0,0,1-16.56,5.5C211.4,263,207.12,263,202.9,263q-73.65.09-147.32,0c-12.12,0-23.28-3.39-33-10.86a89.76,89.76,0,0,1-9-9A35.81,35.81,0,0,1,8,234.28c-1.28-3.54-2.84-7-4-10.55-1.87-4.33-2.45-9-3.05-13.56A118.9,118.9,0,0,1,0,194.72Q0,125.54,0,56.34a43.39,43.39,0,0,1,4-18.1c1-2,1.55-4.19,2.79-6.07A38.57,38.57,0,0,1,8.5,28.7l0,0q1.27-2,2.54-4h0a9.27,9.27,0,0,0,2-3A56.15,56.15,0,0,1,43.1,2.36,70.21,70.21,0,0,1,63.12,0c11,.29,22,.16,33,.17Q148.56.25,201,.2c13.09,0,25.38,2.9,36.52,10,2.07,1.43,3.83,3.28,6.06,4.5a42.56,42.56,0,0,1,7.45,8A79.38,79.38,0,0,1,255.5,29.76Z"/><path class="cls-2" d="M168.81,215.5c-1.47,2-1.45,4.56-2.25,6.82-3.51,9.93-9.18,18.17-19.45,21.74-14.08,4.89-27.64,3.59-39.6-6-5.74-4.58-8.59-11.12-10.25-18.16-.2-.88-.19-1.86-1.08-2.43-.36-.75.2-1.07.66-1.44,5.83-6,12.29-11.4,18.23-17.33,4.6-4.58,9-9.37,13.48-14a16.67,16.67,0,0,0,2.63-3.62,3.5,3.5,0,0,1,2.9-2.07c1,0,1.42.79,1.91,1.43,4.53,5.95,10.07,11,15.32,16.25,5,5,10.07,9.86,15,14.85.77.77,1.15,1.83,2,2.5C168.72,214.45,169.3,214.81,168.81,215.5Z"/><path class="cls-3" d="M97,216.7l-.86.8c-10.4,6.41-21.6,9.23-33,4C49.69,215.23,41,204.6,39.27,189.37c-.91-8.21,2.18-15.51,6.82-22.19,0-1,.43-1.43,1.44-1.22,14.6,1,29.22.31,43.83.48,2.18,0,4.44-1.15,6.53.37.77.87.47,1.92.37,2.87-.85,7.52-.38,15.07-.46,22.61-.07,6.72,0,13.43,0,20.15A9,9,0,0,1,97,216.7Z"/><path class="cls-4" d="M97,50.33c1.39-8.51,4.49-16.22,10.51-22.57A7.86,7.86,0,0,1,110,25.7c2.85-.56,4.68-3.07,7.41-3.87a57.19,57.19,0,0,1,10.13-2.46,52.27,52.27,0,0,1,12.52.26c9.74,1.36,18,5.43,23.11,14.49a38.31,38.31,0,0,1,4.55,13.28c.32,1.24-.39,2-1.24,2.75-10,9-19.46,18.54-28.9,28.1a32.61,32.61,0,0,0-4.41,6c-.6,1-1.15,2.06-2.52,2.16a3.06,3.06,0,0,1-2.29-1.73,52.57,52.57,0,0,0-7.3-8.46q-8.39-8.34-16.72-16.71a95.62,95.62,0,0,1-7.74-8.24A.88.88,0,0,1,97,50.33Z"/><path class="cls-5" d="M220.56,166.83c2.29,4.52,4.49,9,5.42,14.11,2.15,11.77-1.65,21.59-9.86,29.89-3.38,3.42-7,6.66-11.53,8.48a38.89,38.89,0,0,0-6.92,1.89c-5,1.67-10,1.32-14.88.37a32.69,32.69,0,0,1-11.73-5.29c-2.1-1.39-3.13-3-2.81-5.66,1.05-8.7.31-17.45.53-26.17.13-5.19-1.06-10.23-1.68-15.33a2.51,2.51,0,0,1,.52-2.28,4.24,4.24,0,0,1,3.55-.79c7,.8,14,.41,21,.39,8.4,0,16.81.43,25.21-.34.82-.07,1.65.21,2.48.14A1.17,1.17,0,0,1,220.56,166.83Z"/><path class="cls-6" d="M168.15,46.77a5.87,5.87,0,0,0,2.76-1.05c9.12-4.83,18.74-7.12,28.63-3.3,13.29,5.14,21.6,15.12,25.38,28.84a12.71,12.71,0,0,1,.18,2.48,15.78,15.78,0,0,0,0,7c-.29,5.87-2.72,10.92-6,15.65a1.11,1.11,0,0,1-.91,1c-4.39,0-8.78-.22-13.14-.54-6.64-.48-13.27-.3-19.9-.34a117.78,117.78,0,0,0-14.43.27,3.25,3.25,0,0,1-2.58-.63,3.17,3.17,0,0,1-.74-2.55c.82-15,.15-30,.36-45.08C167.83,47.93,167.59,47.27,168.15,46.77Z"/><path class="cls-7" d="M97,50.33l.09.85a7.18,7.18,0,0,1,1.13,5.35c-.84,8.22-.32,16.45-.42,24.67a84.32,84.32,0,0,0,.35,12.71A3.93,3.93,0,0,1,97.51,97a2.28,2.28,0,0,1-2.26.72c-5.15-1.27-10.43-.81-15.63-1-11-.36-22.08-.9-33.1.44-2,.42-3-.57-3.75-2.3a57.41,57.41,0,0,1-3.63-10.29A30.44,30.44,0,0,1,43,61.35c1.16-1.87,2.8-3.47,3.47-5.64A41.85,41.85,0,0,1,62.07,43.83a4.65,4.65,0,0,1,2.8-.82,7,7,0,0,0,3.17-.8l0,0a36.61,36.61,0,0,1,12.09,0l0,0c1.7.57,3.48.89,5.16,1.51,3.73.85,6.7,3.12,9.76,5.23Z"/><path class="cls-8" d="M46.93,166.26l-.84.92c-4.69-1.43-9.44-2.7-13.64-5.4-8.69-5.6-13.06-13.86-14.2-23.82a47,47,0,0,1,1.06-18.34c2.9-10.21,9.28-17.27,19-21.41,1.48-.63,3.32-.67,4.27-2.31,1-.56,1,.77,1.61.92a155.11,155.11,0,0,0,13.87,15.33c6.78,6.85,13.64,13.66,21,19.95a1.72,1.72,0,0,1,.75,1.48,3.3,3.3,0,0,1-1.24,3.08c-9.83,9-18.95,18.69-28.47,28C49.21,165.5,48.42,166.58,46.93,166.26Z"/><path class="cls-9" d="M218.49,96.77l.62-.35c3.19,1.39,6.47,2.59,9.54,4.19,8.69,4.55,14.36,11.56,16.62,21.19a19.74,19.74,0,0,1,.28,2.45c-1.27.39-.92-.79-1.25-1.24,1.54,5.3,1.27,15.37-.52,20.92a9.51,9.51,0,0,0-.7,3.88c-3.55,9.73-10.86,15.28-20.39,18.35l-2.13.67-.57-.18a3.39,3.39,0,0,1-2.21-1.42,440.71,440.71,0,0,0-31.92-32,3.86,3.86,0,0,1-1.51-2.45c1.24-2.85,3.7-4.68,5.9-6.62,6-5.3,11.43-11.12,17.1-16.73,3-2.92,6-5.73,8.69-8.92C216.72,97.64,217.82,97.53,218.49,96.77Z"/><path class="cls-10" d="M168.15,46.77l.33.95a.88.88,0,0,1-1.44.09,37.19,37.19,0,0,0-6.9-16.88c-3.65-4.86-8.75-7.51-14.41-9.26a47.38,47.38,0,0,0-20.93-1.25,28,28,0,0,0-10.86,4c-1.09.7-2.1,2.68-4,1.24v0a14.22,14.22,0,0,0,2.08-1.52l1.27-1A11.46,11.46,0,0,0,116,21.74h0c1.13-.6,2.51-.63,3.53-1.5a.21.21,0,0,1,.26,0c8.76-2.56,17.52-2.21,26.28,0l0,0c1.21.9,2.77.86,4.07,1.53,8.36,3.5,13.74,9.69,16.46,18.27.59,1.91.85,3.9,1.53,5.79Z"/><path class="cls-11" d="M168.48,168.73a9,9,0,0,1,1,4.81v33.39a2.08,2.08,0,0,0,0,.25c.18,2.34-1.66,5,.3,7a28.19,28.19,0,0,0,9.34,5.54c4.88,2,9.94,1.59,15,1.47,2.83-.07,5.43-1.38,8.13-2.16.73-.21,1.81-1.56,2.33.32v-.06a57.27,57.27,0,0,1-7.56,3c-5.44,1.67-10.83,1.2-16.18-.38a36.9,36.9,0,0,1-12-6.39l-.78-.69c-1.17-3.49-.86-7.09-.63-10.64.67-10.62.41-21.23.15-31.84C167.52,171,167.05,169.64,168.48,168.73Z"/><path class="cls-12" d="M43.48,97.21c-.29-.44-.58-.88-.88-1.31-5-9.35-6.85-19-3.07-29.29A7.59,7.59,0,0,1,41,63.74a4.48,4.48,0,0,0,1-2.11l1.24-1.89c1.11-1.33,2.23-2.65,3.27-4h0c1.4,1,.1,1.8-.41,2.43a30.44,30.44,0,0,0-6.74,16.07c-.83,7.29,1.16,14.08,4.34,20.57.49,1,1.48.92,2.39,1C46.21,98,44.43,96.87,43.48,97.21Z"/><path class="cls-13" d="M243.08,147.81c-1.19-1-.44-2.21-.15-3.24,2.43-8.42,1.93-16.88.45-25.52,1,.57.93,1.61,1.08,2.47a4.87,4.87,0,0,0,1.09,2.73.4.4,0,0,1,0,.32,55.72,55.72,0,0,1,0,13.35l0,.8c-.94,1.92-.61,4.14-1.47,6.07l0-.06c-.68.9-.56,2.08-1,3.05Z"/><path class="cls-14" d="M146.08,20.23c-4.31,0-8.39-1.58-12.77-1.58-4.61,0-9,1.05-13.51,1.56,6.17-2.64,12.64-2.17,19.07-1.68A18.84,18.84,0,0,1,146.08,20.23Z"/><path class="cls-15" d="M225.11,80.78c-1.58-2-1.58-5.71,0-7A14.46,14.46,0,0,1,225.11,80.78Z"/><path class="cls-16" d="M80.09,42.22H68A20,20,0,0,1,80.09,42.22Z"/><path class="cls-9" d="M245.56,137.92V124.57A28.55,28.55,0,0,1,245.56,137.92Z"/><path class="cls-5" d="M197,222.27a30.56,30.56,0,0,1,7.56-3A15.28,15.28,0,0,1,197,222.27Z"/><path class="cls-9" d="M244.06,144.79c.34-2.06-.07-4.29,1.47-6.07A12.12,12.12,0,0,1,244.06,144.79Z"/><path class="cls-4" d="M168.1,45.8A11,11,0,0,1,166.57,40,12.47,12.47,0,0,1,168.1,45.8Z"/><path class="cls-16" d="M85.2,43.7A10.6,10.6,0,0,1,80,42.19,9.26,9.26,0,0,1,85.2,43.7Z"/><path class="cls-7" d="M46.52,55.7a8.23,8.23,0,0,1-3.27,4A12,12,0,0,1,46.52,55.7Z"/><path class="cls-4" d="M150.11,21.74c-1.47-.22-3-.23-4.07-1.53A9.4,9.4,0,0,1,150.11,21.74Z"/><path class="cls-4" d="M119.54,20.25a4.8,4.8,0,0,1-3.53,1.5A8.46,8.46,0,0,1,119.54,20.25Z"/><path class="cls-16" d="M68,42.21a3.9,3.9,0,0,1-3.13,1c-.13-.14-.16-.26-.08-.34a.27.27,0,0,1,.2-.11A8.56,8.56,0,0,1,68,42.21Z"/><path class="cls-9" d="M243.05,147.78a3.68,3.68,0,0,1,1-3.05A4.41,4.41,0,0,1,243.05,147.78Z"/><path class="cls-4" d="M116,21.74a3.56,3.56,0,0,1-2.7,1.47A5.4,5.4,0,0,1,116,21.74Z"/><path class="cls-17" d="M65,42.74a3.31,3.31,0,0,1-.12.45l-2.84.64A3.63,3.63,0,0,1,65,42.74Z"/><path class="cls-4" d="M112.05,24.21A3,3,0,0,1,110,25.73,3.45,3.45,0,0,1,112.05,24.21Z"/><path class="cls-7" d="M42,61.63a2.43,2.43,0,0,1-1,2.11A4.22,4.22,0,0,1,42,61.63Z"/><path class="cls-18" d="M97,216.7a6.65,6.65,0,0,1-.49-3.41q0-19.08,0-38.16a42.89,42.89,0,0,1,.9-7.91.87.87,0,0,1,.2-1c3.24-2,7.08-2.72,10.35-4.76a29.36,29.36,0,0,0,12.5-15.55,31.19,31.19,0,0,1,2.15-5.09,1.75,1.75,0,0,1,.7-.3c1.36-1.05,3.08-.74,4.59-1.22a1.49,1.49,0,0,1,1.16.37c1.68,1.81,3.59,3.47,4.19,6a1.44,1.44,0,0,1,0,.77c-1.12,4.34-3.09,8.46-3.46,13A31,31,0,0,0,132,172.6c.67,1.87,1.42,3.72,2.16,5.56.18.52.32,1-.2,1.43-6.07,9-14.34,16.06-21.88,23.73-4.13,4.19-8.58,8.06-12.92,12.05A15.22,15.22,0,0,1,97,216.7Z"/><path class="cls-19" d="M133.91,179.59l-.34-.84a14.11,14.11,0,0,1,1.13-5,29.32,29.32,0,0,0-1.15-23.6,11.25,11.25,0,0,1-.89-3.85l0-.56c-.13-2.93,2-4.5,3.75-6.35a1.42,1.42,0,0,1,.79,0,20.42,20.42,0,0,1,3.57.66,1.23,1.23,0,0,1,.93.63c1.84,5.07,3.53,10.19,7.19,14.4a31.85,31.85,0,0,0,14.28,9.26,23.82,23.82,0,0,1,4.6,1.86.84.84,0,0,1,.33,1l.42,1.6c1,10.63.55,21.29.39,31.92-.07,4.7.12,9.48-.83,14.16-10.47-10.1-21-20.17-30.9-30.8A43.17,43.17,0,0,1,133.91,179.59Z"/><path class="cls-20" d="M127.87,245.33h9.92v.28c-3.27,0-6.54,0-9.81,0C127.76,245.59,127.77,245.37,127.87,245.33Z"/><path class="cls-21" d="M123.5,141.16l-.53.12a6.53,6.53,0,0,1-2.92,2c-10.36,3.32-17,10.39-20.44,20.57a5.66,5.66,0,0,1-1.65,2.9l-.5.51c-14.62,1-29.26.33-43.89.41-2.25,0-4.68.32-6.64-1.37,9.92-10.25,20-20.35,30.33-30.19a7.3,7.3,0,0,0,2-2.22,1,1,0,0,1,1-.55c4.45,1.78,8.67,4.25,13.53,4.85,5.67.71,11.28.7,16.51-2.1a13,13,0,0,1,2.3-1.06c2.37-.84,4.28-2.52,6.53-3.58a1.3,1.3,0,0,1,1.09.1c1.93.85,3.2,2.46,4.59,3.93a1.82,1.82,0,0,1,.07.77C124.63,137.93,125,139.78,123.5,141.16Z"/><path class="cls-22" d="M167,47.81l1.44-.09a9.54,9.54,0,0,1,.5,3.93c0,12.64,0,25.27,0,37.9,0,2.07-.29,4.14-.45,6.21a1,1,0,0,1-.32,1c-3.16,1.64-6.7,2.31-9.88,4A29.53,29.53,0,0,0,142.7,120a24.77,24.77,0,0,1-1.58,3.89,1.28,1.28,0,0,1-.58.5c-1.25,1.06-2.73.71-4.15.7a1.57,1.57,0,0,1-.8-.12,21.62,21.62,0,0,1-5-6.29,1.37,1.37,0,0,1,.15-1.15c4-8.53,4.79-17.19,1.16-26.06a35.15,35.15,0,0,1-1.77-5.18.75.75,0,0,1,.49-.58c5.68-9.86,14.74-16.67,22.42-24.71C157.51,56.4,162.38,52.2,167,47.81Z"/><path class="cls-23" d="M131.6,117.78l-.07.91a4.42,4.42,0,0,1-2,4.55,9.93,9.93,0,0,0-1.51,1.53,1.37,1.37,0,0,1-.73.21c-1.33.24-2.53-.44-3.81-.51a1.33,1.33,0,0,1-.71-.23,77,77,0,0,0-3.13-8.57,30.35,30.35,0,0,0-14.86-14.47c-2.47-1.13-5-2.14-7.38-3.46a.94.94,0,0,1-.28-1c-1.08-15.19-.67-30.38,0-45.57a6.33,6.33,0,0,1,2.17,1.64q13,13,26.09,26c2.07,2.06,3.56,4.58,5.31,6.89,0,.15-.06.3-.08.45.69,2.86-.89,5.32-1.53,7.92a29.19,29.19,0,0,0,1.6,19.62A9.15,9.15,0,0,1,131.6,117.78Z"/><path class="cls-24" d="M168.06,167.13l-.53-.46a7.4,7.4,0,0,1-2.12-3.43c-3.75-10.42-10.71-17.44-21.58-20.27a5.59,5.59,0,0,1-2.77-1.76l-.47-.48c-1.58-1.25-1.26-2.86-.86-4.49.89-2.21,2.75-3.46,4.65-4.67a1.35,1.35,0,0,1,.77-.11c4.2,2,8.25,4.26,12.9,5.21,6.65,1.37,12.86.07,18.93-2.59,2.51-1.11,4.75-2.74,7.36-3.64a.79.79,0,0,1,.65.34c11.48,10,21.94,21,32.38,32a12.49,12.49,0,0,1,2.62,3.91,19.7,19.7,0,0,1-6.85,1c-12.46,0-24.92,0-37.38-.08C173.19,167.61,170.63,167.3,168.06,167.13Z"/><path class="cls-25" d="M185,130.78l-.51.05c-1.71.49-3-.53-4.44-1.17-6.23-2.83-12.63-4.45-19.55-3.18A34.65,34.65,0,0,0,149,131c-1.21.72-2.4,1.49-3.91,1.29l-.51,0a2.4,2.4,0,0,1-2.64-.7c-.87-1.05-2.14-1.68-3-2.8a1.81,1.81,0,0,1-.09-.83c.44-1.37.07-3.07,1.59-4,0-.09.07-.18.1-.27a7.19,7.19,0,0,1,3.43-1.87c11.33-3,18.47-10.33,21.86-21.45.46-1.52.82-3.07,2.17-4.1l.44-.46c15-1.12,29.92-.38,44.87.07a35.38,35.38,0,0,1,5.14.94,7.78,7.78,0,0,1-2.17,3.3C206,110.48,195.81,120.93,185,130.78Z"/><path class="cls-26" d="M184.32,41.85h9.85v.23h-9.8Z"/><path class="cls-27" d="M97.12,96.75l.48.52a5.66,5.66,0,0,1,2.08,3.09c3.35,10.8,10.34,18,21.26,21.2a3.37,3.37,0,0,1,2.15,2l.5.21c1.87.88,1.21,2.56,1.27,4a1.37,1.37,0,0,1-.07.8c-.59.84-1.52,1.31-2.05,2.28a2.62,2.62,0,0,1-2.94,1.38l-.72,0a6.51,6.51,0,0,1-3.43-.86c-10.45-5.55-20.77-5-30.95.79-1.47.83-2.82,2-4.72,1.69h-.76c-9.76-8.17-18.57-17.33-27.37-26.49-3.05-3.17-6.37-6.12-8.37-10.15.57-1,1.75-.94,2.6-1.46,8.38-.92,16.79-.49,25.19-.45C79.9,95.35,88.56,95.26,97.12,96.75Z"/><path class="cls-28" d="M95.63,93.4V53.07h.24V93.43Z"/><path class="cls-29" d="M98,166.71c1-8.06,5.26-14.21,11.31-19.26a28.87,28.87,0,0,1,13.7-6.17C121.29,153.74,111.49,163.71,98,166.71Z"/><path class="cls-1" d="M124.1,136.16a3.26,3.26,0,0,0-.15-.44c-1.28-2.49-1.54-5,.09-7.42l0-.16c.64-1.78,1.34-3.48,3.5-3.9l.14,0a7.76,7.76,0,0,1,8.34.09l.08.07a5,5,0,0,1,3.89,3.92v0a7.42,7.42,0,0,1,.48,7.29c-.71,1.88-1,4.07-3.47,4.6a2.2,2.2,0,0,0-.45.17c-2.62,1.61-5.3,1.09-8,.24l-.55-.31A5.17,5.17,0,0,1,124.1,136.16Z"/><path class="cls-30" d="M132.66,146.27a28.47,28.47,0,0,1,5.24,18.36A32.7,32.7,0,0,1,135,176.46a5.68,5.68,0,0,1-1.47,2.29C127.22,168.09,126.65,157.27,132.66,146.27Z"/><path class="cls-31" d="M128.53,140.59c2.64-.64,5.32-.29,8-.24l-3.9,5.36C131.25,144,130.21,142,128.53,140.59Z"/><path class="cls-32" d="M124.1,136.16a9.7,9.7,0,0,1,3.88,4.12l-4.48.88A12.11,12.11,0,0,1,124.1,136.16Z"/><path class="cls-33" d="M141.06,141.21c13.85,1.57,24.39,13.08,26.47,25.46C154.09,164.71,142.85,153.91,141.06,141.21Z"/><path class="cls-34" d="M137,140.18l3.06-4c.18-.3.35-.29.5,0-.41,1.5.13,3,.06,4.48A10.58,10.58,0,0,1,137,140.18Z"/><path class="cls-35" d="M80,133.86c10.8-8.82,25.71-10.07,37.12-3.12.7.43,1.32,1,2,1.5a18.81,18.81,0,0,1-6,4,9.15,9.15,0,0,1-2,1C100.06,141.83,89.74,140.43,80,133.86Z"/><path class="cls-36" d="M124,128.3l-.09,7.42-4.15-3.51Z"/><path class="cls-37" d="M111,137.21a4.06,4.06,0,0,1,2-1A2.61,2.61,0,0,1,111,137.21Z"/><path class="cls-38" d="M168,96.22c-1.51,14.1-14.06,26.64-27.46,27.42C142.78,108.13,154.74,98.26,168,96.22Z"/><path class="cls-39" d="M131.6,117.78c-5-7.11-5.76-14.94-4-23.2a33.39,33.39,0,0,1,3-8.4C136.82,95,137.26,109,131.6,117.78Z"/><path class="cls-40" d="M136,124.28a56.76,56.76,0,0,1-8.35-.09l3.89-5.5Z"/><path class="cls-41" d="M140,128.27l-3.9-3.92,4.42-.44C140.31,125.36,140.13,126.82,140,128.27Z"/><path class="cls-42" d="M123.09,123.53c-5.94-1.53-11.4-3.91-15.92-8.31a33.7,33.7,0,0,1-9.57-18c12.72,3.26,21.54,10.72,25.33,23.57A4.2,4.2,0,0,1,123.09,123.53Z"/><path class="cls-43" d="M127.51,124.24a21,21,0,0,1-3.5,3.9l-.42-4.4Z"/><path class="cls-44" d="M145.08,132.28a32.09,32.09,0,0,1,39.4-1.45c-4.41,3.94-9.72,6-15.41,7.12C160.24,139.71,152.3,137.46,145.08,132.28Z"/><path class="cls-45" d="M140.53,136.25l-.5,0c0-2.65-.05-5.29-.07-7.94l4.61,4Z"/></g></g></svg>