<svg xmlns="http://www.w3.org/2000/svg" viewBox="0 0 533.16 608.87"><defs><style>.cls-1{fill:#fb490b;}.cls-2{fill:#fff;}</style></defs><g id="Layer_2" data-name="Layer 2"><g id="Layer_1-2" data-name="Layer 1"><path class="cls-1" d="M266.69.2c81.32,0,162.64.23,244-.2C527.15-.09,534.27,12,533,24.72c-3.79,39-6.32,78-9.37,117.05q-4.41,56.28-8.87,112.56-4.5,57.54-8.95,115.07-5,64.26-10.08,128.51c-.65,8.31-1.19,16.62-1.89,24.92-1.07,12.72-4.89,17.56-17.16,21.46C411.55,565,346.33,585.46,281.27,606.43a45.47,45.47,0,0,1-29.55,0c-64.9-20.94-130-41.37-194.95-62C44,540.3,40.33,535.72,39.26,522.13c-3.32-42.51-6.52-85-9.86-127.53q-5.67-72.23-11.48-144.44-5.07-64.5-10-129Q4.06,71.58.09,22C-1,9.16,7.3.21,20.74.21Q143.73.16,266.69.2Z"/><path class="cls-2" d="M110.72,291.34q-3.64-45.81-7.28-91.62c-2.18-27.56-4.23-55.13-6.67-82.67-.43-4.88.54-6.09,5.52-6.08q164.21.23,328.41.12c6.23,0,6.08,0,5.56,6.28q-2.11,25.89-4,51.8c-.55,7.52-.48,7.53-7.83,7.53H180c-6.51,0-6.38,0-5.69,6.31,2.2,20,4.44,40.05,6.34,60.1.4,4.25,1.71,5.43,6,5.42,77.81-.14,155.62-.06,233.43-.22,4.94,0,6,1.14,5.56,6.05-4.85,59.76-9.44,119.53-14.11,179.3-.19,2.49-.54,5-.73,7.46-.93,11.95-.9,12-12.57,15.72Q335,477,271.79,497.1a17.12,17.12,0,0,1-11.09-.26q-66.78-21.34-133.64-42.41c-3.09-1-4.14-2.44-4.37-5.54q-3.61-49.33-7.54-98.63c-.29-3.58.75-4.15,3.94-4.13q33.49.17,67,0c3.32,0,4.25,1,4.22,4.21-.15,14.66,0,29.32-.13,44,0,3.13.73,4.6,4.06,5.47,23.83,6.21,47.59,12.66,71.34,19.14a11.41,11.41,0,0,0,6.32-.09c23.58-6.45,47.18-12.88,70.82-19.12,2.91-.77,4-1.91,4.25-5,1.71-24.75,3.5-49.5,5.53-74.23.37-4.46-.8-5.49-5.25-5.48q-114.72.22-229.43,0c-1.75,0-4.5,1.71-5.32-1.71,1.53-1,3.25-.49,4.86-.49q114.23,0,228.43,0c1.67,0,3.52-.58,4.6.14-.9-.88-2.65-.17-4.18-.17q-113.47-.06-226.93,0c-7.14,0-7.25,0-7.1-7.12C112.26,300.82,111.29,296.11,110.72,291.34Z"/></g></g></svg>