<svg xmlns="http://www.w3.org/2000/svg" viewBox="0 0 570.43 651.43"><defs><style>.cls-1{fill:#039ae4;}.cls-2{fill:#fff;}</style></defs><g id="Layer_2" data-name="Layer 2"><g id="Layer_1-2" data-name="Layer 1"><path class="cls-1" d="M285.33.21c87,0,174,.25,261-.21C564-.09,571.61,12.79,570.28,26.45c-4,41.67-6.76,83.48-10,125.22q-4.71,60.22-9.48,120.44Q546,333.66,541.2,395.22,535.82,464,530.41,532.71c-.7,8.89-1.28,17.78-2,26.66-1.15,13.61-5.23,18.79-18.37,23-69.7,22.13-139.48,44-209.09,66.49a48.73,48.73,0,0,1-31.62-.06c-69.43-22.4-139-44.26-208.57-66.34C47,578.06,43.14,573.16,42,558.62c-3.56-45.48-7-91-10.55-136.44-4-51.52-8.23-103-12.28-154.54q-5.43-69-10.71-138-4.13-53-8.37-106C-1,9.8,7.81.22,22.19.22Q153.77.19,285.33.21Z"/><path class="cls-2" d="M438.08,136.24H289.29c-1.21,0-2.42.1-3.63.15l0-.28c-1.45,0-2.91.12-4.36.12H135.83c-8.09,0-8.12.14-7.29,8.19,1.05,10,2.1,20.07,2.75,30.13.59,9,1.37,18,2,27,.24,3.3,1.56,3.26,3.95,3.26q72-.06,144.07,0c1.45,0,2.9.07,4.36.12a.81.81,0,0,0,.84-.24c1.28,0,2.56.11,3.85.11q37.83,0,75.66,0c2.16,0,3.76-.07,3.42,2.94-.82,7.15-1.56,14.32-2.07,21.51-1,13.83-1.85,27.68-2.55,41.54-.13,2.57-1.28,2.59-3.16,2.58q-17.82-.07-35.65,0-20.19,0-40.37.14h0l0-.27c-1.33,0-2.66.12-4,.12-23.87,0-47.75.05-71.62-.06-2.49,0-3.2.46-2.93,3.05.44,4.31.33,8.66.61,13,1.05,16,1.69,32,2.12,48.08.09,3.63.86,4.56,4.54,4.54,23.75-.15,47.5,0,71.24,0l.71-.24,67.22.12c7.3,0,7.3,0,7,7.31,0,.36,0,.73,0,1.09-1.49,12.54-1.83,25.16-2.76,37.73-.6,8.17-1,16.36-1.42,24.54-.25,4.38-1.79,7-6.68,8.3-8.78,2.32-17.29,5.71-25.89,8.7q-17.64,6.1-35.26,12.28l-.19.14c-.67-1.9-2.37.26-3.42-.15-4.72-1-9.14-2.94-13.69-4.49-17.37-5.9-34.77-11.72-52.14-17.63-1.25-.43-3-.52-2.85-2.65.27-3.15-.52-6.24-.63-9.36-.36-9.55-.57-19.11-.69-28.67,0-2.14-.46-2.95-2.8-2.94q-31.82.13-63.65,0c-2.37,0-2.84.82-2.75,2.94.17,4,.44,7.95.61,11.91.54,12.42,1.47,24.81,2,37.22.59,12.67,1.18,25.33,1.88,38,.2,3.56,1.28,5,4.5,6,28.31,9.23,56.61,18.48,84.82,28,15.33,5.17,30.93,9.52,46.07,15.28.54-.2,1.25,0,1.56-.71h0c13.69-4.42,27.4-8.75,41.05-13.25,30.09-9.94,60.14-20,90.25-29.89,2.24-.74,2.87-1.71,3.11-4,.45-4.35.39-8.69.64-13,.76-13.11,1.84-26.21,2.46-39.33.25-5.42.66-10.84.9-16.27.54-12.48,1.94-24.91,2.59-37.39.38-7.32,1-14.63,1.39-21.95.6-11.54,1.39-23.06,2.12-34.59.45-7.21.92-14.42,1.33-21.63.64-11.2,1.23-22.4,2-33.6.68-10.7,1.38-21.41,2-32.11q1.33-22.37,2.84-44.71c.72-10.69,1-21.41,2.16-32.08C442.52,136.38,442.38,136.24,438.08,136.24Z"/></g></g></svg>