<svg xmlns="http://www.w3.org/2000/svg" viewBox="0 0 557.67 636.86"><defs><style>.cls-1{fill:#fbd73d;}.cls-2{fill:#fff;}</style></defs><g id="Layer_2" data-name="Layer 2"><g id="Layer_1-2" data-name="Layer 1"><path class="cls-1" d="M279,.2C364,.2,449.06.45,534.11,0c17.27-.09,24.71,12.51,23.41,25.86-4,40.74-6.6,81.61-9.8,122.42q-4.61,58.88-9.27,117.74-4.71,60.18-9.36,120.36-5.25,67.22-10.55,134.42c-.68,8.68-1.25,17.37-2,26.05-1.12,13.31-5.11,18.38-18,22.45-68.15,21.64-136.37,43.07-204.42,65a47.58,47.58,0,0,1-30.91,0C195.41,612.35,127.36,591,59.38,569.39c-13.4-4.26-17.2-9-18.31-23.26-3.48-44.46-6.82-88.94-10.31-133.39q-5.94-75.56-12-151.08-5.31-67.47-10.47-135Q4.25,74.86.09,23C-1,9.58,7.64.22,21.7.22Q150.32.18,279,.2Z"/><polygon class="cls-2" points="256.69 124.29 256.69 496.29 93.83 454.29 93.83 385.71 202.69 414.86 200.98 124.29 256.69 124.29"/><polygon class="cls-2" points="481.26 124.29 475.26 190.29 358.69 190.29 358.69 285.43 467.55 276.86 453.83 458.57 305.55 496.29 305.55 432 410.12 402.86 412.69 350.57 305.55 366 302.12 124.29 481.26 124.29"/></g></g></svg>