<svg xmlns="http://www.w3.org/2000/svg" viewBox="0 0 767.66 765.79"><defs><style>.cls-1{fill:#3777ab;}.cls-2{fill:#fecf40;}</style></defs><g id="Layer_2" data-name="Layer 2"><g id="Layer_1-2" data-name="Layer 1"><path class="cls-1" d="M560.78,61.91C557.93,55.2,553,50.08,547.9,45.07,535.73,33,521.16,24.78,505.17,18.89,479.54,8.2,452.59,3.8,425.08,2a36.6,36.6,0,0,0-4.39-.75c-24.17-1.34-48.35-1.93-72.52-.07a11,11,0,0,0-2.66.15c-27.4,1.55-54.4,5.39-80.54,14.21-17,5.74-32.94,13.42-46,26-11.55,11.11-19.34,24.21-19.4,40.7-.12,28.11.09,56.22.21,84.34,0,1.77-.57,3.66.64,5.31,1.42,1.33,3.17.67,4.75.68,14,.06,27.93,0,41.89,0,44.72,0,89.44.07,134.15-.09,4.2,0,5.38,1.1,5.16,5.23-.37,7-.14,14-.16,20.94l0,0c-1.66,0-3.32.07-5,.07q-130.17,0-260.32-.06a99.87,99.87,0,0,0-65.57,23.85C26.61,246.54,13.72,279,6.88,314.49c-1.67,6.1-2.11,12.41-3.24,18.6-1.28,7.09-.49,14.45-2.91,21.37v9c1.08,1.92.25,4,.52,6-.27,2,.56,4.07-.52,6v13c1.09,2.25.26,4.64.52,7,.09.9-.23,1.88.29,2.7l-.13.3c-.49,1.3.35,2.81-.68,4v9c1.72,1,.92,2.67,1.06,4,1.55,15.51,2.69,31.07,6.74,46.21a192.47,192.47,0,0,0,8.3,30.79,155.2,155.2,0,0,0,13.88,28.71A112.37,112.37,0,0,0,49.4,545.57a95.75,95.75,0,0,0,25.16,17.74,79.28,79.28,0,0,0,36.79,8.8c19.45-.1,38.91-.17,58.36.08,4.35.06,5.51-1,5.52-5.44.05-33.74-.72-67.48.4-101.22.6-3.07,1.19-6.15,1.8-9.22,5.4-27.33,17.21-50.77,40.6-67.23,8.78-6.17,18.65-10,28.66-13.5l18.68-3.35c1.67-.75,3.56.16,5.21-.71l60.65-.25H460l8,0c3-.95,6.19.33,9.18-.74,22.7-1.72,43.5-8.77,61.33-23.14,19.21-15.48,29.18-36,31.41-60.43.81-1.7-.06-3.62.72-5.32a128.67,128.67,0,0,0,.25-20q.3-15.78.3-31.55,0-16.17-.31-32.34.32-16.12.31-32.26,0-16.32-.31-32.64c0-2.34,0-4.69,0-7,0-7.79-.06-15.58.39-23.34C572.19,87.7,568.87,74.23,560.78,61.91ZM304,117.08a34.19,34.19,0,1,1,10.09-24.25A34.21,34.21,0,0,1,304,117.08Z"/><path class="cls-2" d="M.73,388.4v14c1.61-1,.79-2.64,1.07-4,0-1-.07-2-.11-2.95h0C1.39,393.09,2.62,390.53.73,388.4Z"/><path class="cls-2" d="M.73,369.43v6c1.79-1.77.71-4,1-6-.33-2,.94-4.23-1-6Z"/><path class="cls-2" d="M767.4,365.48h0c.44-16.05.62-32.09-2-48h0a22.09,22.09,0,0,0-.2-2.44c-2.4-12.7-5-25.34-9.67-37.47h0a128.81,128.81,0,0,0-17.64-37h0c-8.16-13.45-18.64-24.64-32.16-32.85-10.54-7.2-22-11.86-34.83-13-1.92-1.19-4-.88-6.09-.77h-13c-17.29-.06-34.59,0-51.88-.23-3.18,0-3.87,1.14-3.87,4.06q.1,48.39,0,96.78h0a231.26,231.26,0,0,1-5.29,29h0c-.66,1.69-1.37,3.35-2,5.06-5.57,15.58-13.89,29.39-26.13,40.72-10.06,9.32-22,15.26-34.76,19.92-8,1.58-15.82,3.58-24,4.44-11.3,1.18-22.61.32-33.89.93H357.16l-56.94,0c-56.68,3-101.75,36.79-99.9,100.66h0v62.93h0v69.89c-.05,10.73-.05,21.45-.19,32.18-.08,5.24-1.39,10.51.34,15.71h0c1.37,15.12,7.84,27.91,17.86,39.08h0c10.33,12.46,23.33,21.24,38,27.7h0a111.87,111.87,0,0,0,26.95,10.09,227.05,227.05,0,0,0,52.92,10l.41.14.42-.09c1.92,1.15,4,.84,6.11.78h0l5.77.25c2.64,1.28,5.44.78,8.2.74h0a371.71,371.71,0,0,0,41,1c4.08-.08,8.23.61,12.24-.74h0l2.72-.09h0c11.28.38,22.47-.91,33.64-2.15,14.26-1.59,28.5-3.51,42.31-7.68a176.25,176.25,0,0,0,43.51-16.78c20-10.87,34.5-25.71,38.43-49h0c1.12-1.83.78-3.87.78-5.82q-.07-42.25-.23-84.51c0-1.62.41-3.32-.56-4.85h0c-1.47-1.69-3.43-.87-5.15-.88q-28.43-.09-56.87,0c-39.74,0-79.49,0-119.23.09-3.64,0-5-.82-4.79-4.67a113.21,113.21,0,0,0,0-15.95c-.38-4.7,1.32-5.72,5.8-5.71q129.7.25,259.41.19c3.28,0,6.66.59,9.83-.83h0c24.23-1.81,45.2-11.5,62-28.55,32.24-32.64,44.21-73.51,45.39-118.31h0ZM513.92,648.09h0l-.09-.06.14-.13C514,648,513.93,648,513.92,648.09Z"/><path class="cls-2" d="M477.23,370.5c-3.06.24-6.23-.9-9.18.75C471.14,371.38,474.24,371.68,477.23,370.5Z"/><path class="cls-2" d="M270.58,371.51c-1.76.09-3.63-.66-5.21.71A9.6,9.6,0,0,0,270.58,371.51Z"/><path class="cls-2" d="M570.69,281.61c-1.43,1.62-.65,3.53-.72,5.32C571,285.26,570.82,283.44,570.69,281.61Z"/><path class="cls-1" d="M16.25,279.78s-36.95,93.1.58,212.62S16.25,279.78,16.25,279.78Z"/><path class="cls-1" d="M571.2,272.05s-.62,27.11-6.87,40.1S571.2,272.05,571.2,272.05Z"/><path class="cls-1" d="M486.92,369.42s-17.71,2.07-25.13,2,15.44-20.75,15.44-20.75Z"/><path class="cls-1" d="M276.07,371.38s-25.72,2.17-36.52,6.8,8.24-23.55,8.24-23.55l40.85,3.71Z"/></g></g></svg>