<svg xmlns="http://www.w3.org/2000/svg" viewBox="0 0 155.28 170.36"><defs><style>.cls-1{fill:#632175;}.cls-2{fill:#631f76;}.cls-3{fill:#642376;}.cls-4{fill:#fdfdfd;}.cls-5{fill:#652577;}.cls-6{fill:#9a4e95;}.cls-7{fill:#672179;}.cls-8{fill:#803786;}.cls-9{fill:#7e3484;}.cls-10{fill:#94468f;}.cls-11{fill:#974992;}.cls-12{fill:#6a247b;}.cls-13{fill:#702c80;}.cls-14{fill:#fcfcfc;}.cls-15{fill:#8b4991;}.cls-16{fill:#8e4c93;}.cls-17{fill:#8e4d93;}.cls-18{fill:#863f8b;}.cls-19{fill:#925397;}.cls-20{fill:#7a2e82;}.cls-21{fill:#782b7f;}.cls-22{fill:#7a2f82;}.cls-23{fill:#964891;}.cls-24{fill:#89438e;}</style></defs><g id="Layer_2" data-name="Layer 2"><g id="Layer_1-2" data-name="Layer 1"><path class="cls-1" d="M64.48,4.54C69.89-.31,76.4-.52,83,.49a20.77,20.77,0,0,1,7,2.66c12.78,7.26,25.49,14.67,38.22,22,4.85,2.8,9.58,5.86,14.61,8.28,8.82,4.24,12.1,11.81,12.25,20.72.32,20.59.25,41.19,0,61.78-.09,9.32-3.84,16.6-12.56,21.36-14,7.63-27.49,16.07-41.44,23.76-4.45,2.46-8.57,5.57-13.35,7.42-9.06,3.51-17.52,1.87-25.69-2.92C46.27,156.3,30.49,147,14.57,138,10,135.41,5.39,133.08,3,127.93a13.71,13.71,0,0,1-1.51-6.47,1.3,1.3,0,0,1-.15-1.56c1.63-.41,1.76.83,2.09,1.89a12.24,12.24,0,0,0,4,6.46c2.62,3.16,6.27,4.91,9.72,6.88,16.33,9.37,32.62,18.81,49,28.1,7.59,4.31,15.19,4.52,22.74.2q23.21-13.27,46.37-26.66c1.51-.88,3-1.76,4.6-2.49,7.86-3.64,11.11-10.13,11.18-18.36.18-20.47.27-40.94-.05-61.4-.11-7.39-2.44-14.06-10.07-17.4a11.49,11.49,0,0,1-2.44-1.72,11.19,11.19,0,0,0-6.63-4.67,4,4,0,0,1-.92-.48,8.13,8.13,0,0,0-3-1.8,3.9,3.9,0,0,1-.89-.5,7.8,7.8,0,0,0-3.41-1.85,3.37,3.37,0,0,1-.88-.51,11,11,0,0,0-3-1.69,3.68,3.68,0,0,1-.85-.56,9.71,9.71,0,0,0-3-1.69,4,4,0,0,1-.89-.53,15.21,15.21,0,0,0-6.5-3.9,3.82,3.82,0,0,1-.88-.55c-.83-1.24-2.25-1.36-3.5-1.79a3.7,3.7,0,0,1-.89-.5,9.27,9.27,0,0,0-3.56-1.57,17.47,17.47,0,0,1-4.06-2.35,7.33,7.33,0,0,0-3.08-2.3,4.19,4.19,0,0,1-.9-.51A12.83,12.83,0,0,0,83.43,3.9a4.53,4.53,0,0,1-1-.18c-3.24-2.29-6.46-1.51-9.68.09a5.37,5.37,0,0,1-1,.26C69.23,3.59,67,6.18,64.48,4.54Z"/><path class="cls-2" d="M1.53,120v1.5C.15,119.11,0,116.51,0,113.88,0,95.81.1,77.75,0,59.69c-.07-12.28,3.12-22.16,15.49-28,10.2-4.79,19.64-11.19,29.41-16.9a7.61,7.61,0,0,1,3.84-1.28c.77,2.54-1.84,2.73-2.82,4.06a12.21,12.21,0,0,0-4.59,3.21,43.91,43.91,0,0,1-5.48,3,4.58,4.58,0,0,0-3.43,1.77,3.56,3.56,0,0,1-.83.61,31.69,31.69,0,0,0-10.88,6.2,3.8,3.8,0,0,1-.87.56,7.84,7.84,0,0,0-3,1.71,4.52,4.52,0,0,1-.88.56,9.09,9.09,0,0,0-3.37,2.35c-.65.51-1.24,1.08-1.9,1.56-6.06,4.17-8,10.29-8,17.21-.06,19.58,0,39.16,0,58.75C2.63,116.74,3.12,118.61,1.53,120Z"/><path class="cls-3" d="M45,16.47c1.12-1.15,2.94-1.39,3.75-2.93,4.91-3.6,10-6.91,15.74-9,2.6-.4,4.67-2.77,7.58-2,.14,1.36-.79,2-1.78,2.55-7,3.9-14,7.89-21,11.88a3.84,3.84,0,0,1-3.56.37A1.7,1.7,0,0,1,45,16.47Z"/><path class="cls-4" d="M45.92,16.61c5.52-3.08,11-6.2,16.56-9.22,3.15-1.72,6.39-3.26,9.58-4.88h0a18,18,0,0,1,11.16-.12l-.07,0A27.07,27.07,0,0,1,92.9,6.94l-.08-.05c1.29.81,2.94,1.05,3.79,2.51l3.64,2a8.44,8.44,0,0,1,3.93,2.22h0A12.9,12.9,0,0,1,108.59,16L108.5,16a33.62,33.62,0,0,1,7.64,4.47l-.07,0a7.77,7.77,0,0,1,3.84,2.23l0,0a10.2,10.2,0,0,1,3.82,2.18h0c1.48.78,3.26,1,4.4,2.42l-.08-.05c1.32.7,2.82,1.1,3.82,2.31l-.08-.06c2.63,1.32,5.4,2.41,7.64,4.41a28.24,28.24,0,0,0,3.1,2.06C150,39.48,152.67,46,152.73,53.65q.24,31.46,0,62.93c-.05,8.12-3.12,14.38-10.79,18.62-17.91,9.87-35.41,20.47-53.24,30.47a21.47,21.47,0,0,1-21.84,0c-18.69-10.52-37.24-21.28-55.8-32a38.34,38.34,0,0,1-4.88-4c-3-3.65-3.85-8.07-3.87-12.57-.1-21.28-.17-42.57,0-63.85.07-6.65,2.07-12.75,8.47-16.35L12,36c1.24-.79,2.3-1.94,3.89-2.09l-.08,0c1-1.18,2.54-1.54,3.8-2.33l-.07,0a108.16,108.16,0,0,1,12.06-6.78l-.06,0c.95-1.16,2.42-1.53,3.59-2.37l5.33-2.9C42.11,18.28,44.12,17.64,45.92,16.61Z"/><path class="cls-5" d="M10.82,36.87c-5.94,4.37-8,10.42-7.95,17.57q.13,29.88,0,59.76c0,5.45.6,10.65,3.33,15.44-3.54-2.27-3.07-6.47-4.66-9.68,0-21.81-.07-43.62,0-65.43C1.6,48.69,3,43.16,7.35,38.82,8.32,37.84,9.28,36.84,10.82,36.87Z"/><path class="cls-3" d="M83.19,2.39,72,2.51C75.73.5,79.45.16,83.19,2.39Z"/><path class="cls-3" d="M92.9,6.94,83.12,2.37A13.58,13.58,0,0,1,92.9,6.94Z"/><path class="cls-3" d="M139.41,33.81a31.28,31.28,0,0,1-7.64-4.41C134.77,30.09,137.58,31.1,139.41,33.81Z"/><path class="cls-3" d="M116.14,20.42A29.9,29.9,0,0,1,108.5,16,11.71,11.71,0,0,1,116.14,20.42Z"/><path class="cls-3" d="M108.59,16c-1.76-.29-3-1.43-4.43-2.44C106.05,13.65,107.75,14.06,108.59,16Z"/><path class="cls-3" d="M128.11,27.2c-1.77-.26-3-1.42-4.4-2.42C125.55,24.89,127.22,25.34,128.11,27.2Z"/><path class="cls-3" d="M96.61,9.4a10.83,10.83,0,0,1-3.79-2.51C94.53,7.06,96,7.6,96.61,9.4Z"/><path class="cls-3" d="M104.18,13.58a10.87,10.87,0,0,1-3.93-2.22A3.77,3.77,0,0,1,104.18,13.58Z"/><path class="cls-3" d="M131.85,29.46A7.47,7.47,0,0,1,128,27.15C129.7,27.27,131.12,27.8,131.85,29.46Z"/><path class="cls-3" d="M123.69,24.77a9.53,9.53,0,0,1-3.82-2.18A3.82,3.82,0,0,1,123.69,24.77Z"/><path class="cls-3" d="M119.91,22.61a8.77,8.77,0,0,1-3.84-2.23A3.59,3.59,0,0,1,119.91,22.61Z"/><path class="cls-5" d="M31.62,24.87a68,68,0,0,1-12.06,6.78A27.43,27.43,0,0,1,31.62,24.87Z"/><path class="cls-5" d="M45.92,16.61a13.22,13.22,0,0,1-5.44,3c1-1.81,3-2.14,4.51-3.16Z"/><path class="cls-5" d="M35.15,22.53C34.37,24,33,24.44,31.56,24.9A3.63,3.63,0,0,1,35.15,22.53Z"/><path class="cls-5" d="M19.63,31.6a7,7,0,0,1-3.8,2.33A4.25,4.25,0,0,1,19.63,31.6Z"/><path class="cls-5" d="M15.91,33.89A7,7,0,0,1,12,36,3.71,3.71,0,0,1,15.91,33.89Z"/><path class="cls-6" d="M10.37,124.63c-1.89-2.24-2.22-4.94-2.22-7.72q0-31.66,0-63.33a13.28,13.28,0,0,1,7.11-12.3L70.43,9.5A13.68,13.68,0,0,1,85,9.49q27.58,15.9,55.18,31.78c2.39,1.38,4.59,3,5.48,5.86a2.49,2.49,0,0,1-1.09,1.26c-7.58,4.7-15.43,8.93-23.12,13.45-1.29.75-2.62,1.51-4.2.72-4-4.69-7.38-10-12.66-13.6-14.3-9.75-29.52-12-45.33-4.77C44.29,51,35.53,63,33.11,79.47c-1.28,8.73.45,16.8,4.06,24.65.67,1.46,1.56,2.89,1,4.62-1.16,2.33-3.61,2.91-5.58,4.11-5.4,3.28-11,6.28-16.38,9.53C14.41,123.45,12.61,124.67,10.37,124.63Z"/><path class="cls-7" d="M10.37,124.63c1.88-3.29,5.56-4,8.47-5.72,6.08-3.59,11.9-7.69,18.58-10.18,2.37-.32,3.29,1.62,4.32,3,5.2,7.2,12.44,11.73,20.14,15.68a8,8,0,0,0,4.28,1.33,4.08,4.08,0,0,1,1.11.17c5.52,1.76,11.08,2.56,16.75.73a5.73,5.73,0,0,1,1.08-.15,11.24,11.24,0,0,0,3.45-.48,4.48,4.48,0,0,1,1-.23,5.88,5.88,0,0,0,3.37-1.51,51.67,51.67,0,0,0,17.64-11.73,8,8,0,0,0,2-2.08c1.62-1.67,2.3-4.18,4.67-5.17a4.39,4.39,0,0,1,4.58.08c7.33,3.89,14.49,8.07,21.55,12.43.94.58,2.35,1.11,2,2.75a10,10,0,0,1-5.06,5.68q-27.91,16-55.84,32.09a12.87,12.87,0,0,1-13.55,0q-27.93-16-55.82-32.11C13.16,128.11,11.3,126.83,10.37,124.63Z"/><path class="cls-8" d="M145.38,123.6c-8-4.48-16-8.94-23.95-13.45-1.21-.68-2.32-1.51-3.77-.7A210.18,210.18,0,0,1,96.89,97.82C90.68,94.42,84.48,91,78.44,87.27a3.29,3.29,0,0,1-1.52-1.58c-.31-2,1.16-2.81,2.55-3.65a176.47,176.47,0,0,1,17.16-9.56c1-.49,1.72-1.41,2.71-1.93,4.42-2.64,8.83-5.31,13.38-7.72,1.5-.8,3-1.77,4.83-.65q11.67-6.82,23.34-13.62a24.7,24.7,0,0,1,3-1.28,3.14,3.14,0,0,1,1.88,3q0,33.7,0,67.42,0-32.53,0-65.07c0-1.33-.43-2.74.42-4,1.21,1.9,1.09,4,1.1,6.14q0,30.62,0,61.21C147.32,118.63,147.5,121.43,145.38,123.6Z"/><path class="cls-9" d="M146.24,48.6v72.24c-1.18-2-.79-3.38-.8-4.66q0-31.44,0-62.89c0-2.16,0-4.25-1.51-6l1.74-.15A1.4,1.4,0,0,1,146.24,48.6Z"/><path class="cls-4" d="M97.58,96.92c7,2.84,13.12,7.16,19.62,10.86.64.36.43,1.08.46,1.67l-3.78,5.12a5.92,5.92,0,0,1-2,2.44,58.6,58.6,0,0,1-18.13,11.9c-1.4.9-3,1-4.59,1.46l.08,0c-1.13,1.08-2.67,0-3.86.76l.1,0c-6.51.91-13,1-19.41-.77l.12,0a12.94,12.94,0,0,1-4.66-1.42,51.59,51.59,0,0,1-24.06-20.17C27.5,89.8,28.43,71.58,42.1,55c19.43-23.62,56.84-21.65,74.08,3.54.75,1.09,1.84,2.11,1.37,3.69L100.45,72c-2.21,1.62-4.16,1.28-5.86-.79A23.22,23.22,0,0,0,79.14,63c-4.76-.58-9.5,1.52-13.6,4.24a20.9,20.9,0,0,0-8.47,23.56,38.46,38.46,0,0,0,1.8,5.3c7.24,9.35,16.8,12.45,26.85,8.74a20.43,20.43,0,0,0,7.29-5C94.32,98.57,95.52,97.05,97.58,96.92Z"/><path class="cls-10" d="M9.25,51.84c.64,3.41.63,63.22,0,66.68Z"/><path class="cls-11" d="M76.12,8.67a2.93,2.93,0,0,1,3,0A3,3,0,0,1,76.12,8.67Z"/><path class="cls-12" d="M66,130.28a75.14,75.14,0,0,0,19.41.77C78.89,132.56,72.4,132.78,66,130.28Z"/><path class="cls-12" d="M61.48,128.9a9.89,9.89,0,0,1,4.66,1.43A5,5,0,0,1,61.48,128.9Z"/><path class="cls-12" d="M89.11,130.37a11.61,11.61,0,0,1,4.59-1.46A5,5,0,0,1,89.11,130.37Z"/><path class="cls-13" d="M111.83,117l2-2.44A2.39,2.39,0,0,1,111.83,117Z"/><path class="cls-12" d="M85.33,131.1a7,7,0,0,1,3.86-.76C88.06,131.42,86.68,131.19,85.33,131.1Z"/><path class="cls-6" d="M57.73,96.73a22.94,22.94,0,0,1,6.42-30.79A23.39,23.39,0,0,1,96,70.39c1.27,1.56,2.29,2.92,4.46,1.65L79.68,83.88c-.85.49-1.68,1-2.52,1.54,0,1.58-1.09,2.4-2.3,3.15-4.45,2.73-9.07,5.17-13.56,7.83A3.89,3.89,0,0,1,57.73,96.73Z"/><path class="cls-7" d="M57.73,96.73C64,92.58,70.59,89,77.17,85.42c5.39,1.25,9.45,5.11,14.32,7.42a17.51,17.51,0,0,1,6.09,4.08c-7.68,13.34-26.75,15.24-37.19,3.61C59.39,99.41,57.66,98.65,57.73,96.73Z"/><path class="cls-14" d="M121.44,76.44a8.07,8.07,0,0,0,5.25,0c1-1.4-.72-4.19,2.59-4.48,3.74-.33,2.68,2.64,3.41,4.42l3.65.87c.82,2.48,1.1,4.25-2.48,5-3.15.66-1.17,3.51-1.16,5.45h0c1.07,1,2.69-.29,3.7.9l-.07-.11c1,2.73.83,4.85-2.68,5.31-.65.08-1.29.41-1.26,1.11.06,1.87-.91,2.24-2.55,2.21s-2.73-.12-2.94-2.27c-.15-1.63-2-1.08-3.11-1.1s-2.68-.27-2.71,1.63c0,2.27-1.72,1.58-3,1.7-1.43.14-2.41-.2-2.33-2,.15-3.21-3.2-.72-4-2.41l.17.18c-1.32-4.17-1.2-4.34,3.49-5.17h0c.28-2.53,2-5.44-2.8-6-2-.22-1.23-2.78-1.19-4.42,1.14-1.12,2.8.1,4-.86h0c.84-4.76.84-4.76,5-4.08C121.82,73.48,120.45,75.26,121.44,76.44Z"/><path class="cls-15" d="M111.78,92.72c2.15.17,4.61-.29,4.5,3.27,0,1.29,1.51.93,2.44,1s2.1-.17,2-1.55c-.17-2.69,1.62-2.55,3.45-2.55s3.34-.08,3.23,2.38c-.07,1.59,1.06,1.71,2.26,1.74,1.39,0,2.49-.18,2.42-2,0-.88.07-2.08,1.15-2,3.71.22,2.94-2.41,3.08-4.51,1.4,1.72.81,3.48.1,5.24-1.07.83-2.47-.11-3.54.68,0,2.08-.91,3.17-3.19,3.17s-3.16-1.07-3.17-3.17a7.88,7.88,0,0,0-4.92,0c-.09,1.74-.53,3.13-2.69,3.13-1.66,0-3.27,0-3.57-2.17S112.54,94.18,111.78,92.72Z"/><path class="cls-16" d="M111.76,77.4c.06,2.22-.2,4,3.22,4.58,2,.34,1.31,3.67.46,5.75-.16-2.36.5-4.72-3.07-5.76-2.35-.68-1.62-3.48-.69-5.51C112.2,76.73,112.23,77.05,111.76,77.4Z"/><path class="cls-17" d="M132.7,87.71c-.4-2.51-2.62-5.52,2.31-6.29,2.27-.36.79-2.77,1.33-4.15,1.31,2.49,1.4,4.4-1.94,5.34C131.62,83.39,133.2,86,132.7,87.71Z"/><path class="cls-18" d="M132.69,76.4c-1-1.44-.13-4.27-3.58-3.75-2.75.41-.93,3-2.42,3.81,0-1.55-.35-3.19.86-4.53a6.48,6.48,0,0,1,4.26,0C133,73.23,132.65,74.86,132.69,76.4Z"/><path class="cls-16" d="M115.44,87.73c-3.32.27-4.25,2.15-3.5,5.17C110,88.81,110.72,87.69,115.44,87.73Z"/><path class="cls-19" d="M120.65,72.84c-3.19-.86-4.59.84-5.21,3.64,0-1.56-.37-3.19.82-4.54a6.74,6.74,0,0,1,4.39,0l0,.07C121.07,72.3,121.06,72.58,120.65,72.84Z"/><path class="cls-20" d="M121.61,94.43a4.56,4.56,0,0,1,4.92,0Z"/><path class="cls-21" d="M120.65,71.93h-4.39A3.82,3.82,0,0,1,120.65,71.93Z"/><path class="cls-21" d="M131.81,71.92h-4.26A3.62,3.62,0,0,1,131.81,71.92Z"/><path class="cls-18" d="M120.65,72.84l0-.84c1.08,1.34.71,2.93.75,4.44C120.23,75.45,121.12,74,120.65,72.84Z"/><path class="cls-19" d="M111.76,77.4c0-.31-.05-.62-.08-.94l3.76,0Z"/><path class="cls-17" d="M136.4,88.62l-3.7-.9C134,87.71,135.41,87.31,136.4,88.62Z"/><path class="cls-22" d="M132.89,94.43c1-.93,2.33-.58,3.54-.68C135.37,94.61,134.12,94.47,132.89,94.43Z"/><path class="cls-23" d="M79,62.64c-.67.53-1.33.4-2.2,0A1.74,1.74,0,0,1,79,62.64Z"/><path class="cls-24" d="M124.1,88.11c-2.71.54-3.41-.72-3.37-3.28,0-2.34.61-3.33,3.14-3.28,2.38,0,3.65.43,3.59,3.24C127.4,87.29,126.86,88.66,124.1,88.11Z"/></g></g></svg>