<svg xmlns="http://www.w3.org/2000/svg" viewBox="0 0 260.04 104.94"><defs><style>.cls-1{fill:#089ae0;}.cls-2{fill:#175faa;}.cls-3{fill:#21a8e6;}.cls-4{fill:#0aa2e5;}.cls-5{fill:#d0effb;}.cls-6{fill:#c8edfb;}.cls-7{fill:#c0eafa;}.cls-8{fill:#99d7f3;}.cls-9{fill:#a2dbf5;}.cls-10{fill:#15a6e7;}.cls-11{fill:#b1e1f6;}.cls-12{fill:#20abe8;}.cls-13{fill:#59c6ed;}.cls-14{fill:#2786ca;}.cls-15{fill:#0fa4e6;}.cls-16{fill:#196db5;}.cls-17{fill:#3aa2dd;}.cls-18{fill:#a9def6;}.cls-19{fill:#64cbf3;}.cls-20{fill:#2388d0;}.cls-21{fill:#34bcf1;}.cls-22{fill:#26ade8;}.cls-23{fill:#b8e7fa;}.cls-24{fill:#65c4ea;}.cls-25{fill:#69c3ee;}.cls-26{fill:#5fbfed;}.cls-27{fill:#2890d4;}.cls-28{fill:#1b6abc;}.cls-29{fill:#46bde6;}.cls-30{fill:#8dd9f7;}.cls-31{fill:#41b2e7;}.cls-32{fill:#1aa8e7;}.cls-33{fill:#2f97d8;}.cls-34{fill:#b9e4f7;}.cls-35{fill:#67cdf4;}.cls-36{fill:#3fc0f2;}.cls-37{fill:#2fb0e9;}.cls-38{fill:#96dbf6;}.cls-39{fill:#b0e5f9;}.cls-40{fill:#2ea8e3;}.cls-41{fill:#2684cc;}.cls-42{fill:#a2d8f3;}.cls-43{fill:#32b4ec;}.cls-44{fill:#1963ae;}.cls-45{fill:#5ac6f1;}.cls-46{fill:#6fcff5;}.cls-47{fill:#2ca0de;}.cls-48{fill:#4ab2e6;}.cls-49{fill:#7ac9ef;}.cls-50{fill:#4cb8eb;}.cls-51{fill:#27aae7;}.cls-52{fill:#a7e2f9;}.cls-53{fill:#82ccf0;}.cls-54{fill:#278cd1;}.cls-55{fill:#55bbec;}.cls-56{fill:#50c6f3;}.cls-57{fill:#41a8e1;}.cls-58{fill:#8cd3f2;}.cls-59{fill:#238bd1;}.cls-60{fill:#93d5f3;}.cls-61{fill:#92d5f0;}.cls-62{fill:#45ace3;}.cls-63{fill:#8fd1f2;}.cls-64{fill:#b0def5;}.cls-65{fill:#34b0e8;}.cls-66{fill:#37b7e2;}.cls-67{fill:#237cc7;}.cls-68{fill:#71c5ee;}.cls-69{fill:#2fade8;}.cls-70{fill:#51b7e9;}.cls-71{fill:#2992d5;}.cls-72{fill:#5cc3ef;}.cls-73{fill:#5ecaf4;}.cls-74{fill:#38b0e9;}.cls-75{fill:#7ed4f6;}.cls-76{fill:#2b66b7;}.cls-77{fill:#78d2f5;}.cls-78{fill:#89cff1;}.cls-79{fill:#9ed7f3;}.cls-80{fill:#48c3f2;}.cls-81{fill:#349cdb;}.cls-82{fill:#2b98d9;}.cls-83{fill:#46b6ea;}.cls-84{fill:#57c8f3;}.cls-85{fill:#85d0f1;}.cls-86{fill:#52c1ee;}.cls-87{fill:#58bfed;}.cls-88{fill:#2faee7;}.cls-89{fill:#60c0eb;}.cls-90{fill:#3cb3e8;}.cls-91{fill:#73c9f0;}.cls-92{fill:#97d4f2;}.cls-93{fill:#54bcec;}.cls-94{fill:#3eb3e9;}.cls-95{fill:#54bbeb;}.cls-96{fill:#2ab1dc;}.cls-97{fill:#43b7ea;}.cls-98{fill:#84d6f6;}.cls-99{fill:#b4ddf4;}.cls-100{fill:#b8e1f6;}.cls-101{fill:#4abbec;}.cls-102{fill:#61c2ee;}.cls-103{fill:#7fcdf1;}.cls-104{fill:#60c7f1;}.cls-105{fill:#92d4f1;}.cls-106{fill:#6ac5ef;}.cls-107{fill:#3ab4ea;}.cls-108{fill:#79cbf0;}.cls-109{fill:#a0def7;}.cls-110{fill:#6db7e2;}.cls-111{fill:#c2e5f7;}.cls-112{fill:#78c0e7;}.cls-113{fill:#98d9f4;}.cls-114{fill:#8aceee;}.cls-115{fill:#4d9cd1;}.cls-116{fill:#82c8ea;}.cls-117{fill:#3f91cb;}.cls-118{fill:#59a6d8;}.cls-119{fill:#2276bb;}.cls-120{fill:#63afdc;}.cls-121{fill:#3688c5;}.cls-122{fill:#3dafe5;}.cls-123{fill:#2a7ec0;}.cls-124{fill:#3eb6eb;}.cls-125{fill:#4bbaec;}.cls-126{fill:#31b3df;}.cls-127{fill:#1a79bd;}.cls-128{fill:#196fb3;}.cls-129{fill:#196bae;}.cls-130{fill:#175a9c;}.cls-131{fill:#1864a7;}.cls-132{fill:#1861a4;}.cls-133{fill:#175da0;}.cls-134{fill:#165698;}.cls-135{fill:#1a76b9;}.cls-136{fill:#1a72b6;}.cls-137{fill:#1868aa;}.cls-138{fill:#1a69bc;}.cls-139{fill:#109cde;}.cls-140{fill:#3677bb;}.cls-141{fill:#1f5db3;}.cls-142{fill:#178bd2;}.cls-143{fill:#0497d8;}.cls-144{fill:#1370ba;}.cls-145{fill:#1668b3;}.cls-146{fill:#146cb6;}.cls-147{fill:#aedaf2;}.cls-148{fill:#a6d6f1;}.cls-149{fill:#1360a7;}.cls-150{fill:#145da3;}.cls-151{fill:#3498da;}.cls-152{fill:#09a2e5;}.cls-153{fill:#1079c2;}.cls-154{fill:#107ec6;}.cls-155{fill:#1275be;}.cls-156{fill:#0c89d0;}.cls-157{fill:#0a90d6;}.cls-158{fill:#51b8e8;}.cls-159{fill:#5ebae7;}.cls-160{fill:#7cc4e9;}.cls-161{fill:#70bfe8;}.cls-162{fill:#67bde8;}.cls-163{fill:#55b8e8;}.cls-164{fill:#15569a;}.cls-165{fill:#13619e;}.cls-166{fill:#2689ce;}.cls-167{fill:#145e99;}.cls-168{fill:#185496;}.cls-169{fill:#2a96d8;}.cls-170{fill:#4194ce;}.cls-171{fill:#19aceb;}.cls-172{fill:#1eadea;}.cls-173{fill:#33ade7;}.cls-174{fill:#0aaced;}.cls-175{fill:#2eaae5;}.cls-176{fill:#2aa8e4;}.cls-177{fill:#069ee3;}.cls-178{fill:#0897dd;}.cls-179{fill:#99d0ef;}.cls-180{fill:#9fd3f0;}.cls-181{fill:#71c8eb;}.cls-182{fill:#059cdf;}.cls-183{fill:#069fe3;}.cls-184{fill:#0eacec;}.cls-185{fill:#13acec;}.cls-186{fill:#0f78bf;}.cls-187{fill:#1083c9;}.cls-188{fill:#116bb2;}.cls-189{fill:#116eb5;}.cls-190{fill:#36afe7;}.cls-191{fill:#0d82ca;}.cls-192{fill:#165298;}.cls-193{fill:#32a3e0;}.cls-194{fill:#2f9edc;}.cls-195{fill:#34ace6;}.cls-196{fill:#14a5e6;}.cls-197{fill:#0da3e5;}.cls-198{fill:#1ba7e6;}.cls-199{fill:#90cbed;}.cls-200{fill:#25a5e3;}.cls-201{fill:#159edf;}.cls-202{fill:#15549a;}.cls-203{fill:#32a7e2;}.cls-204{fill:#2ea2de;}.cls-205{fill:#2c98d8;}.cls-206{fill:#1ea2e2;}.cls-207{fill:#24adea;}.cls-208{fill:#0499dc;}.cls-209{fill:#82c4ea;}.cls-210{fill:#89c8ec;}.cls-211{fill:#19a0e0;}.cls-212{fill:#0e7dc5;}.cls-213{fill:#0f81c8;}.cls-214{fill:#5fc4eb;}.cls-215{fill:#167eca;}.cls-216{fill:#1586cb;}.cls-217{fill:#50ade2;}.cls-218{fill:#58b1e2;}.cls-219{fill:#29ade9;}.cls-220{fill:#2eade8;}.cls-221{fill:#288fd2;}.cls-222{fill:#2a93d4;}.cls-223{fill:#1e5cb2;}.cls-224{fill:#1b7dc1;}.cls-225{fill:#2290d0;}.cls-226{fill:#2696d5;}.cls-227{fill:#369ddd;}.cls-228{fill:#43a5df;}.cls-229{fill:#2c74b1;}.cls-230{fill:#2a9dda;}.cls-231{fill:#7ac0e9;}.cls-232{fill:#74bee8;}.cls-233{fill:#2cace6;}.cls-234{fill:#21a9e6;}.cls-235{fill:#5eb2e3;}.cls-236{fill:#56aee2;}.cls-237{fill:#66b6e5;}.cls-238{fill:#6ebae7;}.cls-239{fill:#3ba0dc;}.cls-240{fill:#41a3de;}.cls-241{fill:#329bda;}.cls-242{fill:#48a7df;}.cls-243{fill:#50aae0;}.cls-244{fill:#175398;}.cls-245{fill:#16559b;}.cls-246{fill:#437dc2;}.cls-247{fill:#165ba0;}.cls-248{fill:#16589e;}.cls-249{fill:#1889d0;}.cls-250{fill:#15579d;}.cls-251{fill:#1363a9;}.cls-252{fill:#14599f;}.cls-253{fill:#1267ad;}.cls-254{fill:#1071b8;}.cls-255{fill:#0f75bc;}.cls-256{fill:#1368a4;}.cls-257{fill:#1365a1;}.cls-258{fill:#145b9e;}.cls-259{fill:#1563a8;}.cls-260{fill:#1567ac;}.cls-261{fill:#156baf;}.cls-262{fill:#156fb3;}.cls-263{fill:#1484c8;}.cls-264{fill:#1481c4;}.cls-265{fill:#147dc1;}.cls-266{fill:#1577bc;}.cls-267{fill:#147abf;}.cls-268{fill:#1b87cc;}.cls-269{fill:#1a88ce;}.cls-270{fill:#1c84c8;}.cls-271{fill:#1b80c5;}.cls-272{fill:#165ea3;}.cls-273{fill:#0e7ac2;}.cls-274{fill:#147abc;}.cls-275{fill:#147fc1;}.cls-276{fill:#1373b3;}.cls-277{fill:#1476b6;}.cls-278{fill:#1573b7;}.cls-279{fill:#1370ae;}.cls-280{fill:#136caa;}</style></defs><g id="Layer_2" data-name="Layer 2"><g id="Layer_1-2" data-name="Layer 1"><path class="cls-1" d="M167.61,83l.92-1.25c1.24-2.63,3.41-4.51,5.29-6.63a11.7,11.7,0,0,0,3.23-3.56c1.64-1.64,2.77-3.68,4.25-5.44,1.34-1,1.91-2.76,3.52-3.48a1.35,1.35,0,0,1,1,.21,3,3,0,0,1,.05,2.47,13.91,13.91,0,0,1-.44,1.43c-.28.77-.52,1.56-.77,2.34-.51,1.39-.91,2.83-1.42,4.23A34.21,34.21,0,0,0,181.71,77c-.24.61-.52,1.21-.78,1.81-.52,1.19-.88,2.45-1.48,3.62-.54,1-1,2-1.53,3s-1,2-1.53,3.07c-.74,1.35-1.56,2.65-2.43,3.92-.63.69-1.24,1.42-2.32,1.32C168.91,90.66,166.18,87.59,167.61,83Z"/><path class="cls-2" d="M167.61,83c.21,4,2.18,7.35,4.51,10.49a.93.93,0,0,1,.2.89c-1.07,1.19-2.48,2.05-3.31,3.47-.43,1.42-2.53.39-2.87,2a1.82,1.82,0,0,1-1.48,0c-2.29-1.2-4.64-2.33-6.37-4.36-.89-1-1.88-2-1.59-3.56.67-1.78,2.25-2.58,3.73-3.48,2.35-1.67,4-4.2,6.59-5.56A2,2,0,0,1,167.61,83Z"/><path class="cls-3" d="M199.69,7.23c4.85-4,10.68-5.53,16.71-6.41,9.11-1.35,18.28-.61,27.43-.68.84,1.09.15,1.48-.81,1.76-5.66,0-11.33,0-17,0a10,10,0,0,0-6,1.53c-4.14,1.69-7.86,4.24-12.06,5.81a20,20,0,0,1-5.51.08C201.29,9.09,199.57,9.32,199.69,7.23Z"/><path class="cls-4" d="M50.92,93.3c-6.29,7.11-14.44,10-23.67,10.43,2.61-2.58,6.27-3.6,8.91-6.13A11.42,11.42,0,0,0,39.41,94a6.55,6.55,0,0,1,2.15-2.35,3.47,3.47,0,0,1,1.15-.15c1.72.21,3.46.23,5.19.36C49.05,91.92,50.5,91.61,50.92,93.3Z"/><path class="cls-5" d="M244.7.07c4.34,0,8.69,0,13,0,2.38,0,3,.56,1.43,2.65-1,1.26-1.2,3-2.47,4.09-3.8.52-7.6.92-11.28-.62C244.18,4.23,245.07,2.08,244.7.07Z"/><path class="cls-6" d="M245.46,5.26c1.82,1.49,3.95.52,5.93.72,1.78.18,3.64-.25,5.3.78a27.56,27.56,0,0,1-3.76,6.72,58.05,58.05,0,0,0-6.18-.5c-1.48-.06-3-.27-3.5-2a5.61,5.61,0,0,1,0-2.48C243.87,7.31,243.46,5.46,245.46,5.26Z"/><path class="cls-7" d="M244,10.49c.7,2.58,2.84,1.06,4.29,1.52s3.84-1.26,4.68,1.47c-1.21,2-1.67,4.52-3.66,6.07-2.71.18-5.52,1-7.91-1.1-.84-1.89,0-3.67.4-5.47C242.29,12,242.27,10.47,244,10.49Z"/><path class="cls-8" d="M13.59,64.36a9.73,9.73,0,0,1,2.2-4.52c2.1.34,1.76,2.09,1.85,3.44.25,3.57-.08,7.14,0,10.71,0,.65,0,1.3,0,2a8.4,8.4,0,0,1-.23,1.87c-.88,1.75-.73,4.2-3.27,4.81a1.13,1.13,0,0,1-.91-.8A39.63,39.63,0,0,1,13.59,64.36Z"/><path class="cls-9" d="M13.59,64.36l.11,18.21c.4,2-.48,3.57-1.6,5-.71,1-1.53,1.2-2.18-.14a36.43,36.43,0,0,1,.64-15.72C10.92,69,12.37,66.73,13.59,64.36Z"/><path class="cls-10" d="M57,84.56a7.07,7.07,0,0,1-2.18,3.87c-3.29.18-6.59.49-9.86-.23a1.89,1.89,0,0,1-.91-.79c-.24-1.63,1.07-2.52,1.78-3.7a4.68,4.68,0,0,1,2.93-2.29,19.78,19.78,0,0,1,6.19,0C56.72,81.65,58,82.4,57,84.56Z"/><path class="cls-11" d="M3.08,92.72c1.06-4.63,2.15-9.26,4.5-13.46,2.06,2.71.9,5.86,1.16,8.82a41.62,41.62,0,0,1-.12,4.73c-.16,2.57-1.48,4.71-2.73,6.85-.45.77-.93,1.9-2.26,1.22C2.08,98.25,3.2,95.45,3.08,92.72Z"/><path class="cls-12" d="M61.47,72.59c-1.12,2.12-.53,4.81-2.25,6.74-2.89-1-6.24.27-8.89-1.87-.86-1.53.16-2.66.8-3.89A6.28,6.28,0,0,1,54.57,71C57,71.13,59.77,69.47,61.47,72.59Z"/><path class="cls-13" d="M79.49,33a114.42,114.42,0,0,1-9.08,11.85,1.79,1.79,0,0,1-.55-1.38,9.84,9.84,0,0,1,.82-2.87,3.94,3.94,0,0,0,1-2.46c.33-.87.92-1.6,1.27-2.47s.52-1.51.77-2.28c.45-1.32.88-2.64,1.24-4,.86-2.27.89-5,3.54-6.26C80.76,26.22,79.54,29.67,79.49,33Z"/><path class="cls-14" d="M113.81,2.44l7.39,0c2.82,1.24,6.07,1.81,7.74,4.88a1.43,1.43,0,0,1-.18,1c-2.37,1.7-5.4.18-7.82,1.62a2.42,2.42,0,0,1-1.07.11c-2.19-1.49-4.5-2.86-6.23-4.94.48-2.14,2.88-.71,3.74-2a3.18,3.18,0,0,1-3.35.22.7.7,0,0,1-.31-.58C113.73,2.56,113.76,2.44,113.81,2.44Z"/><path class="cls-15" d="M44.3,87.55c3.49.44,7.14-1,10.5.88-1.75,1.26-1.79,3.88-3.88,4.87-2.84-1.4-6.14.44-8.93-1.28-.47-.86,0-1.59.34-2.34A5.39,5.39,0,0,1,44.3,87.55Z"/><path class="cls-16" d="M199.82,93.36c-3.94,3.88-8.26,7.09-14,7.72a5.1,5.1,0,0,1-4-.12c-.19-1.72,1.31-2,2.33-2.37a23.62,23.62,0,0,0,5.33-3.27,6,6,0,0,1,1-.38c2.29-.55,3.69-2.6,5.8-3.46a3.88,3.88,0,0,1,1.11-.25C198.61,91.48,200.48,91,199.82,93.36Z"/><path class="cls-17" d="M107.08,80.82a6.53,6.53,0,0,1-1.52-3.66c-.82-2.14.88-2.31,2.15-2.52a20,20,0,0,1,6.32,0,3.85,3.85,0,0,1,1.27.53c1.18,1.88,3,3.63,1.17,6.09C113.29,82.15,110.13,82.6,107.08,80.82Z"/><path class="cls-18" d="M7.7,93.71,7.58,79.26a18.94,18.94,0,0,1,3-7.51l.06,16.58C11.42,91.09,10,92.64,7.7,93.71Z"/><path class="cls-19" d="M97.39,48.65a18,18,0,0,1-1.47-6c2.58-1.67,5.37-1.15,8.15-.8,1.55,2.21,3.16,4.4,1.28,7.22C102.64,50,100,50.32,97.39,48.65Z"/><path class="cls-20" d="M136.23,101.55c-5.8.33-11.56.46-16.49-3.4-.18-2.05,1.35-2.3,2.79-2.55a14,14,0,0,1,4,0c3.53,1,6.5,3.13,9.66,4.89A.9.9,0,0,1,136.23,101.55Z"/><path class="cls-21" d="M157.18,44.91c.22,1.82,1.73,3.28,1.44,5.24-2.66,1.93-6,.41-8.77,1.71a1.6,1.6,0,0,1-1.53-1,7.81,7.81,0,0,1-.71-5.18Q151.34,42.14,157.18,44.91Z"/><path class="cls-22" d="M61.47,72.59c-2.37-1.54-5-.4-7.5-.75a2.09,2.09,0,0,1-.51-2.09,31.55,31.55,0,0,1,2.6-4.36,3.57,3.57,0,0,1,1.52-1c2.14-.31,4.3-.86,6.21.74C62.58,67.48,63.1,70.37,61.47,72.59Z"/><path class="cls-23" d="M241.71,18c2.22,2,5.36-.49,7.56,1.58-.63,1.94-1.27,3.86-3,5.2a6.12,6.12,0,0,1-7,0,3.23,3.23,0,0,1-.53-2.43,9.56,9.56,0,0,1,1.87-4.3A.79.79,0,0,1,241.71,18Z"/><path class="cls-24" d="M88.4,2.38h16.4c-.49,2-2.22,1.39-3.51,1.52-1.44.15-2.52.31-1.49,2.11-.41,2-2,2.31-3.66,2.56a1.75,1.75,0,0,1-1.25-.68c-1.45-2.74-3.44-2.46-5.67-1.09-2.9.27-4.79-1.15-6.27-3.61C84.78,2.08,86.73,3.16,88.4,2.38Z"/><path class="cls-25" d="M182.6,38.88A9.65,9.65,0,0,1,184,34.3a70.5,70.5,0,0,1,10.48-.06c1.3,1.42.58,2.83,0,4.25a3.92,3.92,0,0,1-1.42,1.41c-2.65,1.25-5.45.93-8.21.71C183.86,40.53,182.54,40.49,182.6,38.88Z"/><path class="cls-26" d="M194.57,34.44c-3.53,1-7,1.41-10.55-.14a13.32,13.32,0,0,1,1.58-5.15c3.44,1,7,.17,10.46.63C197.06,31.81,196.45,33.33,194.57,34.44Z"/><path class="cls-27" d="M115.29,94.34a13.64,13.64,0,0,1-3.83-5.1c-.11-1.89,1.41-1.76,2.52-1.89,2-.21,3.93-.23,5.9-.26a2.89,2.89,0,0,1,1.72.74c1.09,1.59,3.22,2.83,1.83,5.28C120.82,94.24,118,93.62,115.29,94.34Z"/><path class="cls-28" d="M181.88,100.29c1.12,1.23,2.63.5,3.94.79-4,1.16-8.13.44-12.2.53-2.21-.68-4.59.3-6.77-.7-.52-.32-.9-.71-.68-1.4-.2-1.7,2.29-.7,2.26-2.24,1.61-.53,2.27-3.33,4.68-2a9.11,9.11,0,0,1,1.16,1C176.14,98.89,179,99.7,181.88,100.29Z"/><path class="cls-29" d="M79.49,33c-1.58-1.67-.53-3.74-.82-5.6-.22-1.4.5-3-.72-4.19a1.36,1.36,0,0,1-.32-.95c.35-1.54.66-3.12,2.3-3.91,1.23-.32,2.63-1.32,3.28.79.47,3.52.75,7-.72,10.39A10.22,10.22,0,0,1,79.49,33Z"/><path class="cls-30" d="M137.14,5.92c2.67,1,4.24,3.24,6,5.28-2.8,2-5.94.92-9,1-2.63-.56-4.27-2.31-5.5-4.56l.21-.25C131.19,4.42,134.3,5.91,137.14,5.92Z"/><path class="cls-31" d="M70.4,43.44c0,.47,0,.93,0,1.4l-2.19,6.1a3.38,3.38,0,0,1-1.28-1.63c-.78-1.67-2.34-1.06-3.62-1.19-2.08-.21-4.25.42-6.23-.69-.64-.77-.2-1.48.11-2.2a5.1,5.1,0,0,1,3.42-2.7C63.91,42.51,67.3,41.41,70.4,43.44Z"/><path class="cls-32" d="M50.26,77.07a17.46,17.46,0,0,0,6.14.77c1.17,0,2.58-.32,2.82,1.49A10.15,10.15,0,0,1,57,84.56c.13-1.77-.78-2.33-2.44-2.27-2.18.08-4.38,0-6.56,0a1.85,1.85,0,0,1-.51-.86,2.42,2.42,0,0,1,.63-1.85C48.89,78.82,49.25,77.66,50.26,77.07Z"/><path class="cls-33" d="M120.53,87.56c-1.68,1-3.56.64-5.37.75-1.28.07-2.74-.46-3.7.93a15.18,15.18,0,0,1-3-5.39c2.93-2,6.15-1,9.29-.91C119.83,83.74,121,85.14,120.53,87.56Z"/><path class="cls-34" d="M3.08,92.72c1.44,2.63.55,5.48.77,8.22.41,1.14.64,2.33,2.38,2.14s3.45,0,5.19-.16c4.37.11,8.75-.44,13.1.35a2.35,2.35,0,0,1,1.05.84c-1.92,1.38-4.09.63-6.14.67-5.2.12-10.42.06-15.63,0-3,0-4.64-1-3.36-4.44C1.38,97.85,1.6,95.07,3.08,92.72Z"/><path class="cls-35" d="M150.47,24a6,6,0,0,1,1.43,3.75c-2.88,1.91-6.17.66-9.23,1.22a2.76,2.76,0,0,1-1.23-.27c-1.08-1.58-2.31-3.11-1.24-5.2C143.71,21.9,147.19,20.91,150.47,24Z"/><path class="cls-36" d="M157.18,44.91c-2.18,0-4.36,0-6.54,0-1.13,0-2.24,0-2.42,1.5-.71.18-1.07-.25-1.4-.78-.5-1.66-2.07-3.16-.73-5.09,3.5-1.45,7-2.44,10.22.61C156.69,42.38,157.44,43.53,157.18,44.91Z"/><path class="cls-37" d="M63.79,65.12,57,65.1c-.22-1.58,1.06-2.61,1.43-4a12.42,12.42,0,0,1,1.08-1.69A17.05,17.05,0,0,1,62,56.67a3.44,3.44,0,0,1,1-.5c1.29,0,3-.63,3,1.64A25,25,0,0,1,63.79,65.12Z"/><path class="cls-38" d="M137.14,5.92c-2.51,1.84-5.71-.13-8.26,1.47-2.2-2.22-5.58-2.6-7.68-5C126.81,2.26,132.41,2.12,137.14,5.92Z"/><path class="cls-39" d="M239.46,24c2.14,1.55,4.59.38,6.86.8-.93,2.45-1.81,4.92-3.78,6.78-2.22.14-4.63.93-5.95-1.83a7.64,7.64,0,0,1,.75-4.1C237.84,24.79,238.17,23.75,239.46,24Z"/><path class="cls-40" d="M160.38,57.56c.39,1.52.79,3,1.18,4.56-2.68,1.86-5.77.73-8.65,1.18-2.79-1.78-3.07-3.3-1.18-6.28C154.66,56.32,157.58,56,160.38,57.56Z"/><path class="cls-41" d="M165.54,77.78a10,10,0,0,1,1.33,4.53c-2.41,1.75-5.47.55-8,1.75a1.67,1.67,0,0,1-1.56-.86c-.66-1.94-2.39-3.81-.31-5.89C159.89,76.5,162.77,76.16,165.54,77.78Z"/><path class="cls-42" d="M184.88,62.87c-.95,1.25-1.49,2.86-3.07,3.58-1.58.18-3.15.69-4.76.39-1.11-.21-2.62.08-2.68-1.77a8.59,8.59,0,0,1,1.48-4.52,19,19,0,0,1,6.92-.1C184,60.62,185.71,60.74,184.88,62.87Z"/><path class="cls-43" d="M149.72,51.64c.43-2.21,2.2-1.39,3.49-1.47,1.8-.11,3.61,0,5.41,0a8.59,8.59,0,0,1,.93,4.48c-2.9,1.8-6,1.25-9.05.67C148.91,54.36,148.64,53.15,149.72,51.64Z"/><path class="cls-44" d="M25.57,104.11l-.7-.26c-.46-2.5,1.72-3.87,2.47-5.87a3.69,3.69,0,0,1,1.91-1.45c2.6.06,5.59-1.78,7.55,1.5a25.64,25.64,0,0,1-9.55,5.7Z"/><path class="cls-45" d="M104,41.91c-2.59,1.41-5.4.49-8.11.75-1.08-1.57-1-3.46-1.37-5.2,2.27-1,4.83-.88,7.14-1.73A2.74,2.74,0,0,1,103,37.21c.38,1.43,1,2.8,1.26,4.26Z"/><path class="cls-46" d="M150.47,24c-3.46-1.34-6.92-.91-10.39,0a2.08,2.08,0,0,1-1.46-.93c-.58-1.42-2.07-2.86.09-4.22,3.26-.51,6.53-1.11,9.64.61A9.8,9.8,0,0,1,150.47,24Z"/><path class="cls-47" d="M152.71,62.86c2.84-1.56,5.91-.37,8.85-.74a11.57,11.57,0,0,1,1,4.45c-2.59,1.87-5.45,1-8.25.83a3.61,3.61,0,0,1-2.59-2.5A2.22,2.22,0,0,1,152.71,62.86Z"/><path class="cls-48" d="M102.58,68.1c-.82-.78-.75-1.81-.8-2.82-.75-2,.66-2.4,2-2.6,2.29-.34,4.62-.53,6.83.48,1.51,1.53,2.2,3.2.93,5.22C108.52,69.6,105.52,69.83,102.58,68.1Z"/><path class="cls-49" d="M180.27,46.38a13.86,13.86,0,0,1,1.59-5.25,55.25,55.25,0,0,0,6.55.53c1.44,0,3,.06,3.73,1.71A3,3,0,0,1,190.66,47C187.15,47.68,183.64,48.34,180.27,46.38Z"/><path class="cls-50" d="M186.34,27a8,8,0,0,1,1.39-3.78c3.34-1.76,6.79-1.3,10.25-.46,1.64,1.55.7,3-.19,4.44a4,4,0,0,1-1.26.64C193.1,28,189.6,28.93,186.34,27Z"/><path class="cls-51" d="M199.69,7.23c2.83,2.18,6.11.49,9.13,1-.23,3.25-2.93,3.73-5.24,4.66a21.74,21.74,0,0,1-5.81.06c-1.11-.15-2.56-.1-2.52-1.89A10.77,10.77,0,0,1,199.69,7.23Z"/><path class="cls-52" d="M237.23,29.2c.78,3,4.09.28,5.31,2.33a19.41,19.41,0,0,1-3.75,6.73,10.45,10.45,0,0,1-4.62-1.36,2,2,0,0,1-.41-1.54c.37-1.39,1-2.67,1.43-4.05C235.71,30.46,235.65,29,237.23,29.2Z"/><path class="cls-53" d="M180.27,46.38l10.53,0c1,2.14.63,3.84-1.65,4.89a57.35,57.35,0,0,1-7.06-.18c-1.36-.18-3.25-.17-2.49-2.56C179.61,47.77,179.55,47,180.27,46.38Z"/><path class="cls-54" d="M165.54,77.78l-9.07,0-.58-.27a3.24,3.24,0,0,1-.39-4.16c3.14-1.48,6.23-2.16,9.06.67Z"/><path class="cls-55" d="M186.34,27l10.58,0c.78,1.3.58,2.32-.87,3-2.94,1.42-6.06.55-9.1.67-.91,0-1.2-.7-1.35-1.47A2.47,2.47,0,0,1,186.34,27Z"/><path class="cls-56" d="M154.11,33.69a7.62,7.62,0,0,1,1,3.7c-3,2-6.55.61-9.68,1.74-1.76-1.35-2.47-3-1.62-5.2A10.3,10.3,0,0,1,154.11,33.69Z"/><path class="cls-57" d="M114.58,75.58c-2.08,0-4.16,0-6.24,0-1.22,0-2.56-.18-2.78,1.58A9.51,9.51,0,0,1,104,72.77c-.08-2.09,1.65-1.8,2.81-1.91a42,42,0,0,1,6.15-.28Q116.53,72.17,114.58,75.58Z"/><path class="cls-58" d="M18,55.34a17.39,17.39,0,0,1,3.09-5.94c2.76,2.18,1.22,5.47,2.08,8.14-.53,2.92-.29,6.24-3.89,7.6C16.56,62.17,18.21,58.63,18,55.34Z"/><path class="cls-59" d="M115.29,94.34c2.29-3,5.54-.93,8.28-1.56,1.23-.48,1.83.52,2.62,1.11.6.78,1.57,1.4,1.11,2.63-2.52.57-5.58-1.38-7.56,1.63A11,11,0,0,1,115.29,94.34Z"/><path class="cls-60" d="M18,55.34c1.61,1.64.63,3.69.8,5.54.14,1.44,0,2.92.79,4.23a9.63,9.63,0,0,1-3,9.73c0-3.85,0-7.69,0-11.54,0-1.19.4-2.52-.78-3.46A10.43,10.43,0,0,1,18,55.34Z"/><path class="cls-61" d="M88.4,2.38c-1.31,1.27-3.11.15-4.66,1,1.85,1.49,3.47,3.2,6.12,2.69.42.74,0,1.23-.48,1.74a10.82,10.82,0,0,1-2.5,1.53,2.09,2.09,0,0,1-1-.08,17.92,17.92,0,0,0-4.58-2.66,7.35,7.35,0,0,1-1.26-.82C78,4,75.17,4.34,72.82,3.33a.78.78,0,0,1-.29-.6c0-.23,0-.35.08-.35Z"/><path class="cls-62" d="M113.1,71.09c-1.69,1-3.57.66-5.39.76-1.29.07-2.76-.45-3.73.92a8.24,8.24,0,0,1-1.4-4.67h9c.9-.31,1.44.18,1.88.87A1.92,1.92,0,0,1,113.1,71.09Z"/><path class="cls-63" d="M177.27,56.11a10.33,10.33,0,0,1,1.59-5.29,11.86,11.86,0,0,0,6.75,1.32c1.26,0,2.78-.6,3.56,1.08.23,2,.23,3.86-2.14,4.64a20,20,0,0,0-6.07-.69C179.65,57.16,178.28,57.23,177.27,56.11Z"/><path class="cls-64" d="M174.37,65.07c2.21,1.93,5.18-.26,7.44,1.38a20.72,20.72,0,0,1-4.29,5.64c-1.52-.91-4,0-4.65-2.53A8,8,0,0,1,174.37,65.07Z"/><path class="cls-65" d="M72.61,2.38l.15.51c-4.31,2.23-9.14,3.3-13.24,6a4.23,4.23,0,0,0-2.8,1.58A3.07,3.07,0,0,1,56,11c-1.08.36-2,1.11-3.22,1.09A1.27,1.27,0,0,1,52.5,10C58.38,5.24,64.88,2.16,72.61,2.38Z"/><path class="cls-66" d="M82.49,29.52,82.4,17.91c0-1.95,1-2.7,2.87-2.34,2.23,3.12.72,6.6.93,9.92Z"/><path class="cls-67" d="M158.69,83.82c2.29-2.92,5.48-.9,8.18-1.51a.5.5,0,0,1,.15.55c-1.43,2.65-3.91,4.28-6.08,6.2C158.18,88.17,158,86.2,158.69,83.82Z"/><path class="cls-68" d="M191.65,43.5c-2.05-1.63-4.43-.52-6.65-.82-1.23-.18-2.82.45-3.14-1.55a2.61,2.61,0,0,1,.74-2.25,15.76,15.76,0,0,0,10.52,0C194.17,41,194,42.56,191.65,43.5Z"/><path class="cls-69" d="M195.25,11.09c2.87,1.95,6.08.42,9.09.91.92,2-.23,3-1.9,3.79-3.48.27-7,1.22-10.3-.86A8,8,0,0,1,195.25,11.09Z"/><path class="cls-70" d="M110.81,63.61h-6.28c-1.28,0-2.54,0-2.75,1.67a9.5,9.5,0,0,1-1.4-4.66c2.63-1.61,5.75-.92,8.53-1.83,1.87.57,2.15,2.15,2.38,3.76A1.65,1.65,0,0,1,110.81,63.61Z"/><path class="cls-71" d="M164.56,74.06a11.53,11.53,0,0,0-8.86,0c-1.66-.19-1.47-1.44-1.47-2.58,2.06-3.26,4.81-3.84,9-1.92C163.18,71.23,164.78,72.37,164.56,74.06Z"/><path class="cls-72" d="M98.87,54.63A6.85,6.85,0,0,1,98,50.92c2.65-1.47,5.52-.51,8.29-.74a2.91,2.91,0,0,1,1.11.62c.91,1.53,1.74,3.08.37,4.79C104.74,55.75,101.68,56.36,98.87,54.63Z"/><path class="cls-73" d="M142.23,28.5c3.1-1.74,6.46-.35,9.67-.79-.1,1.48,1.72,2.19,1.49,3.72-1.91.74-3.88.12-5.82.23a6.55,6.55,0,0,0-3.69,1.42,1.26,1.26,0,0,1-1.13-.13C141.79,31.56,141.09,30.14,142.23,28.5Z"/><path class="cls-74" d="M192.14,14.93l10.71.06c.43,1.75-.5,2.79-1.87,3.61a5.79,5.79,0,0,1-1.28.35,26.16,26.16,0,0,1-6.19,0c-1.16-.13-2.91.14-2.79-2A3.27,3.27,0,0,1,192.14,14.93Z"/><path class="cls-75" d="M144.7,13.4c.93.86,2,1.63,2,3.09-3.16,1.93-6.54,1-9.87.72a3.8,3.8,0,0,1-1.72-1.15c-.66-1-1.24-2.08.08-3.07C138.37,12.13,141.57,11.82,144.7,13.4Z"/><path class="cls-76" d="M166.92,100.26c2,1.53,4.66-.06,6.7,1.35l-37.39-.06a2.53,2.53,0,0,0,.08-.48A4.08,4.08,0,0,1,140,99.7a11.62,11.62,0,0,0,5.71-.13c5.71.66,11.43.21,17.14.34C164.21,100,165.52,100.64,166.92,100.26Z"/><path class="cls-77" d="M136.37,16.48h10.28c.57,1,1.62,1.67,1.7,2.93l-10.43,0-.5-.06C136.49,18.63,135.65,17.83,136.37,16.48Z"/><path class="cls-78" d="M188.62,53.14c-2.25,0-4.5,0-6.75,0-1.66,0-2.86-.45-3-2.33a2.6,2.6,0,0,1,.74-2.26c.29,2,1.84,1.44,3.1,1.6,2.22.28,4.58-.75,6.66.73C190,51.92,190.28,52.86,188.62,53.14Z"/><path class="cls-79" d="M184.88,62.87c-.32-2-1.92-1.33-3.13-1.51-2-.3-4.11.78-5.9-.81,0-.82,0-1.67.73-2.26,3.68-1,7.42-2.31,10.38,1.56a3.29,3.29,0,0,1,.08,1.21,2,2,0,0,1-1.46,1.74A2.73,2.73,0,0,0,184.88,62.87Z"/><path class="cls-80" d="M145.24,38.92c2.92-2.89,6.59-.89,9.86-1.53a8.64,8.64,0,0,1,1.21,3.76,15.74,15.74,0,0,0-10.32,0A1.69,1.69,0,0,1,145.24,38.92Z"/><path class="cls-81" d="M118.32,83.8l-9.91,0a4.28,4.28,0,0,1-1.33-3h9.74c1.25-.28,1.49.71,1.9,1.5A1.5,1.5,0,0,1,118.32,83.8Z"/><path class="cls-82" d="M163.19,69.59c-2.77.69-6.38-1.72-8.24,2.26a.76.76,0,0,1-1.06-.15c-.77-1.65-1.69-3.28-.43-5.1l9.08,0A3.79,3.79,0,0,1,163.19,69.59Z"/><path class="cls-83" d="M198.36,23.22l-10.63,0a4.57,4.57,0,0,1,1.32-3c3.41-1.7,6.71-1.14,10,.5C199.67,21.71,200.2,22.76,198.36,23.22Z"/><path class="cls-84" d="M143.73,33c0-1.19.17-2.32,1.72-2.23,2.65.16,5.39-.65,7.94.7l.72,2.26c-3.45.32-7-.74-10.35.74A1,1,0,0,1,143.73,33Z"/><path class="cls-85" d="M22.55,57.62C21,55.07,22.42,52,21.08,49.4c.44-2.06,1.78-3.61,3-5.23,1.85,2.16.56,4.91,1.38,7.26C25.38,53.91,25.49,56.48,22.55,57.62Z"/><path class="cls-86" d="M101.83,35.94c-2,2.39-4.76,1.43-7.28,1.52l-.84-3.78c2.21-1.63,4.58-1.15,7-.52A2.23,2.23,0,0,1,101.83,35.94Z"/><path class="cls-87" d="M98.87,54.63c3,.28,6.09-.67,9,.75,1.36,0,1.23.95,1.16,1.86a1.8,1.8,0,0,1-.89,1c-2.89.63-5.78,1.14-8.51-.58A4.5,4.5,0,0,1,98.87,54.63Z"/><path class="cls-88" d="M150.47,54.64h9.08l.83,2.93-9.16.07a1.62,1.62,0,0,1-1.21-1A1.8,1.8,0,0,1,150.47,54.64Z"/><path class="cls-89" d="M99.71,6c-1.19-.13-2.29-.52-2.15-1.92S99,3.15,99.88,3c1.64-.23,3.41.56,4.92-.63l9,0a1.78,1.78,0,0,1,0,.46C109.23,4.55,104.64,6.07,99.71,6Z"/><path class="cls-90" d="M91.92,27a10.78,10.78,0,0,1-1.29-4.57c1.26-1.15,2.84-1.18,4.42-1.22a3.39,3.39,0,0,1,2.22,2c.56,1.2,1,2.4.26,3.69C95.69,28.4,93.82,28.18,91.92,27Z"/><path class="cls-91" d="M28.47,37.23a20.9,20.9,0,0,1,3.82-5.78c1.27,1.24.91,3,1.32,4.47-.58,2.94-1.08,5.95-4.77,6.68C27.07,40.92,27.79,39.07,28.47,37.23Z"/><path class="cls-92" d="M186.38,60.63c-.61-2.47-2.64-2.07-4.43-2.28s-3.59.6-5.37-.06c.07-.78,0-1.62.69-2.18l7.08,0c1.24,0,2.59-.17,2.82,1.61a2,2,0,0,1,.6,1.54C187.59,60,187.48,60.85,186.38,60.63Z"/><path class="cls-93" d="M39.68,22.25c.82-2.32,2.91-3.5,4.56-5.08,2,1.07,2.66-2.45,4.68-1.44a2.1,2.1,0,0,1,.25,1c-2.27,3.4-4.63,6.71-8.57,8.41C39,24.63,39.2,23.48,39.68,22.25Z"/><path class="cls-94" d="M199.07,21l-10-.84L190.72,17c3.14,2.06,6.65.45,9.94,1C201.42,19.69,200.48,20.46,199.07,21Z"/><path class="cls-95" d="M99.61,57.63h9c1.29,0,1.12.69.7,1.5-2.73,2-5.88,1.45-8.93,1.5A4.37,4.37,0,0,1,99.61,57.63Z"/><path class="cls-96" d="M89.89,21.73l-3.14,2.93c-2.08-1-.68-2.75-.91-4.12-.26-1.56,0-3.18-.12-4.77a1.79,1.79,0,0,1,.78-1.58A1.43,1.43,0,0,1,87.64,14c1.83,1.86,2.24,4.3,2.73,6.7A1.55,1.55,0,0,1,89.89,21.73Z"/><path class="cls-97" d="M91.92,27c1.79-.44,3.82.65,5.45-.84,1.81-.16,2.06,1.12,2.29,2.44a3.34,3.34,0,0,1-.51,1.9,4.79,4.79,0,0,1-6.22.15A7.75,7.75,0,0,1,91.92,27Z"/><path class="cls-98" d="M144.7,13.4l-10.06.14a1.46,1.46,0,0,1-1.69-.78,1.43,1.43,0,0,1,.14-1.44l10-.12A3.44,3.44,0,0,1,144.7,13.4Z"/><path class="cls-99" d="M245.46,5.26c-1.21.65-.29,2.35-1.49,3-1.43.21-2.75.15-3.48-1.38a5.33,5.33,0,0,1,2.74-5.38l.6-1.36.87-.07C247.21,1.47,245.24,3.53,245.46,5.26Z"/><path class="cls-100" d="M172.87,69.56c1,1.76,4.29-.51,4.65,2.53a6.26,6.26,0,0,1-3.16,3.34c-1.08-.28-2.26-.33-3-1.35A8.24,8.24,0,0,1,172.87,69.56Z"/><path class="cls-101" d="M92.93,30.69c2-.33,4.13.77,5.94-.77,2.34,0,2.29,1.71,2.45,3.3l-.26.46H93.71A5.15,5.15,0,0,1,92.93,30.69Z"/><path class="cls-102" d="M39.68,22.25c.13,1.08,0,2.37,1.6,2.46-.43,3-1.92,5.07-5,5.76-1.67-.48-1.71-1.54-1-2.87A17.23,17.23,0,0,1,39.68,22.25Z"/><path class="cls-103" d="M24.91,51.66c-1.73-2.33-.46-5-.84-7.49a10.52,10.52,0,0,1,2.25-3.72c1.68,1.89.64,4.32,1.29,6.42C27.53,48.92,27.43,51,24.91,51.66Z"/><path class="cls-104" d="M106.38,50.88a25.74,25.74,0,0,1-8.4,0,2.63,2.63,0,0,1-.59-2.27h8.24C107.23,48.94,106.91,49.88,106.38,50.88Z"/><path class="cls-105" d="M235,44.82c-1,1.13-.86,2.92-2.23,3.83-1.34.18-2.68.33-3.85-.59-.73-1.22-.17-2.31.35-3.41a3.83,3.83,0,0,1,2.35-2C233.05,42.85,235.42,41.64,235,44.82Z"/><path class="cls-106" d="M35.24,27.6c0,1.13,0,2.3,1.62,2.36.51,3.08-.81,5-3.71,6-1.53-1.27-.59-3-.86-4.51A13.22,13.22,0,0,1,35.24,27.6Z"/><path class="cls-107" d="M66.07,57.81c-1-1.45-2.54-.76-3.85-.94-.39-.68,0-1.21.33-1.76a19.5,19.5,0,0,0,1.6-2.32c.88-1.15,1.48-2.54,2.81-3.3l.49-.1a1.69,1.69,0,0,1,.77,1.55A22.08,22.08,0,0,1,66.07,57.81Z"/><path class="cls-108" d="M27.1,47.17c-1.57-2.09-.45-4.49-.78-6.72a6.86,6.86,0,0,1,2.15-3.22c.21,1.84-.25,3.79.86,5.49,1,1.86-.3,3.09-1.22,4.43A.87.87,0,0,1,27.1,47.17Z"/><path class="cls-109" d="M234.23,36.68c1.72-.06,3.38,0,4.56,1.58a4.63,4.63,0,0,1-1.57,2.89c-1.81.2-3.7.71-4.93-1.31C232.12,38.29,232.23,36.91,234.23,36.68Z"/><path class="cls-110" d="M225.34,60.72c-1.09,1.45-1.42,3.39-3,4.51-1.1-.21-2.3.73-3.34-.28-.52-1.76.58-3.05,1.31-4.44a4.41,4.41,0,0,1,1.74-1.37C223.55,58.83,225.15,58.33,225.34,60.72Z"/><path class="cls-111" d="M171.36,74.08c1.23-.06,2.37.07,3,1.35a29,29,0,0,1-5.83,6.29C169.06,79,169.64,76.34,171.36,74.08Z"/><path class="cls-112" d="M225.34,60.72a2.16,2.16,0,0,0-3.08-.85c-1-1.74.15-2.86,1.15-4a4.86,4.86,0,0,1,1-.64c1.38-.28,3-1.6,3.79.79C227.21,57.56,227,59.58,225.34,60.72Z"/><path class="cls-113" d="M232.74,39.67c1.14,1.58,3.34-.07,4.48,1.48-.66,1.28-1,2.75-2.25,3.67-.56-2.32-2.45-1.07-3.76-1.41-1-1.39-.48-2.58.47-3.72A.81.81,0,0,1,232.74,39.67Z"/><path class="cls-114" d="M229,47.9c1.26.18,2.7-.5,3.75.75-.68,1.26-1,2.75-2.31,3.61-1.22-.1-2.52.55-3.65-.41-.69-1.66.29-2.81,1.21-4A.83.83,0,0,1,229,47.9Z"/><path class="cls-115" d="M216.37,74.21c-1,1.22-1.43,2.8-2.83,3.68-.91.33-1.79.83-2.81.4-1.42-1.18-.09-2,.36-3a14.62,14.62,0,0,1,2.16-2.62C214.9,71.94,216.32,71.67,216.37,74.21Z"/><path class="cls-116" d="M226.77,51.64c1.22.17,2.59-.45,3.66.62-.92,1.14-.73,3-2.25,3.74-1.28-1.23-2.47-.37-3.69.13-1-1.57.14-2.63.9-3.78A2.16,2.16,0,0,1,226.77,51.64Z"/><path class="cls-117" d="M210.3,77.82l3.24.07c-1.78,1.32-2,3.92-4,5-1-.14-2.08.43-3-.41-.54-1.71,1-2.42,1.7-3.52C208.84,78.43,209.21,77.46,210.3,77.82Z"/><path class="cls-118" d="M216.37,74.21c-.65-1.6-1.73-1.71-3.07-.87a1.34,1.34,0,0,1-.29-1.45c1.67-1.11,2-3.82,4.63-3.8.87.23,2,.2,1.72,1.63C218.27,71.15,217.93,73.09,216.37,74.21Z"/><path class="cls-119" d="M199.82,93.36c-.36-1.88-1.88-1.15-3-1.34,0-2.58,1.69-3.58,3.9-4.07,1.19.42,2.85.45,2.09,2.5C201.81,91.41,201.46,93.05,199.82,93.36Z"/><path class="cls-120" d="M219.36,69.72c-.53-1-1.45-.86-2.33-.87a2.21,2.21,0,0,1-.51-.89c-.08-1.42.86-2.22,1.82-3a.79.79,0,0,1,.93.16c1-.41,2.11-1.38,3.08.12C220.91,66.43,221,68.62,219.36,69.72Z"/><path class="cls-121" d="M206.56,82.31c1,.1,2.1-.31,2.94.58-1.51.84-1.05,3.25-3,3.74-1-.14-2.11.44-3-.44-.51-1.41.31-2.39,1.11-3.37C205.19,82.36,205.77,81.92,206.56,82.31Z"/><path class="cls-122" d="M89.89,21.73v-.8c1-1.9,2-3.91,4.75-3,.73,1.18,1.46,2.36.48,3.77-1.39.89-3,.76-4.49.75Z"/><path class="cls-123" d="M203.57,86.05c1,.1,2.1-.31,2.94.58-1.64.88-1.59,3.39-3.69,3.82.08-1.59-1.72-1.18-2.25-2.12C201.06,86.89,201.78,85.77,203.57,86.05Z"/><path class="cls-124" d="M52.5,10c0,.76-.11,1.56.72,2l.18.5a4.78,4.78,0,0,1-4.08,2.92c-.84-.36-1.71-.7-1.32-1.92C49.46,12.26,50.71,10.76,52.5,10Z"/><path class="cls-125" d="M48,13.49A2.6,2.6,0,0,0,49.51,15c.16.65-.06.92-.74.75-1,.86-2,1.73-3,2.58-2.08,1.73-1.28-.42-1.54-1.15A12.12,12.12,0,0,1,48,13.49Z"/><path class="cls-126" d="M86.15,15c.33,3.23-.71,6.53.6,9.7l-.55.83c-1.55-1.68-.5-3.74-.8-5.6-.22-1.39.53-3-.75-4.16C84.62,14.45,85.33,14.6,86.15,15Z"/><path class="cls-127" d="M185.58,62.8l.88-1.43c.21-.13.41-.35.63-.38,8.35-1.17,16.7-1.51,25,.21a2.39,2.39,0,0,1,.76,1.16c-.19,2-.8,3.65-3.14,3.92-6.64-.14-13.27,0-19.9-.07-1.71,0-3.48.21-4.9-1.1C185.15,64.34,185.36,63.57,185.58,62.8Z"/><path class="cls-128" d="M182.6,73.32a7.41,7.41,0,0,1,1.51-4.5c7-.7,14-.25,21-.23a3.92,3.92,0,0,1,2.7,1c1.27,2.21.27,3.88-1.27,5.44a2.68,2.68,0,0,1-1.35,0c-5.74-1.25-11.56-.36-17.34-.64C186.05,74.36,184.12,74.79,182.6,73.32Z"/><path class="cls-129" d="M182.6,73.32l19.35,0c1.47,0,3.06-.27,3.87,1.48a2.26,2.26,0,0,1-1.12,2.82,5.06,5.06,0,0,1-1.32.41c-6.28.3-12.57.08-18.85.11a4.21,4.21,0,0,1-3.41-1.09A4.52,4.52,0,0,1,182.6,73.32Z"/><path class="cls-130" d="M173.61,92c.14-1.61,1.43-2.53,2.24-3.74a5.78,5.78,0,0,1,3.85-1.11c4.1,0,8.2-.08,12.3,0,1.62,0,3.26.16,4.27,1.76a2.23,2.23,0,0,1-.59,2.61,4.18,4.18,0,0,1-2.46,1.36,161.06,161.06,0,0,1-16.59.2A3.75,3.75,0,0,1,173.61,92Z"/><path class="cls-131" d="M178.83,82.29c.4-1.3.57-2.69,1.54-3.75,6.43-.69,12.88-.27,19.33-.22a2.84,2.84,0,0,1,3,1.84,3.14,3.14,0,0,1-.17,2.11,3,3,0,0,1-2.34,1.49c-5.46-.42-10.93-.25-16.39-.32C182.05,83.42,180.23,83.7,178.83,82.29Z"/><path class="cls-132" d="M178.83,82.29c5.44,0,10.89.07,16.33,0a20,20,0,0,1,5.46.79c.65,2.46-.33,3.73-2.84,3.88-5-1-10.12-.29-15.17-.53-1.81-.08-3.76.35-5.27-1.14A4.72,4.72,0,0,1,178.83,82.29Z"/><path class="cls-133" d="M177.34,85.28c5.93,0,11.86,0,17.78,0,1.25,0,2.88-.56,3.23,1.5.12,1.65-.35,2.84-2.25,3-.82-1.73-2.4-1.47-3.88-1.47-5.45,0-10.91,0-16.37,0A4.8,4.8,0,0,1,177.34,85.28Z"/><path class="cls-134" d="M173.61,92l20.28,0c0,2.08-1.88,2.61-3,3.74l-.77,0c-5.48.29-11,.07-16.44.8l-.74-.75a3.86,3.86,0,0,1-.74-1.54c0-.26,0-.52,0-.78Z"/><path class="cls-135" d="M184.93,65.11c7.19,0,14.39,0,21.58,0,1.3,0,2.77-.5,3.83.79a1.69,1.69,0,0,1,.26,1.74c-.55,1-1.26,1.76-2.56,1.21-6.31-.92-12.65-.11-19-.46-1.54-.09-3.64.68-4.22-1.83C184.88,66.09,184.91,65.6,184.93,65.11Z"/><path class="cls-136" d="M184.86,66.58c1.07,1.23,2.52.74,3.81.75,5.65,0,11.3,0,17,0,1.24,0,2.87-.55,3.2,1.5a1.13,1.13,0,0,1,.19,1.44.72.72,0,0,1-.94,0c-5-1.6-10.25-.3-15.35-.77-2.87-.26-5.86.85-8.61-.75C184.16,68,184,67.12,184.86,66.58Z"/><path class="cls-137" d="M202.09,80.85c-.33-2-1.94-1.5-3.19-1.51-5,0-10.06,0-15.1,0-1.17,0-2.49.4-3.43-.76a1.59,1.59,0,0,1,.75-1.47h23.23C205.08,79.23,204.16,80.38,202.09,80.85Z"/><path class="cls-138" d="M163.18,101c-6-.46-12,.72-18-.74l-.51-.23a1.68,1.68,0,0,1-.58-1.47c2.13-2.56,5.64-2.72,8.11-4.68,1.27-.84,2.4-2,4-2.2a1.22,1.22,0,0,1,.94.33c1,3.28,3.71,4.88,6.48,6.33.6.31,1,.47,1,1.15C165.14,101,163.53,100.35,163.18,101Z"/><path class="cls-139" d="M157.2,92l-.7,0c-1.14-.14-1.66-1-2.25-1.83s-1.19-1.67-1.76-2.53c-.7-1.13-1.46-2.24-.79-3.66,1.9-1.56,4-1.47,6.23-.91l.76.75c.55,1.83.72,3.83,2.25,5.24Z"/><path class="cls-140" d="M172.17,94.24a1.57,1.57,0,0,1,.74,1.54c-2.1-1.31-2.69,1.91-4.48,1.49C169.35,95.86,170.3,94.48,172.17,94.24Z"/><path class="cls-141" d="M163.18,101c.51-.5,1-1,1.52-1.51h1.47l.75.75C165.87,101.52,164.44,100.83,163.18,101Z"/><path class="cls-142" d="M243.23,1.5q-1.17,2.58-2.32,5.16a10,10,0,0,1-1.74,4.5c-1.25,1.64-1.49,4.27-4.29,4.4-6.49-.65-13,.43-19.49-.69-1.49-.82-1.18-2.11-.64-3.24,1.39-2.91,2.52-6,4.52-8.56,1.31-1.9,3.11-2.41,5.39-2.34,5,.15,10.07,0,15.1.06C241,.8,242.26.4,243.23,1.5Z"/><path class="cls-143" d="M219.27,3.07c-.32,4.19-3.68,7.17-4.48,11.17-.23,2.46-1.1,4.49-3.67,5.36a26.61,26.61,0,0,1-6.67.16c-1.21-.1-2.89.24-3.11-1.77l1.51-3a4.16,4.16,0,0,0,1.49-3c1.52-1.22,3.55-1.83,4.48-3.74A33.85,33.85,0,0,1,219.27,3.07Z"/><path class="cls-144" d="M42.78,89.8c-.27.74-.53,1.48-.79,2.22l-.69,0c-3.52,1.58-7,1.84-10.43-.3-.6-2.17,1-2.76,2.47-3.5a21.48,21.48,0,0,1,6.3-.24C40.88,88.09,42.52,87.83,42.78,89.8Z"/><path class="cls-145" d="M36.8,98c-2.62-1.62-5.51-.36-8.24-.76-1-2.46.65-3.23,2.52-3.83,3-.1,6-1,8.73.85C39.56,96.14,38.18,97.09,36.8,98Z"/><path class="cls-146" d="M39.81,94.29H30c-1.71-.52-.23-1.28-.15-1.94a2.4,2.4,0,0,1,1-1.06c3.39,1.53,7,.41,10.46.77A2.39,2.39,0,0,1,39.81,94.29Z"/><path class="cls-147" d="M238.74,10.54a11.09,11.09,0,0,1,2.17-3.88C241.52,8,243.3,7,244,8.26c0,.74,0,1.49,0,2.23-.5.75-1,1.5-1.48,2.26C240.32,13.56,238.52,13.75,238.74,10.54Z"/><path class="cls-148" d="M238.74,10.54c.44,2.1,2.12,2.1,3.74,2.21-.26,1.74-.51,3.48-.77,5.22H241a6.72,6.72,0,0,1-5.41-1.39,1.16,1.16,0,0,1,.28-1.55Q237.3,12.79,238.74,10.54Z"/><path class="cls-149" d="M16.54,77.82l.34-1.45c1.27-2.09,1-5.19,4-6.13,5.45-1.1,11-1.84,16.44-2.91,1.92-.37,3.95-.71,5.63.85.91,1.8-.13,3.2-.95,4.64C41,74,40.61,75.89,38.58,76c-5.7,0-11.2,1.5-16.77,2.4C20,78.67,18.17,79.27,16.54,77.82Z"/><path class="cls-150" d="M16.54,77.82c5.85-.07,11.43-1.94,17.19-2.62,1.83-.22,3.62-.94,5.3.4.57,1.32-.39,2.29-.75,3.41A16,16,0,0,1,36.93,82a2.35,2.35,0,0,1-1.52.78c-5.49.16-10.77,1.76-16.18,2.42-1.61.19-3.19.62-4.73-.24a1.4,1.4,0,0,1-.09-2.19Z"/><path class="cls-151" d="M20.32,71.09c-1.64,1.44-1.68,3.92-3.44,5.28-.09-.51-.19-1-.29-1.53a44.34,44.34,0,0,0,3-9.73,25.66,25.66,0,0,0,3-7.49,15.66,15.66,0,0,0,2.36-6,9.65,9.65,0,0,0,2.19-4.49l.65,0c1.37-1,2.58-.52,3.75.37a1.82,1.82,0,0,1,.49,1c-.77,2.8-2.26,5.3-3.35,8-1.48,2.79-2.76,5.71-4.5,8.36C22.83,66.9,22.21,69.39,20.32,71.09Z"/><path class="cls-152" d="M14.41,82.73l0,1.83c.66,2.15-.5,4.06-.78,6.09-.42,1.45-.6,2.94-.89,4.42-.46,1.85-.55,3.78-1,5.63A4.71,4.71,0,0,1,10.57,104c-1.6.06-3.21,0-4.79.19-3.3.44-3.07-1.08-1.93-3.22A28.71,28.71,0,0,0,7.7,93.71a15.74,15.74,0,0,0,2.92-5.38c1.64-1.59,2-3.89,3.08-5.76A.79.79,0,0,1,14.41,82.73Z"/><path class="cls-153" d="M46.44,84.54l-2.15,2.27c-3.3,1.8-6.71,1.3-10.13.46-1.38-1.91,0-2.93,1.29-4,2.62-.89,5.33-.59,8-.47C44.7,82.87,45.9,83.18,46.44,84.54Z"/><path class="cls-154" d="M46.44,84.54c-3.63-1.48-7.42-.39-11.13-.74-.38-.78.1-1.16.69-1.5l.76-.74a12.34,12.34,0,0,1,11.21,0c0,.24,0,.49,0,.74C47.46,83.05,47,83.8,46.44,84.54Z"/><path class="cls-155" d="M33.81,86.79l10.48,0a4.59,4.59,0,0,0,0,.74,2.38,2.38,0,0,1-1.52,2.25c-3.14-1.66-6.52-.33-9.76-.76a1.2,1.2,0,0,1-.4-.85A1.56,1.56,0,0,1,33.81,86.79Z"/><path class="cls-156" d="M37.58,78.56c.48-1,1-2,1.45-3l2.22-3c3.41,1,7.21-.56,10.46,1.53l-1.45,3A4,4,0,0,1,48.74,80a41.9,41.9,0,0,0-7-.38C40.29,79.58,38.75,79.77,37.58,78.56Z"/><path class="cls-157" d="M51.71,74.09c-2.55,0-5.11,0-7.66,0-1.19,0-2.55.26-2.8-1.52l1.53-3.69A1.93,1.93,0,0,1,44,68.44c3.33.51,6.88-.88,10,1.16l0,2.24Z"/><path class="cls-158" d="M70.4,43.44l-10.51,0c-.36-2.17,1-3.33,2.59-4.33a4.78,4.78,0,0,1,1.22-.32,26.21,26.21,0,0,1,4.77,0c1.14.1,2.57-.07,2.72,1.7A4.94,4.94,0,0,1,70.4,43.44Z"/><path class="cls-159" d="M73.43,35.94a2.26,2.26,0,0,1-1.5,2.24c-2.47,1.37-5.09.64-7.67.53C62.69,36,64.72,35,66.64,34,69,34.49,71.74,33.25,73.43,35.94Z"/><path class="cls-160" d="M78,22.4c0,.27,0,.53,0,.8-.76,2.25-1.53,4.49-2.3,6.74C74,31,72.56,31.21,71.46,29.22c0-2.65,1.89-4.11,3.49-5.77C75.88,22.89,76.71,22,78,22.4Z"/><path class="cls-161" d="M71.9,28.36c.44,2.45,2.4,1.3,3.75,1.58a7.15,7.15,0,0,1-1.47,3.75c-2.18.43-4.36.84-5.77-1.57a2.93,2.93,0,0,1,0-1.18C69.19,29.54,70,28.24,71.9,28.36Z"/><path class="cls-162" d="M69,31.47c.85,2.83,3.87.57,5.23,2.22,0,.83.13,1.71-.75,2.25-2-1.61-4.77.21-6.74-1.52C66.57,32.77,67,31.55,69,31.47Z"/><path class="cls-163" d="M63.72,38.18h8.21c.59,1,.46,1.81-.74,2.24-2.67-1.59-5.62-.3-8.4-.82C62.53,38.76,62.49,38.06,63.72,38.18Z"/><path class="cls-164" d="M99.71,6c4.58-1.54,9.12-3.26,14.08-3.14l3.71.19c-.48,2.13-2.89.73-3.65,2.16C111.58,7.41,108.41,8.06,106,10c-1.78-1-1.64,1.76-3,1.53-1.73.12-1.44,2.48-3,2.76a6,6,0,0,1-2.84,1.29c-2.57-.76-3.85-2.7-4.66-5.08a2.76,2.76,0,0,1,3.39-2.34A11.66,11.66,0,0,0,99.71,6Z"/><path class="cls-165" d="M102.61,11.25c1.21-.06,1.2-2.57,3-1.5,4.75-1.59,9.49-2,14.24,0l.71,0c1.4.63,2.35,1.43,1.13,3-5.64,2-11.43.92-17.16.69A1.89,1.89,0,0,1,102.61,11.25Z"/><path class="cls-166" d="M122.05,12l-1.51-2.22c.24-1.81,1.64-1.4,2.81-1.54,1.77-.21,3.67.63,5.32-.6,2,.62,2.75,2.69,4.42,3.68.1.46.21.92.32,1.39-2.89,2-6.2.74-9.29,1.18A1.83,1.83,0,0,1,122.05,12Z"/><path class="cls-167" d="M119.83,9.74H105.59a14.3,14.3,0,0,1,8.26-4.5A11.15,11.15,0,0,1,119.83,9.74Z"/><path class="cls-168" d="M173.65,96.53A1.59,1.59,0,0,1,175.4,95c4-.22,8.13.48,12.16-.59.89-.24,1.88.47,2.53,1.29-2.11,2.65-5.15,3.62-8.21,4.56C178,101.55,175.64,99.44,173.65,96.53Z"/><path class="cls-169" d="M196.1,89.77l2.25-3c.94-1.14,2-2.18,2.27-3.75l1.37-.85a3.21,3.21,0,0,1,3.09.84l-1.51,3-3,2.28A11.57,11.57,0,0,0,196.83,92l-.7.06a1,1,0,0,1-.83-.83Z"/><path class="cls-170" d="M195.3,91.25l.83.83c-1.58,1.48-3,3.13-5.27,3.7l3-3.74Z"/><path class="cls-171" d="M118.32,82.31l-1.5-1.5c-.12-1.85-1.78-3.26-1.51-5.22,1.72-3.14,4.55-1.45,7-1.63a5,5,0,0,1,3.32,2.82c.58,1.68,2,3.26.67,5.19A14.39,14.39,0,0,1,118.32,82.31Z"/><path class="cls-172" d="M122.85,74.82c-2.5.37-5.16-.78-7.54.77h-.73c.06-1.68-.07-3.3-1.48-4.49,0-.75,0-1.49,0-2.24,1.87-1.53,4.14-.9,6.25-1.17a4.08,4.08,0,0,1,2.41,1.51,9.09,9.09,0,0,1,1.58,4.1A1.86,1.86,0,0,1,122.85,74.82Z"/><path class="cls-173" d="M106.38,50.88c-.07-.81.12-1.7-.75-2.24q-.8-3.36-1.6-6.73h.1c1.49-1.33,3.35-1,5.1-1.14,2.48.82,2.58,3.36,3.75,5.14.41,1.81,1.52,3.64-.13,5.4a5.41,5.41,0,0,1-5.77-.42Z"/><path class="cls-174" d="M140.06,100.35l-3.75.72a45.34,45.34,0,0,1-9-4.55l-1.53-2.22c1.84-3.07,5-1.75,7.54-2.22a9.92,9.92,0,0,1,3,1.6,53.65,53.65,0,0,0,6,4.86c.44,1.19-.44,1.5-1.24,1.86A1,1,0,0,1,140.06,100.35Z"/><path class="cls-175" d="M147.46,45.66l.76.75c.25,1.5.5,3,.74,4.49-2.68,2.77-6.12,1.52-9.28,1.76-1.67-.75-1.89-2.44-2.51-3.88a6.43,6.43,0,0,1-.51-3.52,1.16,1.16,0,0,1,.93-.72C140.89,44.88,144.35,43.76,147.46,45.66Z"/><path class="cls-176" d="M139.3,52.4c3-1.6,6.59,0,9.66-1.5l.76.74c.11,1-.35,2.21.75,3v2.24c-2.34,2.93-5.49,1.57-8.37,1.59a3.45,3.45,0,0,1-2.45-2.41,7.59,7.59,0,0,1-.61-3.19C139.12,52.71,139.21,52.56,139.3,52.4Z"/><path class="cls-177" d="M59.21,61.37c-.63,1.3-.94,2.8-2.2,3.73l-.78.75a11.5,11.5,0,0,1-10.6,0c-1-2.12.23-3.49,1.57-4.85a4.09,4.09,0,0,1,1.28-.51C52.08,60.51,55.78,59.32,59.21,61.37Z"/><path class="cls-178" d="M45.73,65.06c3.39,1.67,7,.39,10.5.79C56.48,67.69,55,68.5,54,69.6c-3.49-.4-7.11.86-10.5-.79C42.73,66.67,43.71,65.55,45.73,65.06Z"/><path class="cls-179" d="M239.46,24,238,25.47c-2.72,1.47-4.95,1.07-6.55-1.72.05-2,.65-3.7,2.64-4.6,2,.36,4.5-.17,5.4,2.58Z"/><path class="cls-180" d="M239.49,21.73c-1.41-1.65-4-.78-5.37-2.48-.47-1.45-.15-2.47,1.49-2.8A12.15,12.15,0,0,1,241,18,7.54,7.54,0,0,1,239.49,21.73Z"/><path class="cls-181" d="M95.84,8.14l-3,2.24a1.1,1.1,0,0,1-1.41.41c-1-.89-2.53-1.48-2.26-3.28L89.86,6C93.53,2,94.27,6.25,95.84,8.14Z"/><path class="cls-182" d="M196.05,30a5,5,0,0,0,.87-3c.22,0,.44,0,.66,0,2.91.43,5.9.21,8.76,1.09,1.24,1.13.49,2.26-.09,3.3-1,1.82-1.85,3.73-2.89,5.54-.81,1.14-1.55,2.37-3.08,2.67-2.18-.22-4.46.08-6.37-1.36l.66-3.74C195.07,32.94,195.56,31.45,196.05,30Z"/><path class="cls-183" d="M193.91,38.18a17.83,17.83,0,0,1,6.69.75c.61,2.08-.92,3.41-1.77,5a87,87,0,0,1-5.47,8.23,24,24,0,0,0-2,3.24,27.5,27.5,0,0,1-2.22,3.15,1.81,1.81,0,0,1-1.79.59c-.06-.45-.11-.91-.17-1.36a8.86,8.86,0,0,0,1.45-4.6c.81-.56.73-1.42.74-2.25,1-1.33,1.14-2.93,1.44-4.48a4.47,4.47,0,0,0,.85-2.91,8.3,8.3,0,0,0,1.47-4.57Z"/><path class="cls-184" d="M134,92.79c-2.73.47-5.59.3-8.19,1.51l-2.2-1.52c-.19-1.78-1.79-2.84-2.28-4.47,0-1.91,1.59-1.57,2.67-1.7,1.58-.19,3.18-.22,4.78-.26a3.78,3.78,0,0,1,2.45,1.3c.92,1,1.58,2.23,2.46,3.29C134,91.51,134.41,92.08,134,92.79Z"/><path class="cls-185" d="M129.47,86.81c-2.49,1.76-5.7-.36-8.18,1.5l-.76-.75c-.71-1.27-1-2.76-2.21-3.76V82.31c2.6-1.37,5.42-.51,8.13-.74a1.65,1.65,0,0,1,1.21.65c.54.77,1.08,1.54,1.59,2.33C129.57,85.28,130,86,129.47,86.81Z"/><path class="cls-186" d="M78,22.4,75.6,23.78c-9.33,1.88-18.74,3.35-28.1,5.06-1.45.26-2.91.72-4.38.05-1.13-3.56,1.46-5.19,3.66-7,9.67-1.85,19.38-3.44,29.07-5.18a4.48,4.48,0,0,1,4.21.92.92.92,0,0,1,.1,1.16Z"/><path class="cls-187" d="M80.16,18.76V18c.21-2.57,1.57-4.64,2.92-6.72.55-.81,1.21-1.38,2.29-1a4.11,4.11,0,0,1,1.49,4c-.24.25-.47.5-.71.74a1.58,1.58,0,0,0-1.5.77,5,5,0,0,0-2.25,2.19C81.56,18,81.3,19.51,80.16,18.76Z"/><path class="cls-188" d="M27.84,56.13c1.31-2.46,1.81-5.34,3.76-7.48,1.76-1.48,4-1.18,6-1.62,5.11-1.12,10.29-1.84,15.44-2.77,1.64-.3,3.72-1.17,4.63,1.38L57,47.16c.35.76-.08,1.34-.45,1.93-1.3,1.42-1.93,3.39-3.63,4.5a4.43,4.43,0,0,1-1.13.27c-5.91.68-11.74,1.82-17.58,2.85C32.08,57.09,29.84,57.77,27.84,56.13Z"/><path class="cls-189" d="M57.71,45.64c-2.68-1.92-5.25,0-7.83.32-6.13.63-12.05,2.69-18.28,2.69a3.64,3.64,0,0,1,0-.74,5.82,5.82,0,0,1,3.47-6c7.88-1.65,15.83-3,23.79-4.21,1.3-.2,3.77-1.36,3.37,1.91q-1.16,1.88-2.32,3.75C59.17,44.15,58.44,44.89,57.71,45.64Z"/><path class="cls-190" d="M56.18,48.6,57,47.16c3,0,6.08,0,9.12,0,1.89,0,2,.82,1.3,2.25l0,0c-3,1.74-6.14,1.19-9.28.91C57.22,50.23,56.15,50,56.18,48.6Z"/><path class="cls-191" d="M37.58,78.56c2.74,0,5.48,0,8.22,0,1.17,0,2.64-.42,2.94,1.43A1.8,1.8,0,0,0,48,81.57H36.76A4.82,4.82,0,0,1,37.58,78.56Z"/><path class="cls-192" d="M10.57,104l.12-3.7c4.52-2.36,9.55-2.34,14.41-3.06a2.42,2.42,0,0,1,2.69,1.55l-2.92,5.09A81.3,81.3,0,0,1,10.57,104Z"/><path class="cls-193" d="M142.23,28.5l.78,4.42c.08,2.12-1.52,2.33-3,2.48a15.34,15.34,0,0,1-6.25-.32A3.61,3.61,0,0,1,132,33.19c-.43-1.21-1-2.42-.23-3.7,3-2.21,6.43-1.25,9.74-1.06Z"/><path class="cls-194" d="M141.52,28.43c-1.75,1.51-3.82.56-5.74.74-1.36.12-2.74,0-4,.79a1.7,1.7,0,0,1-1.24-.85c-.4-.78-.67-1.62-1-2.43s-.68-1.83.42-2.5c3-.85,6.26-.3,9.33-1.06l.76.84C140.57,25.45,141.68,26.73,141.52,28.43Z"/><path class="cls-195" d="M133.31,34.45c2.09,0,4.18,0,6.27,0,1.39,0,2.74,0,3.43-1.52l.72,0,0,1.47c.5,1.5,1,3,1.48,4.49l.75,2.25c0,1.66,2,2.67,1.47,4.49-3.45-.35-7,.78-10.37-.76-2.53-2-2.65-5.12-3.76-7.78C133.13,36.23,132.76,35.34,133.31,34.45Z"/><path class="cls-196" d="M62.19,57.63,60,59.87c-3.52.34-7,1-10.47-.54-.91-1.76.17-2.55,1.55-3.19,2.56-.52,5.15-.25,7.73-.25A3.39,3.39,0,0,1,62.19,57.63Z"/><path class="cls-197" d="M49.42,59.1c3.51.41,7.13-.81,10.55.77-.25.5-.5,1-.76,1.5L48,61.35C47.28,59.84,47.82,59.13,49.42,59.1Z"/><path class="cls-198" d="M62.19,57.63c-3.68-1.52-7.55-.38-11.32-.79a1.37,1.37,0,0,1,.4-1.88c3.93-.9,7.86-1.5,11.69.42-.25.5-.49,1-.74,1.49Z"/><path class="cls-199" d="M232,23.27c1.35,2.51,3.74,2.15,6,2.2-.26,1.24-.51,2.49-.77,3.73l-1.48,2.26c-2.54-.68-5.91.19-6.74-3.64C229.41,25.91,229.31,23.66,232,23.27Z"/><path class="cls-200" d="M141.43,57.65c3-.34,6.13.67,9-.77l.75.75c.41,1.77-.16,3.82,1.49,5.23a1.53,1.53,0,0,1-.74,1.5c-2.4,1.74-5.06,1-7.67.85a3.11,3.11,0,0,1-1.61-.94,13.82,13.82,0,0,1-1.82-5A2.07,2.07,0,0,1,141.43,57.65Z"/><path class="cls-201" d="M157.93,83.07c-1.75,1.48-4.29-.16-6,1.54a1.25,1.25,0,0,1-1.37-.53,10.07,10.07,0,0,1-1.93-3.8A2.75,2.75,0,0,1,149,79.2c2.17-2.21,4.78-2,7.47-1.37h0C157,79.57,157.44,81.32,157.93,83.07Z"/><path class="cls-202" d="M27.79,98.76c-4.51-1.74-8.69.93-13.06,1.08-1.31,0-2.68.41-4,.43,1.22-1.56,0-3.75,1.35-5.27,5.27-2,10.84-2.44,16.36-3.15a3,3,0,0,1,2.37.94c.13.68-1.52.49-.74,1.49-1.08.71-1,2-1.47,3C28.3,97.77,28.05,98.27,27.79,98.76Z"/><path class="cls-203" d="M109.36,41.11c-1.55,1.54-3.49.5-5.23.81a5.73,5.73,0,0,1-1.55-4.48c1.82-1.5,3.78-1.18,5.78-.43C109.67,38.14,110.5,39.38,109.36,41.11Z"/><path class="cls-204" d="M108.53,37.43h-6a1.61,1.61,0,0,1-.75-1.5c-.26-.75-.51-1.51-.76-2.26h.07c1.19-1.13,2.87-1.07,4.26-1.73,1-.13,1.57.62,2.13,1.29.75,1.16,1.72,2.24,1.35,3.79Z"/><path class="cls-205" d="M139.32,23.12c-1.2,2.39-3.43,1.43-5.29,1.57-1.48.11-3,0-4.45,0a2,2,0,0,1-1.41-1.06c-.52-1.37-1.18-2.75.13-4.06a9.68,9.68,0,0,1,9.43-.11l.19,0C138.38,20.67,138.85,21.9,139.32,23.12Z"/><path class="cls-206" d="M143.66,64.39l8.31,0,1.49,2.24.75,5.24c-2.35,1.71-5.09.81-7.65,1.14a1.72,1.72,0,0,1-1-.53c-1.09-1.42-1.42-3.15-2-4.78C143.23,66.56,142.74,65.44,143.66,64.39Z"/><path class="cls-207" d="M119.87,68.12c-2.17,1.18-4.53.58-6.82.73l-1.45-.76c-.27-1.49-.53-3-.79-4.48,0-.25,0-.5,0-.75,1.9-1.56,4.21-.85,6.34-1.15,2.2.27,2.2,2.37,3.08,3.74C120.26,66.35,121.74,67.48,119.87,68.12Z"/><path class="cls-208" d="M206.58,28.45c-3-.43-6.36,1.14-9-1.5l.78-3.73c.83-.56.74-1.41.71-2.25.45-1,1.61-1.68,1.59-3l.68,0c3.4,1.55,7,.37,10.47.74,1.18,2-.54,3.21-1.27,4.66-.61,1.22-1.21,2.44-1.88,3.64C208.12,27.72,207.79,28.74,206.58,28.45Z"/><path class="cls-209" d="M232.74,39.67H232c-2.77,1.59-5.26.65-7.7-.82a2.52,2.52,0,0,1-.4-1.16c.55-2.29.88-4.74,3.59-5.66,1.83,2,5,1.13,6.76,3.15,0,.5,0,1,0,1.49A4.25,4.25,0,0,0,232.74,39.67Z"/><path class="cls-210" d="M234.27,35.19c-1.68-.26-3.35-.62-5-.74s-1.75-1-1.73-2.24c-1.09-1.93.25-3.2,1.24-4.56a.72.72,0,0,1,1,.09c.12,1.67,1.15,2.24,2.67,2.2,1.36,0,2.66,0,3.32,1.52A4.51,4.51,0,0,1,234.27,35.19Z"/><path class="cls-211" d="M146,72.58c2.62-1.39,5.45-.48,8.17-.74H155c0,.82-.12,1.7.75,2.24a6.32,6.32,0,0,0,.74,3.74c-2.26,1.4-5.5-.42-7.38,2.25-1.52-.9-1.84-2.53-2.47-4C146.35,74.93,145.37,73.89,146,72.58Z"/><path class="cls-212" d="M85.4,10.5A1.37,1.37,0,0,0,83.9,12c-10.6,2.18-21.12,4.84-32,5.2-1.54-.64-1.23-1.62-.35-2.54a16.32,16.32,0,0,0,2.52-2.6c.52-.8,1.51-1,2.15-1.58v0c.72-1,1.47-1.93,2.88-1.81C65.44,7.12,71.92,6.33,78.3,5a2.93,2.93,0,0,1,2.48.24l.89.78c1.4,1,3,1.85,3.89,3.45A1.18,1.18,0,0,1,85.4,10.5Z"/><path class="cls-213" d="M80.78,5.27C73.45,7.17,66.06,8.76,58.45,9c-.25-.2-.32-.38-.2-.52s.2-.21.3-.21C63.12,6,67.43,3.11,72.76,2.89,75.61,3.08,78.54,3,80.78,5.27Z"/><path class="cls-214" d="M89.14,7.51c.37,1.33,2.4,1.45,2.28,3.14.14,1.12-.54,1.56-1.48,1.8a2.6,2.6,0,0,1-1-.18c-1-.86-2.43-1.52-2-3.28A2.2,2.2,0,0,1,89.14,7.51Z"/><path class="cls-215" d="M86.89,9l2.28,3c.44,1.42-.46,1.92-1.56,2.3l-.75,0A7.64,7.64,0,0,1,85.4,10.5V9.75a1,1,0,0,1,.8-.87A5.5,5.5,0,0,0,86.89,9Z"/><path class="cls-216" d="M86.2,8.88l-.8.87a11.57,11.57,0,0,1-3.73-3.7A6.14,6.14,0,0,1,86.2,8.88Z"/><path class="cls-217" d="M56.2,10.48,54.68,12a.93.93,0,0,1-1.43,0h0C53.78,10.64,54.93,10.44,56.2,10.48Z"/><path class="cls-218" d="M58.55,8.27c0,.24-.06.49-.1.73l-2.24,1.45A2.11,2.11,0,0,1,58.55,8.27Z"/><path class="cls-219" d="M117.58,62.07c-2.1,1.57-4.51.45-6.75.79l-1.52-3.74a1.5,1.5,0,0,0-.7-1.5,6.23,6.23,0,0,1,0-.74c1.87-1.42,4.15-1.1,6.27-1.42a2.93,2.93,0,0,1,1.12.35c1.26,1.3,1.48,3.06,2,4.69A1.77,1.77,0,0,1,117.58,62.07Z"/><path class="cls-220" d="M115.35,56.12a17.89,17.89,0,0,1-6.7.76,1.7,1.7,0,0,0-.8-1.5c-.25-1.5-.51-3-.77-4.48l6.07,0a.81.81,0,0,1,.94,0,5.13,5.13,0,0,1,1.1,1.76C115.49,53.78,116.25,54.91,115.35,56.12Z"/><path class="cls-221" d="M123.53,13.52c3.18-1.63,6.6-.35,9.88-.81l1.23.83c.31.72.62,1.45.92,2.17-2.46,3.09-5.84,1.46-8.85,1.72a4.39,4.39,0,0,1-1.16-.29,5.08,5.08,0,0,1-2.2-2.57A1.2,1.2,0,0,1,123.53,13.52Z"/><path class="cls-222" d="M125.74,16.51c3.26-.36,6.65.72,9.82-.8l.81.77c.45,1,.91,2,1.36,3-3.27.06-6.58-.4-9.76.76a1,1,0,0,1-1,.06C125.84,19.27,124.82,18.19,125.74,16.51Z"/><path class="cls-223" d="M140.06,100.35a2.44,2.44,0,0,1,.66-.09c1.51-.67,3-1.09,4.52,0h0A4.45,4.45,0,0,1,140.06,100.35Z"/><path class="cls-224" d="M187.34,59.1l1.24-.76a6.35,6.35,0,0,1,2.77-1c7.31,0,14.62-.59,21.9.32a1.82,1.82,0,0,1,1.25,1.48,2.91,2.91,0,0,1-2,3c-1.71-1.12-3.62-.72-5.47-.73-6.85,0-13.7,0-20.55,0a6.2,6.2,0,0,1-.08-.74Z"/><path class="cls-225" d="M95.12,21.72c-.24-1.25-.49-2.5-.74-3.75a.89.89,0,0,1-.27-.62c0-.24,0-.36.07-.36a2.67,2.67,0,0,1,3.15-1.49,8,8,0,0,1,2.06,2.38c.8,1.42,2,2.65,2.19,4.36a1.63,1.63,0,0,1-.83,1.48,3.78,3.78,0,0,1-4.13-.5Z"/><path class="cls-226" d="M96.62,23.22l4.53,0c.8-.62,1.39-.22,1.93.4.59,1.17,1.57,2.24,1,3.72-1.44,1.65-3,2.58-5.16,1.13a2.43,2.43,0,0,0-1.54-2.24Z"/><path class="cls-227" d="M34.62,42.67l-3,5.24-3.83-.78,1.58-4.41c1.42-2.17,3.08-4.21,3.82-6.76a12.86,12.86,0,0,0,3.71-6c2-1.26,2.87-3.56,4.42-5.25l7.48-8.21c.84-.33,1.33.09,1.71.76-.41,2.43-2.23,3.78-3.95,5.21l-3.77,6c0,2.62-2.09,4.26-3.1,6.41C38.21,37.62,37.2,40.65,34.62,42.67Z"/><path class="cls-228" d="M50.2,17.22l-1.44-.72c0-.26,0-.51,0-.76l.74-.75c1.23-1,2.91-1.46,3.74-3l1.44,0L51,16.48A.87.87,0,0,1,50.2,17.22Z"/><path class="cls-229" d="M94.39,17.21c0,.25,0,.51,0,.76-2.13,0-2.74,2.36-4.49,3l-2.28-6.67L89.17,12l.75.13A21.87,21.87,0,0,1,94.39,17.21Z"/><path class="cls-230" d="M98.91,28.44c1.94.3,3.53-.61,5.13-1.46l.39.28a15.43,15.43,0,0,1,1.08,2.15c.31.91,1,1.81.09,2.76-.94,2.09-2.85,1.38-4.46,1.52-.9-1.16-.57-3.08-2.27-3.77C98.88,29.43,98.9,28.93,98.91,28.44Z"/><path class="cls-231" d="M224.53,38.2A16.79,16.79,0,0,0,232,39.68c-.27,1.24-.54,2.49-.8,3.73l-1.47,1.5a12.54,12.54,0,0,1-7.58-1.32C221.58,41.19,221.65,39.08,224.53,38.2Z"/><path class="cls-232" d="M222.1,43.37a18.27,18.27,0,0,1,7.65,1.54c-.25,1-.51,2-.76,3h-.73c-2.47-.65-5.11-.64-7.39-2C220.22,44.56,220.65,43.72,222.1,43.37Z"/><path class="cls-233" d="M56.18,48.6c3.64,1.77,7.51.33,11.24.81-1,1.24-1.43,2.92-3,3.73a12.75,12.75,0,0,1-11.27,0A9.51,9.51,0,0,1,56.18,48.6Z"/><path class="cls-234" d="M53.18,53.12l11.27,0A2.24,2.24,0,0,1,63,55.38H51.06c-.57-1.43.58-1.74,1.46-2.23Z"/><path class="cls-235" d="M214,59.86l.11-1.48a3.88,3.88,0,0,1,1.64-3.46,4.11,4.11,0,0,1,1.13-.4c2.45-.14,4.93-.4,6.88,1.61l-1.49,3.74-1.47.75C218.36,61.82,216.13,61.22,214,59.86Z"/><path class="cls-236" d="M214,59.86c2.33-.35,4.52.57,6.8.76-.51,1.49-1,3-1.52,4.49h-.74c-2-.65-4.49-.24-6-2.26a4.63,4.63,0,0,0,0-.74Z"/><path class="cls-237" d="M223.75,56.13a29.41,29.41,0,0,0-7.54-.77c-.77-1.15-.13-2.15.32-3.17a5.09,5.09,0,0,1,1.94-2.12c2.88-.45,5.88-1.25,7.54,2.31l-1.52,3.75h-.74Z"/><path class="cls-238" d="M226,52.38c-2.25-1.91-4.84-2.1-7.58-1.51-.65-2.4.39-4,2.39-5.22,2.48.77,5.55-.47,7.44,2.25-.5,1.25-1,2.49-1.49,3.74Z"/><path class="cls-239" d="M205,77l.78-2.21a4.56,4.56,0,0,1,.64,0c2.09-1.82,3.92-1.93,5.34.78l-1.5,2.24-1.49,1.5C206.91,79.62,205.17,79.65,205,77Z"/><path class="cls-240" d="M211.8,75.58c-1.66-1.07-3.39-1.63-5.33-.78.53-1.49,1.06-3,1.6-4.46.22,0,.43,0,.65,0,2-.83,3.23.51,4.59,1.53,0,.5,0,1,0,1.5Z"/><path class="cls-241" d="M205,77c.65,1.76,2.57,1.43,3.77,2.29l-2.25,3-1.48.75c-1.08-.09-2.3.32-3.09-.84,0-.46.07-.92.1-1.37.93-1.15,2-2.19,2.26-3.77Z"/><path class="cls-242" d="M213.31,71.84c-1.9.58-3-1.17-4.59-1.53,0-.48.07-1,.1-1.44l1.41-1.53c2.64-2,4.06-1.8,6.79.76,0,.25,0,.5,0,.75C215.47,69.44,215.53,72.07,213.31,71.84Z"/><path class="cls-243" d="M217,68.1c-2.21-.7-4.35-2.07-6.79-.76,0-.48.07-1,.11-1.42.72-1,1.44-2.05,2.17-3.07,1.75,1.44,4.81-.62,6,2.26Z"/><path class="cls-244" d="M142.09,98.85c-2.67-.57-4.27-2.55-5.88-4.51-.09-2.06,1.46-2.43,2.92-2.54a77.11,77.11,0,0,1,10.64,0c1.45.1,3,.43,2.95,2.5-2.16,2.56-5.63,2.71-8.22,4.48A1.78,1.78,0,0,1,142.09,98.85Z"/><path class="cls-245" d="M152.72,94.29a2.22,2.22,0,0,0-2-1.46q-6.3,0-12.59,0a2.27,2.27,0,0,0-1.95,1.5A2.61,2.61,0,0,1,134,92.79l-.69-1.51c-.05-1.17.86-1.55,1.68-1.59,6.63-.33,13.27-.79,19.9.11L156.5,92Z"/><path class="cls-246" d="M142.09,98.85l2.41-.08c.24.5.49,1,.74,1.5h-4.52Z"/><path class="cls-247" d="M151.14,83.84l.81.77c-.13,1.26,1.13,1.87,1.39,2.94a2.93,2.93,0,0,1-2.31,1c-6.68.11-13.36.53-20-.24l-1.54-1.51-.72-2.23a2.62,2.62,0,0,1,1.95-1C137.51,83.43,144.33,82.92,151.14,83.84Z"/><path class="cls-248" d="M131,88.32c1.2-1.31,2.79-.73,4.2-.75,6-.06,12.09,0,18.14,0l1.5,2.25c-5.73,1.52-11.58.38-17.35.75-1.43.1-3-.55-4.23.73C131.84,90.8,131.7,89.35,131,88.32Z"/><path class="cls-249" d="M229.76,27.74a3.05,3.05,0,0,1-.52.05c-4.37,2.1-9,.82-13.54,1-2.65.13-5.52.46-7.64-1.88.32-3.16,3.28-5.12,3.75-8.22l3-4.49c5.58,0,11.16,0,16.74,0a7.73,7.73,0,0,1,4.31.81c-.08.47-.15.94-.23,1.41a5.16,5.16,0,0,0-1.49,2.8q-1.05,2-2.11,4A10.09,10.09,0,0,0,229.76,27.74Z"/><path class="cls-250" d="M30.77,92.79C26.24,92.42,22,94,17.58,94.65A51.66,51.66,0,0,1,12,95c.14-1.52-.22-3.14.93-4.46,5.59-2.68,11.72-2.81,17.68-3.71A2.12,2.12,0,0,1,33,88.29c0,.25,0,.5,0,.75-.73.75-1.46,1.49-2.18,2.24C30.81,91.78,30.79,92.28,30.77,92.79Z"/><path class="cls-251" d="M45.73,65.06c-.95,1.13-2,2.19-2.23,3.75l-.72.06c-1.93-1.42-4-.75-6-.39-5.46,1-10.88,2.23-16.43,2.61.55-2.47,2-4.51,3.11-6.73,7-2.15,14.27-3,21.52-3.93a2.62,2.62,0,0,1,2.34,1Z"/><path class="cls-252" d="M33,88.29c-4.32-1.5-8.3.88-12.48,1.11-2.52.15-4.95,1.28-7.55,1.14a14.13,14.13,0,0,1,1.46-6c5.76-.2,11.35-1.57,17-2.63,1.65-.31,3.12-.48,4.6.37l-.69,1.5-1.5,3Z"/><path class="cls-253" d="M47.29,61.38c-6-.24-11.71,1.74-17.58,2.55-2.11.3-4.19.29-6.28.43l4.41-8.23c7.68.1,15-2.55,22.54-3.18a4.4,4.4,0,0,1,2.14.2l-1.46,2.23c-.06.49-.12,1-.19,1.46a2.66,2.66,0,0,0-1.45,2.26A2.47,2.47,0,0,0,48,61.35Z"/><path class="cls-254" d="M34.62,42.67,39,34.43c8.7-2.06,17.53-3.38,26.36-4.7a3.89,3.89,0,0,1,3.79,1,4.48,4.48,0,0,1-.22.71l-2.26,3c-1.45.89-2.07,2.44-3,3.76l-.93,1.42-.58,0C62,37.94,61,38.42,59.75,38.59,51.34,39.75,43.09,41.94,34.62,42.67Z"/><path class="cls-255" d="M69.17,30.76C60.23,30.59,51.72,33.5,43,34.6A12.91,12.91,0,0,1,39,34.43l3.73-6Q57.06,26,71.35,23.52c1.45-.26,2.89-.71,4.25.27l-3.7,4.57Z"/><path class="cls-256" d="M98.86,18a2.28,2.28,0,0,1-1.49-2.26c-.27-.16-.35-.32-.27-.49s.18-.24.27-.24l2.24-1.49c6.25.8,12.54.22,18.8.38a26.18,26.18,0,0,1,5.16.33,2.45,2.45,0,0,1,1.48,2.26c0,1.41-1.1,1.67-2,1.69C115,18.39,106.91,18.87,98.86,18Z"/><path class="cls-257" d="M123.57,14.21c-1.09,1.25-2.56.74-3.87.76q-8.42.07-16.82,0c-1.24,0-2.9.62-3.27-1.46,1.36-.28,1.52-2.14,3-2.25.42.43.84,1.23,1.28,1.24,6,.1,12.14,1,18.16-.49.49.51,1,1,1.48,1.52C123.54,13.75,123.55,14,123.57,14.21Z"/><path class="cls-258" d="M97.37,15c0,.24,0,.49,0,.73-1.31-.12-2,1-3,1.49a8.07,8.07,0,0,1-4.47-5.13l1.5-1.43,1.39-.27C94.2,12,95.19,14.1,97.37,15Z"/><path class="cls-259" d="M147.4,75.59c.55,1.49,1.11,3,1.66,4.49h-.17c-1,2.14-3.09,1.77-4.88,1.83-5.58.18-11.18-.25-16.74.43l-.82-.77L125,77.18a2.19,2.19,0,0,1,2.24-2.46c6.3-.43,12.61-.76,18.9.17A3.56,3.56,0,0,1,147.4,75.59Z"/><path class="cls-260" d="M147.4,75.59c-6.21,0-12.43,0-18.64,0-1.51,0-3-.1-3.81,1.61l-2.1-2.36-.06-1.48A2.17,2.17,0,0,1,125.07,71a111.8,111.8,0,0,1,19.19.08,4.07,4.07,0,0,1,1.64.81c0,.25.09.5.14.74Z"/><path class="cls-261" d="M145.9,71.84H126.62c-1.47,0-3-.24-3.83,1.5-.51-1.24-1-2.48-1.51-3.72-.77-1.68.5-2.51,1.62-2.67,7.17-1,14.37-1.75,21.5.41Z"/><path class="cls-262" d="M144.4,67.36c-5.94,0-11.89,0-17.83,0-2,0-4.27-.24-5.29,2.25a2.44,2.44,0,0,1-1.41-1.5c.81-.78-.34-1.47-.08-2.23-.68-1.37-.42-2.82,1.07-2.93,7.37-.56,14.79-1.66,22.08.66l.72.77C143.91,65.38,144.15,66.37,144.4,67.36Z"/><path class="cls-263" d="M109.36,41.11c-.28-1.23-.56-2.46-.83-3.68h.09A3.6,3.6,0,0,1,112,35.6q9.61-.27,19.24,0a4.08,4.08,0,0,1,2.7,1.08l3.12,8.22c0,.25-.05.5-.07.75-.44.22.21.16-.27.24-8.18,1.45-16.35,1.85-24.5-.21C110.35,44.75,111,42.21,109.36,41.11Z"/><path class="cls-264" d="M112.25,45.68l24.77,0a5.11,5.11,0,0,1,.75,3c-.57,2.49-2.69,1.8-4.22,1.86-6.57.25-13.16-.22-19.73.4l-.67,0Z"/><path class="cls-265" d="M113.82,50.89c.37-2.08,2-1.46,3.27-1.47,5.73-.05,11.46,0,17.19,0,1.19,0,2.53.41,3.49-.75,1,1.06,1.14,2.47,1.53,3.77l-.11,0c-.44.23.21.16-.27.25-8.14,1.44-16.27,1.87-24.38-.22A1.52,1.52,0,0,1,113.82,50.89Z"/><path class="cls-266" d="M117.56,60.61A7.47,7.47,0,0,1,116,56.16c0-1.58,1.33-1.73,2.36-1.78a178.53,178.53,0,0,1,19.63,0,3.42,3.42,0,0,1,2,1l1.43,2.27c0,.49,0,1,0,1.48-1.41,1.39-3.22,1.09-4.92,1.12C130.2,60.39,123.87,60,117.56,60.61Z"/><path class="cls-267" d="M140,55.38c-6.7,0-13.4,0-20.11,0-1.3,0-2.77-.49-3.85.76l-.69,0-.81-3.72,24.65,0A4.69,4.69,0,0,1,140,55.38Z"/><path class="cls-268" d="M220.82,45.65q-1.19,2.61-2.39,5.22l-1.37,1.53c-7.56.87-15.13.37-22.69.2a3.24,3.24,0,0,1-2-1,61.35,61.35,0,0,0,8.22-12.72l2.22-2.26c6.56-.81,13.14-.39,19.71-.2a2.6,2.6,0,0,1,2,1l0,.77c-1.43,1.44-1.75,3.39-2.43,5.17C221.68,44.13,221.25,44.89,220.82,45.65Z"/><path class="cls-269" d="M224.49,37.43c-6.07,0-12.13,0-18.2,0-1.18,0-2.51.41-3.47-.74.51-3.08,2.86-5.31,3.76-8.22l1.48-1.5c7,1.5,14.12.36,21.17.84-.57,1.47-1.14,2.95-1.72,4.42Z"/><path class="cls-270" d="M192.38,51.65h20.37a7.63,7.63,0,0,1,4.31.76c-.28,1-.57,2-.85,3l-.65,0a2.76,2.76,0,0,1-1.26.75,117.92,117.92,0,0,1-22.23,0,2.08,2.08,0,0,1-1.23-.79C190.36,53.72,192.3,53.07,192.38,51.65Z"/><path class="cls-271" d="M190.84,55.38h24.72a4.52,4.52,0,0,1-1.46,3l-25.52,0C189.26,57.3,189.5,55.92,190.84,55.38Z"/><path class="cls-272" d="M127.27,82.34c.34-2.06,2-1.49,3.22-1.51,4.82,0,9.64,0,14.47,0a6.7,6.7,0,0,0,3.93-.74l2.25,3.76c-3.32,1.45-6.81.54-10.21.68-4.05.16-8.12,0-12.18.06A2.45,2.45,0,0,1,127.27,82.34Z"/><path class="cls-273" d="M50.2,17.22l.79-.74c8.79-.31,17.27-2.7,25.89-4.08,2.37-.38,4.69-.24,7-.4-2,1.5-1.84,4.4-3.74,6-4.12-1.36-7.93.69-11.87,1.15-7.29.86-14.39,3-21.77,3.34C47.14,20.3,49.18,19.11,50.2,17.22Z"/><path class="cls-274" d="M105.6,32.17l-.73-3c1-1.12,2.44-1.1,3.8-1.1,6.2,0,12.39,0,18.59,0a5.61,5.61,0,0,1,3.84,1.08l.72.79c.25,1,.51,2,.76,3-1,1.55-2.6,1.81-4.22,1.86-5.94.17-11.87.11-17.81,0a7,7,0,0,1-3.48-1.13Z"/><path class="cls-275" d="M107.07,33.7c6.43,0,12.87-.05,19.31,0a20.22,20.22,0,0,0,6.2-.78c.24.5.49,1,.73,1.52l.66,2.23H112.91c-1.48,0-3-.1-4.29.75C108.1,36.18,107.58,34.94,107.07,33.7Z"/><path class="cls-276" d="M104,27c-.33-1.08-1.59-1.71-1.43-3A4.3,4.3,0,0,1,106,22.82c6.45-.11,12.9-.1,19.35,0a5.28,5.28,0,0,1,3.47,1.13l.73.78L130.3,27c-1.05,1.12-2.43,1.11-3.8,1.11q-9.28,0-18.57,0A5.18,5.18,0,0,1,104.11,27Z"/><path class="cls-277" d="M104.11,27H130.3c.86.53.68,1.43.8,2.22l-26.23,0C104,28.66,104.13,27.78,104.11,27Z"/><path class="cls-278" d="M117.56,60.61c.35-2,2-1.46,3.22-1.47,6.89,0,13.77,0,20.66,0l1.5,4.49c-6.65,0-13.3,0-20,0-1.64,0-3.37-.21-3.2,2.29-1.39-.89-1-2.81-2.21-3.82C117.57,61.59,117.56,61.1,117.56,60.61Z"/><path class="cls-279" d="M128.85,23.94l-26.24,0a1.65,1.65,0,0,0-1.46-.77l0-1.47A3.89,3.89,0,0,1,104.63,20c7.55-.08,15.11-.57,22.65.27l.69,0C128.26,21.48,128.55,22.71,128.85,23.94Z"/><path class="cls-280" d="M127.28,20.23c-1.23,1.28-2.81.64-4.24.73-7.3.41-14.66-.8-21.92.76-1-1.1-2.08-2.15-2.26-3.74,1.81-1.11,3.83-.72,5.77-.73,5.66,0,11.32,0,17,0,1.19,0,2.5.39,3.45-.75.23,0,.46,0,.69,0C126.25,17.75,126.77,19,127.28,20.23Z"/></g></g></svg>