<svg xmlns="http://www.w3.org/2000/svg" viewBox="0 0 319.84 319.84"><defs><style>.cls-1{fill:#c69;}.cls-2{fill:#fefefe;}</style></defs><g id="Layer_2" data-name="Layer 2"><g id="Layer_1-2" data-name="Layer 1"><circle class="cls-1" cx="159.92" cy="159.92" r="159.92"/><path class="cls-2" d="M120.57,204.53c-8.78-7.43-18.23-13.05-27-19.55C85.49,179,77.65,172.88,71,165.34,55.21,147.48,54,132,66.86,111.83c11.1-17.36,26.42-30.3,43.73-41,22.81-14.06,46.82-25.48,73.46-30.11,16-2.79,32.18-2.88,47.91,2.31,27.26,9,36.83,31.27,24.46,57.35-11.35,23.94-30.63,38.41-55.8,45.5-14.43,4.06-29.07,5.7-44,3.31a35.06,35.06,0,0,1-19.28-9.79,19.15,19.15,0,0,1-4.25-6.12c-.66-1.51-1.56-3.45,0-4.6,1.79-1.28,2.92.68,4.07,1.79a29.5,29.5,0,0,0,20.31,8.44c31.55.65,57.93-10.53,77.66-35.62,5.29-6.73,8.74-14.54,8.49-23.5A16.84,16.84,0,0,0,235.12,65c-7.81-4.7-16.46-6.06-25.39-6.21-24.52-.4-46.77,7.58-68.11,18.68-15.7,8.16-30.76,17.34-43.27,30.11-5.39,5.51-10,11.57-13,18.78-5.44,13.19-3.29,25,6,35.75,6.27,7.23,13.85,12.95,21.36,18.75,6.19,4.79,12.52,9.44,18,15.09,2.15,2.23,4,2.6,7,2,13.66-3,27.41-4,40.84,1,12.8,4.74,21.83,13.21,24.65,27.13a21.57,21.57,0,0,1-12.34,24.29c-1.59.73-3.78,2.05-4.84,0s1.58-2.54,2.79-3.46c8.83-6.72,10.37-15.7,4.18-24.95S177,209.13,166.64,207.25a63.41,63.41,0,0,0-21.38-.16c-3.54.55-5,1.4-3.88,5.75,7.07,27.82-6.17,54.22-32.31,64.85a44.43,44.43,0,0,1-27.94,1.89c-6.44-1.59-11.64-8.84-12.49-17.12a34.67,34.67,0,0,1,9.09-27.6C87.38,224,99.55,216.44,112,209.29,114.69,207.75,117.43,206.27,120.57,204.53Z"/><path class="cls-1" d="M129.34,223.63c0,18.53-11.77,34.73-28,39.86A22.71,22.71,0,0,1,96,264.57c-5.4.33-8.46-2.61-8.36-8.07.11-6.59,3-12.25,6.8-17.33,8.09-10.71,19-17.87,30.7-24.11,2.08-1.11,3.07-.66,3.38,1.57C128.86,219.42,129.17,222.22,129.34,223.63Z"/></g></g></svg>