<svg xmlns="http://www.w3.org/2000/svg" viewBox="0 0 744.76 663.02"><defs><style>.cls-1{fill:#61d9fa;}.cls-2{fill:#fefefe;}</style></defs><g id="Layer_2" data-name="Layer 2"><g id="Layer_1-2" data-name="Layer 1"><path class="cls-1" d="M372.43,262.05c-37.78-.24-69.46,29.46-69.57,69.36a69,69,0,0,0,68.6,69.28c39,.08,69.77-30.17,69.9-68.79A68.63,68.63,0,0,0,372.43,262.05Zm0,0c-37.78-.24-69.46,29.46-69.57,69.36a69,69,0,0,0,68.6,69.28c39,.08,69.77-30.17,69.9-68.79A68.63,68.63,0,0,0,372.43,262.05Zm0,0c-37.78-.24-69.46,29.46-69.57,69.36a69,69,0,0,0,68.6,69.28c39,.08,69.77-30.17,69.9-68.79A68.63,68.63,0,0,0,372.43,262.05Zm0,0c-37.78-.24-69.46,29.46-69.57,69.36a69,69,0,0,0,68.6,69.28c39,.08,69.77-30.17,69.9-68.79A68.63,68.63,0,0,0,372.43,262.05Zm0,0c-37.78-.24-69.46,29.46-69.57,69.36a69,69,0,0,0,68.6,69.28c39,.08,69.77-30.17,69.9-68.79A68.63,68.63,0,0,0,372.43,262.05Zm0,0c-37.78-.24-69.46,29.46-69.57,69.36a69,69,0,0,0,68.6,69.28c39,.08,69.77-30.17,69.9-68.79A68.63,68.63,0,0,0,372.43,262.05Zm0,0c-37.78-.24-69.46,29.46-69.57,69.36a69,69,0,0,0,68.6,69.28c39,.08,69.77-30.17,69.9-68.79A68.63,68.63,0,0,0,372.43,262.05Zm0,0c-37.78-.24-69.46,29.46-69.57,69.36a69,69,0,0,0,68.6,69.28c39,.08,69.77-30.17,69.9-68.79A68.63,68.63,0,0,0,372.43,262.05Zm0,0c-37.78-.24-69.46,29.46-69.57,69.36a69,69,0,0,0,68.6,69.28c39,.08,69.77-30.17,69.9-68.79A68.63,68.63,0,0,0,372.43,262.05Zm0,0c-37.78-.24-69.46,29.46-69.57,69.36a69,69,0,0,0,68.6,69.28c39,.08,69.77-30.17,69.9-68.79A68.63,68.63,0,0,0,372.43,262.05Zm0,0c-37.78-.24-69.46,29.46-69.57,69.36a69,69,0,0,0,68.6,69.28c39,.08,69.77-30.17,69.9-68.79A68.63,68.63,0,0,0,372.43,262.05Zm0,0c-37.78-.24-69.46,29.46-69.57,69.36a69,69,0,0,0,68.6,69.28c39,.08,69.77-30.17,69.9-68.79A68.63,68.63,0,0,0,372.43,262.05Zm0,0c-37.78-.24-69.46,29.46-69.57,69.36a69,69,0,0,0,68.6,69.28c39,.08,69.77-30.17,69.9-68.79A68.63,68.63,0,0,0,372.43,262.05Zm0,0c-37.78-.24-69.46,29.46-69.57,69.36a69,69,0,0,0,68.6,69.28c39,.08,69.77-30.17,69.9-68.79A68.63,68.63,0,0,0,372.43,262.05Zm0,0c-37.78-.24-69.46,29.46-69.57,69.36a69,69,0,0,0,68.6,69.28c39,.08,69.77-30.17,69.9-68.79A68.63,68.63,0,0,0,372.43,262.05Zm0,0c-37.78-.24-69.46,29.46-69.57,69.36a69,69,0,0,0,68.6,69.28c39,.08,69.77-30.17,69.9-68.79A68.63,68.63,0,0,0,372.43,262.05Zm0,0c-37.78-.24-69.46,29.46-69.57,69.36a69,69,0,0,0,68.6,69.28c39,.08,69.77-30.17,69.9-68.79A68.63,68.63,0,0,0,372.43,262.05Zm0,0c-37.78-.24-69.46,29.46-69.57,69.36a69,69,0,0,0,68.6,69.28c39,.08,69.77-30.17,69.9-68.79A68.63,68.63,0,0,0,372.43,262.05Zm0,0c-37.78-.24-69.46,29.46-69.57,69.36a69,69,0,0,0,68.6,69.28c39,.08,69.77-30.17,69.9-68.79A68.63,68.63,0,0,0,372.43,262.05Zm0,0c-37.78-.24-69.46,29.46-69.57,69.36a69,69,0,0,0,68.6,69.28c39,.08,69.77-30.17,69.9-68.79A68.63,68.63,0,0,0,372.43,262.05Zm0,0c-37.78-.24-69.46,29.46-69.57,69.36a69,69,0,0,0,68.6,69.28c39,.08,69.77-30.17,69.9-68.79A68.63,68.63,0,0,0,372.43,262.05Zm0,0c-37.78-.24-69.46,29.46-69.57,69.36a69,69,0,0,0,68.6,69.28c39,.08,69.77-30.17,69.9-68.79A68.63,68.63,0,0,0,372.43,262.05ZM739,305.64c-8.48-19.11-22.69-33.42-39-45.85-31.81-24.23-68.1-39.4-105.8-51.45-5.56-1.78-5.71-3.79-4.7-8.5,5.94-27.66,10.07-55.55,9.74-83.95.35-24.81-2.48-49.08-12.13-72.22C575,14.64,552.47-.4,521,0c-22.36.28-42.62,8.17-62.17,18.07-30.82,15.6-58,36.4-83.13,59.89-2.75,2.57-4.33,2.72-7.22,0a387.87,387.87,0,0,0-46.19-37.24c-28.66-19.49-58.48-36.48-94-39.91C201.06-1.79,177.49,8.17,163,32.11c-13.36,22-17.2,46.57-18.3,71.65-1.44,33.08,3.12,65.64,10.19,97.87.93,4.23-.2,5.4-3.92,6.56-26.73,8.34-52.63,18.74-77,32.54-21.57,12.2-41.63,26.32-57,46.18-22.28,28.83-22.52,58.65-.78,88,10.33,13.94,23.37,25,37.59,34.72,29.66,20.28,62.44,33.95,96.49,44.76,5,1.58,6.28,3.3,5.09,8.51-7.28,32-11.09,64.49-9.77,97.4.77,19.36,3.65,38.38,11,56.44,13.5,33.08,37,47.52,68.92,46.2,20.76-.87,40-7.94,58.46-17.1,31.24-15.54,58.69-36.51,84.25-60,3.38-3.1,5.23-4.05,9.16-.38a370.43,370.43,0,0,0,41.36,33.7c29,20.17,59.11,38.06,95.1,42.48,28,3.43,51.34-4.85,67.23-29.36,13-20,17.41-42.67,18.84-65.89,2.18-35.22-1.72-70-9.64-104.37-1-4.48,0-6.17,4.38-7.54,32.19-10,63.1-23,91.48-41.48,18.7-12.17,35.67-26.28,47.57-45.52C745.77,347.83,748.6,327.21,739,305.64ZM400.23,101C418,85.1,436.49,70.19,456.84,57.73c17.23-10.56,35.09-20,55.35-23,22.55-3.3,34.68,1.18,44,22.24A82.35,82.35,0,0,1,561,71.6a120.57,120.57,0,0,1,2.87,14.64c1,9.9,1.61,19.86,2.1,26.19a412.09,412.09,0,0,1-9.4,80.62c-.63,3-1.32,4.16-4.85,3.29-29.55-7.22-59.54-12-89.75-15.35-2.56-.29-3.73-1.69-5-3.47-17.72-24-36.36-47.14-57.1-68.57C396.84,105.82,396.58,104.24,400.23,101Zm-202,329.23a599.48,599.48,0,0,1,19.79-57.29c12.77,25,26.57,48.15,41.83,72-14.75-2.69-28.24-5.09-41.71-7.66-5.86-1.11-11.66-2.55-17.49-3.85C199,433.06,197.55,432.7,198.26,430.21Zm2.44-200.83c17.77-4.27,35.75-7.38,53.75-10.42,1.1-.18,2.66-.36,3.34.23,1.1.94-.16,2.13-.74,3-13.81,21.39-26.14,43.63-38,66.15-.21.4-.7.67-1.46,1.37-2.39-6.27-4.75-12.25-6.95-18.28q-6.77-18.48-12.46-37.33C197.38,231.35,197.4,230.18,200.7,229.38ZM237,334.77a5.84,5.84,0,0,1,0-5.59,816.41,816.41,0,0,1,64.59-112.82c1.37-2,2.9-3.34,5.6-3.48,16.43-.89,32.84-1.95,49.3-2.32,23-.5,45.86.37,68.76,1.39,4.15.19,8.28.79,12.42.89,2.84.06,4.06,1.9,5.38,3.83,18.75,27.49,36.19,55.78,51.34,85.42,4.31,8.44,8.38,17,12.75,25.39a7.36,7.36,0,0,1,.08,7.39,824.1,824.1,0,0,1-63.89,111.52,8.22,8.22,0,0,1-6.92,4c-21.42,1.24-42.81,2.8-64.29,2.16-21.47.61-42.87-.92-64.28-2.09a6.62,6.62,0,0,1-5.72-3.17A823.73,823.73,0,0,1,237,334.77ZM484.83,218.25c20.7,3.05,40.23,6.61,59.55,11.36,1.69.41,2.65.68,2,2.87-5.68,19.19-12.17,38.09-19.89,57.65A766.16,766.16,0,0,0,484.83,218.25ZM526.55,372c3.36,8.82,6.53,16.52,9.24,24.38,3.68,10.66,6.86,21.49,10.56,32.14,1.18,3.4,0,4.3-3,5-18.56,4.38-37.31,7.75-56.11,10.84a7.38,7.38,0,0,1-1.89-.37A801.76,801.76,0,0,0,526.55,372ZM369.32,131.44c1.48-1.57,2.46-2.79,4.63-.52A576,576,0,0,1,412,175a18.4,18.4,0,0,1,1.17,2.3c-27.61-1.32-54.46-.95-82.11-.14,2.25-4.65,5.33-7.87,8.06-11.21C348.82,154.09,358.82,142.55,369.32,131.44ZM186.46,60.9a69.76,69.76,0,0,1,5.65-11.63c8.06-13.3,20.66-16.4,35-14.7,22.14,2.63,41.62,12.33,60.33,23.7C308,70.74,326.6,85.74,344.52,101.7c2.78,2.48,2.84,3.86.23,6.63a683.9,683.9,0,0,0-57.14,69.18,7.75,7.75,0,0,1-6,3.57c-29.86,3.48-59.55,8-88.72,15.46-3.19.82-4.52-.16-5.15-3.25-3.74-18.21-7-36.49-8.4-55.07-.55-7.31-.84-14.6-.91-21.92C178.39,97.44,179.8,78.77,186.46,60.9ZM165.77,420.13c-.76,2.56-1.47,3.53-4.42,2.58-31.26-10.17-61.51-22.53-88.78-41.22-12.26-8.39-23.65-17.84-32-30.39-4-6-6.73-12.58-7-20,.5-9.58,5-17.43,10.81-24.68C56,291.91,71.07,281.53,86.87,272.21c23-13.56,47.73-23.32,73.1-31.55,3.34-1.08,4.61-.56,5.6,2.85a698.17,698.17,0,0,0,31.24,84.54,8.29,8.29,0,0,1-.06,7.44A715.21,715.21,0,0,0,165.77,420.13ZM346.33,560.06c-29,26.23-59.54,50.17-96.87,63.75a89.15,89.15,0,0,1-25.74,5.41c-16.42.9-27.57-6.64-34.37-21.33a107.75,107.75,0,0,1-8.63-31.6c-1.27-9.69-1.52-19.52-2-26.17a406.69,406.69,0,0,1,9.42-80.62c.68-3.08,1.65-3.74,4.57-3a667.61,667.61,0,0,0,66.53,12.45c6.9,1,13.82,1.89,20.76,2.53a10.46,10.46,0,0,1,8.3,4.5,706.91,706.91,0,0,0,57.63,69.42C347.4,556.93,348.65,558,346.33,560.06ZM375,531.49c-1.37,1.52-2.4,2.74-4.33.67-13.7-14.68-27-29.7-40.13-46.71,28.45,1.45,55.6,1.46,83.46.15-7.23,10.09-14.9,19-22.53,27.86C386.19,519.63,380.47,525.45,375,531.49Zm182,73.57c-5.12,12.27-12.77,21.92-27.3,23.16a75.06,75.06,0,0,1-27.58-3.12c-22-6.43-41.48-17.79-60.15-30.7a424.31,424.31,0,0,1-42-33.68c-2.52-2.27-2.82-3.62-.3-6.24a641.29,641.29,0,0,0,56.93-68.67c2.13-2.95,4.61-4.08,8.27-4.47a687.91,687.91,0,0,0,83.87-14.23c7.22-1.69,7.27-1.78,8.79,5.26,5.29,24.56,8.83,49.33,8.68,74.53C566.32,566.79,564.76,586.44,557,605.06ZM697,360.13c-13.56,15-30.27,25.86-47.91,35.36-20.7,11.14-42.55,19.53-64.82,26.93-3,1-4.27.55-5.2-2.66a668.7,668.7,0,0,0-31-84.06,10.42,10.42,0,0,1,0-9.33,680.77,680.77,0,0,0,30.55-83.16c.79-2.67,1.45-4,4.69-3,34.8,11.26,68.32,25.16,97.63,47.6,10.61,8.13,20.18,17.34,26.33,29.51A33,33,0,0,1,711,332.8C710.39,343.17,704.31,352,697,360.13ZM371.46,400.69c39,.08,69.77-30.17,69.9-68.79a68.63,68.63,0,0,0-68.93-69.85c-37.78-.24-69.46,29.46-69.57,69.36A69,69,0,0,0,371.46,400.69Zm1-138.64c-37.78-.24-69.46,29.46-69.57,69.36a69,69,0,0,0,68.6,69.28c39,.08,69.77-30.17,69.9-68.79A68.63,68.63,0,0,0,372.43,262.05Zm0,0c-37.78-.24-69.46,29.46-69.57,69.36a69,69,0,0,0,68.6,69.28c39,.08,69.77-30.17,69.9-68.79A68.63,68.63,0,0,0,372.43,262.05Zm0,0c-37.78-.24-69.46,29.46-69.57,69.36a69,69,0,0,0,68.6,69.28c39,.08,69.77-30.17,69.9-68.79A68.63,68.63,0,0,0,372.43,262.05Zm0,0c-37.78-.24-69.46,29.46-69.57,69.36a69,69,0,0,0,68.6,69.28c39,.08,69.77-30.17,69.9-68.79A68.63,68.63,0,0,0,372.43,262.05Zm0,0c-37.78-.24-69.46,29.46-69.57,69.36a69,69,0,0,0,68.6,69.28c39,.08,69.77-30.17,69.9-68.79A68.63,68.63,0,0,0,372.43,262.05Zm0,0c-37.78-.24-69.46,29.46-69.57,69.36a69,69,0,0,0,68.6,69.28c39,.08,69.77-30.17,69.9-68.79A68.63,68.63,0,0,0,372.43,262.05Zm0,0c-37.78-.24-69.46,29.46-69.57,69.36a69,69,0,0,0,68.6,69.28c39,.08,69.77-30.17,69.9-68.79A68.63,68.63,0,0,0,372.43,262.05Zm0,0c-37.78-.24-69.46,29.46-69.57,69.36a69,69,0,0,0,68.6,69.28c39,.08,69.77-30.17,69.9-68.79A68.63,68.63,0,0,0,372.43,262.05Zm0,0c-37.78-.24-69.46,29.46-69.57,69.36a69,69,0,0,0,68.6,69.28c39,.08,69.77-30.17,69.9-68.79A68.63,68.63,0,0,0,372.43,262.05Zm0,0c-37.78-.24-69.46,29.46-69.57,69.36a69,69,0,0,0,68.6,69.28c39,.08,69.77-30.17,69.9-68.79A68.63,68.63,0,0,0,372.43,262.05Zm0,0c-37.78-.24-69.46,29.46-69.57,69.36a69,69,0,0,0,68.6,69.28c39,.08,69.77-30.17,69.9-68.79A68.63,68.63,0,0,0,372.43,262.05Zm0,0c-37.78-.24-69.46,29.46-69.57,69.36a69,69,0,0,0,68.6,69.28c39,.08,69.77-30.17,69.9-68.79A68.63,68.63,0,0,0,372.43,262.05Zm0,0c-37.78-.24-69.46,29.46-69.57,69.36a69,69,0,0,0,68.6,69.28c39,.08,69.77-30.17,69.9-68.79A68.63,68.63,0,0,0,372.43,262.05Zm0,0c-37.78-.24-69.46,29.46-69.57,69.36a69,69,0,0,0,68.6,69.28c39,.08,69.77-30.17,69.9-68.79A68.63,68.63,0,0,0,372.43,262.05Zm0,0c-37.78-.24-69.46,29.46-69.57,69.36a69,69,0,0,0,68.6,69.28c39,.08,69.77-30.17,69.9-68.79A68.63,68.63,0,0,0,372.43,262.05Zm0,0c-37.78-.24-69.46,29.46-69.57,69.36a69,69,0,0,0,68.6,69.28c39,.08,69.77-30.17,69.9-68.79A68.63,68.63,0,0,0,372.43,262.05Zm0,0c-37.78-.24-69.46,29.46-69.57,69.36a69,69,0,0,0,68.6,69.28c39,.08,69.77-30.17,69.9-68.79A68.63,68.63,0,0,0,372.43,262.05Zm0,0c-37.78-.24-69.46,29.46-69.57,69.36a69,69,0,0,0,68.6,69.28c39,.08,69.77-30.17,69.9-68.79A68.63,68.63,0,0,0,372.43,262.05Zm0,0c-37.78-.24-69.46,29.46-69.57,69.36a69,69,0,0,0,68.6,69.28c39,.08,69.77-30.17,69.9-68.79A68.63,68.63,0,0,0,372.43,262.05Zm0,0c-37.78-.24-69.46,29.46-69.57,69.36a69,69,0,0,0,68.6,69.28c39,.08,69.77-30.17,69.9-68.79A68.63,68.63,0,0,0,372.43,262.05Z"/><path class="cls-2" d="M441.36,331.9c-.13,38.62-30.95,68.87-69.9,68.79a69,69,0,0,1-68.6-69.28c.11-39.9,31.79-69.6,69.57-69.36A68.63,68.63,0,0,1,441.36,331.9Z"/><path class="cls-1" d="M441.36,331.9c-.13,38.62-30.95,68.87-69.9,68.79a69,69,0,0,1-68.6-69.28c.11-39.9,31.79-69.6,69.57-69.36A68.63,68.63,0,0,1,441.36,331.9Z"/></g></g></svg>