<svg xmlns="http://www.w3.org/2000/svg" viewBox="0 0 1182.06 1023.52"><defs><style>.cls-1{fill:#40b782;}.cls-2{fill:#34495e;}</style></defs><g id="Layer_2" data-name="Layer 2"><g id="Layer_1-2" data-name="Layer 1"><path class="cls-1" d="M945,1.05l1.05-1,236,.06c-9.11,16.05-18.13,32.15-27.36,48.14q-183.85,318.5-367.77,637-96,166.27-192,332.53c-1.22,2.11-1.56,5.19-4.74,5.8-10-17.62-20-35.28-30.16-52.85Q384.43,666.55,208.84,362.45,105.5,183.49,2.17,4.53C1.35,3.1.72,1.57,0,.08q114.53,0,229.05,0c2.33,0,4.66,0,7,0l1,1.08c3,1.36,3.87,4.47,5.32,7Q267,50.68,291.61,93.29q41.52,72.08,83.15,144.08Q412.46,302.71,450.23,368q33.19,57.56,66.4,115.11,29.93,51.93,60,103.8c3.6,6.19,7.08,12.45,10.67,18.64,1.06,1.82,1.75,3.94,4.13,5.45,5.21-8.57,10.1-17.22,15.05-25.82,21.5-37.39,43.18-74.67,64.67-112.07q33.61-58.47,67.42-116.82,29.82-51.72,59.72-103.39,33.53-58.23,67.17-116.39,30-52.17,60.25-104.24C931,23.21,936,14,941.5,5.06,942.44,3.54,943,1.64,945,1.05Z"/><path class="cls-2" d="M945,1.05q-23,40-46.06,80-29.55,51.23-59.15,102.42Q790,269.7,740.16,355.89,686.52,448.83,633,541.83q-20.19,35-40.46,70c-.32.56-.74,1.06-1.59,2.28-4.2-7.22-8.18-14-12.13-20.83q-38.72-67-77.42-133.94-40.65-70.47-81.21-141-43.31-75-86.73-149.89Q292.78,98,252.25,27.47q-7.59-13.18-15.17-26.39c1.13-1.42,2.72-1,4.17-1Q348,.07,454.79.11q30.7,53.05,61.4,106.12,36,62.36,72,124.73c.74,1.29,1.53,2.55,2.48,4.14,2.26-1.74,3.13-4.24,4.39-6.41Q659.65,116.94,724.17,5.19c1-1.72,2.08-3.39,3.13-5.09q106.77,0,213.55,0C942.29.07,943.89-.36,945,1.05Z"/></g></g></svg>