<svg xmlns="http://www.w3.org/2000/svg" viewBox="0 0 55.2 55.44"><defs><style>.cls-1{fill:#14cff6;}.cls-2{fill:#f6f5f2;}.cls-3{fill:#08d0f7;}.cls-4{fill:#011d27;}</style></defs><g id="Layer_2" data-name="Layer 2"><g id="Layer_1-2" data-name="Layer 1"><path class="cls-1" d="M55.19.78q0,23.57,0,47.13c0,2.08,0,4.16,0,6.23,0,1-.27,1.28-1.28,1.28q-24.52,0-49.05,0c-1.44,0-2.88,0-4.32,0a7.55,7.55,0,0,1-.07-2.37c.5,1.29,1.85.8,2.9,1.13-.64.55-1.35,0-1.87.63a2.35,2.35,0,0,0,1.79,0,5.13,5.13,0,0,1,1.87-.3H50.6a2.47,2.47,0,0,1,1.29.15c.79.47,1,.1.92-.64s.06-1.22,1-.71c.48.25,1-.41.82-.66-.44-.78.1-1.43.1-2.13q0-23.85,0-47.7c0-.32.14-.7-.24-1C53.91,2.48,54.6,3.4,54,4c-.53-1.18-.94-2.31.27-3.27Z"/><path class="cls-2" d="M55.19.78,54.25.73c-.4,0-.79,0-1.19,0H13.3c-4,0-7.9,0-11.85,0C.58.52.31.92.49,1.73c0,.35,0,.71,0,1.07q0,23.88,0,47.75c0,.36,0,.72,0,1.08v1.44a7.55,7.55,0,0,0,.07,2.37c-.72,0-.53-.58-.53-1,0-2.08,0-4.15,0-6.23V2.08C0,1.45-.1.78.58.37c.34-.21.57-.6,1.11-.19.29.21.85.1,1.28.1Q28.4.29,53.8.3C54.27.3,55-.08,55.19.78Z"/><path class="cls-3" d="M1.45.71c4,0,7.9,0,11.85,0H53.06c.4,0,.79,0,1.19,0C53,1.69,53.45,2.82,54,4c.62-.6-.07-1.52.49-2.17.38.29.24.67.24,1q0,23.85,0,47.7c0,.7-.54,1.35-.1,2.13.15.25-.34.91-.82.66-1-.51-1,0-1,.71s-.13,1.11-.92.64a2.47,2.47,0,0,0-1.29-.15H5.17a5.13,5.13,0,0,0-1.87.3,2.35,2.35,0,0,1-1.79,0c.52-.61,1.23-.08,1.87-.63-1-.33-2.4.16-2.9-1.13v-.48c.26,0,.45-.12.47-.42a.44.44,0,0,0-.46-.54c0-.36,0-.72,0-1.08q0-23.86,0-47.75c0-.36,0-.72,0-1.07A1.21,1.21,0,0,0,1.45.71Zm3.84,1.5a2.37,2.37,0,0,0-2.9,0h2.9c.24.83.93.46,1.41.46q22.34,0,44.66,0c.15,1.11-.63,1-1.3,1H6.68A2.77,2.77,0,0,1,5.09,3.3c-.74-.46-2.1,0-2.1.64,0,1.1-.61,2-.6,3.11,0,14.38,0,28.75,0,43.13a3.92,3.92,0,0,0,0,.84c.15.61.36,1.21,1.2,1l.71.07c-.16,1,.16,1.44,1.33,1.44,15,0,29.91-.07,44.86,0,1.41,0,1.49-1.19,2.34-1.63.09,0,.07-.23-.07-.28-.8-.33-.46-1-.46-1.57,0-9.39,0-18.79,0-28.18,0-5,0-10.07,0-15.11,0-.43-.27-1,.39-1.24.84-.25.51-.79.46-1.41-.47.26-.83.53-1.29.43l-.06-.72c.18-.23.35-.49.56-.71a1.06,1.06,0,0,0-.22-1.8.66.66,0,0,0-.55,0c-.25.14,0,.3.07.47.22.4.26.76-.33.87-.24-.84-.93-.47-1.41-.47Q27.63,2.19,5.29,2.21ZM3.05,53c-.57-.47-.73-1-1.35-.78a.37.37,0,0,0-.2.5C1.78,53.3,2.28,53,3.05,53Z"/><path class="cls-1" d="M1.45.71a1.21,1.21,0,0,1-1,1C.31.92.58.52,1.45.71Z"/><path class="cls-1" d="M.49,51.63a.44.44,0,0,1,.46.54c0,.3-.21.39-.47.42Z"/><path class="cls-4" d="M4.34,52.14l-.71-.07c0-.48,0-1,0-1.43q0-22.78,0-45.57c0-.81.08-1.22,1.07-1.22q23.58.06,47.14,0l.06.72c0,.68,0,1.35,0,2,0,14.66,0,29.32,0,44,0,1.25-.35,1.5-1.53,1.5q-22.05-.06-44.09,0C5.61,52.09,5,52.12,4.34,52.14ZM31.67,35.83h0c-.58-.4-1-.52-.83.45V37.5c-.27,1.14.16,1.71,1.37,1.63a14.63,14.63,0,0,0,7,0,4.76,4.76,0,0,0,3.71-3.21c.82-2.92-.34-4.84-3.46-5.92a21.85,21.85,0,0,1-3.58-1.29c-.69-.39-1.23-.84-1-1.68a1.76,1.76,0,0,1,1.7-1.27,10,10,0,0,1,3.57.25c1.9.51,1.91.5,1.88-1.46,0-.51.24-1.13-.64-1.29a14.38,14.38,0,0,0-7,.06,4.73,4.73,0,0,0-3.56,4.16c-.11,2,.83,3.51,3,4.4,1.42.59,2.92,1,4.39,1.51a1.25,1.25,0,0,0,.71.52l0,0a2.65,2.65,0,0,1,0,1.88l0,0a.87.87,0,0,0-.54.49l-.41.1a11.16,11.16,0,0,1-4.31,0l-.68-.08ZM13.69,39l.24.06c.84,0,1.68,0,2.51.07s.88-.29.86-.92c0-1,0-2,0-3,0-2.67,0-2.67,2.69-2.77,5-.19,8-3.88,7-8.79A5.74,5.74,0,0,0,21.49,19a26.55,26.55,0,0,0-7.81-.11c-.22.18-.15.43-.15.66q0,9.38,0,18.75C13.54,38.53,13.39,38.84,13.69,39Z"/><path class="cls-1" d="M4.34,52.14c.63,0,1.27,0,1.91,0q22,0,44.09,0c1.18,0,1.54-.25,1.53-1.5,0-14.65,0-29.31,0-44,0-.68,0-1.35,0-2,.46.1.82-.17,1.29-.43,0,.62.38,1.16-.46,1.41-.66.21-.39.81-.39,1.24,0,5,0,10.07,0,15.11,0,9.39,0,18.79,0,28.18,0,.54-.34,1.24.46,1.57.14.05.16.23.07.28-.85.44-.93,1.64-2.34,1.63-15-.09-29.91-.07-44.86,0C4.5,53.58,4.18,53.18,4.34,52.14Z"/><path class="cls-1" d="M51.83,3.89q-23.56,0-47.14,0c-1,0-1.07.41-1.07,1.22q0,22.79,0,45.57c0,.48,0,1,0,1.43-.84.16-1-.44-1.2-1a3.92,3.92,0,0,1,0-.84c0-14.38,0-28.75,0-43.13C2.38,6,3,5,3,3.94c0-.67,1.36-1.1,2.1-.64a2.77,2.77,0,0,0,1.59.34H50.06c.67,0,1.45.16,1.3-1h0c.59-.11.55-.47.33-.87-.09-.17-.32-.33-.07-.47a.66.66,0,0,1,.55,0,1.06,1.06,0,0,1,.22,1.8C52.18,3.4,52,3.66,51.83,3.89Z"/><path class="cls-1" d="M5.29,2.21q22.34,0,44.66,0c.48,0,1.17-.37,1.41.47h0Q29,2.69,6.7,2.67c-.48,0-1.17.37-1.41-.46Z"/><path class="cls-1" d="M5.29,2.21H2.39a2.37,2.37,0,0,1,2.9,0Z"/><path class="cls-1" d="M3.05,53c-.77,0-1.27.32-1.55-.28a.37.37,0,0,1,.2-.5C2.32,52,2.48,52.51,3.05,53Z"/><path class="cls-3" d="M21.49,19A5.74,5.74,0,0,1,27,23.7c.92,4.91-2,8.6-7,8.79-2.69.1-2.69.1-2.69,2.77,0,1,0,2,0,3,0,.63-.14,1-.86.92s-1.67-.05-2.51-.07c0-6.27,0-12.54,0-18.8,0-1.09.32-1.36,1.36-1.32C17.34,19.05,19.42,19,21.49,19Zm-2.12,2.9c-2.08,0-2.08,0-2.08,1.64V27.7c0,1.68,0,1.66,1.66,1.67,1.44,0,2.81-.19,3.66-1.53a4,4,0,0,0,.22-4.2A3.61,3.61,0,0,0,19.37,21.88Z"/><path class="cls-3" d="M30.8,37.5V36.27c.48.23.44-.49.83-.45h0c.22.73.82.35,1.26.43l.68.08c.06.35.31.42.61.42H37.3c.3,0,.55-.06.62-.41l.41-.1c.35,0,.55-.12.54-.49l0,0a1.07,1.07,0,0,0,0-1.88l0,0c0-.54-.35-.53-.71-.52-1.47-.5-3-.92-4.39-1.51-2.17-.89-3.11-2.36-3-4.4a4.73,4.73,0,0,1,3.56-4.16,14.38,14.38,0,0,1,7-.06c.88.16.63.78.64,1.29,0,2,0,2-1.88,1.46a10,10,0,0,0-3.57-.25A1.76,1.76,0,0,0,34.8,27c-.2.84.34,1.29,1,1.68A21.85,21.85,0,0,0,39.41,30c3.12,1.08,4.28,3,3.46,5.92a4.76,4.76,0,0,1-3.71,3.21,14.63,14.63,0,0,1-7,0C31.73,38.57,30.88,38.35,30.8,37.5Z"/><path class="cls-1" d="M21.49,19c-2.07,0-4.15.07-6.22,0-1,0-1.37.23-1.36,1.32.05,6.26,0,12.53,0,18.8L13.69,39q0-10.08,0-20.17A26.55,26.55,0,0,1,21.49,19Z"/><path class="cls-3" d="M13.68,18.87q0,10.08,0,20.17c-.3-.2-.15-.51-.15-.76q0-9.37,0-18.75C13.53,19.3,13.46,19.05,13.68,18.87Z"/><path class="cls-1" d="M37.92,36.35c-.07.35-.32.41-.62.41H34.22c-.3,0-.55-.07-.61-.42A11.16,11.16,0,0,0,37.92,36.35Z"/><path class="cls-1" d="M30.8,37.5c.08.85.93,1.07,1.37,1.63C31,39.21,30.53,38.64,30.8,37.5Z"/><path class="cls-1" d="M38.84,33.9a1.07,1.07,0,0,1,0,1.88A2.65,2.65,0,0,0,38.84,33.9Z"/><path class="cls-1" d="M31.64,35.82c-.39,0-.35.68-.83.45C30.63,35.3,31.06,35.42,31.64,35.82Z"/><path class="cls-1" d="M32.93,36.26c-.44-.08-1,.3-1.26-.43Z"/><path class="cls-1" d="M38.15,33.4c.36,0,.74,0,.71.52A1.25,1.25,0,0,1,38.15,33.4Z"/><path class="cls-1" d="M38.87,35.76c0,.37-.19.52-.54.49A.87.87,0,0,1,38.87,35.76Z"/><path class="cls-4" d="M19.37,21.88a3.61,3.61,0,0,1,3.46,1.76,4,4,0,0,1-.22,4.2c-.85,1.34-2.22,1.54-3.66,1.53-1.66,0-1.66,0-1.66-1.67V23.52C17.29,21.89,17.29,21.89,19.37,21.88Z"/></g></g></svg>