<svg xmlns="http://www.w3.org/2000/svg" viewBox="0 0 55.25 55.19"><defs><style>.cls-1{fill:#ea7df5;}.cls-2{fill:#f6f5f2;}.cls-3{fill:#251302;}</style></defs><g id="Layer_2" data-name="Layer 2"><g id="Layer_1-2" data-name="Layer 1"><path class="cls-1" d="M55.24,3.61l0,49.79c0,.46.19,1-.23,1.36H.52l0,0q0-26.58,0-53.16c0-.52,0-1,0-1.55L53.32,0c1.9.07,1.9.07,1.9,2C55.22,2.51,55.23,3.06,55.24,3.61ZM27.76,3.35c-7.63,0-15.27,0-22.9,0-.93,0-1.21.22-1.2,1.19q0,22.85,0,45.68c0,.89.06,1.35,1.18,1.35q22.91-.08,45.81,0c1,0,1.26-.26,1.26-1.26q-.06-22.85,0-45.69c0-1-.22-1.27-1.24-1.26C43,3.37,35.39,3.35,27.76,3.35Z"/><path class="cls-2" d="M.54,0c0,.51,0,1,0,1.55q0,26.58,0,53.16c-.73-.26-.43-.88-.43-1.34Q0,30.52.05,7.64c0-2.2,0-4.4,0-6.59C.06.65-.14.11.54,0Z"/><path class="cls-2" d="M.52,54.75H55c-.42.35-.92.19-1.39.19H3.49a6.12,6.12,0,0,0-2.25.18A.48.48,0,0,1,.52,54.75Z"/><path class="cls-3" d="M27.76,3.35c7.63,0,15.27,0,22.9,0,1,0,1.24.28,1.24,1.26q0,22.85,0,45.69c0,1-.26,1.26-1.26,1.26q-22.9,0-45.81,0c-1.12,0-1.18-.46-1.18-1.35q0-22.83,0-45.68c0-1,.27-1.2,1.2-1.19C12.49,3.37,20.13,3.35,27.76,3.35Zm-10,24.82V35c0,2.42,0,2.39,2.44,2.31.7,0,.88-.27.88-.92,0-1.63.06-3.27,0-4.91,0-.88.27-1.08,1.09-1a9.76,9.76,0,0,0,4.34-.64A5.51,5.51,0,0,0,30,23.89a5.09,5.09,0,0,0-4.29-4.77,21.13,21.13,0,0,0-7.14-.1c-.74.07-.86.46-.85,1.12C17.77,22.82,17.75,25.49,17.75,28.17Zm17.73-1.84c-.34-2.44-.34-2.42-2.39-2.34-.55,0-.74.13-.72.74.06,3.43.08,6.87.1,10.3,0,2.31,0,2.29,2.36,2.28.76,0,1-.24,1-1-.06-2-.07-4,0-6,.07-2.27,1.23-3.52,3.34-3.4.62,0,.76-.19.73-.73a6.93,6.93,0,0,1,0-1.44c.11-.93-.35-1.06-1.13-1C37.23,23.9,36.3,24.88,35.48,26.33Z"/><path class="cls-1" d="M17.75,28.17c0-2.68,0-5.35,0-8,0-.66.11-1.05.85-1.12a21.13,21.13,0,0,1,7.14.1A5.09,5.09,0,0,1,30,23.89a5.51,5.51,0,0,1-3.54,5.9,9.76,9.76,0,0,1-4.34.64c-.82,0-1.12.16-1.09,1,.08,1.64,0,3.28,0,4.91,0,.65-.18.9-.88.92-2.46.08-2.45.11-2.44-2.31Zm3.33-3.49v2.39c0,.32,0,.67.41.71a5.39,5.39,0,0,0,4-.73,3.19,3.19,0,0,0,1-3.65,3,3,0,0,0-2.95-2c-2.42-.23-2.47-.16-2.47,2.21Z"/><path class="cls-1" d="M35.48,26.33c.82-1.45,1.75-2.43,3.3-2.6.78-.08,1.24.05,1.13,1a6.93,6.93,0,0,0,0,1.44c0,.54-.11.77-.73.73-2.11-.12-3.27,1.13-3.34,3.4-.07,2-.06,4,0,6,0,.8-.25,1-1,1-2.34,0-2.34,0-2.36-2.28,0-3.43,0-6.87-.1-10.3,0-.61.17-.72.72-.74C35.14,23.91,35.14,23.89,35.48,26.33Z"/><path class="cls-3" d="M21.08,24.68V23.61c0-2.37.05-2.44,2.47-2.21a3,3,0,0,1,2.95,2,3.19,3.19,0,0,1-1,3.65,5.39,5.39,0,0,1-4,.73c-.46,0-.42-.39-.41-.71Z"/></g></g></svg>