<svg xmlns="http://www.w3.org/2000/svg" viewBox="0 0 55.16 55.66"><defs><style>.cls-1{fill:#fc7802;}.cls-2{fill:#f6f5f2;}.cls-3{fill:#f47809;}.cls-4{fill:#251301;}.cls-5{fill:#f54722;}.cls-6{fill:#251302;}.cls-7{fill:#260602;}.cls-8{fill:#011d27;}</style></defs><g id="Layer_2" data-name="Layer 2"><g id="Layer_1-2" data-name="Layer 1"><path class="cls-1" d="M.06,55.18C0,53.78,0,52.39,0,51Q0,26,0,.94C.48.92,1,.88,1.44.88H52.78c1.93,0,1.93,0,1.93,1.88q0,24.23,0,48.46c0,.68,0,1.36.05,2v.49l-.1,1c-.24.19-.18.58-.75.54-1.55-.12-3.12,0-4.67-.07-1.71,0-3.38.31-4.9-1.17-1.06-1-2.83-.75-4.33-.73-.21,0-.51-.06-.49.36.83.33,1.79-.15,2.56.28-1,1.49-2.55,1.27-4,1.27Zm51.28-2.89c.51,0,1.16.16.58-.75a2.53,2.53,0,0,1-.08-1.18V5.62a9.73,9.73,0,0,0,0-1.08c-.08-1-.65-1.3-1.5-.87a2.58,2.58,0,0,1-1.28.16H5.14A2,2,0,0,1,4,3.7c-.72-.44-.9.15-1.05.61a3.81,3.81,0,0,0,0,1.07q0,22.44,0,44.86a2.65,2.65,0,0,1-.23,1.62c-.34.53.07.59.5.44l.24,0,.48-.05c.48,0,1,.06,1.44.06ZM38.23,53.64V53.4H4v.24Z"/><path class="cls-2" d="M54.77,53.26c0-.68-.05-1.36-.05-2q0-24.22,0-48.46c0-1.89,0-1.88-1.93-1.88H1.44C1,.88.48.92,0,.94.22.17.86.49,1.31.49q17.13,0,34.26,0h17c.42,0,1,.26,1.17-.47h0c1,.47,1.75,1.08,1.23,2.38a2.93,2.93,0,0,0,0,1.07q0,24.21,0,48.42C55,52.33,55.11,52.83,54.77,53.26Z"/><path class="cls-3" d="M.06,55.18h38c1.46,0,3,.22,4-1.27-.77-.43-1.73.05-2.56-.28,0-.42.28-.36.49-.36,1.5,0,3.27-.3,4.33.73,1.52,1.48,3.19,1.14,4.9,1.17,1.55,0,3.12-.05,4.67.07.57,0,.51-.35.75-.54l.06.72c-1.8.35-3.62,0-5.43.14-.91.06-1.83,0-2.74.07h-.48a1,1,0,0,0-.75,0,27.8,27.8,0,0,0-4.28,0,1.53,1.53,0,0,0-1,0h-.23c-.44,0-.88-.06-1.32-.06q-18.33,0-36.68,0C1.27,55.54.51,56,.06,55.18Z"/><path class="cls-2" d="M54.73,55.42l-.06-.72.1-1A1.57,1.57,0,0,1,54.73,55.42Z"/><path class="cls-4" d="M3.87,52.22l-.48.05c0-.15,0-.3,0-.45.17-.09.15-.16,0-.23,0-.48,0-1,0-1.44V6.94c0-.71,0-1.43,0-2.14h.5c-.16,1.12.63,1,1.3,1H48.89a2.57,2.57,0,0,0,.48,0c.23,0,.63.16.59-.32s-.15-.63-.58-.63H3.85c.2-.79.84-.47,1.29-.47h46.2c0,.8.08,1.59.08,2.39V47.28c0,1.6-.05,3.19-.08,4.78H5.16C4.73,52.07,4.27,51.94,3.87,52.22ZM14.43,39.71c.33.06.49.69.88.38.55-.43,1.14-.24,1.71-.25,1.73,0,1.73,0,1.69-1.75.36-1.38.74-2.77,1.1-4.15.11-.44.3-.69.81-.69,1.76,0,3.51,0,5.27,0,.66,0,.9.27,1,.88.21.93.51,1.84.79,2.76,1.13,3.63.24,2.69,3.89,2.88.92,0,1.06-.24.79-1.12Q29.56,29.32,26.83,20c-.92-3.13-.88-3.14-4.15-3.14-.36,0-.72,0-1.07,0-.55,0-.78.24-.92.73q-.72,2.6-1.5,5.17-2,6.87-4.09,13.74c-.83,0-1.71,0-.79,1.16a.57.57,0,0,1,0,.54c-.49.48-.2.92,0,1.37A.24.24,0,0,1,14.43,39.71Zm24.74-8.16h0V25.81c0-2.75,0-2.72-2.8-2.71-.82,0-1.09.21-1.08,1.07,0,4.27,0,8.54,0,12.81,0,2.8,0,2.75,2.74,2.78,1,0,1.18-.39,1.17-1.26C39.14,36.18,39.17,33.87,39.17,31.55Zm.19-12.93a2.08,2.08,0,0,0-2.17-2.31,2.16,2.16,0,0,0-2.13,2.26,2.2,2.2,0,0,0,2.14,2.28A2.16,2.16,0,0,0,39.36,18.62Zm-19,17.23c.33-.3.91-.42.67-1.05a.36.36,0,0,0-.49-.2C20,34.87,20.21,35.37,20.36,35.85Zm.93-19.75a2,2,0,0,0,1.85-.05A2,2,0,0,0,21.29,16.1Z"/><path class="cls-3" d="M51.34,52.06c0-1.59.08-3.18.08-4.78V6.71c0-.8-.05-1.59-.08-2.39-.28-.44-.73-.23-1.09-.23H3.36c-.3.24-.22.58-.22.89q0,23.66,0,47.32c-.43.15-.84.09-.5-.44a2.65,2.65,0,0,0,.23-1.62q0-22.43,0-44.86a3.81,3.81,0,0,1,0-1.07c.15-.46.33-1,1.05-.61a2,2,0,0,0,1.17.13H49.05a2.58,2.58,0,0,0,1.28-.16c.85-.43,1.42-.09,1.5.87a9.73,9.73,0,0,1,0,1.08V50.36a2.53,2.53,0,0,0,.08,1.18c.58.91-.07.75-.58.75A.24.24,0,0,0,51.34,52.06Z"/><ellipse class="cls-3" cx="21.12" cy="53.52" rx="24.19" ry="0.17"/><path class="cls-5" d="M3.15,52.3q0-23.67,0-47.32c0-.31-.08-.65.22-.89,0,.24,0,.47,0,.71,0,.71,0,1.43,0,2.14V50.15c0,.48,0,1,0,1.44v.23c0,.15,0,.3,0,.45Z"/><path class="cls-6" d="M51.34,52.06a.24.24,0,0,1,0,.23h-46c-.48,0-1,0-1.44-.06.4-.28.86-.15,1.29-.15Z"/><path class="cls-3" d="M15.1,36.47q2-6.87,4.09-13.74.78-2.58,1.5-5.17c.14-.49.37-.77.92-.73.35,0,.71,0,1.07,0,3.27,0,3.23,0,4.15,3.14q2.73,9.36,5.56,18.67c.27.88.13,1.17-.79,1.12-3.65-.19-2.76.75-3.89-2.88-.28-.92-.58-1.83-.79-2.76-.13-.61-.37-.89-1-.88-1.76,0-3.51,0-5.27,0-.51,0-.7.25-.81.69-.36,1.38-.74,2.77-1.1,4.15s-1.11,1.76-2.4,1.6a14.76,14.76,0,0,0-1.88,0,.24.24,0,0,0-.13-.17C14.57,38.52,14.83,37.49,15.1,36.47Zm8.15-15.84c-.72,2.9-1.55,5.75-2.4,8.6-.17.58-.08.82.55.81,1.27,0,2.55,0,3.82,0,.63,0,.73-.24.56-.81C24.89,26.39,24.05,23.54,23.25,20.63Z"/><path class="cls-3" d="M39.17,31.55c0,2.32,0,4.63,0,7,0,.87-.16,1.27-1.17,1.26-2.76,0-2.75,0-2.74-2.78,0-4.27,0-8.54,0-12.81,0-.86.26-1.07,1.08-1.07,2.8,0,2.8,0,2.8,2.71v5.74Z"/><path class="cls-6" d="M3.85,4.8H49.38c.43,0,.56.29.58.63s-.36.28-.59.32a2.57,2.57,0,0,1-.48,0H5.15c-.67,0-1.46.16-1.3-1Z"/><path class="cls-3" d="M39.36,18.62a2.16,2.16,0,0,1-2.16,2.23,2.2,2.2,0,0,1-2.14-2.28,2.16,2.16,0,0,1,2.13-2.26A2.08,2.08,0,0,1,39.36,18.62Z"/><path class="cls-7" d="M3.35,4.8c0-.24,0-.47,0-.71H50.25c.36,0,.81-.21,1.09.23H5.14c-.45,0-1.09-.32-1.29.47h-.5Z"/><path class="cls-6" d="M15.1,36.47c-.27,1-.53,2.05-.8,3.07-.19-.45-.48-.89,0-1.37a.57.57,0,0,0,0-.54C13.39,36.42,14.27,36.47,15.1,36.47Z"/><path class="cls-6" d="M14.43,39.71a14.76,14.76,0,0,1,1.88,0c1.29.16,2.18-.19,2.4-1.6,0,1.74,0,1.72-1.69,1.75-.57,0-1.16-.18-1.71.25C14.92,40.4,14.76,39.77,14.43,39.71Z"/><path class="cls-8" d="M20.36,35.85c-.15-.48-.41-1,.18-1.25a.36.36,0,0,1,.49.2C21.27,35.43,20.69,35.55,20.36,35.85Z"/><path class="cls-8" d="M21.29,16.1a2,2,0,0,1,1.85-.05A2,2,0,0,1,21.29,16.1Z"/><path class="cls-7" d="M3.37,51.82v-.23C3.52,51.66,3.54,51.73,3.37,51.82Z"/><path class="cls-6" d="M23.25,20.63c.8,2.91,1.64,5.76,2.53,8.6.17.57.07.82-.56.81-1.27,0-2.55,0-3.82,0-.63,0-.72-.23-.55-.81C21.7,26.38,22.53,23.53,23.25,20.63Z"/></g></g></svg>