<svg xmlns="http://www.w3.org/2000/svg" viewBox="0 0 142.05 142.05"><g id="Layer_2" data-name="Layer 2"><g id="Layer_1-2" data-name="Layer 1"><path d="M0,71.21A69.31,69.31,0,0,1,5.51,43.68,71.69,71.69,0,0,1,43.3,5.6,68.49,68.49,0,0,1,70.83,0,68.53,68.53,0,0,1,98.37,5.6a72.72,72.72,0,0,1,38.08,38.08,68.52,68.52,0,0,1,5.6,27.53,68.53,68.53,0,0,1-5.6,27.54,71.78,71.78,0,0,1-38.08,37.79,69.5,69.5,0,0,1-27.54,5.51,69.45,69.45,0,0,1-27.53-5.51A70.76,70.76,0,0,1,5.51,98.75,69.32,69.32,0,0,1,0,71.21Zm31.71,0A38.2,38.2,0,0,0,34.85,86.6a39.58,39.58,0,0,0,21,21,38.18,38.18,0,0,0,15.38,3.13,38.83,38.83,0,0,0,15.48-3.13,39.32,39.32,0,0,0,21.08-21,38.19,38.19,0,0,0,3.13-15.39,38.82,38.82,0,0,0-3.13-15.47A39.06,39.06,0,0,0,86.69,34.66a38.84,38.84,0,0,0-15.48-3.14,38.19,38.19,0,0,0-15.38,3.14A40.17,40.17,0,0,0,43.3,43.11a39.66,39.66,0,0,0-8.45,12.63A38.83,38.83,0,0,0,31.71,71.21Z"/></g></g></svg>