<svg xmlns="http://www.w3.org/2000/svg" viewBox="0 0 208.9 304.43"><g id="Layer_2" data-name="Layer 2"><g id="Layer_1-2" data-name="Layer 1"><path d="M140.72,154.41q-22,0-40.07-7.22t-33.8-24.31l4.55,28.87Q73.5,170,75,189.44t2.19,39.13q.66,19.65,1,39t.38,36.84H45.77q0-39.69-1.71-78.62t-6.55-74.92A490.07,490.07,0,0,0,23.64,83,264.6,264.6,0,0,0,0,25.08l11.87-7.4q4.85-3,8.07-4.94l5-3c1.2-.69,2.06-1.16,2.57-1.42Q34,19.58,40.17,31.73A263.61,263.61,0,0,1,52.41,60.59a85.08,85.08,0,0,1,11.3-24.4,79,79,0,0,1,17.95-19A83,83,0,0,1,105.3,4.86,95.68,95.68,0,0,1,133.69,0a78.83,78.83,0,0,1,37.7,8.84A132.69,132.69,0,0,1,205.1,33.63L181,56.8Q176,52.44,170.91,48a84,84,0,0,0-10.73-8,51.33,51.33,0,0,0-12-5.51,40.69,40.69,0,0,0-13.39-1.8A55,55,0,0,0,114,38.38,52.47,52.47,0,0,0,97.23,51.29h.19a135.8,135.8,0,0,0-11.2,15.95,27.71,27.71,0,0,0-3.61,17.85V84.9a32.14,32.14,0,0,0,7,16.24,48.41,48.41,0,0,0,13.76,11.49,69.21,69.21,0,0,0,17.85,6.93,82.42,82.42,0,0,0,19.47,2.37,68.15,68.15,0,0,0,13.1-1.42,129.88,129.88,0,0,0,14.63-3.8,95.69,95.69,0,0,0,14.14-5.79,50.28,50.28,0,0,0,11.49-7.79l14.82,26.78a67.4,67.4,0,0,1-15.1,10.92,109.23,109.23,0,0,1-18,7.69A117.38,117.38,0,0,1,157.43,153,109,109,0,0,1,140.72,154.41Z"/></g></g></svg>