<svg xmlns="http://www.w3.org/2000/svg" viewBox="0 0 864 864"><defs><style>.cls-1{fill:#002c3a;}.cls-2{fill:#fff;}</style></defs><g id="Layer_2" data-name="Layer 2"><g id="Layer_1-2" data-name="Layer 1"><path class="cls-1" d="M864,432c0,157.62-84.41,295.52-210.5,371a432.71,432.71,0,0,1-400.34,22.39C103.81,757.35,0,606.8,0,432,0,193.41,193.41,0,432,0S864,193.41,864,432Z"/><path class="cls-2" d="M653.5,803a432.71,432.71,0,0,1-400.34,22.39l.92-.87c4.15-3.83,5.09-9.58,8.39-13.89,1.82-2.41,3.6-5.16,6.09-6.76,6.5-4.19,9.88-10.51,12.88-17.19,3.64-8.17,6.38-16.86,10.85-24.51,2.33-4,7.61-6.61,11.58-9.47s8.54-5,12.11-8.24a12.18,12.18,0,0,0,3.34-7.21,2.18,2.18,0,0,1,0-.51c.93-9.07,7.25-12.59,14.86-14.86,6-1.78,12.1-3,18.16-4.71a11.36,11.36,0,0,0,4.34-2.23c1.08-.86,2.16-1.75,3.16-2.64,3.6-3,7.13-6.24,10.8-9.17,3.25-2.61,7.31-4.84,7-8.32-1.9-6.14-3.12-10.5-5.28-16.69-3.24-12.9-11.07-30.35-14.07-32.1-4.45-3.06-14.24-4.27-15.62-4.56-7.21-1.15-12-1.44-17.14-3A50.09,50.09,0,0,1,286,593.23a10.39,10.39,0,0,1-.1-1.77v-1.81c0-2.39,1.07-8.7,1.41-11.06.13-9-4.79-15.66-10.29-22.13a1.33,1.33,0,0,1-.27-.26,9,9,0,0,0-1.44-1.17,3.52,3.52,0,0,1-.63-.65c-4.57-6.57-4.57-9.3-.78-16.3,1.86-3.45,3.12-4.64-.48-7.2-4.61-3.27-6.72-8-6.72-13.85a151.11,151.11,0,0,0-1.38-17.27c-.75-6-1.85-6.72-8.13-6.5-8.95.37-16.19-3.12-21.28-10.36-3.52-5.08-4.08-10.58-3.38-16.08a50.12,50.12,0,0,1,1.6-7.68A47.5,47.5,0,0,1,240.87,445a121.92,121.92,0,0,1,9.91-12.41,122.48,122.48,0,0,0,7.91-10.1c3.19-4.45,6.2-9,9.32-13.51a11.24,11.24,0,0,0-.26-13.78c-3.94-4.71-5.24-10-5.68-15.26h-.19s9.55-67.26,8.92-108.26a76.2,76.2,0,0,1,10.34-39.57,73.8,73.8,0,0,1,9.86-13.2q3.72-4,8.12-8.22,3.72-3.65,7.9-7.34c41.19-36.62,129.16-72.59,215-39.19,0,0,103.51,35.54,103.13,194.91-.1,48.74-13.65,108.88-36.77,183.32l-1.82,5.5c0,.08-2.42,8.21-2.75,11-2.27,17.56,1.93,27.14,1.6,44.89-.08,4,1.15,6.46,5.53,6.46,1.7,0,3.33.49,5,.56,15.82.89,20.69,8.54,22.69,22.43,1,6.76.78,13.66,1.19,20.53.6,9.81,7.24,16.81,10.51,25.81,2.15,5.9,2.9,7.84,2.15,12.22-.63,4.15-1,8.39-1.63,12.59-.37,2.63-.78,5.27-1.19,7.9h1c-.67,4-1.33,8.07-1.89,12.07-.71,5.53,1,10.4,4,15.08,1.9,3,3,6.5,4.05,9.87,1.37,4.51,2.3,9.14,3.68,13.63,2.92,9.8,6,19.61,9.12,29.34C650.76,795.86,652.39,799.3,653.5,803Z"/></g></g></svg>