<svg xmlns="http://www.w3.org/2000/svg" viewBox="0 0 512 512"><defs><style>.cls-1{fill:#ffe100;}.cls-2{fill:#ffa800;}.cls-3{fill:#fff;}.cls-4{isolation:isolate;}</style></defs><g id="Layer_2" data-name="Layer 2"><g id="Layer_1-2" data-name="Layer 1"><polygon class="cls-1" points="8.5 503.5 503.5 503.5 503.5 8.5 8.5 8.5 8.5 503.5"/><polygon class="cls-2" points="477.89 503.5 503.5 503.5 503.5 8.5 477.89 8.5 477.89 503.5"/><polygon class="cls-3" points="8.5 503.5 34.1 503.5 34.1 8.5 8.5 8.5 8.5 503.5"/><path d="M503.5,512H8.5A8.52,8.52,0,0,1,0,503.5V8.5A8.52,8.52,0,0,1,8.5,0h495A8.52,8.52,0,0,1,512,8.5v495A8.52,8.52,0,0,1,503.5,512ZM17,495H495V17H17Z"/><g class="cls-4"><path d="M205.38,218.64a60.62,60.62,0,0,1-.56,9.92q-16.77,3.91-23,8.24,17.88,8.1,17.88,15.78a33.41,33.41,0,0,1-6.84,20.11,48.84,48.84,0,0,1-18.51,15,57.62,57.62,0,0,1-25.49,5.65q-15.78,0-23.53-8.73t-7.75-23.81q0-16.2,8.8-37.29l19.27,6.15q-5.16,13.13-5.17,22.76,0,7.55,3.36,11.66t10.33,4.12A32.68,32.68,0,0,0,164.94,266a42.9,42.9,0,0,0,11.81-6.57q-10.35-5.16-13.76-8.1t-3.42-6.14q0-7.26,6-16a59.27,59.27,0,0,1,16.27-15.57,57.79,57.79,0,0,1,22.56-8.94Q205.38,208.59,205.38,218.64Z"/><path d="M259.63,223.67a66.24,66.24,0,0,1,4.4,23.46,54.21,54.21,0,0,1-3.07,18q-4.05,1.82-13.48,3.42a111.64,111.64,0,0,1-18.78,1.61,62.24,62.24,0,0,1-14.95-1.54,89.23,89.23,0,0,1,4.61-24.86q7.68.71,14.53.7,6,0,11.45-.42a97.29,97.29,0,0,0-15.5-26.39l19.27-16.34A107.74,107.74,0,0,1,259.63,223.67Z"/><path d="M307.89,221.37a29,29,0,0,1,7,12.22,42,42,0,0,1,1.81,14.66,76,76,0,0,1-8.24,30.45,128.5,128.5,0,0,1-16.34,25.7,58.83,58.83,0,0,1-11.1-6.08,52.15,52.15,0,0,1-10-8.17,7.69,7.69,0,0,1,1.05-1.12,10.12,10.12,0,0,0,1.19-1.25q11.73-12.15,17.6-20.95A29.43,29.43,0,0,1,277,259.91a16.57,16.57,0,0,1-5.59-12.78,30.07,30.07,0,0,1,3.78-14,37.16,37.16,0,0,1,9.56-11.87q5.79-4.68,11.52-4.68A15.69,15.69,0,0,1,307.89,221.37Zm-8,23.25c2.05,0,3.54,0,4.47-.14a19,19,0,0,0-5.93-4.82,14.84,14.84,0,0,0-6.92-1.88,7.41,7.41,0,0,0-4.12,1.05,3.36,3.36,0,0,0-1.6,3q.84,1.53,7.12,2.37A56.18,56.18,0,0,0,299.92,244.62Z"/><path d="M363.68,247a45.66,45.66,0,0,1,.77,9.77,41.73,41.73,0,0,1-.84,9.85q-.84,3.13-2.93,3.14a64.94,64.94,0,0,1-10.34-1.12q-2.65,7.26-7.54,18-3.21,7-6.22,12.5a64.72,64.72,0,0,1-3.7,6.35,53,53,0,0,1-12.29-6.84,48.72,48.72,0,0,1-8.8-7.4,235.72,235.72,0,0,0,14.67-22.49,144,144,0,0,0,11.45-26.25l1.26-.84a84.66,84.66,0,0,0,12.08,1.67q6.21.42,9.43.42C362.16,243.78,363.17,244.85,363.68,247Zm-27.44-16.69a30,30,0,0,1-6.57-5.66,20.83,20.83,0,0,1,2.17-5,33.65,33.65,0,0,1,4-5.72c1.48-1.73,2.79-2.68,3.91-2.87s2.58.28,4.68,1.4a29.69,29.69,0,0,1,5.86,4.12q2.73,2.44,3,3.84.57,2.1-3.14,7.33t-6.21,6.92A39.77,39.77,0,0,1,336.24,230.31Z"/><path d="M394.47,240.29A67.08,67.08,0,0,1,393,254.54a35.3,35.3,0,0,1-4.26,11.17,92.15,92.15,0,0,1-28.08,4.05q-2.09,0-2.93-3.14a41.73,41.73,0,0,1-.84-9.85,45.66,45.66,0,0,1,.77-9.77q.78-3.23,3-3.22a56.4,56.4,0,0,0,13.55-1.25,159,159,0,0,0-4.75-15.37L392,222A60.9,60.9,0,0,1,394.47,240.29Zm-19.06,40.64a29.69,29.69,0,0,1,5.86,4.12q2.73,2.44,3,3.84c.37,1.4-.68,3.84-3.15,7.34s-4.53,5.79-6.21,6.91a39.24,39.24,0,0,1-7.68-4.4,29.76,29.76,0,0,1-6.57-5.66,20.63,20.63,0,0,1,2.17-4.95,33.35,33.35,0,0,1,4-5.73q2.24-2.59,3.91-2.86C371.75,279.35,373.31,279.82,375.41,280.93Z"/></g></g></g></svg>