<svg xmlns="http://www.w3.org/2000/svg" viewBox="0 0 1591.2 1590.71"><defs><style>.cls-1{fill:#d0d0d0;}.cls-2{fill:#dfdfdf;}.cls-3{fill:#e0e1e1;}.cls-4{fill:#e1e1e1;}.cls-5{fill:#3e3d3d;}</style></defs><g id="Layer_2" data-name="Layer 2"><g id="Layer_1-2" data-name="Layer 1"><path class="cls-1" d="M1591.2,771.12v47c-1.07,4.21-.22,8.5-.49,12.74.64,43.89-6.16,87-15,129.74a766.06,766.06,0,0,1-42.54,137.79,796.93,796.93,0,0,1-65,125A840.46,840.46,0,0,1,1408.5,1305,800.06,800.06,0,0,1,1233,1461.54a815.87,815.87,0,0,1-106.17,58.57,788.9,788.9,0,0,1-241.71,66.82,502.26,502.26,0,0,1-61.68,3.28c-6.73.32-13.48-.64-20.18.5H789.84c-6.33-1.09-12.71-.21-19.05-.5-3.73,0-7.46,0-11.18,0-3.55-.85-7.16-.27-10.74-.44-24-.14-47.72-3.36-71.4-6.83a778.13,778.13,0,0,1-143.06-35.18c-18.1-6.3-35.94-13.31-53.55-20.88a28.23,28.23,0,0,1-6.31-3.39c-1.87-3.3,1.14-4.67,2.82-6.13a91.92,91.92,0,0,0,12.13-12.19c3.12-4,3.93-7.83,1.51-12.37-7.83-14.67-17-28.52-25.71-42.66-2.37-3.84-5.67-3-8.86-1.67a120.35,120.35,0,0,0-25.58,15c-9.47,7-19.21,13.8-26.35,23.48a2.66,2.66,0,0,1-2.39,1.34c-6.44-5.5-14.25-8.82-21.24-13.43-2.21-1.46-4.89-2.4-6-5.19.3-2.44,2.41-3.25,4.08-4.38a147.84,147.84,0,0,0,12.69-9.43c5.3-4.49,6.32-8,3.84-14.41-5.63-14.61-12-28.9-18.46-43.17-1.83-4.06-4.4-5.31-8.76-4.3a72,72,0,0,0-14.47,5c-14.73,7-29.44,14.06-41.89,24.9a4.37,4.37,0,0,1-2.55,1.22c-6.29-4.07-11.93-9-17.64-13.8-2.9-2.44-6.33-4.23-8.87-7.13.8-2.25,3-2.77,4.77-3.7,5.68-3,11.51-5.58,16.74-9.34,4-2.85,5.5-6.44,4.45-11.22-3.55-16.09-8.24-31.89-12.79-47.71-.91-3.16-3.21-4.06-6.23-4.1-8.33-.12-16.07,2.63-23.84,5-12.7,3.93-25.15,8.54-36.4,15.84a6.15,6.15,0,0,1-3.55,1.28,205.12,205.12,0,0,1-21-21.82c-.83-1-1.46-2.11-.76-3.48,2.85-2.6,6.66-2.92,10.06-4.2,3.59-1.34,7.18-2.66,10.66-4.29,5.14-2.4,7.33-6.59,6.71-12.05Q229,1281,225.85,1257.8c-.59-4.29-2.93-6.14-7-6.33a79.86,79.86,0,0,0-15.75.68c-15.83,2.36-31.49,5.31-46.2,11.95a5.52,5.52,0,0,1-3.24.63c-1.79-.93-2.77-2.62-3.87-4.17A832.71,832.71,0,0,1,90,1163.46a793.52,793.52,0,0,1-85.34-280C2.27,862,.48,840.55,1,818.94V771.59C1,722.14,7.88,673.48,18.14,625.23a753.55,753.55,0,0,1,23.92-86.41A808.24,808.24,0,0,1,96.17,415.54a793.09,793.09,0,0,1,63.14-98.43,778.43,778.43,0,0,1,50-60c13.75-15,28.07-29.38,42.79-43.34a769.4,769.4,0,0,1,86.22-70.19,793.72,793.72,0,0,1,234-112.83A798.54,798.54,0,0,1,665.79,9.36q28.85-4.81,58-7.35C732.86,1.23,741.92.48,751,.47c3.49-.16,7,.4,10.48-.43,2.89-.07,5.78,0,8.67,0h51.3C873-.14,923.63,7.24,973.77,18.43a784.2,784.2,0,0,1,120.59,37.72c3.4,1.36,6.9,2.53,9.9,4.73,1.68,2.44-.57,3.38-1.85,4.6A147.75,147.75,0,0,0,1089.56,79c-3.88,4.78-4.07,9.29-1,14.46,6,10,12.26,19.79,18.54,29.59,2.07,3.22,4.22,6.39,6.38,9.55,2.84,4.16,4.43,4.74,9.27,3.07a64.6,64.6,0,0,0,15.52-8.41c12.46-8.61,24.91-17.26,34.59-29.19,1-1.19,1.85-2.67,3.65-2.89,9.85,5.2,19.38,11,29,16.54,0,2.42-2.1,3-3.56,4.08-4.53,3.26-9.21,6.35-13.31,10.16-6.5,6.05-7.12,8.75-3.71,16.86,4.51,10.73,9.33,21.34,14.33,31.86,1.44,3,3,6,4.14,9.15,1.41,3.77,4.13,5,8,4.32a54.89,54.89,0,0,0,14.45-4.94c14.1-6.8,28.05-13.86,40-24.17a10,10,0,0,1,4.47-2.68c1.9,0,3.3,1.09,4.65,2.16,7.6,5.94,15.41,11.64,22.73,17.94-3.6,3.79-8.64,5.23-13,7.74-13.89,8-14.58,9.41-10.39,24.79,3.37,12.33,7,24.59,10.8,36.8,2.07,6.67,3.74,7.81,10.51,6.4,20-4.18,39.16-10.61,56.44-21.87a8.19,8.19,0,0,1,3.38-1.73A298.25,298.25,0,0,1,1378.81,252a1.69,1.69,0,0,1,.37,1.76c-1.81,2.07-4.45,2.43-6.84,3.18a106.3,106.3,0,0,0-15.41,6.5c-4.29,2.14-6.1,5.59-5.66,10.12,1.59,16.36,4.2,32.58,6.89,48.78.52,3.14,2.25,4.65,5.31,5.24,5.63,1.09,11.16,0,16.61-.83,16.6-2.54,33-6,48.16-13.6a3.24,3.24,0,0,1,2.33-.24,854.63,854.63,0,0,1,54,80.87c10.08,17.27,19.6,34.83,28.3,52.83a802,802,0,0,1,52.49,139.88,817.23,817.23,0,0,1,20,97.67c3.56,24.84,5.91,49.79,5.35,74.94C1591,763.12,1590.17,767.16,1591.2,771.12Z"/><path class="cls-2" d="M1.88,820.1c-1.37-1.21-.8-2.85-.92-4.33-.1-1.2.23-2.5-1-3.39V777.83c1.19-.88.86-2.18,1-3.38.12-1.48-.45-3.12.92-4.33Z"/><path class="cls-3" d="M1591.2,831.58c-.31,0-.61,0-.92,0,0-3.49,0-7,0-10.46,0-1.11-.08-2.24,1-3Z"/><path class="cls-4" d="M1590.28,758.59c.31,0,.61,0,.92,0v12.48a2.84,2.84,0,0,1-1-2.55Z"/><path d="M973.64,595.23c2.13,5,4.07,9.75,6.13,14.43a135.38,135.38,0,0,0,12.17,22.26,73.44,73.44,0,0,0,10.52,12.42q16.8,15.51,39,10.24a87.69,87.69,0,0,0,20.51-7.94,185,185,0,0,0,22.67-14.34c5.57-4,11.11-8.11,16.74-12a111,111,0,0,1,17-9.8,75.26,75.26,0,0,1,33.46-7.18,58.42,58.42,0,0,0,23.34-4.56,114.43,114.43,0,0,0,19.82-10.62c12.1-7.9,22.93-17.38,33.59-27.06,24.64-22.38,45.73-47.78,64.32-75.34,13.6-20.15,26.48-40.75,39.34-61.37,5.08-8.13,10.22-16.23,15.34-24.34.68-1.08,1.37-2.16,2.14-3.18a1.2,1.2,0,0,1,1.67-.33c.56.31,1.15.55,1.71.86,20.08,11.23,33.82,27.62,39.71,50,5.67,21.49,1.5,41.19-12.14,58.78A43.23,43.23,0,0,1,1357.4,522a46.51,46.51,0,0,1-19.5.93,84.09,84.09,0,0,0-16.68-1.49A36.52,36.52,0,0,0,1294,534.58a47.37,47.37,0,0,0-6.64,10c-10.34,20.77-25.49,37.4-43.85,51.31a303.05,303.05,0,0,1-30,19.75c-3,1.77-6.08,3.53-9.17,5.22-15.56,8.52-31,17.28-46,26.65a134.64,134.64,0,0,1-28,13.6,79.08,79.08,0,0,1-22.49,4.47,17.4,17.4,0,0,0-10.53,4,49.13,49.13,0,0,0-8.59,9c-3.27,4.35-6.36,8.82-9.52,13.24-4.18,5.86-8.28,11.77-12.56,17.55a143.07,143.07,0,0,1-14.75,17,97.19,97.19,0,0,1-13.66,11.29c-15.17,10.34-32,13.24-49.87,10.94a45.09,45.09,0,0,1-5.67-1,17.67,17.67,0,0,0-11.25,1A55.65,55.65,0,0,0,960.1,755a153.78,153.78,0,0,0-13.77,11.18,144.84,144.84,0,0,1-23.16,17,122.93,122.93,0,0,1-48.36,15.92c-7.3.85-14.62,1.42-21.7,3.66a96.38,96.38,0,0,0-32.06,16.84,54.68,54.68,0,0,0-13,15.2c-16.69,28.77-37.58,54-63.36,75.13-22.45,18.38-47.34,32.58-74.14,43.55a413.85,413.85,0,0,1-69.63,21.07c-19.07,4.11-38.33,7.13-57.7,9.44-15.08,1.8-30.21,3.15-45.36,4.28-27.28,2-54.61,2.79-81.95,3.23-26.87.43-53.73-.28-80.59-.85-18.07-.37-36.12-1.15-54.18-1.82-9.75-.37-19.49-1-29-3.59a103.1,103.1,0,0,1-10.5-3.3c-20.15-7.9-32.86-22.61-39.12-43.13a117.44,117.44,0,0,1-4.8-32.15,397.17,397.17,0,0,1,2.59-51.71q2.12-19.3,4.25-38.61,1.26-11.43,2.58-22.87c.28-2.47.32-2.48,2.83-3.07,1.71-.41,3.45-.7,5.14-1.16,1.53-.42,2.25.26,3.07,1.48A20.45,20.45,0,0,1,221.56,801a81.88,81.88,0,0,0,3.88,19.22c6.18,19.33,18.53,33.27,36.77,42.06a104.42,104.42,0,0,0,28.32,8.63c8.69,1.44,17.47,2.05,26.22,2.86,9.87.91,19.75,1.7,29.63,2.49,5.42.44,10.84.87,16.27,1.16,19.32,1,38.64,2.07,58,2.48,15.83.34,31.66.67,47.49.19,15-.45,30.05-.87,45.06-1.71,13.72-.76,27.42-1.95,41.1-3.39,13.84-1.44,27.63-3.17,41.38-5.27,24-3.67,47.84-8.38,71.41-14.29a668.34,668.34,0,0,0,66.49-20.05,209.19,209.19,0,0,0,47.71-24.32,166.62,166.62,0,0,0,42.57-42.45,139.88,139.88,0,0,1,14.68-18.33c7-7.16,14.81-13.14,24.2-16.88A58.06,58.06,0,0,1,889,729.52a86.78,86.78,0,0,1,22,4.76c4.68,1.63,9.39,3.22,14.41,3.41a44,44,0,0,0,5.26,0,15.69,15.69,0,0,0,13.8-9.65,32.94,32.94,0,0,0,2.65-12.58,69.92,69.92,0,0,0-1.18-14.8c-5.16-31.49,0-61.08,16.06-88.72q4.34-7.47,9.35-14.5A5.09,5.09,0,0,1,973.64,595.23Z"/><path d="M575,991q-3.48,15.44-8.35,30.49c-5.94,18.23-12.78,36.14-19.14,54.22a505.65,505.65,0,0,0-15.3,50.42c-3.47,14.55-5.44,29.24-4.45,44.2,2.38,36,18.75,63.5,50.16,81.68a123.87,123.87,0,0,0,40,14.29A247.73,247.73,0,0,0,748,1253.43c49.93-19.72,88.5-53,116.43-98.65,16.16-26.44,26.84-55,33.06-85.38a304.48,304.48,0,0,0,6.08-63.86c-.11-13.91-.92-27.8-2-41.68-1.18-15.3-3-30.55-3.63-45.9a71.26,71.26,0,0,1,1.33-18.6c2.33-10.47,8.53-17.21,19-20.07,6.4-1.76,12.92-2,19.48-2,9.28.05,18.52,1,27.75,1.8a153.44,153.44,0,0,0,24.44.48,42.23,42.23,0,0,0,12.59-2.78c4.9-1.94,9.06-4.91,11.74-9.45a10.49,10.49,0,0,1,5.84-4.52c22-8.64,44-17.28,65.81-26.43,26.24-11,52.13-22.74,77.07-36.48s48.43-29.26,70-47.73a343.35,343.35,0,0,0,25.73-24.44c1-1,2.2-1.85,2.62-3.37a5.27,5.27,0,0,0-.9-1.08c-9.37-6.7-18.92-13.11-29.35-18.09a73.68,73.68,0,0,0-18.13-6.06c-9.36-1.75-18.45-.58-27.37,2.48a102.07,102.07,0,0,0-16.52,7.61c-6,3.35-11.76,7.12-17.42,11-1.31.9-2.64,1.77-3.81,2.55-.79-.11-1-.51-1-1,.31-24.27,9-44.72,28.52-59.6,17.47-13.28,37.19-16.18,58.19-10.43,9.4,2.58,18.66,5.61,28,8.39a197.72,197.72,0,0,0,25.67,5.93c17,2.67,33.46,1.26,49.15-6.26a85.54,85.54,0,0,0,14.29-8.74c1-.77,1.88-1,3-.11,1.6,1.32,3.29,2.54,4.95,3.79a1.77,1.77,0,0,1,.56,2.47c-4.12,9.54-7,19.54-10.69,29.25a104.05,104.05,0,0,1-6.53,14.39,45.54,45.54,0,0,1-9.87,12.27c-31.75,27.33-63.4,54.79-96.26,80.81-26.09,20.66-52.85,40.38-80.92,58.28-21.86,13.93-44.62,26.25-67.76,37.89-28.26,14.22-57.06,27.32-85.48,41.21-12.77,6.24-25.45,12.69-38.12,19.13-9,4.56-15.63,11.55-20.71,20.11a33.75,33.75,0,0,0-4.25,12.63c-7,48.63-17,96.6-32.57,143.28-13.13,39.24-30,76.74-51.94,111.92-15.5,24.91-32.9,48.38-53.32,69.52-18.33,19-38.64,35.43-61.77,48.25a221.3,221.3,0,0,1-74.89,25.53,218.49,218.49,0,0,1-40.14,2.62c-22.48-.77-44.08-5.3-64.22-15.62-27.47-14.08-46.71-35.77-58.69-64a162.14,162.14,0,0,1-11.71-46.79c-1.86-17.88-1.51-35.76-.16-53.64,3.87-50.94,18.84-98.66,41.73-144.08a544.46,544.46,0,0,1,42.29-69.6,6.13,6.13,0,0,1,.66-.69C574.79,989.67,575.28,990,575,991Z"/><path d="M797.23,1381.13c7.72-5.75,15-11.26,22.35-16.62,14.74-10.71,29.58-21.3,44.32-32,13.31-9.7,26.3-19.82,38.88-30.48a325.49,325.49,0,0,0,58-64.24c11.15-16.21,21.44-33,31.58-49.81,10.63-17.67,21.2-35.38,32.68-52.51,2.12-3.16,4.31-6.27,6.56-9.54,1.25.93.75,1.92.68,2.7a267.27,267.27,0,0,1-3.91,26.56c-1.6,8.48-3.16,17-4,25.57-1.6,16.2-.09,31.94,7.32,46.73a71.2,71.2,0,0,0,8,12.89c1.17-.14,1.34-.94,1.62-1.68,9.84-25.8,25.74-47.32,46.26-65.6a315.61,315.61,0,0,1,36.23-27.57c12.41-8.19,25-16.15,37.45-24.23,1.43-.93,2.82-1.93,4.16-2.85-.14-.41-.16-.6-.26-.7a.87.87,0,0,0-.44-.12c-.32,0-.63-.06-1-.06l-102.21,0a1.87,1.87,0,0,1-.46-.09c-.16,0-.31-.1-.47-.15-.59-1.14,0-2.15.34-3.19a173.55,173.55,0,0,1,35.76-61.27c11.94-13.45,25.49-25.14,39.74-36,11.81-9,24-17.49,36.25-26,13.65-9.49,27.28-19,40.22-29.49,1.87-1.51,3.7-3.06,5.54-4.59a1.9,1.9,0,0,0,.84-2.07c-3-10.49-1.89-21,.47-31.31A123.24,123.24,0,0,1,1243.59,873a73.38,73.38,0,0,1,11.86-11.84c8.32-6.59,17.91-9.7,28.36-10.38,9.93-.65,19.37,1.5,28.49,5.33a111.25,111.25,0,0,1,20,11.28,269.21,269.21,0,0,1,23.54,18.93,5.8,5.8,0,0,1,2.1,5c-.11,4.63-.13,9.27,0,13.91a13.32,13.32,0,0,1-2,7.24A158,158,0,0,1,1304,967.88,207.85,207.85,0,0,1,1257.82,990c-16.32,5.6-32.59,11.32-48.46,18.11-18.26,7.82-35.92,16.75-52.3,28.05a206.78,206.78,0,0,0-30.72,26,22.73,22.73,0,0,0-2.18,2.53.63.63,0,0,0,.49,1c1.12.09,2.24.08,3.36.07,19.35-.11,38.7-.31,58-.33,9.91,0,19.83.24,29.74.52a91,91,0,0,1,16.2,1.69,35.24,35.24,0,0,1,10.34,3.66c5.58,3.19,8.08,7.94,7.49,14.36a31.72,31.72,0,0,1-3.56,11.37,97.17,97.17,0,0,1-17.49,23.91c-11.48,11.84-24.86,21-39.53,28.43-12.42,6.27-25.23,11.66-38,17.1-10.14,4.33-20.22,8.78-30.09,13.71a82.26,82.26,0,0,0-18.67,12.5c-7.83,7.07-15.53,14.28-23.18,21.33-.09,1.44,1.07,1.65,1.72,2.27a5.42,5.42,0,0,0,.77.56c3.19,2.13,5.82,5.21,9.46,6.49a88.89,88.89,0,0,0,11.17,2.62c6.72,1.43,13.44,2.85,20,4.9a42.82,42.82,0,0,1,8.81,3.7c4.85,2.81,7.49,6.82,7.15,12.58a26.09,26.09,0,0,1-.81,6.16c-.64,2.14-1.09,4.35-1.88,6.44-7.48,19.92-15.89,39.41-27.2,57.53a149.7,149.7,0,0,1-25.61,31.57,83.3,83.3,0,0,1-22.18,15,56.9,56.9,0,0,1-18.92,5,47.53,47.53,0,0,1-27.23-6,58,58,0,0,1-17-14.55c-7.26-8.94-12.15-19.13-15.6-30-1.74-5.48-3.19-11.05-4.79-16.57-.69-2.4-1.11-2.53-3.11-.8-3.26,2.83-6.51,5.67-9.69,8.59-8.36,7.68-16.66,15.44-25,23.11-6.73,6.16-13.75,12-21,17.5-17.37,13.23-36.91,21.47-58.24,25.74a278.28,278.28,0,0,1-38.49,4.94q-10.77.61-21.55,1.17A3.34,3.34,0,0,1,797.23,1381.13Z"/><path d="M393,206.12a115.92,115.92,0,0,1,41.72,22.25C456,246.21,469,268.91,474.22,296.13c2.88,15.08,2.65,30.18.3,45.31a274.56,274.56,0,0,1-13.88,54.2c-9.78,26.17-23.48,50-42.62,70.5-23.64,25.34-52.26,42.25-86,50.22a166.77,166.77,0,0,1-35.6,4.5c-.64,0-1.28,0-1.92,0a1.55,1.55,0,0,1-1.64-1.85,6.92,6.92,0,0,0,0-1.44c-.44-2.5.68-4.12,2.59-5.69,10.23-8.44,20.37-17,30.55-25.51,25.14-21,50.29-42,75.06-63.48a58.64,58.64,0,0,0,8.66-8.95c7.69-10.18,9.16-21.15,4.19-32.95a40.19,40.19,0,0,0-3.79-7.2c-4.72-6.84-9.57-13.61-15.69-19.3s-12.54-11.39-18.83-17.06c-4.16-3.75-8.3-7.51-12.12-11.61a61,61,0,0,1-7.39-9.41,19.23,19.23,0,0,1-2.95-13.26,130,130,0,0,1,5.46-22.79c4-12.17,9.43-23.74,15.08-35.2,6.14-12.46,12.66-24.74,18.32-37.44A13.48,13.48,0,0,1,393,206.12Z"/><path d="M338,861.15c.13-.9.91-1.23,1.52-1.68q19.65-14.57,39.32-29.1a303,303,0,0,1,29.73-19.31,299.69,299.69,0,0,0,51.13-36.28C489.24,748.54,511,717,523.45,679.45c10.55-31.81,29.82-56.88,56.55-76.6a219.36,219.36,0,0,1,28.74-18.17,163.94,163.94,0,0,0,35.75-25.61c8.68-8,17.19-16.25,25.81-24.36,3.37-3.18,6.81-6.29,10.24-9.41.69-.62,1.3-1.45,2.47-1.42a5.59,5.59,0,0,1,0,1.35c-3.12,14.35-5.75,28.82-9.39,43.06a199.66,199.66,0,0,1-11.49,34,106.65,106.65,0,0,1-15.09,24.38,85,85,0,0,1-28.58,22.16,227.55,227.55,0,0,0-26.31,14.76c-26.81,17.64-47,41.15-61.61,69.57a294.56,294.56,0,0,0-14.33,32.92,250.41,250.41,0,0,1-15.52,34.49C494,812.79,486,824.12,475.93,833.9c-14,13.56-30.63,22.32-49.33,27.35a181.11,181.11,0,0,1-38.8,5.81c-7.34.33-14.7.34-22.05.45A40.9,40.9,0,0,1,353.91,866c-4.76-1.35-9.56-2.57-14.34-3.84A2.27,2.27,0,0,1,338,861.15Z"/><path d="M441.37,771.24c.13-4.92.24-9.84.41-14.76q.78-23,1.59-46,1.32-39.06,2.63-78.13c.4-11.82.74-23.64,1.23-35.46q1.18-28.75,2.54-57.49c.28-6.07.54-12.13,1.07-18.19a255.16,255.16,0,0,1,24.64-89.58A270.23,270.23,0,0,1,506,383c.58-.74,1.23-1.43,1.83-2.12,1.21.36.86,1.28.82,2q-.57,13.17-1.23,26.35c-.46,9.1-1,18.19-1.42,27.29-.47,9.74-.81,19.49-1.27,29.23q-1.2,24.9-2.47,49.81c-.73,14.21-1.44,28.42-2.28,42.62-.75,12.76-1.63,25.52-2.52,38.28-.7,10-1.44,20.08-2.28,30.12-.75,8.91-1.55,17.83-2.54,26.72-1.22,11-4.14,21.63-7.53,32.13-4.37,13.54-9.87,26.65-15.17,39.84-2.5,6.22-5,12.43-7.44,18.69a41.49,41.49,0,0,1-6.56,11.64c-4.47,5.4-9.08,10.68-13.62,16Z"/><path d="M1297.53,176.11c7.18-3.08,14.33-6.23,21.55-9.21,7.52-3.1,15.06-6.19,23-8.27,1.54-.41,3.11-.68,4.66-1.06,3.86-1,6.88.54,9.48,3.21a19.93,19.93,0,0,1,3.92,6.53,57.69,57.69,0,0,1,3.48,14.4,141,141,0,0,1,1.06,26.3,77.18,77.18,0,0,1-1.1,8.55A20.24,20.24,0,0,1,1356.1,229c-11.94,8.87-25.59,14.22-39.5,19a122.91,122.91,0,0,1-19.87,5.33,23.84,23.84,0,0,1-7.63.23,4.26,4.26,0,0,1-3.76-3.19c-.8-2.76-1.74-5.47-2.56-8.23q-5.4-18.37-10.75-36.77a32.6,32.6,0,0,1-1.46-7,9.31,9.31,0,0,1,3.55-8.47,81.71,81.71,0,0,1,7-5,140.56,140.56,0,0,1,14.82-7.82A13.11,13.11,0,0,0,1297.53,176.11Z"/><path d="M473.84,1522.41c-1.26.95-2.55,1.87-3.78,2.87-10.14,8.26-20.34,16.44-31.27,23.64-2.65,1.75-5.48,3.25-8.25,4.81-3.8,2.13-7.38,1.29-10.79-1a21.53,21.53,0,0,1-5.32-5.45,55.61,55.61,0,0,1-6.18-11.3,134.32,134.32,0,0,1-8.45-26.84,75.68,75.68,0,0,1-1.12-9,19.36,19.36,0,0,1,3.43-12.18c6.91-9.12,15.54-16.38,24.7-23.08A199.78,199.78,0,0,1,444.73,1453c3-1.75,6.14-3.4,9.33-4.84a36,36,0,0,1,6.37-2,4.12,4.12,0,0,1,4.93,2c.41.69.87,1.34,1.3,2q12.48,19.56,24.21,39.59A34.74,34.74,0,0,1,493,1494a9.47,9.47,0,0,1-1.22,9.94,71.13,71.13,0,0,1-5.54,6.58c-3,3.08-6.23,5.94-9.36,8.91C475.86,1520.41,474.86,1521.41,473.84,1522.41Z"/><path d="M375,1469.6c-1.39.75-2.81,1.45-4.17,2.27-10.76,6.54-21.62,12.92-33,18.4-3.16,1.52-6.41,2.85-9.67,4.11-4.75,1.84-8.74.44-12.1-3.15a27.13,27.13,0,0,1-5-8.11,77.64,77.64,0,0,1-4.37-14.14c-2-9-3.65-18.14-3.46-27.46,0-1.44.1-2.87.2-4.3.36-4.82,2.55-8.8,5.69-12.34,9.93-9.45,21.7-16.12,33.85-22.19a139.18,139.18,0,0,1,18.86-8.15c2.57-.84,5.22-1.44,7.85-2.07a9,9,0,0,1,4.28,0,3.44,3.44,0,0,1,2.57,1.93c.51,1.17,1.1,2.3,1.63,3.46q9.31,20.46,17.83,41.27c.6,1.47,1.05,3,1.55,4.52a9.58,9.58,0,0,1-2.59,10.52,52.61,52.61,0,0,1-5.32,4.81c-4.09,3-8.31,5.92-12.47,8.89C376.43,1468.39,375.72,1469,375,1469.6Z"/><path d="M1270.92,156l-.59.85c-13.53,12.26-29.36,20.82-45.86,28.26a59.88,59.88,0,0,1-10.8,3.86c-.78.18-1.55.41-2.34.53-5.31.77-6.3.35-8.55-4.53q-9.69-21.1-19.23-42.29c-.59-1.3-1-2.7-1.41-4.06a9.36,9.36,0,0,1,2.41-10.14,59.28,59.28,0,0,1,6.32-5.86c4.3-3.31,8.78-6.38,13.18-9.57.5-.36,1-.79,1.43-1.18,1.36-.81,2.75-1.58,4.09-2.42,10.12-6.38,20.33-12.59,31-18.07a89.37,89.37,0,0,1,10.92-4.82c3.73-1.35,6.89-.4,9.84,1.85a19.18,19.18,0,0,1,4.58,5.47,49.19,49.19,0,0,1,4.59,10.49,145,145,0,0,1,5.75,27.57c.31,2.68.23,5.42.31,8.13.16,5.6-1.1,10.74-4.86,15.08A1.3,1.3,0,0,0,1270.92,156Z"/><path d="M204.38,1325.65c-3.68.36-7.11,1.74-10.66,2.62-11.76,2.94-23.51,6-35.54,7.62-2.36.33-4.77.38-7.15.55-4,.27-6.67-1.8-8.73-4.87a20,20,0,0,1-3-8.51,65.11,65.11,0,0,1-.83-9.53,137.2,137.2,0,0,1,3.56-31.34c.18-.77.43-1.53.63-2.3,1.71-6.54,4.66-12.21,10.88-15.61,13.26-6.74,27.58-9.89,42.1-12.35,7.1-1.2,14.22-2.22,21.45-2a22.5,22.5,0,0,1,6.15.87,4.38,4.38,0,0,1,3.45,4c.78,6.19,1.82,12.34,2.61,18.52,1.23,9.67,2.35,19.35,3.47,29a31.93,31.93,0,0,1,.27,5.26c-.17,3.76-1.74,6.8-5.18,8.6a70.93,70.93,0,0,1-7.76,3.74c-4.47,1.72-9,3.17-13.57,4.71C205.77,1325,204.92,1325,204.38,1325.65Z"/><path d="M1379.26,253c6.61-1.79,13.21-3.61,19.83-5.35a230.31,230.31,0,0,1,26.62-5.78c1.58-.21,3.17-.33,4.75-.48,4.71-.43,7.93,1.83,10.18,5.73a25,25,0,0,1,2.8,8.59,67,67,0,0,1,.87,11.92,144.23,144.23,0,0,1-2.76,26.61c-.29,1.4-.64,2.79-1,4.18-1.58,6-4.14,11.38-9.71,14.77-13.14,7.28-27.53,10.7-42.1,13.55a152,152,0,0,1-17.53,2.4,35,35,0,0,1-9.53-.44c-3.26-.64-4.08-1.44-4.58-4.61q-2.49-15.82-4.86-31.67c-.83-5.68-1.49-11.39-2.21-17.08a21.32,21.32,0,0,1-.24-2.38c-.11-4.52,1.55-8,5.65-10.29a79.23,79.23,0,0,1,10.84-5C1370.6,256.07,1374.94,254.54,1379.26,253Z"/><path d="M1104.51,61.85c1-.78,2-1.52,3-2.34,9.37-8,18.86-15.82,28.87-23A114.17,114.17,0,0,1,1146.45,30c4.52-2.58,8.57-1.75,12.46,1.21a23.87,23.87,0,0,1,4.6,4.87,50.57,50.57,0,0,1,5.13,8.64A133.13,133.13,0,0,1,1179,75.07a76.22,76.22,0,0,1,1,8.56c.37,4.33-1.18,8.14-3.39,11.74-6.75,9-15.09,16.38-24,23.14A191.9,191.9,0,0,1,1134,131.28c-3,1.78-6.14,3.41-9.3,4.92a25.17,25.17,0,0,1-5,1.57c-2.6.62-4.44-.19-6-2.58-9-13.58-17.77-27.27-26.26-41.16-.16-.27-.3-.56-.46-.84-2.94-4.93-2.75-9.58,1-14.15A120.58,120.58,0,0,1,1098,68.15Z"/><path d="M282.85,1404.33c-5.31,2.16-10.6,4.34-15.92,6.46a260.14,260.14,0,0,1-26.55,9.45c-2.29.64-4.63,1.14-7,1.56-4,.73-7.13-1-9.64-4a23,23,0,0,1-3.89-7.62,61,61,0,0,1-2.79-14.52c-.71-8.59-1.2-17.19-.26-25.8.12-1.11.17-2.23.33-3.33,1-6.47,3-12.39,8.51-16.5,17.64-11.83,37.4-18.27,57.91-22.81a32.53,32.53,0,0,1,8.59-.46,4.64,4.64,0,0,1,4.77,3.82c1.82,6.77,3.88,13.48,5.73,20.25,2.32,8.45,4.53,16.94,6.75,25.42a39.84,39.84,0,0,1,1,5.15c.49,3.74-.49,7-3.57,9.36a68,68,0,0,1-5.87,4.12,133,133,0,0,1-16.62,8.45C283.82,1403.59,283.18,1403.71,282.85,1404.33Z"/><path class="cls-5" d="M575,991l-1.18-1.17c.26-.54.5-1.09.8-1.6s.58-.73,1-.53c.17.08.27.54.26.82A3.09,3.09,0,0,1,575,991Z"/><path class="cls-1" d="M1270.92,156a.73.73,0,0,1,.75-.85A.72.72,0,0,1,1270.92,156Z"/></g></g></svg>