<svg xmlns="http://www.w3.org/2000/svg" viewBox="0 0 1591.2 1591.2"><defs><style>.cls-1{fill:#d0d0d0;}</style></defs><g id="Layer_2" data-name="Layer 2"><g id="Layer_1-2" data-name="Layer 1"><circle class="cls-1" cx="795.6" cy="795.6" r="795.6"/><path d="M1249.16,342h0a93.73,93.73,0,0,0-132.55,0l-321,321-321-321A93.73,93.73,0,0,0,342,342h0a93.73,93.73,0,0,0,0,132.55l321,321-321,321a93.73,93.73,0,0,0,0,132.55h0a93.73,93.73,0,0,0,132.55,0l321-321,321,321a93.73,93.73,0,0,0,132.55,0h0a93.73,93.73,0,0,0,0-132.55l-321-321,321-321A93.73,93.73,0,0,0,1249.16,342Z"/></g></g></svg>