<svg xmlns="http://www.w3.org/2000/svg" viewBox="0 0 512 512"><g id="Layer_2" data-name="Layer 2"><g id="Layer_1-2" data-name="Layer 1"><path d="M256,512c141.31,0,256-114.69,256-256S397.31,0,256,0,0,114.69,0,256,114.69,512,256,512ZM359.94,376.66v0c-17.22,0-71.6-60.33-224.43-29-4,1-9.3,2.69-12.29,2.69-19.52,0-23.25-29.21-2.26-33.67,84.54-18.66,170.94-17,244.63,27.05,17.58,11.23,10.11,32.92-5.65,32.92ZM387.73,309c-2.41-.64-1.7,1.47-12.73-4.33-64.54-38.19-160.71-53.59-246.3-30.36-4.95,1.35-7.63,2.69-12.28,2.69-22.85,0-28.91-34.37-4-41.39C213,207.32,320.94,223.81,396.07,268.5c8.37,4.95,11.67,11.37,11.67,20.33A20,20,0,0,1,387.73,309ZM97,149.29C193.51,121.05,339.54,130,430.34,183c23.27,13.42,14.12,47.36-10.63,47.36l0,0c-5.38,0-8.68-1.34-13.33-4-73.45-43.86-204.89-54.38-289.92-30.63-3.74,1-8.39,2.66-13.34,2.66-13.63,0-24-10.64-24-24.36,0-14,8.68-22,18-24.64Z"/></g></g></svg>