<svg xmlns="http://www.w3.org/2000/svg" viewBox="0 0 427.08 299.36"><defs><style>.cls-1{fill-rule:evenodd;}</style></defs><g id="Layer_2" data-name="Layer 2"><g id="elements"><path class="cls-1" d="M46,291.9c-.57-.15,1.44-.76,0,0-3.28-.86-6.56.38-9.6-1.69,9.11-12,15.44-26.32,26.17-37.49.62-6.19,5.06-12.35,6.4-19,1.86-9.29,7.23-20.49,12.26-28.43,4.48-7.07,6.38-15.48,9.77-23,4.83-10.71-2.55-15.55-4.58-26.1-1.6-8.34,1-18-2.9-25.89-4.57-9.36-11.16-17.8-15.06-27.63-3.55-8.94-5.23-19.38-11.73-26.73-9.11-1.37-17.67,8-25.77,10.59C22,89.3,23.6,99,12.43,97.44,6.51,94.11-5.08,81.53,2.48,74.23,6.26,70.59,17,56.47,16.39,51.14c-.48-4.35,5.73-14.92,8.48-17.32a60.64,60.64,0,0,0,7.22-7.47c3.59-4.61-2.29-7.24-2.45-12.14-.11-3.06-3.26-12.45.68-14.21C30,.13,34.41,6.9,36,8.48l5.72,5.73c6.5-1.67-.46-1.09,4.3-3.69,8.53-4.63,15,7.45,21.33-7.18,4.44,1.15,2.51,9.11,2.07,11.78,3.71-.4,5.75,4,9.54,4C88.09,24.92,93.69,34,102.37,40c6.13,4.28,17.71,15.08,25.19,16.09,2.12.29,3.83,3.65,7.29,4.88s12.43,2.13,14.85,4.55c-.64,3.51-7.64,2.74-10,3,21.79,9.42,44.37,26.79,71.12,22.54,24.33-3.87,54.94-13.37,79.34-6.19,9,2.67,17.45,7.64,26.26,11,6.52,2.46,13.56,4,18.83,9.05a144.07,144.07,0,0,1,16.61,19.23c5.43,7.44,7.1,15.15,11.1,22.83,3.41,6.55,5.45,14.53,10.77,19.7,6.17,6,33.59,29.79,33.59,39a4.33,4.33,0,0,1-2.9-.3c2.14,2.67,13.91,15.06,10.82,17,1.29,4,13.39,14.17,9.33,16.75,2,3.31,5.43,14.39-2.25,14.39-3.18-3.94-.63-.61-3.33-1.42-5.5-1.7-6.93-5.87-9.64-10.67q.39,3.9,1.16,7.72c-4-.11-12.38-9.12-13.54-12.53-2.35-6.94-7.63-13.75-12.67-18.82a2.31,2.31,0,0,1-.8,2c-14.08-13.54-25.07-26.62-37-41.47-2.89-3.6-5.85-2.09-7.51-7.54-.41-1.34-.63-9.6-3.31-8.77-7.19,12.32-7.88,28.69,5.23,37.76,4.52,3.13,10.47,4.77,14.25,8.69,2.55,2.59,2.71,14.16,3,17.72,1,12.52,1.67,25.94,9.36,36.19-.27,2.68,4,3.48,3.89,5.82-.19,5.43,5.43,3.22,8.69,3.75,8.33,3.24,6.88,13.74,6.07,22.27-3.47,2.29-24-14-27.78-17-10.9-8.62-8-31.65-15-43.16-3.44-5.63-6.88-11.48-11.18-16.5-5.3-6.19-14-10.16-19.95-16.06-4.59-4.59-8.41-9.17-13.61-13.13-7.44-5.66-8.85,0-9.91,8.73-.94,7.88-1.77,15.44-.92,23.42.87,8.13-3.21,9.07-7.75,14.89-8.49,10.87-14.14,24.09-21.75,35.36-5,7.45-4.94,12.92-14.45,14.58-2.46,2.76-.81,4.71,0,8-1.89,3.32-5.41,4.43-8.6,6-26.22,0-1.35-13.43,3.08-23.35,5.81-13,16.51-23.66,22.83-36.59,5.57-11.38,2.75-27.71,1.86-39.85-.73-10.1,2.14-20.37-1-30.38-1.94-6.22-27.19,6.4-31.76,8-19.87,6.8-45.1,9.6-66,8-3.25-.24-7.45.32-10.64.42-4.78.16-1.12,10.92-.86,13.74.57,6.42,1.63,12.68,1.87,19.14.12,2.92-.45,5.53,1.2,8.4,2.75,4.78,1.48,9.76,4.07,14.35,3,5.23,5.77,8.91,10.81,12.45,4.69,3.3,12.8,7.19,14.46,12.91,2.44,8.41,10.63-2.87,15.15,4.38,1.13,6.48,2.18,13.31-.86,19.4-9.64-5.72-21.84-11.95-30.13-19.61-7.25-6.69-10.14-19.81-20-24.32-9.45-4.29-11.55-24.89-14.07-33.18A102.84,102.84,0,0,0,129,197.1c-4.09-8.11-4.62-12.83-13-4.64a150,150,0,0,0-21.89,27.73c-2.16,3.57-4.65,9.54-7.21,12.5-3.76,4.36-7.39,6.18-10,11.81-3.51,7.7-7.31,24.63-14.44,28.62-3.37,1.89-8.15,6.22-2.71,9.82C55.62,291.74,53,288.22,46,291.9Z"/></g></g></svg>