<svg xmlns="http://www.w3.org/2000/svg" viewBox="0 0 448.39 296.85"><defs><style>.cls-1{fill-rule:evenodd;}</style></defs><g id="Layer_2" data-name="Layer 2"><g id="elements"><path class="cls-1" d="M22.84,281.31l.79-.78c.07-1.88-1-3.21-2.34-4.44-1.34.75-2.81.31-4.16.44L16,275.46c.78-.21.11-.8.3-1.23a11.76,11.76,0,0,1,1.09-2.3,5.63,5.63,0,0,0,1.19-3.52c-.11-2.82,0-5.63,0-8.45a12.8,12.8,0,0,1,.32-1.82l-.33-.51c.16-.73,1-1.61,0-2.46.2-1.64-.4-3.32.31-4.93a2.08,2.08,0,0,0-.48-2.19l1-.52v-6.26l-.83-.87c0-.85,0-1.7,0-2.54,0-2.14-.73-4.22-.42-6.37-.68-1.22-.16-2.6-.48-3.82s-.06-2.7-.79-3.89c-.21-.34-.44-.67-.74-1.13-.49-3.12-1.3-6.38-.9-9.63l-.74-.74-.18.79-.32-.25v3.82l-.84-.51-3.71,8.23a3.19,3.19,0,0,1,.45-2.66A28.3,28.3,0,0,0,12,216.23a5.65,5.65,0,0,0,.11-2.81,8.22,8.22,0,0,1-.31-2c-.16-1.2-.34-2.41-.41-3.62s0-2.39,0-3.67l-1-1.06c.18-.26.34-.47.48-.66-.8-1.21-.29-2.92-1.46-4.1A4.82,4.82,0,0,0,8.62,203c.91,2.13.53,4.25.31,6.41V206.3l-.62-.62a.94.94,0,0,0-.28.1A3.26,3.26,0,0,0,7.22,208a28.08,28.08,0,0,1-.46,3c-.41,1.53-.56,3.14-1,4.66a10.33,10.33,0,0,0-.7,4.13c.25,1.82-.4,3.53-.49,5.32A6.92,6.92,0,0,1,3.52,228c-.57,1-.55,2.16-1,3.19-.25.59-.35,1.25-.64,1.86a5,5,0,0,1,.16-3.29c.53-1.09.45-2.43,1.15-3.53.34-.52.22-.95-.18-2.21l.84-1.65c-.21-.49-.42-1-.61-1.45-.12-.3-.38-.69-.28-.91a2.57,2.57,0,0,0,.08-2.66,4.76,4.76,0,0,0,.3-2.53c0-.48.16-1.2-.09-1.4-.69-.56.32-.75.14-1.22a5.39,5.39,0,0,1,0-1.46c-.08-1.1.66-2.07.45-3.21s.64-1.94.63-2.85.71-2.1-.23-3.1l.8-.63V199c1.46-1,1.44-2.6,1.69-4a19,19,0,0,1,2.11-6.23c0-2,0-2-1.41-3.49l-1,.93c-.12-1,0-2-.78-2.71A18.33,18.33,0,0,1,5.38,181c.32-.72,0-1.17-.67-1.64l-.75.44-.43-.34c-1.06,1.09-1.09,2.6-1.75,3.76s-.66,2.54-1.24,4.09a7.11,7.11,0,0,1,.17-3.38c.51-1.27.58-2.73,1.68-3.74-.2-1.1.69-1.82,1-2.75s.92-1.6,1.19-2.46a1.39,1.39,0,0,0-.29-1.65c.26-.55.77-1.11.71-1.6-.19-1.72.65-3.11,1.14-4.62a2.26,2.26,0,0,0,0-1.54A2.85,2.85,0,0,1,6,163.16a4.38,4.38,0,0,0,.3-2c0-2.46,0-4.93,0-7.39s1-4.49,1.72-6.68c.1-.3.48-.5.82-.84,0-.25.14-.7,0-.91a2.28,2.28,0,0,1,.07-2.61c.48-1,.28-2.2,1.06-3.17.36-.44.16-1.33.23-2.21.23-.67,1.41-1.38.39-2.47.39-.35.22-1,.43-1.25,1.19-1.23,1.61-2.87,2.49-4.39a8.7,8.7,0,0,0-.07-3A8.17,8.17,0,0,1,13.1,123a7.77,7.77,0,0,1,.31-3c.4-1,0-2.22.1-3.34s-.4-2.09.41-3c-.4-.93-.82-1.87,0-2.86l-.38-.42,1.14-1.12c.13-1.2.26-2.33.44-3.9l-.91-1.76c-.28.56-.47.93-.69,1.35-.26-.38-.39-.47-.4-.58-.15-2-.23-4-.46-6a18.76,18.76,0,0,0-.8-2.4,13.47,13.47,0,0,1-.42-2.35c-.07-.77,0-1.55,0-2.32V90.09c-.76-1.74-1.39-3.1-2-4.49a3.2,3.2,0,0,1-.15-1.2c0-2.46,0-4.92,0-7.11-.67-1.12-1.21-2-1.78-3l-.64.32a24.91,24.91,0,0,0-1.07-4c-.54-1.23-.52-2.56-1.07-3.78a6.57,6.57,0,0,1-.47-2.12,9.55,9.55,0,0,0-.41-1.94c-.11-.37.23-.86.39-1.35a5.55,5.55,0,0,1-1.36-3,44.16,44.16,0,0,0-1.07-5,21.06,21.06,0,0,1-.54-3.57C1.12,49,1,48.15.82,47.3s.39-1.69-.41-2.37c-.07-.06,0-.27,0-.42C.26,42,.1,39.57,0,37.09a9.59,9.59,0,0,1,.33-1.87c0-.09-.2-.3-.32-.48a8.63,8.63,0,0,0,.38-1.56,24.6,24.6,0,0,1,.39-4.9c.42-1.73,1-3.4,1.45-5.22l2.11,1a7.57,7.57,0,0,1,1.64-2,8.81,8.81,0,0,0,2-1.71,26.1,26.1,0,0,0,1.63-2.17l-1-.86-.5.33L5.88,16.54c.51-.86,1-1.83,1.63-2.77A6.66,6.66,0,0,1,11,11.44a18.8,18.8,0,0,1,2.42-1.26,8.27,8.27,0,0,0,2.4-1.36,36.17,36.17,0,0,0,3-2.08l.48.44,1.09-1.63c2.15-.38,4.33.39,6.41-.52.15.12.3.26.45.39,1.22-.92,2.43-1.87,3.68-2.76A5.1,5.1,0,0,1,35,2.17a24.27,24.27,0,0,0,3,.34,9.47,9.47,0,0,1,1,.26l2.49-1L43.25,2.9,45,1.74c2.16-.52,4.09.5,6.09,1A4.9,4.9,0,0,0,54,2.54C55.57,2,57.09,1.2,59,2c1.24.53,2.78.37,4.12.5.33-.32.58-.57.84-.84l1,.92L66,1.8,69.85.87a11.73,11.73,0,0,0,1.31.77,6.67,6.67,0,0,0,1.51.43c.54.11,1.29.4,1.59.16.73-.57.94.54,1.5.26L76,2.25a13.61,13.61,0,0,0,2.78.64,19.63,19.63,0,0,1,6,.84c.94.31,2,0,3,.38.71.28,1.47.53,2.22.77a18.61,18.61,0,0,0,4.86,1c.79,0,1.58.19,2.5.31l.33-.3a1.39,1.39,0,0,0,1.7.37c1.76-.68,3.56-.25,5.33-.39.8-.06,1.61.19,2.38-.39.47-.37,1.15.66,1.74,0,1.8.31,3.52-.64,5.31-.41s3.37-.59,5.1-.47c.14,0,.3-.26.45-.4a7.37,7.37,0,0,0,4.53.09c1.49-.31,3.11,0,4.46-1l1.51.78a.7.7,0,0,0,.2-.08,2.65,2.65,0,0,1,3.32-.12,20.12,20.12,0,0,0,2.06,1,16.77,16.77,0,0,1,2.39-.63,27.31,27.31,0,0,1,3.17,0l1.51-1.84.86.47.75-.38.81,1.23,3.23-.45c.25.38.49.72.8,1.17l1-.81-.54-.67C151,3,152.1,3,153,2.13l.73.46c.31-.28.66-.59,1-.92h4.16l1-.89c1.3.07,2.13,1.34,3.49.75.18-.33.41-.73.54-.95.51.08,1.16.36,1.35.18.5-.48,1-.28,1.56-.38A10.56,10.56,0,0,1,168.33,0a6.58,6.58,0,0,1,1.3.38,5,5,0,0,0,1,0c.46.59.9,1.17,1.31,1.71a6,6,0,0,1,3.22,0L177.12.82h1.39l.89.91,1.23-.95c1.05.76,2.35.12,3.38.52a11.65,11.65,0,0,0,3.25.38c.61.91,1.67,1,2.62,1.23a3.45,3.45,0,0,0,2.51-.82c.72-.24,1.72.43,2.45-.43l.72.73c1.36.18,2.69.39,4,.53s2.6-.49,3.9-.76c1.83.74,3.8.13,5.75.39q.3.31.75.75h1.35l.81-.8c1.74-.07,3.45.71,5.26.45.33-.05.73.23,1.08.41,1.83,1,3.9,1.1,5.95,1.57l1.1,1.37c1,0,1.72,0,2.5,0a22.14,22.14,0,0,1,6.62.81c1.29.35,2.72.18,4,.49a27.72,27.72,0,0,0,6,.4c.24,0,.47.22.72.28,1,.25,2.08.45,3.14.62,2.62.41,5.29,0,7.84.45s5.11.14,7.65.34c1.28.1,2.55.33,3.84.4s2.53,0,3.79,0c.82,0,1.49.72,2.49.19a5.4,5.4,0,0,1,2.65-.18c.87.05,1.81-.35,2.59.39a.63.63,0,0,0,.61,0c1.36-.88,2.86-.15,4.29-.46L286,8.86a5.64,5.64,0,0,0,4.87.61c1-.22,2.06-.49,3.34-.8l.73-1a13.37,13.37,0,0,1,9.34,2.06c2.18-.3,4.37.69,6.68.45a4.33,4.33,0,0,1,1.85.58c.3.13.49.55.79.63.91.22,1.84.33,3,.54l.92,1.14c.48,0,.88-.06,1,.08.88,1,2.11,1.58,2.88,2.77s1.94,1.75,2.37,3c.34,1,1.36,1.27,2.11,1.7a13.9,13.9,0,0,1,5.22,4.61,7.21,7.21,0,0,0,.75,1.16c.61.67,1.27,1.29,2,2.05L335,27.27c.94-.7,1.68-.08,2.28.74l2.35-1.07,2.66.39c.21,1.11.45,2,.54,2.94s0,1.83,0,2.81l1.68,1.47a5.28,5.28,0,0,1,2.65,1.62A13.81,13.81,0,0,0,350,38.5c1.08.52,1.61,1.59,2.73,2.07s1.57,1.64,2.66,2.22a18.49,18.49,0,0,1,2.87,2.38c.68-.17,1.5.32,2-.31,1.6.77,2.46-.63,3.72-1l-.38-.5c.55-.18.58-.18,1.37.21l1.81-2,1.89.87,1-1.43c.16.31.34.69.44.88l1.89-.91c.5-.24,1.18-.83,1.47-.67.79.41,1-.46,1.68-.41.57.58,1.27.18,1.91-.26l.86,1.26c1.41-.78,2.67.68,3.73.12,1.24.45,2.08,1.26,3.31,1.27.53,0,1.06.48,1.65.77,1-.35,1-.35,3.05.25l-.3.3s-.1.13-.09.14c.29.3.59.6,1,1a3.23,3.23,0,0,1,.9.08,4.9,4.9,0,0,0,3.29.4,4.83,4.83,0,0,1,1.26,0,2.59,2.59,0,0,0,2.11-.48c.62-.59,1.3-.31,1.93-.48,1-.27,1.77-1.05,2.88-1.25s1.91-1.11,2.92-1.58a13.73,13.73,0,0,0,2.76-1.51,18.34,18.34,0,0,1,2.91-1.62,41.46,41.46,0,0,0,10.91-8.93c.33-2.39,2.13-4.58,1.41-7.6l.81-1.42h1.42c1.41.9,1.88,2.61,2.24,4.14a11.4,11.4,0,0,1,.51,4.66c-.6,3.23-.5,6.63-2.5,9.53a16.72,16.72,0,0,1-1.82,2.61l-3.29,3.28a6.1,6.1,0,0,1-3,2c-.59.14-1,.85-1.6,1.21-3,1.91-6,3.76-9.13,5.48a5,5,0,0,0-2.85,4L401.47,60c1.18,1.45,2.92,2.4,4.23,3.6a5.69,5.69,0,0,0,3.83-.72c1.58-.76,3-1.93,4.81-2.14,1.28-1.19,3-1.65,4.37-2.68a11.44,11.44,0,0,1,2.05-1.2c1.58-.77,3.11-1.67,4.66-2.51a11.22,11.22,0,0,1,5.87-1.66c.64,0,1.31-.44,1.93-.36,1.72.22,3.46.37,5.18.69a32.45,32.45,0,0,1,4.16,1.18,11.62,11.62,0,0,1,3.16,2.05,6.31,6.31,0,0,1,2.66,5.84c0,.56,0,1.12,0,1.7a73,73,0,0,1-5.69,8.41c-1.33,1.64-2.66,3.29-4.11,4.81a51.9,51.9,0,0,1-5,4.2c-.23.19-.62.19-1.22.35-.22.26-.61.75-.83,1-1.27.3-2.37-.29-3.28.52-1.42-.75-3-.27-4.46-.42s-2.83-.32-4.28-.49l-.78.74c.31.6.58,1.12.93,1.82l-1.74-.15-.71.34c-.22,1.9-.63,3.78-2.05,5-.21,2.22-.41,4.27-.64,6.52a3.48,3.48,0,0,0-1.21,2.44c0,.34-.33.7-.55,1a5.74,5.74,0,0,0-.72,5.62,2.51,2.51,0,0,0-.26,2.38c.05.18.26.33.28.51.16,1.63.25,3.27.44,4.89.3,2.43.45,4.91,1.69,7.11.62,1.09.78,2.35,1.31,3.47a47.34,47.34,0,0,0,3.74,5.83c.71,1.06,1.46,2.09,2.24,3.09a9.87,9.87,0,0,0,3.37,2.55,10.35,10.35,0,0,1,4.06,3.8v1.31l.85,1.61s0,.09,0,.22c.18,1.43-.39,2.9.35,4.3.09.17-.21.56-.35.84a5.62,5.62,0,0,0,.1,4.68,4.39,4.39,0,0,1,.32,1.55c0,2.25,0,4.51,0,6.89l-2.37,3.11c-1.33.59-2.81,1.57-4.39,1.34l-3.22,2-6.75,1.3-.65-.6-5.24.52a9.08,9.08,0,0,1-2.16-.82,2,2,0,0,0-2-.21c-.89.62-1.76.2-2.61.36-1.55.27-2.82-.72-4.27-.94-.32-.05-.58-.55-.83-.8l-1.69.66.71-.89c-1.17-.85-2.34-1.72-3.52-2.56-.15-.11-.39-.08-.58-.12a4.64,4.64,0,0,1-2.51-1.29c-1.78.55-3-1.23-4.6-1.28a3.62,3.62,0,0,0-.67-1,59.28,59.28,0,0,0-7.17-5.1,2.08,2.08,0,0,1-.45-.44c-1.61-1.81-3.6-3.26-5-5.32a6.55,6.55,0,0,0-1.88-1.51c-1.8-1.26-3.6-2.52-5.42-3.73-1.21-.81-2.45-1.55-3.68-2.32l-3.51,1.61c-.66.66-1.58,1.53-2.45,2.45-1.71,1.82-3.42,3.63-5.06,5.51a10.48,10.48,0,0,0-1.11,2.11l-2,2.25-.58-.37c-.14,0-.24,0-.27,0a16.07,16.07,0,0,0-1.91,2.15,3.21,3.21,0,0,0-.88,2.37c-.94,1.34-1.33,3.1-3,3.93-.76.38-1.5.8-2.23,1.2l-.78-.43a10,10,0,0,0-1.71,1.24c-1.56,1.65-3.05,3.37-4.55,5.08-.1.12,0,.41,0,.67l-1.7,1.53c.34,1.22-.81,1.77-1,2.81-.16.82-1.15,1.46-1.69,2.23s-1,1.69-1.52,2.49c-1.83.07-3.39.42-4.55,2.15-2-.32-3.59,1.18-5.17,2a7.13,7.13,0,0,0-1.51-.24,19.09,19.09,0,0,0-1.94.4,5.57,5.57,0,0,0-1.79.29c-.53.28-1.38-.08-2.23-.18l-.55.53.77,2.17-.28.31a10.42,10.42,0,0,1,.34,2.2c-.1,1.8.73,3.51.46,5.32-.43,2.81-.54,5.67-2.09,8.22a24.69,24.69,0,0,0-1.31,3.46c-.28.66-.68,1.27-1.26,2.32,0,1.13,0,2.73,0,4.34,0,.51.35.9.39,1.31a47,47,0,0,0,.89,5.13,8.58,8.58,0,0,0,.46,2.13,4.92,4.92,0,0,1,.39,2.25c.44.78,1.11,1.46,1.12,2.16s.85,1.42.15,2.16c.84,1.18.66,2.84,1.85,4l.46-.34c.21.56.42,1.12.72,1.9l-.87.46a19.9,19.9,0,0,0,.94,3c.47.95.7,2,1.13,2.92a8.49,8.49,0,0,0,3.4,3.92,9.06,9.06,0,0,1,4.16,4.48,3.91,3.91,0,0,0,1.87,2.12c1.16.57,1.71,1.74,2.83,2.32s1.77,1.48,2.74,2.07a11.63,11.63,0,0,1,4,3.32v1.1c-.26.29-.54.58-.81.87.14.16.26.3.6.72l-1.42-.35c.19,0,.08,0,0,0a6.11,6.11,0,0,1-3.35,1c-1.26,0-2.39.56-3.62.5s-2.54,0-3.8,0a2.92,2.92,0,0,0-1.77.35c-.41.27-1.25-.11-2.22-.25l-.42.79c-1.28-.77-2.49-.23-3.58-.51s-2.16-.22-3.2-.44a6.49,6.49,0,0,1-4.69-3.46c-.23-.47-.53-.91-.84-1.44v-6.67c-.46-.64-.94-1.29-1.45-2l-1.16.58-.64-.46a.74.74,0,0,0-.21,0l-2.31.77A6.08,6.08,0,0,1,292.1,245a5.88,5.88,0,0,0-.56-.54c-.09-.07-.26,0-.49-.05-.55-1.13-1-2.26-.23-3.55.16-.26.06-.68.06-1a5.53,5.53,0,0,0,0-1.68,1.64,1.64,0,0,1,0-1.37,3.73,3.73,0,0,0,0-1.46c0-.56-.2-1.24,0-1.66.39-.67-.76-1-.19-1.66.23-.29-.21-1.08-.26-1.64s0-1.27,0-1.9a6,6,0,0,0,0-1.89c-.65-1.83-.07-3.74-.44-5.53-.43-2.08-.09-4.31-1.1-6.29a1.58,1.58,0,0,1-.11-.58l-.51-6.78-.73-.73c-.19-1.69-.38-3.38-.6-5.25l-.54-.52c.21-1.69-1-2.82-1.39-4.23s-1.6-2.56-2.13-4.24c.21-1.73-.5-3.59-.89-5.49-.07-.36-.48-.65-.86-1.13l.38-1.85c-.09-.38-.49-1.11-.29-1.36.95-1.19,0-2-.46-3.32a8,8,0,0,0-1.05-4.65c-.52.72-1,1.32-1.42,2a17.1,17.1,0,0,1-1.07,1.87c-.45.54-.09,1.4-.86,1.78-.16.08-.24.48-.24.72a3.22,3.22,0,0,1-1.27,2.44l.37.41a50,50,0,0,0-4.54,9.79l.3.32c-.16.91-.32,1.76-.5,2.7-1,.77-1.16,2.08-1.54,3.26-.48,1.5-.78,3.05-1.29,4.53a21.9,21.9,0,0,1-2.88,5.58,48.17,48.17,0,0,1-5.26,5.61,23.77,23.77,0,0,0-2.37,3.24c-.56.79-.46,1.76-.81,2.63a16.11,16.11,0,0,0-.5,3.59c-.1.72-.26,1.44-.41,2.15s.35,1.54-.36,2.18c-.08.07-.05.26-.06.39-.14,2.9-.66,5.84-.32,8.68s.17,5.67.31,8.49c.12,2.16.58,4.21,2.39,5.56.39.29.76.62.83.68.19.72.18,1.16.39,1.33a8.27,8.27,0,0,1,1.64,2.5,21.57,21.57,0,0,0,1.65,2.25l.56-.56.5.71c-.15.22-.29.44-.46.71l2,1.6.36,0a12.42,12.42,0,0,0,.91,1.2,33.53,33.53,0,0,0,2.39,2.38,4.72,4.72,0,0,1,1.64,4c0,.21,0,.42,0,.68-.85.52-1.37,1.41-2.31,2a12.3,12.3,0,0,1-3.32,1.22,4.56,4.56,0,0,1-3.48,0c-.24-.12-.66,0-1,.14a5.21,5.21,0,0,1-3.69-.05c-.68.1-1.49.49-1.94.24a5.67,5.67,0,0,0-2.19-.37,19.86,19.86,0,0,1-5.82-1.73,15.91,15.91,0,0,1-3.15-2.57,4.71,4.71,0,0,0-2.83-1.68c.22-.43.36-.72.59-1.16l-1.46-1.2a4.15,4.15,0,0,0,1.11-2.36c.11-.77.88-1.47.75-2.41a4.23,4.23,0,0,0-.25-1.37,3.22,3.22,0,0,1,.05-2c.26-1,.53-2-.28-2.86-.47-.05-1,.84-1.34-.18l-2.33,1.74h-1.15c-.33-.67-.65-1.31-1-2,.19-.57.43-1.24.66-1.93-.07-.3-.36-.75-.23-1,.64-1.29.07-3.06,1.71-4-.09-.5-.15-1-.27-1.52a5.93,5.93,0,0,1,.25-4.37c.53-.94.37-2,1.08-2.94,1-1.33,1.17-3,1.5-4.67a13,13,0,0,1,2-5.58c.08-1.51-.25-3.18.82-4.63.17-.22,0-.68,0-1a32.42,32.42,0,0,1,1.18-6.48,3,3,0,0,0,.08-.6A6.66,6.66,0,0,1,244,212a18.55,18.55,0,0,0,.39-2.57,3.88,3.88,0,0,0-.17-3,1.16,1.16,0,0,1-.15-.57,11,11,0,0,0-.38-3c-.27-.87-.19-1.83-.41-2.78-.39-1.66.22-3.34.58-5a3.27,3.27,0,0,0,.19-.55c.16-1.63.27-3.27.44-4.89.07-.66.3-1.29.41-1.94s-.18-1.24.41-1.75c.13-.12,0-.55,0-.82.16-.93-.27-1.89.29-2.84.48-.8-.23-1.9.53-2.74.17-.2.08-.7,0-1-.27-1.34.46-2.54.43-3.84.86-.77,0-2.05.85-2.82,0-1.78.82-3.49.31-5.38l-.36-.36-9.17,2.11-.71.66-.46-.4c-.73-.05-1.08.8-1.9.64a4.8,4.8,0,0,0-1.86.22c-.37.08-.72.33-1.09.4-2,.38-4,.95-6,1.31s-3.82.94-5.74,1.41a32.41,32.41,0,0,1-4.62,1c-1.61.16-3.05.88-4.64,1.07-.9.11-1.77.51-2.68.65-1.27.21-2.55.28-3.83.45-.51.07-1,.3-1.51.41-.92.2-1.84.38-2.77.49s-1.7.35-2.58.38a4.08,4.08,0,0,0-1.72.42c-1,.51-2.05.16-3,.46a17.48,17.48,0,0,1-3,.39,13.18,13.18,0,0,1-3.2.41c-1-.11-1.94.7-3,.41-.31.53-.57.14-.93,0s-.86.14-1.58.29c-.15,0-.71-.44-1-.29-1.12.58-2.33.14-3.42.41-2.75.7-5.52.27-8.28.38-1,0-2,.82-3,.41-1.48-.6-3-.31-4.48-.4-.34,0-.83.11-1-.07a2,2,0,0,0-2-.3,9.34,9.34,0,0,1-2,0,8.11,8.11,0,0,1-1.94-.48,8.38,8.38,0,0,0-2.15-.44,5.59,5.59,0,0,1-1.92-.44c-2.37-.78-5-.65-7.22-1.91a4.84,4.84,0,0,0-2.09-.54,7.39,7.39,0,0,1-2.15-.42c-.25-.09-.61.16-1,.28-.52-.86-1.61-.81-2.51-1.15a72.36,72.36,0,0,1-7.08-2.81,46.73,46.73,0,0,1-4.48-2.36l-.67.5c-1.16-1.7-3.2-2.17-4.9-3.11s-3.1-2.51-5.49-2.93l-1-1.11a16.73,16.73,0,0,1-4.66-3c-.22.4-.43.77-.62,1.15a24.59,24.59,0,0,1-5.69,8.18c-2.6,2.29-4.21,5.25-6.08,8.05-.58.88-1.11,1.79-1.66,2.68-.2,3.11.37,6.25-.57,9.3l-2.39,1.52v5.91L88.09,198c-1.51-.88-2.25-2.64-3.19-4.13-1.42-2.23-2.88-4.43-4.34-6.63a5.08,5.08,0,0,0-1.4-1.12,36.25,36.25,0,0,0-4.91-2.45c-.51-.25-1-.52-1.51-.77l-.33.33-.87-.82-.44.45c-.39,1.47-.78,2.93-1.2,4.54l-1.64.61-1.88-2.42c-.37.3-.62.5-1,.8a35.6,35.6,0,0,1-.94,9.77l-.94.5c-.61-.42-1.26-.57-1.82.23a4,4,0,0,0,.32,2.53c.75,2.36,1.54,4.73,2.07,7.15.18.83,1.3,1.18.9,2.17,1.63,3.2,2.94,6.54,4.83,9.62.75,1.21,1.32,2.56,2.15,3.74,1,1.43,2.09,2.83,2.93,4,3.56,1.15,6.25,2.8,7.79,6.05l1.1.14c1.74,1.93,4.75,2.74,5.71,5.47-.17,2-1.73,2.48-2.87,3.33s-5.46,1.89-6.7,2.16c-3.31.73-6.65.24-10,.39a5.57,5.57,0,0,1-3.17-1,7.74,7.74,0,0,1-1.55-1.91H63.33L61,239.45a12.36,12.36,0,0,0-3-5.17H56.64c-1.13-.38-1.86-.83-2.08-1.78a3.93,3.93,0,0,1,.24-2.33c.33-.91.92-1.92.12-3-.33-.47-.06-1.36-.05-2.07a10.07,10.07,0,0,0-.36-2.37,6,6,0,0,0-.81-2,4.49,4.49,0,0,1-.52-2.78c-.32-.74-.61-1.32-.84-1.93a21.59,21.59,0,0,0-2.09-4.84c-.68-1-.73-2.39-1.7-3.31a10.42,10.42,0,0,1-1.19-1.67l.27-.31c-2-4-3.76-8.17-5.94-12.11-1.22.76-1.15,2-1.43,3.08-.53,2-1.25,3.85-1.9,5.77-.27.8-.09,1.75-.45,2.32-.49.77-.16,1.49-.48,2.14l-1,2.57.33.51c-1.68,3.89-2.24,8-3.33,12.12.07.1.23.31.35.49-.43,1.85-1.32,3.71-.65,5.53s-.46,3.88.76,5.64l-.41.53a15.92,15.92,0,0,0,.35,2.48c.33,1,.67,2,0,3,.88,1.62.05,3.49.81,5.16a16.63,16.63,0,0,1,.87,3.22c.1.45-.11.94.35,1.35.26.24.32.7.52,1.18l-.42.58c.17.66.34,1.36.57,2.24l.58.58a4,4,0,0,0,.19,2.56c.29.94.37,1.94.74,2.85a18,18,0,0,0,.89,2.59c.94,1.59,1.13,3.47,2.08,5.05s1.77,3.08,2.76,4.55a3.59,3.59,0,0,0,1.81,1.49v1.14c1.15,1.54,2.19,2.95,3.43,4.63a2.78,2.78,0,0,1,0,.41c1.13,1.53,2.26,3,3.35,4.56.1.14,0,.42,0,.75.74.72,1.57,1.48,2.35,2.28,1.53,1.59,1.38,2.89-.47,4.2-.6.42-.86,1.29-1.8,1.27-.29,0-.58.37-.88.39-1.2,0-2.39,0-3.73,0l-1.66,1.76A3.49,3.49,0,0,1,43.47,296a10.32,10.32,0,0,0-1.93.39c-.65.11-1.3.19-2.16.31l-.55-.38a1.81,1.81,0,0,1-2.5.07,3.07,3.07,0,0,1-3.31,0c-.37.13-.83.45-1.23.38a9.31,9.31,0,0,1-2.41-.78c-1.11-.57-2.15-1.27-3.21-1.93s-2.11-1.33-3.24-2.05c-.15-.24-.52-.56-.53-.9,0-.68-1.11-1.29-.14-2-.62-1.59.39-3.13.15-4.75A10.83,10.83,0,0,1,22.84,281.31Z"/></g></g></svg>