<svg xmlns="http://www.w3.org/2000/svg" viewBox="0 0 299.1 366.3"><defs><style>.cls-1{fill-rule:evenodd;}</style></defs><g id="Layer_2" data-name="Layer 2"><g id="elements"><path class="cls-1" d="M227.53,365.83c-21.44,3.19-27.74-10.27-26.45-30.1,1.22-18.85,14.54-60.84,4.81-77.37-1.41-2.41-.67-4.9-2.66-6.49-3.61-2.87-7.69-.46-11.66-1-2.12-.27-16.2,0-16.41,1.77-1.32,11.15-1.07,25.17-8.24,34.57-4,5.21-1,10.93-3.92,16.13-3.88,6.84-5.13,16-6.9,23.67-1.61,7,4.18,41.3-6.9,37.89-5.11-1.57-10.7,1.85-15-1.82-4-3.41-5.91-10.72-3.14-15.39,3.56-6,2-14.83,4.52-21.51,2.8-7.57,6.15-13.63,5.76-21.9s4.12-16.33,4.78-24.41c.36-4.46-6.14-23.43-8.81-28.47s-.61-10.56-8.76-9.49C119.65,243.1,97,233.5,91.24,241c-2.58,3.39-5.43,13.12-8.56,15C68.63,264.73,74.39,276.92,74,291c-.45,16.61,7.37,28.58,17,41,4.1,5.28,11.13,10.08.25,12.12-8.43,1.57-17.62-4.41-26-2.4,5,7.81-4.57,6.48-11.18,5.9-10-.86-14.11-1.18-17.77-10.5-6.86-17.44-10.17-34.74-13.52-53.33-1.44-8-1.14-17-7.09-22.17-2.36-2.05.28-14.33.74-17.13,1.67-10.21,1.86-16.86-.91-27C9.13,194.26,0,165.43,0,141.21c0-9.17,1.77-18.32,2.77-27.56,1.16-10.7,1.63-19.12,9-27.47,10.42-11.74,28.24-23.8,43.58-27.29,22.3-5.07,41.46-2.76,63.67.8,20,3.21,39.55,8.48,59.34,12.89,8.66,1.93,11.14-34.41,6.19-35.19-7.38-1.15-42.09-12.8-23.24-20.64,14.61-6.07,31.28-3.54,46.26-8.64,7.85-2.68,11.87-8.11,21-8.11,5.45,0,18.81,1.25,23.1,5,4.84,4.2,13,12.07,19.88,10.7,6.62-1.33,21-5.74,26.46,1.22,6.56,8.34-20.91,14.5-24.44,16.82C256,45.29,260.24,67.78,261.23,85.53c.75,13.29,7.67,26,11.65,38.44,4.41,13.8,2.41,27.83.92,42-1.53,14.52-6.56,27.86-7.46,42.46-.6,9.92-11.07,22.32-16.95,29.32-3.66,4.37-6.51,9.42-10.74,13.29-6.5,5.95-2,5.95-4.93,13.93-8,21.58-15.64,52.33-9.85,75.91,1.84,7.52,11.69,21.16,2.08,24.92.13.16,2.09-.2,2.47-.07ZM41.61,264.55c-2.8,17.15,8,32,9.17,48.39,1.81-6.57-2.06-17.28-3.3-23.71-1.52-7.87-2.37-17.37-5.87-24.68C40.6,270.71,44,269.58,41.61,264.55Z"/></g></g></svg>