<svg xmlns="http://www.w3.org/2000/svg" viewBox="0 0 437.45 324.68"><defs><style>.cls-1{fill-rule:evenodd;}</style></defs><g id="Layer_2" data-name="Layer 2"><g id="elements"><path class="cls-1" d="M315.65,324.56c-8.3,0,5.46-.65,0,0-4.3,0-43.88,2-34.45-9.87,4.63-5.83.73-15.95,8.25-19.81,4.42-2.28,15.44-2,18.24-4.91-9.72-4.59-22.54-6.17-33.13-7.66-9.28-1.3-8.94,16.12-7.34,22,2.66,9.69-2.66,15-11.32,17-3.8.87-7.88,1.81-11.81,1.38-3.09-.33-5.8-2.15-9-2-3.4.13-6.42,2.74-10,2.32-16.8-2-7.62-11.91-4.76-21.72,5.21-17.85-2.81-24.37-19.93-25.78a13,13,0,0,0-1-3.62c-1.39-.18-3,1.41-6.38,1.15-5.38-.4-9.3,3.36-14.19,4.64-4.48,1.17-8.44-.8-12.82,0-3.73.68-5.23,3.18-8.59,5.1-3.07,1.76-7.86,1.38-10.65,3-2.41,1.41-3.1,4.31-5.25,6s-5.41,1.16-6.51,3.84c-5,12.14-22.06,18.71-33.63,20.33-14.56,2-29.32,3-43.95,1.12-16.91-2.15-5.46-7.78-1.53-16.32,4.43-9.66,25.57-9.52,33.53-15.08,6.45-4.51,11.41-13,8.61-18.72.56,1.15,8.12-10,8.33-10.59,1.89-5.2,1.35-10-.51-15.11-1.3-3.53-3-11.49-5.08-14.11-1.37-1.69-3.81-1.13-5.26-2.53-1.77-1.71-1.64-3.91-2.89-6-2.91-4.76-7.74-7.18-10.58-12.28s-10-2.16-6.49-11.88c2.3-6.29-13.19-5.38-15.94-4.83s-10.15.49-12.4,2.09-.7,6.34-1.58,8.58a6.66,6.66,0,0,0-.52-4.54c-1.06-2.17-13.21-1.24-15.07.31,0-1.17-.3-3.62.29-4.64-2.31,4-2.87,9-6.06,12.56,1-6.21,8.2-14.51-.95-15.16a4.89,4.89,0,0,0,.33-4.46c-1.31-.47-6.52,1.46-3.58-2.34,4.46-5.78-3.27-7.07-6.31-7.5,6.13-2.11.23-5.64-.08-9.26C13.33,160,3.23,162.67,0,161.75c3-3.6,9.15-3.17,12.73-7.12,5.3-5.86,3.76-13.74,7-20.36,5.88-12.09,16.85-26.41,27.48-34.63,6.14-4.75,14.23-6.57,20.12-11.22,3.09-2.45,17.26-3.84,18.07-7.1,1.39-5.56-23-25.79-28.48-26.25,14-6.92-18.2-16-23-18.19-12.7-5.71,7.37-7,10.7-7,4.81,0,26.18,3.16,29.07-1,2.51-3.58-3.49-12.89-.88-18.6C77.17.7,83.81,0,93.44,0c18.31,7.19,29.22,18,36.1,36.65a70.44,70.44,0,0,1,4.54,28.11c-.53,10.25,4,15.79,9.46,23.5,3.72,5.28,7.79,12.91,12.59,17.16,8.63,7.64,12.71,8.37,23.64,5.64,8.58-2.14,15.54-.11,22.91-6,7.53-6,15.11-7.73,23.82-11.27,16.73-6.79,38.76-14.5,57.09-9.6,37.51,10,79.29,12,110.58,37.91,15.17,12.59,22.14,26.66,30,44.41,3.7,8.35,7.52,14.34,8.75,23.41A177.76,177.76,0,0,1,434.05,219c-.21,6.62-5.12,13.18-2.5,19.37.57,1.35,6.87,9.34,5.77,10.6-5.1,5.82-9.09,6.22-16.85,7.62-1.06.19-9.53,12.19-9.49,12.5.92,6.76-7.29,14.81-5,20,3.5,7.94-2.94,15.81-9.2,20-7.34,4.92-16.55,6.35-25.16,7.16-11.82,1.1-23,4.28-34.74,5.85C329.84,323.08,322.72,323.72,315.65,324.56Z"/></g></g></svg>