<svg xmlns="http://www.w3.org/2000/svg" viewBox="0 0 989.68 543.99"><defs><style>.cls-1{fill:#231f20;}</style></defs><g id="Layer_2" data-name="Layer 2"><g id="Layer_2-2" data-name="Layer 2"><path class="cls-1" d="M970.29,340.92c-29.5-16.61-45.9-53.63-38.36-86.64,3.59-15.75,11.71-33.31,2.85-46.82a101.19,101.19,0,0,1,38.9-19L965,213.71c19.44-5.77,30.44-30.7,21.61-49s-35.22-25.09-51.81-13.42c-.19-15.78-13.72-30.28-29.46-31.54s-31.42,10.87-34.14,26.42C802,64.77,694.6,25.26,588.9,9.53,498-4,405.26-2.41,314.22,9.81c-48.9,6.56-98,16.37-142.52,37.61S87.18,102.38,66.15,147q-1,2.16-2,4.34a60.07,60.07,0,0,1-14.11,5.47,23.05,23.05,0,0,1-9.51.71,12.78,12.78,0,0,1-2.62-.8q-.86.57-1.74,1.08a15.89,15.89,0,0,0,7.09,4.91c4.63,1.63,9.69,1.46,14.57,1a6.52,6.52,0,0,0,1.76-.45C45.64,204.66,49,252.51,74.26,288c18.65,26.18,49.15,47.81,50.66,79.92.78,16.68-6.85,33.67-2.23,49.71,2.67,9.3,9.22,17.08,12.18,26.3C141,463.05,143.8,530,143.8,530a267.46,267.46,0,0,0,41.92,13.36c3.62.79,7.87,1.27,10.59-1.23,2.37-2.18,1.14-7.07-1.53-7.57a4.41,4.41,0,0,0,2.11-7.42c-26.26-26.46-37.67-67.29-27.85-103.39,23.48,27.53,48.56,61.16,40,96.33a111.07,111.07,0,0,0,55.49-.29c-9.25-32.41-44.21-55.26-45.45-88.94-1.36-37.22,39.33-64.39,42.86-101.47a1197.23,1197.23,0,0,0,202.08.29c30.88-2.57,62-6.33,92.71-1.91,13.18,1.9,27.14,5.94,35.32,16.45,11.86,15.25,7.12,37.62,14.34,55.54,8,19.8,29.59,31.89,36.49,52.09,7.35,21.5-2.95,49.23,12.91,65.5,8.16,8.36,20.8,10.42,32.48,10.27a116.82,116.82,0,0,0,41.61-8.29l-9.53-20.88c6.4-.6,12.29,3.15,18.46,5,7.07,2.11,17.17,0,16.52-8.8a11.73,11.73,0,0,0-5.1-8.63c-44-30.82-57.64-96.77-30.51-142.83a319.86,319.86,0,0,0,171.91,61.45c18.17.94,36.86.24,53.77-6.48s31.89-20.33,36.33-38c.74-2.95,1.17-6.11.19-9C980.24,346.14,974.92,343.52,970.29,340.92Z"/><path class="cls-1" d="M38,156.73a24.2,24.2,0,0,0,5.75-5.45c1.93-2.55,3.27-6.4,1.11-8.77a5.55,5.55,0,0,0-2.7-1.49,7.95,7.95,0,0,0-8.28,12.6,39.52,39.52,0,0,1-11.15,1.07c-4.76-.14-9.69-.65-13.77-3.1S1.85,144.28,3,139.66a2.91,2.91,0,0,0-2.88,2.46,7,7,0,0,0,.73,4,25.52,25.52,0,0,0,20,14.9,25.38,25.38,0,0,0,15.43-3.24A11.89,11.89,0,0,1,34.12,154,10.36,10.36,0,0,0,38,156.73Zm-4.2-4.26c-.78-4.85,2.86-10.32,7.77-10.41a3.22,3.22,0,0,1,2.59.93c1,1.16.4,2.94-.44,4.2-2.23,3.37-5.74,5.32-9.67,6.39A11.07,11.07,0,0,1,33.75,152.47Z"/></g></g></svg>