<svg xmlns="http://www.w3.org/2000/svg" viewBox="0 0 499.2 433.72"><defs><style>.cls-1{fill-rule:evenodd;}</style></defs><g id="Layer_2" data-name="Layer 2"><g id="elements"><path class="cls-1" d="M269.09,326.16c40.46.55,83.87-2.33,123.82,4.88,31.92,5.76,59.74,38.07,43,70.16-17.61,33.72-73.48,30.75-105.74,32.22-40.86,1.87-86.31-5.18-124.11-21A95,95,0,0,1,181.52,398c-5.47-4.59-21.49-.85-28.1-.6-23.09.89-46.2,1.49-69.31,1.41-20.26-.08-40.94-.6-61-4C6.81,392-8.59,386.28,5.57,368.66c12.71-15.82,25.7-21.42,45.16-26,22.62-5.31,45.59-9.32,68.79-10.86,18.09-1.21,39,.4,56.63-3.38,5.09-1.09,2.4-10.33,2.28-13.53a106.54,106.54,0,0,1,4.93-35.36c11.34-36.77,35.43-64.63,69.3-82.37,37.09-19.41,78.63-30.25,117.11-46.64,17.13-7.31,34.56-16.33,47.92-29.52,12.29-12.12,28.12-30.43,30.5-48.3,1.95-14.7-12.91-38.3-28.25-40-6.38-.69-19.39,2.7-24-3.09-5.81-7.27-4.08-16.85,2.88-22.27,11.42-8.89,36.42-8.84,49.68-4.62,7.27,2.32,14.3,6.88,20.91,10.66,8.21,4.7,12.37,16,17.56,23.62,22.37,32.89,12,72.19-14.17,99.79a176.16,176.16,0,0,1-45.27,34.71c-18.8,10-35.65,22.35-55.33,31.05-36.84,16.29-80.35,22.34-113.08,46.9C243.54,261.17,234,275.7,233.3,295.38c-.24,7.08-1.84,24.74,4.61,29.71,5.84,4.49,24,1.07,31.18,1.07C279.74,326.3,260.26,326.16,269.09,326.16Z"/></g></g></svg>