<svg xmlns="http://www.w3.org/2000/svg" viewBox="0 0 355.28 270.31"><defs><style>.cls-1{fill:#231f20;}</style></defs><g id="Layer_2" data-name="Layer 2"><g id="_1" data-name="1"><path class="cls-1" d="M82.6,15.88c-4.07,4.52-16.32.91-14.51,17.23s2.72,17.23,6.35,20,.91,11.8,6.35,17.24S86.23,78.46,87.14,83s-7.26,15.42-4.54,30.84-1.81,32.65-1.81,42.63S47.23,226.3,42.7,228.11s-20.86,2.72-28.12,8.16S-.84,249.88.07,261.67s10-.91,17.23-9.07,11.79-2.72,17.23-1.82-9.07.91-6.34,7.26,15.41,4.53,24.48-1.81,9.07-24.49,21.77-35.38,29-27.2,34.47-44.44,17.23-30.83,20.86-33.56,15.41,1.82,18.14.91-12.7,39-18.14,51.7-15.42,24.49-22.68,29S84.42,229,79,239.9s-5.45,19-1.82,23.58,7.26,8.16,12.7,6.35,1.81-17.23,11.79-19.95,16.33,3.62,24.49-2.72,14.51-20.86,19-30.84,10-12.7,15.42-12.7,31.75,22.68,36.28,28.12-4.53,4.53-13.6,6.35-20.86,4.53-20.86,14.51,7.25,14.51,11.79,12.7,6.35-14.52,10.88-13.61,6.35,6.35.91,10,2.72,7.25,9.07,2.72,36.28.91,42.63-7.26,5.44-21.76-8.17-29S207.77,196.37,206,191.83s23.58-2.72,29.93-.91,8.16,22.68,26.3,20.86,36.28-.9,40.82,0,3.62,5.45,8.16,9.07S295.74,236.27,296.65,249s7.25,15.42,15.42,15.42,5.44-11.79,11.79-19,27.21-20,29.93-28.11-8.17-13.61-16.33-17.24-8.16,2.72-13.6-.9-12.7-20-22.68-20.86-17.23.9-23.58-5.45-6.35-9.06-5.44-12.69,24.49,9.07,55.33-15.42S369.21,64,330.21,32.2,256.74,7.72,240.42,24s-27.21,26.3-38.1,21.77-11.79,23.58,8.17,15.42S256.74,24,286.67,31.3,331.11,52.16,330.21,93,294.83,138.32,284,134.69s-10-37.18-35.37-48.07-43.54-20.86-55.33-19-13.6-10.89-22.67-14.52-12.7,0-17.23,0,6.35-20.86,1.81-29.93-6.35-6.34-10.88-5.44S116.16-21.31,82.6,15.88Z"/></g></g></svg>