<svg xmlns="http://www.w3.org/2000/svg" viewBox="0 0 424.78 269.74"><defs><style>.cls-1{fill-rule:evenodd;}</style></defs><g id="Layer_2" data-name="Layer 2"><g id="elements"><path class="cls-1" d="M325.21,207.71c2.83-.11,5.65-.25,8.48-.32,4.9-.13,9.65.89,14.41,1.85a9.67,9.67,0,0,1,1.72.58,4.55,4.55,0,0,1,1.72,7.11c-2.25,2.53-5,4-8.56,3.63-.2,0-.4,0-.6-.08-4.37-1-8.83-.93-13.28-1-5.66,0-11.31-.21-17-.39-3.84-.12-7.68-.36-11.51-.56a30.24,30.24,0,0,1-3-.26,6.16,6.16,0,0,1-4.43-2.9c-.74-1.2-1.32-2.5-2-3.74a26.08,26.08,0,0,0-1.5-2.62,4.75,4.75,0,0,0-7.73.46,10.91,10.91,0,0,0-1.11,2.8,14.18,14.18,0,0,0-.48,3.6c.1,4.18-2,7.35-4.72,10.16-1.83,1.88-3.82,3.61-5.77,5.37a15.58,15.58,0,0,0-3.72,4.74,4.23,4.23,0,0,0,1,5,10.06,10.06,0,0,0,5.32,2.75,43.73,43.73,0,0,0,8.39,1.08c5.16-.11,9.38,2.19,13.6,4.58a3.76,3.76,0,0,1,.31,6.19,8.23,8.23,0,0,1-1.51,1c-2.19,1-4.41,2-6.61,3.05a6,6,0,0,1-6.31-.58,28.35,28.35,0,0,0-2.55-1.64,32.22,32.22,0,0,0-10.74-4,24,24,0,0,1-10.62-4.19c-3.12-2.24-6.44-4.24-9.31-6.76a14.83,14.83,0,0,0-8.75-3.67,16.41,16.41,0,0,0-2.43-.09,26.46,26.46,0,0,1-10.13-1.46,36,36,0,0,0-4.71-1.17,28,28,0,0,1-7.46-2.48,3.06,3.06,0,0,0-.55-.26c-6.6-2.16-12.36-5.89-18.15-9.59a29.9,29.9,0,0,0-18.47-4.78c-6.25.39-12.51.74-18.77,1.16a156.71,156.71,0,0,1-25.45-.06c-6.64-.64-13.3-1.07-20-1.61a36,36,0,0,1-10.63-2.3c-1.49-.6-3.12-.84-4.65-1.38-6.29-2.21-12.55-4.49-18.35-7.84-1.92-1.11-3.78-2.34-5.66-3.53a34.91,34.91,0,0,0-15.89-5.49,100.56,100.56,0,0,0-16.37-.14A29.1,29.1,0,0,0,21,207.47c-3,3.26-5.71,6.84-6.79,11.34a18.57,18.57,0,0,1-1,2.84c-2.11,5-2.46,10.2-2.24,15.49A17.08,17.08,0,0,0,12,241.83c.59,1.72,1.55,3.3,2.13,5,2.13,6.4,6.86,10.33,12.59,13.26a10.24,10.24,0,0,0,4.08,1,34.18,34.18,0,0,0,6.63-.29,9.84,9.84,0,0,0,6.78-4.7,7.61,7.61,0,0,0,1.26-4.61c-.06-1.42-.28-2.82-.31-4.23a10.17,10.17,0,0,1,.31-2.39,2.71,2.71,0,0,1,3.89-1.58A5,5,0,0,1,51.79,246a23.2,23.2,0,0,1,.41,16,4.72,4.72,0,0,1-.84,1.6c-2.59,2.91-5.47,5.57-9.54,5.92-3.82.33-7.67.2-11.51.22a7.7,7.7,0,0,1-2.39-.37c-4.79-1.63-9.52-3.41-13.46-6.72a47.33,47.33,0,0,1-9.1-9.7,18.41,18.41,0,0,1-2.7-6.05c-.51-2.16-1.13-4.3-1.82-6.41a17.63,17.63,0,0,1-.83-6,91,91,0,0,1,2.59-18,17.71,17.71,0,0,1,1.33-3.38c.6-1.28,1.37-2.48,1.94-3.77,3-6.72,8.05-11.55,14.15-15.4a35.2,35.2,0,0,1,11-5,17.31,17.31,0,0,0,2.87-1,35.28,35.28,0,0,1,13.67-2.36c3.64,0,7.27.09,10.92.1a24.81,24.81,0,0,1,8.9,1.61c7.54,2.92,15.14,5.7,22.42,9.24,2.91,1.42,5.86,2.76,8.86,3.95a48,48,0,0,0,5.82,1.7c2.74.71,5.51,1.3,8.23,2.05A59.64,59.64,0,0,0,125.32,206c5.25.29,10.5.65,15.76.58,9.7-.13,19.39-.6,29.09-.81,5.76-.13,11.11-2.06,16.55-3.58,3.25-.9,5.54-3.26,7.44-5.93a5.5,5.5,0,0,0,.74-2.88,37.37,37.37,0,0,0-.25-4.84c-.14-1.4-.32-2.81-.58-4.2a105.19,105.19,0,0,1-.23-35.62c.74-4.79,1.46-9.59,2.19-14.39a13.5,13.5,0,0,1,.29-1.8,204.21,204.21,0,0,1,6.51-20.17c2.21-5.44,5.51-10.34,8-15.65.09-.18.22-.34.3-.53A54,54,0,0,1,219.73,83c2.08-2.47,4-5.07,6.22-7.43a87.19,87.19,0,0,1,23.11-17.45c4.3-2.27,8.78-4.1,13.08-6.36a28.14,28.14,0,0,1,4-1.48c1.91-.66,3.86-1.19,5.75-1.92a33.24,33.24,0,0,1,8.23-2,79.49,79.49,0,0,0,9-1.48,32.63,32.63,0,0,0,13.65-6.28c3.91-3.19,8-6.23,12.07-9.18,3.1-2.22,5.35-4.87,6-8.75a10.42,10.42,0,0,1,2-4.39,6.53,6.53,0,0,1,5-3c1-.07,2-.09,3-.08,3.64.06,7.28.16,10.92.2,2.22,0,4.46.08,6.66-.12a25.53,25.53,0,0,0,4.71-1.09,8,8,0,0,0,5.65-5.81,42.18,42.18,0,0,1,1.32-4A4.13,4.13,0,0,1,366.2.75,45.64,45.64,0,0,1,369.82,4c2,1.8,4.25,2.48,6.71,1.43,4.65-2,9.47-2,14.33-1.43,9.24,1,18.48,2.12,27.72,3.19.4,0,.8.11,1.19.19a4.89,4.89,0,0,1,3.83,3.5,7.75,7.75,0,0,1,.37,1.77q.42,7.28.79,14.54a12.93,12.93,0,0,1-3.36,9.47c-1.06,1.22-2,2.53-3,3.78a18.41,18.41,0,0,0-3,5.23,24.38,24.38,0,0,1-12.89,13.82c-.91.43-1.79.94-2.7,1.38a25.75,25.75,0,0,0-10,8.53,25.76,25.76,0,0,1-8.46,7.71c-.88.49-1.72,1.06-2.58,1.59a15.12,15.12,0,0,0-5.4,5.63c-.76,1.42-1.71,2.75-2.46,4.17a3.84,3.84,0,0,0,1.55,5.25,33.36,33.36,0,0,0,5,2.05c3.37,1.08,5.33,3.52,6.65,6.61a5.19,5.19,0,0,1-1.47,6,16.93,16.93,0,0,1-3.61,2.16c-2,.9-4.15,1.62-6.23,2.4a13.4,13.4,0,0,0-4.65,2.79,14.56,14.56,0,0,1-1.86,1.55,21.89,21.89,0,0,0-7.49,8.59,18.58,18.58,0,0,1-2.31,3.54,11.45,11.45,0,0,1-9.56,4.41c-1.21-.06-2.41-.2-3.62-.31a16.72,16.72,0,0,0-7.14,1.08,11.05,11.05,0,0,0-4.13,2.48c-2.32,2.26-4.57,4.55-5.93,7.59a66,66,0,0,1-3.44,6.42c-1.23,2.08-2.61,4.07-3.94,6.1-3.25,4.95-3.82,5.18-1.41,11.1,2.93,7.17,2.74,14.61,1.47,22.1a13.68,13.68,0,0,1-6,9.45c-1.17.79-2.34,1.6-3.43,2.5a2.88,2.88,0,0,0,.84,4.93,9,9,0,0,0,2.93.66c4,.07,8.08,0,12.13,0Z"/></g></g></svg>