<svg xmlns="http://www.w3.org/2000/svg" viewBox="0 0 375.55 474.24"><defs><style>.cls-1{fill-rule:evenodd;}</style></defs><g id="Layer_2" data-name="Layer 2"><g id="elements"><path class="cls-1" d="M66.57,467.47c.48-2,2-2.93,3-4.13a8.13,8.13,0,0,0,4.22-1.94,3.74,3.74,0,0,1,2.61-.91,11.19,11.19,0,0,0,2.55-.45,17,17,0,0,1,5.33-.91,7,7,0,0,0,2.08-.51c1.9-.55,3.88-.45,5.89-1l.66-.7H87.81c-.22-.92.23-1.21.85-1.41,1.21-.37,2.4-.83,3.64-1.13,1.59-.39,3-1.31,4.51-1.79a10,10,0,0,1,2.9-.77,9.34,9.34,0,0,0,2.43-.9c.85-.06,2.28.32,3.52-.72.32-.27,1-.16,1.51-.16,3.43,0,6.86,0,10.28,0a15.67,15.67,0,0,0,2.07-.3,4,4,0,0,0,1.21.29c1.82.06,3.66.09,5.48,0a8.58,8.58,0,0,0,3.38-.62c.83-.43,1.64.06,2.35-.41a10.41,10.41,0,0,0,2.7-1.77c1.25-1.47,3.1-2.5,3.75-4.39.94-2.74,2.24-5.36,2.4-8.4.13-2.33,1-4.62,1.29-7,.63-.42.38-1.07.47-1.64s.32-1.09.44-1.64a28.45,28.45,0,0,1,1.09-5c.4-1,0-2,.68-2.94.54-.76.47-1.93.58-3a35.52,35.52,0,0,1,1.07-4.33c.3-1.26.91-2.49.68-3.82-.21-1.16.49-2.14.48-3.26l-.75-.7c-1.5.32-2.86-.36-4.23-1.05a4.27,4.27,0,0,0-2-.8,2.1,2.1,0,0,1-1.29-.68c-1.75-1.79-4.07-2.95-5.37-5.26a4.53,4.53,0,0,0-2.15-1.87c-.67-.28-1.11-1.15-1.6-1.8s-.43-1.35-1.3-1.51c-.08,0-.07-.55-.1-.78l-2.12-1.76c-.13-.52-.21-.94-.35-1.34-.42-1.21-1.46-2-1.72-3.43-.2-1.09-1.24-2.08-2-3a5.68,5.68,0,0,1-.69-1.55,7.51,7.51,0,0,0-2.52-3.47,11.48,11.48,0,0,0-2.91-5.71,4.58,4.58,0,0,1-1.41-2.39,8.32,8.32,0,0,0-2.45-4.24,5.1,5.1,0,0,1-1.55-2.08c-.3-1.21-1.42-1.63-2-2.6-.78-1.35-1.47-2.74-2.19-4.13a16.14,16.14,0,0,0-3.35-4.76c-1.32-1.16-2.42-2.5-3.66-3.72s-2.57-2.6-3.89-3.86a14.78,14.78,0,0,0-2.07-1.62c-1.67-1.1-3.42-2.08-5-3.26-2.38-1.74-4.43-4-7.29-5-2.55-2.77-6.52-3.35-9.19-5.94a8.1,8.1,0,0,1-4.08-2.74H67.09a21.57,21.57,0,0,1-5.27-3.7,6.81,6.81,0,0,0-2.19-1.29,14.43,14.43,0,0,1-5.06-3.24,2.67,2.67,0,0,0-1.26-.79,11.93,11.93,0,0,1-4.92-2.44c-1.87-1.42-4.08-2.45-5.49-4.39-1.95-2.66-4.93-4.15-7.14-6.52a6,6,0,0,0-2.62-1.86c-.19-.06-.34-.29-.49-.46-1.14-1.35-2.36-2.65-3.37-4.09-.44-.62-1.39-.59-1.52-1.63-.09-.69-.84-1.34-1.4-1.91-.71-.73-1.52-1.36-2.53-2.25a9.08,9.08,0,0,0-3.07-5.22,4.62,4.62,0,0,1-1.63-2.76c-.26-1.54-1.47-2.72-2.05-4.27a2.33,2.33,0,0,0,0-2.25,8.87,8.87,0,0,1-1.51-4.16c-.94-.79-.2-1.87-.54-2.76-.52-1.38-1.82-2.6-.83-4.28l-1.76-2.94c-.26-.75.27-1.66-.4-2.28.3-.7.6-1.4.95-2.2a5,5,0,0,1-2-4.67c0-.33.43-.65.4-1-.07-.93.38-1.89-.38-2.8a2.92,2.92,0,0,1-.46-1.84,4.63,4.63,0,0,0-.49-2.09c.79-.56-.15-1.1,0-1.69.38-1.79-.44-3.5-.47-5.28,0-.77-.5-1.48-.46-2.33s.37-1.49-.28-2.17c-.09-.1.28-.57.31-.88a16.09,16.09,0,0,0-.67-5,11.79,11.79,0,0,1,.12-6,6.81,6.81,0,0,1-.34-1.55c0-10.43,0-20.86-.06-31.29,0-.66.4-1.21.19-2s.23-1.5.3-2.27,0-1.52,0-2.28a7.15,7.15,0,0,1,0-2.27c.72-2.06.25-4.15.43-6.22.09-1,.35-2,.43-3s-.28-2.11.08-2.94c.55-1.26.24-2.49.4-3.72.12-.93.32-1.85.44-2.79s-.28-1.8.47-2.55c-.26-1.43.48-2.77.42-4.15-.13-2.68.87-5.12,1.51-7.62a25.59,25.59,0,0,0,.85-3.53,15.7,15.7,0,0,1,1.08-4.34c.33-.78,0-1.48.43-2.12a14,14,0,0,0,1.12-3.38,16.81,16.81,0,0,1,1-3.71c.49-1.64.84-3.3,1.29-4.94s.42-3.33,1-4.84.32-3.31,1.3-4.71c-.13-2.3,1.33-4.37.92-6.71.77-2.38.84-4.91,1.68-7.29a22.3,22.3,0,0,0,.61-3.41,20.68,20.68,0,0,1,.46-2.32c.65-2.21.94-4.49,1.4-6.74.53-2.62,1.35-5.19,2.08-7.9-.06,0-.27-.26-.5-.5H26.34a10.37,10.37,0,0,1-3-3.77c-.82-1.87-2-3.6-2.36-5.65-.05-.26-.35-.48-.39-.75a25.4,25.4,0,0,1-.45-3.46c-.06-3.27,0-6.55,0-10A9.59,9.59,0,0,0,18.2,51c-.66-.36-1-1-1.66-1.36a5.16,5.16,0,0,0-2.69-.71c-3.73,0-7.46,0-11.42,0L1.88,48l-1.72-.1c-.57-.91.46-2.47,2.12-3.38V43.18c1.35-.12.86-2.08,2.21-2.2.07-1.23,1.38-1.63,1.75-2.66a5,5,0,0,1,2-2.81,4.25,4.25,0,0,1,.85-2.87c1.53-2.49,3-5,4.59-7.46.11-.16,0-.45,0-.54l3.65-4.93c0-.08-.1-.42,0-.53,1.68-1.61,1.5-4.14,3-6.17l1.71,2.2c.77-2.28,1.47-4.35,2.17-6.46h1.13l1,2.07c1.66-2.25,1.45-4.9,2.52-7.07a1.16,1.16,0,0,1,1.54.49A4.43,4.43,0,0,1,31,5.63c.12.56.15,1.13.22,1.69h.54c.94-1.91,1.19-4.08,2.3-5.93h1.07c.06,1.36.11,2.74.16,4.1.31,0,.55.06.6,0,.72-1,1.47-2,2.1-3A5.11,5.11,0,0,1,40.5,0l.63,1c0,1.18-1.29,2.36-.78,4.11,2-.53,3.63-1.85,5.72-2.23l.53.53c-.09,1,.28,2.06-.32,2.8.16,1,.29,1.85.45,2.87l3,1.89c.06-.3.1-.51.18-.88L51,10l1.21,1.48a3.52,3.52,0,0,0,1.38-1.36,5.4,5.4,0,0,1,1.09.49c.42.32.71.87,1.16,1.08s1,.77,1.57.26c.55.83,1,0,1.48-.1A13.61,13.61,0,0,1,61,13.35a13.09,13.09,0,0,1,1.44,2.22l.94-.35c.94.22.82,1.77,2,2.21L66,17l.45.4.45-.39.9,1.51.33-.95c.67-.46,1.19-.08,1.75.56v2.33c1,.51,1.1-.62,1.92-.8l1.2.49v2.58l-.78.79c-.2.83,0,1.47.9,1.68,1.07-.83.81-2.07.87-3.14,1.23-.22,1.09,1.11,1.61,1.23.8.18,1,.94,1.65,1.15-.08.72,0,1.52-.28,2-.48.71,0,1.27-.33,1.93,1.18,0,1.42-.79,2-1.24-.15-.51-.29-1-.48-1.6l1.59.64c.78,1.33-.58,2.71.11,4.48l1.25-2.28.46,0c.28,2.31.28,2.31-.33,4,.7-.12.94-.69,1.39-1V30l1.28-1.06.5,1-.55.84,1,.64.4-.39c.24.77.6,1.41,1.45,1.5,0,1,1.16.74,1.39,1.57-.07.46,4.21,6.08,7.47,9.19.4.36.82.76,1.27,1.18v1.9l2.21,2c.14,1.29.32,2.88.5,4.54h1.27c.11-.22.26-.53.44-.93,1.12.47,1.67,1.52,2.5,2.16-.56,1.74-1.19,3.36-.83,5.34l2.3-1.05,1.46,1.39L105,63h2.12l1.15,1.5v1.47c.73.6,1.5,1,2,1.92s.13,1.76.39,2.58l-1.11,1.45c1.32.58,2.92.56,3.16,2.51-.83.48-.69,1.67-1.41,2.7l1.91.21,1,1v4.73h1.09l1.31,1.34c-.17.67-.35,1.43-.54,2.19l1.79.64c.13,1.78-.66,3.23-1,4.84l3.7.73c.21.81.42,1.63.66,2.59H120c-.23.46-.43.83-.64,1.23l3.15,1.3c-.2,1.16-.4,2.35-.58,3.46l2.43,2.42a3.13,3.13,0,0,0-.87,3.09l.75-.54,1.4,1.18v2.35l-1.25,1.83.5,1,1.7-.87c.14.1.38.18.49.34.34.53.64,1.09,1,1.75l-1.64,2.75,1.28.52,2.3-.43c.23,1.52,2.39,2.29,1.25,4l2.74,2.75-1.23,2.4c.47.07.8.13,1.13.15s.75,0,1.26,0l1.16,1.79c.59.89,1.15,1.81,1.79,2.68.34.47.94.78.77,1.52a.47.47,0,0,0,.19.36c1.82,1.07,2.91,3.14,5.09,3.7.14,0,.35,0,.44,0,.55.52,1.08,1.06,1.58,1.57,2.93,1.13,12.74,7.8,22.64,6.59,1.81-.22,3.51.52,5.29.49,0,0,12.08,1.64,22.58.17a10.16,10.16,0,0,0,5.22.06,9.64,9.64,0,0,1,1.51-.22c1.82,0,3.65,0,5.48,0,15.74-.09,44.66-9.47,52-13.68h1.8c2.16-1.27,4-3,6.56-2.77.57-.43,1.15-.82,1.68-1.28s1-1,1.47-1.46h2.11a18.48,18.48,0,0,1,1.94-1.81,16.52,16.52,0,0,0,3.09-2.44c1.18-1.27,2.73-1.79,4.77-2.4l.7-.88c2.95-1,5.63-1.51,7.83-3.2a10.59,10.59,0,0,1,1.5-.76c1.12-.65,2.45-.11,3.51-1l11.39-6.32c2.38-2.16,5.52-3,8-4.87a6,6,0,0,1,2.77-1c.61-.09,1.1-.46,1.63-.48,1.13,0,1.86-1.24,3.05-.94s2-.41,3-.47c.11,0,.21-.18.38-.33l-.54-1.09c.49-1,1.5-1.09,2.23-1.61s1.66-.49,2.31-1.07c1.55.9,3.23.22,5,.51a9.55,9.55,0,0,1,1-1.62,10.42,10.42,0,0,1,1.59-1.18c2.09,0,4.22.09,6.34,0s3.62.89,5.13,2a15.38,15.38,0,0,1,2,1.82,64.55,64.55,0,0,0,5.05,4.43h2.11c.06.25.14.51.21.76a6.29,6.29,0,0,1,1.38.5c1.55,1,1.54,1,3.43,1-.17-1.64-.63-2.57-2.11-4.25.84-.16.84-.16,2.66.81,0,.34-.05.89.15,1,1.15.8,1.77,2.07,2.77,3a3.23,3.23,0,0,1,1,3.63c-.06.12-.19.27-.16.38.36,1.66-.71,3.18-.44,4.84-1.07.58-1,1.71-1.38,2.63-.56,1.53-.81,3.2-2.41,4.19a17.75,17.75,0,0,0,3.8.76c1.85.37,3.82.7,5.24,2.22a5.07,5.07,0,0,0,1.12.69c0,1,0,1.94,0,2.92a16.19,16.19,0,0,1-1.45,6.74,4.64,4.64,0,0,0-.77.32,2.71,2.71,0,0,0-.49.47,9.07,9.07,0,0,1-.95,3.72c-.62,1.11-1.13,2.27-1.91,3.86-.15.87,1.54,1.47,1.45,2.8,1,1,.26,2.36.81,3.55s.1,2.55.1,3.55L371,153.58c-.65.52-1.52,1.19-2.49,1.94l2.26.8c.2.86,1.18,1.65.15,2.55.19,1.46-.34,3,.37,4.42a2.49,2.49,0,0,1-.69,2.6,4.79,4.79,0,0,0-1.1,2.54,2.29,2.29,0,0,1-1.37,2,7.3,7.3,0,0,0-1.52,1.3c-.49.41-1,.8-1.64,1.3a7,7,0,0,1-1.33,5,4.05,4.05,0,0,0-.53,2.07c0,1.54-.31,3.07-.51,4.84l-1.46,1.15c.29,1.33.56,2.51.88,4-.3.77-.73,1.86-1.17,3l-1.37.81c.29,1.62-.84,2.78-1.49,4.25-.33.24-1.14.55-1.17.92-.17,1.93-1.74,3.09-2.38,4.75a45.05,45.05,0,0,1-2.27,4.76,5.5,5.5,0,0,1-.93,1.07l.88,4-.4.64c1,1.46.08,2.74-.6,4.19a16.3,16.3,0,0,1-3.43,4.29,10.49,10.49,0,0,0-.77,1.13l-1.75.79c.39.53.73,1,1,1.34a23.2,23.2,0,0,1-.88,3.82,13.45,13.45,0,0,1-2,3.25,41.65,41.65,0,0,1-3,3c.15,1.08.36,2.22.47,3.37a6.9,6.9,0,0,1-.85,3.53c-.43.93-1.3,1.82-1,3-1,.61-.85,1.79-1.19,2.71a25.47,25.47,0,0,0-.58,2.94,10.87,10.87,0,0,0-.06,2.82c-.54,1.28-1,2.25-1.36,3.23a23.83,23.83,0,0,1-3.2,5.3c-.79,1.1-1.35,2.17-.59,3.6.45.84.05,2.1-.79,3.9a7.28,7.28,0,0,1,.25,5,17.29,17.29,0,0,0-.2,4.91c.07,1.74-.6,3.34-.55,5-1,1.16-.85,2.87-1.79,4.06s-1,2.93-1.9,4c-1.09,1.24-1.49,2.78-2.43,4.06a18.93,18.93,0,0,0-2.39,3.8c-.64,1.5-2.39,2-2.77,3.67-.22,1.39.3,3-1,4.14,0,1.89,0,3.8,0,5.7a12.93,12.93,0,0,1-2.54,7.85,2.89,2.89,0,0,0-.25,1.11c-.86,1.11-2.28,1.85-2.86,3.34l-1.05.12c-.23.74-.16,1.49-1.23,1.84a2.55,2.55,0,0,0-1.65,2c-1.8,1.2-2.18,3.4-3.51,5s-2,3.28-3.16,4.82c-.42.58-.45,1.24-.79,1.74a35.63,35.63,0,0,1-4.33,5.75c-1.14,1.12-2.28,2.25-3.39,3.39a6.81,6.81,0,0,1-2.62,1.95,1.74,1.74,0,0,0-.56.32c-1.45,1.28-2.91,2.56-4.33,3.88a3.45,3.45,0,0,1-2.21,1.25c-.9,0-1.1,1.34-2.14.95s-1.25.65-1.86,1a29.39,29.39,0,0,1-7,2.69l-2,2.13c-.88.31-1.63-.06-2.28.68s-1.69.87-2.28,1.53-1.44,1-2,1.81-1.9,1.14-2.93,1.59a13,13,0,0,0-2.21,1.33c-.58.42-1.3.48-1.76,1.27-.26.45-1.38.33-1.92.72-.87.64-2,.51-2.77,1a8.61,8.61,0,0,1-3,1.19,23.68,23.68,0,0,0-2.82.9c-.66.23-1.31.5-2,.78l-.36-.33c-.09,0-.19,0-.24,0-2.08,1.44-4.53,2-6.86,2.73a17.53,17.53,0,0,0-3.25,1c-1.21.71-2.58.14-3.79.81-.42.22-1.48-.57-1.78-.33-.78.65-1.61.18-2.37.44-.7,1.62-.1,3.29.37,4.71.9,2.75,1.25,5.68,2.65,8.26-.09,1.39,1,2.33,1.39,3.54a26.7,26.7,0,0,0,1.53,3.47c.77,1.53,1.28,3.18,2.54,4.45.59.59.58,1.56.94,2.34.86,1.83,2.38,3.1,3.51,4.69a9.49,9.49,0,0,0,3,2.13,35.28,35.28,0,0,0,4.1,2.21c1.48.63,3,1.44,4.59,1.15,2.15,1.15,4.15,2.2,6.14,3.28a10,10,0,0,1,2.18,1.32,14,14,0,0,1,1.62,2.22v1.64l-.7.71-2.28-1.75-1.41-.44a4.2,4.2,0,0,1-4.56.34c-.12-.07-.3,0-.45,0-1.77-.15-3.55-.19-5.29-.49a40.91,40.91,0,0,1-4.4-1.25c-.09.84-.36,1.75.41,2.62-.78.95-.38,2.11-.51,3.19s-.34,2-.5,2.88c-.47.74-1.17,1.38-1.24,2.08s-.73,1.13-.91,1.7c-.25.74-.75.91-1.29,1.28-1.16.8-2.13,1.84-3.24,2.7s-2.47,1.76-3.69,2.66c-.72.52-1.4,1.09-2.2,1.72-.31.12-1,.17-1.2.5-1.39,2.4-3.64,3.59-6,4.67a9,9,0,0,0-2.48,1.72c-.94.89-2.37,1.23-3.49,1.95a2.45,2.45,0,0,1-3-.13c-2,1.24-4.46,1.52-6.72,2.31a3.06,3.06,0,0,1-2.21-.09,2.64,2.64,0,0,0-2.32-.18c-1,.42-2.12.47-2.86,1.4s-1.72,1.44-2.08,2.56a1.36,1.36,0,0,1-1.67-1c.4-1.12.89-2.37,1.31-3.64.65-1.94,2.08-2.82,3.91-3.63,2.06-.91,4.31-1.33,6.27-2.4,0-.21,0-.36,0-.51s-.27-.22-.37-.19a8,8,0,0,1-1.18.43,10,10,0,0,0-3,.4c-.81.35-1.9-.08-2.75.53-2.53-.17-5.09.41-7.58-.46a3.57,3.57,0,0,0-.49-.08c-.55-.56-1.12-1.16-1.63-1.69-1.16-.26-2.35.36-3.29-.46l-6.16,1.39a2.69,2.69,0,0,1,1.57-2.23,14.6,14.6,0,0,1,5.29-2.63,6.28,6.28,0,0,1,.82-.23c3.81-.17,7.64-.36,11.46-.44a10.36,10.36,0,0,1,3.72.34,4.12,4.12,0,0,0,3.78-.66c1.3-1,2.87-1.52,4.24-2.43a36.38,36.38,0,0,1,4.1-2.77c.39-1.25,1.81-1.19,2.56-2.05s1.72-1.37,2.52-2.13a7.13,7.13,0,0,0,2.46-5.83,15.67,15.67,0,0,1,0-2.74c.29-3-.71-5.76-1.48-8.54a77,77,0,0,0-2.68-7.79c-.7-1.77-1.47-3.51-2.13-5.29A19,19,0,0,1,215,402c-.37-1.44-1.34-2.61-1.67-4.12s-1.23-2.68-1.74-4.06c-.86-2.31-2.07-4.47-2.79-6.84a8.15,8.15,0,0,0-1.11-1.78,23.9,23.9,0,0,0-3-.52c-1-.06-2-1.25-2.95-.07l-2.42-.57c-.21-.51-.37-1.05-1.21-1.25a9.94,9.94,0,0,1-4.42-2c-.29-.25-.85-.16-1.21-.36-1.37-.78-2.7-1.62-4.32-2.59h-1.2l-1,1.2a10.25,10.25,0,0,0-3.24,1.27,15.26,15.26,0,0,1-5.07,2.08c-1,.26-2,.64-3.08,1-.47,1.72-.9,3.44-1.41,5.13a19.73,19.73,0,0,1-1.39,4,43.82,43.82,0,0,0-2.58,6.93c-.87,2.54-1.84,5-2.61,7.61a33.32,33.32,0,0,1-2.08,6.21c0,2.57-1.4,4.85-1.42,7.43a5.66,5.66,0,0,1-.73,2.42c-.4.76.2,1.6-.43,2.35s.24,1.79-.62,2.47c-.21,2.06-.41,4.12-.59,5.93,1.82,3,3.5,5.73,5.15,8.47a9.56,9.56,0,0,0,3.47,3.05,9.26,9.26,0,0,1,2.84,2.94c.81,1.2,1.64,2.39,2.35,3.41,3.21.48,5.9,1.41,7.72,4v1c-.2,0-.38.15-.47.1a9.64,9.64,0,0,0-5.15-1.35,7.69,7.69,0,0,0-1.24.29,5.89,5.89,0,0,1-2.79-.13c-2.31-.66-4.78-.8-6.95-2-1.43.17-2.64-.58-4-.87a11,11,0,0,1-2.39-.86c-1-.45-1.59-1.53-2.91-1.11-1.29,4.14-2.05,6.32-4.34,8.23-2.72.35-5.36.6-7.77,1.89a23.91,23.91,0,0,1-2.35.93c-1.18.49-2.46.64-3.49,1.56a3.37,3.37,0,0,1-2.19.68c-1.73-.06-3.21.86-4.88,1a3.19,3.19,0,0,0-1.38.49c-1,.66-2,1.48-3,2.06a26.94,26.94,0,0,1-3,1.09,13.29,13.29,0,0,1-4.61.45c-1.52,0-3.14-.36-4.42.91-1.69.14-2.68,1.36-3.8,2.42-.63.59-1.34,1.12-2.07,1.72-1.41-1.07-.43-2.54-.8-3.67l.25-.44c.38-.68.74-1.37,1.13-2.05s1.36-.71,1.62-1.57c.07-.24.68-.27.89-.52a7.43,7.43,0,0,0,.73-1.37c-1.31,0-2.51,0-3.72,0-.86,0-1.78.27-2.57-.42a1.06,1.06,0,0,0-.89,0A17.25,17.25,0,0,1,101,465c-1.58.22-3.28-.22-4.83.11-3,.62-6,.24-9,.41-.78.05-1.54.34-2.33.43s-1.44-.09-2.12.43c-.28.22-.89.06-1.34,0-2.45-.15-4.89.18-7.36-.39a9.93,9.93,0,0,0-6.56,1.17A7.13,7.13,0,0,1,66.57,467.47Z"/></g></g></svg>