<svg xmlns="http://www.w3.org/2000/svg" viewBox="0 0 838.43 302.99"><g id="Layer_2" data-name="Layer 2"><g id="Animal"><path d="M838.2,116.45h-.05a23,23,0,0,0-1-4,1,1,0,0,0-.25-.35l-.15-.2a.93.93,0,0,0-.1-.1,46.92,46.92,0,0,0-8.3-5.4c-1.29-.64-2.8-1.32-4.55-2,0,0,0,0,0,0l-4.6-1.55-.3,0-.3-.1-.1,0-.8-.2-.25,0-.1,0-1.4-.25-.3-.1-.15-.05-6.3-.9H809l-6.7,0h-.1l-2.75.3h-.4l-3,.5a.37.37,0,0,1-.15,0l-.2,0-4.4,1.1h.25l0,0h-.1a1,1,0,0,0-.3,0l-1.3.45h0c-1.52.58-3,1.18-4.55,1.8l-.05,0-13.95,7.15a1,1,0,0,0-.15.1l-.1,0L766.4,115l-.15,0a.3.3,0,0,1-.1,0l-2.45,1.2A127.61,127.61,0,0,1,746,123.1q-4.74,1.38-9.15,2.3l-1.5.3a.53.53,0,0,1-.15,0l-.15,0L727.65,127h-.2l-9.55.6a76.37,76.37,0,0,1-9.4-.55,59.1,59.1,0,0,1-9.2-1.75l.05,0-5.15-1.6a.29.29,0,0,1-.1,0l-3.75-1.45h0a79.91,79.91,0,0,1-16.4-9.4l0,0-2-1.45-.05,0a.23.23,0,0,0,0,0l-2.15-1.65-.1-.1-.05-.1-3-2.5v.05q-3.67-3.12-7-6.45h0l-13-14.15q-4.15-4.87-12.15-14.85l-.35-.5a.23.23,0,0,0,0,0l-.2-.2.05,0L622,56.65l0,0q-4-4.32-6.7-6.9l0-.05A20.4,20.4,0,0,0,613.45,48L608,43.3l-.05,0A72.91,72.91,0,0,0,600,37.6l-7.3-4.25-.1-.05-9.85-4.55s0,0-.05-.05q-4.2-1.71-8.85-3.2l-4.55-3.15s0,0,0-.05c-1.33-.73-2.59-1.36-3.8-1.9l0,0L561.9,19l.2.1-.3-.15-.25-.1-.15-.05h0l-.05-.05-.65-.25a.17.17,0,0,1-.1,0l-19.95-6.2-.05-.05a1.68,1.68,0,0,0-.4,0L524.4,8.45s0,0,0,0q-4-.63-9.3-1.25l-9.75-.75c-3.31-.2-6.67-.35-10.1-.45l-30.65-.2a.94.94,0,0,0-.3,0H464c-3.88-.07-7.36-.18-10.45-.35l-9.1-.65h0l-.25,0-13-1.55a1.34,1.34,0,0,0-.35,0h-.05l-7.85-.65h0q-2.46-.15-5-.15c-1.45,0-3.08,0-4.9.1-1.61.07-3.19.17-4.75.3l-1.65.15h-.1l-.15,0h-.45L396,4.25l-.15,0h-.4L352.4,10.8h-.1l-.15-.05-1.3-.35a1,1,0,0,0-.3-.05h-.15l-.2,0,.2.1-.2-.05a1,1,0,0,0-.45-.1h-.5l-6.9-.65h-.5a5.53,5.53,0,0,0-.85,0l-2.45-.05h-.25a2.69,2.69,0,0,1-.65.05h0l-1.85.1h-.15l-8.2,1.7,0,.05-.1,0-.2.05a1.34,1.34,0,0,0-.35.05l-2.9,1.2h-.15l0,.05-.1,0h-.05a1.29,1.29,0,0,0-.35.05l-.55-.15-8.1-3.35-.25-.05a.85.85,0,0,0-.3,0l-2-.25h-.15a21.76,21.76,0,0,0-2.5.1h-.15l-.25,0h-.15l-.15.05-.3.05H308l-3.95.95-.4.15a1.33,1.33,0,0,0-.3,0l-.3.15h.05a12,12,0,0,0-1.67.69,7,7,0,0,0-1.18.81.46.46,0,0,1-.05.1l-.05.05c-.76-.59-1.65-1.24-2.65-1.95v-.05q-1.92-1.3-3.7-2.35h-.05l-3.85-2h0c-1.38-.65-2.71-1.22-4-1.7s-2.6-.88-4.15-1.35h-.05c-1.88-.54-3.3-.93-4.25-1.15-1.83-.39-3.28-.66-4.35-.8h.05C271.44.64,270,.46,268.7.35l-4.25-.3a9.23,9.23,0,0,0-1.2,0L255.6.1h-.1L242.65,1.6s0,0-.05,0l-8.5,1.7h.2l-.05.05a1.9,1.9,0,0,0-.4,0,63.56,63.56,0,0,1-6.7,2.35L173.8,17.45h-.05l-20.3,5.7Q146.63,25,139.85,27l-18.3,5.4-.3-.15h-.2a.48.48,0,0,0-.25-.15l-.25-.05a.94.94,0,0,0-.3,0h-.8l-.15,0h-.2l-.3.05a1.48,1.48,0,0,0-.35,0l-.25.1a1.63,1.63,0,0,0-.35,0l-1,.4a2,2,0,0,0-.45.25l-.2.15a1,1,0,0,0-.25.2l-.4.25-.15.15-.4.4-.1.1-.2.15-.1.1-.1.1-.1.1-.1.1c-.13.11-.27.2-.4.3h-.45l-.2,0-.2,0h-.48a.66.66,0,0,0,0-.15v-.85l.05-.45-.1-1.85a1.38,1.38,0,0,0,0-.25l-.65-2.4v-.05l-.1-.25c0-.05-.06-.12-.1-.2l-.45-.8-.1-.1,0-.05-.15-.2.2.25-.1-.2a1,1,0,0,0-.2-.25l-.15-.15h0l-.75-.9-.15-.1-.35-.3-.4-.25,0-.05-.2-.15a1.15,1.15,0,0,0-.2-.15l-.8-.45a.3.3,0,0,0-.1-.05l-1.3-.55-.15-.1-1.75-.45h-.35c-1.12,0-2.29,0-3.5.15a.17.17,0,0,1-.1,0l-6.7,1.3-.1.05c-1.51.48-2.63.86-3.35,1.15l-.05.05L86,28.3a1.33,1.33,0,0,0-.35.25l-1.45.8a.47.47,0,0,1-.1.1l-5,3.7.15-.1-.15.15a.53.53,0,0,1-.15,0l-.65.55a.56.56,0,0,1-.1.15l-2.1,2.1a.31.31,0,0,1-.1.05l-3.7,4.7a1.24,1.24,0,0,1-.1.2l-.2.4.2-.25L72,41.5a1,1,0,0,0-.15.2l-6,10.2.05-.1-1.2,1.6-2,2.15.1,0-12.25,9a1.66,1.66,0,0,0-.3.25l0,0-.6.4a.23.23,0,0,1-.05.1l-2,1.8-.2.15-.2.15-3.55,3.8a.31.31,0,0,1,0,.1L39.4,77l.1-.1,0,.15-.15.15-.4.6s0,0,0,0L37.4,80.6a.11.11,0,0,1,0,.1l-3,7.75c0,.1,0,.2-.05.3L24.8,100.3l-.1.15-.1.1L13.85,115a.12.12,0,0,1,0,0L6.45,127.35a.36.36,0,0,1-.1.15l-4.8,11.55a.16.16,0,0,1,0,.1l-1.15,4a.23.23,0,0,1-.05.1l-.35,2v.2l.05,1.15a.94.94,0,0,0,0,.3v.45l.05.15V148l.05.15v.15l0,.15v.15a1,1,0,0,0,.05.35L.6,150l.05.3a.87.87,0,0,0,.15.25l.8,1.35c0,.06,0,.11,0,.15l.55.6a1.06,1.06,0,0,1,.15.15l.9.75.1,0,1.05.6.2.1.25.1a.79.79,0,0,0,.4.15.46.46,0,0,0,.2,0l.2.05.15.1a.44.44,0,0,0,.15.1.73.73,0,0,0,.25.15l1.35.4.15,0,1.9.3h.55l.4.05H11l2.5,3.5h0a9.91,9.91,0,0,0,.85,1l1.25,1.5a.46.46,0,0,0,.1.1l3.75,3.6,0,0,1,.8a1.41,1.41,0,0,0,.3.2l.2.1a1.06,1.06,0,0,0,.15.15l.35.2a1.42,1.42,0,0,0,.5.35l.05,0,2.5,1.35a.42.42,0,0,0,.2.1l1.1.35,2.8,1.3a.53.53,0,0,0,.2,0l.6.2a.78.78,0,0,0,.35.15l1.1.35H31L40.4,173a.79.79,0,0,0,.25.05l4.45-.15a.25.25,0,0,0,.15-.05l2.1-.45a.43.43,0,0,0,.25-.1.51.51,0,0,0,.25-.05l.2-.1.2-.05.85-.45-.2,1.5v.2a1,1,0,0,0,0,.35l.2,4.45a.17.17,0,0,1,0,.1l.45,2.3,0,.15.5,1.5a.53.53,0,0,0,.05.15l.25.55.1.2a.82.82,0,0,0,.1.25l1.5,2.3.15.15.5.55.1.15.15.15,0,0,.15.15.65.6a.8.8,0,0,0,.2.15l0,.05a.44.44,0,0,0,.15.1l.3.2h0a9.34,9.34,0,0,0,1.45,1l0-.05a8.8,8.8,0,0,0,1.65.7h0a10.24,10.24,0,0,0,1.7.35h.15l.4,0h1a.73.73,0,0,0,.3,0,6.64,6.64,0,0,0,1.8-.3c.05,0,.08,0,.1,0l1.55-.55a.21.21,0,0,0,.15-.05l1.8-1a.62.62,0,0,0,.2-.15l.3-.25.1-.05.1-.1.15-.1.25-.25a14.76,14.76,0,0,0,2.4-2.55.16.16,0,0,0,.1,0l1.6-2.5a.71.71,0,0,0,.2-.45l.2-.3a.17.17,0,0,0,0-.1l2.35-6a.16.16,0,0,0,0-.1l.1-.35,2-4.55,1.4-2.4,0,.05a22,22,0,0,1,1.5-2L81.15,164l-.05.1a21.93,21.93,0,0,1,3.35-2.5L85.6,161l.05,0,.35-.1c.67-.33,1.08-.53,1.25-.6a.19.19,0,0,0,.1,0c.62-.28,1.25-.53,1.9-.75,0,0,0,0,0-.05l.4-.1,1.55.45a.09.09,0,0,0,.1,0l.5.1,3.3.95,5.25,2.15.8.45.25.1-.25-.2.15.1a.8.8,0,0,0,.2.15l2,1.4a1,1,0,0,0,.6.2h.15a1,1,0,0,0,1-1V164a1,1,0,0,0-.1-.45l-.1-.15a1,1,0,0,0-.2-.25l-1.7-1.65a1,1,0,0,0-.25-.2l-.1-.05-1.05-.75-.15-.1L99,159l-.1,0-1.6-.6h0l2.25-.3h.2a.94.94,0,0,0,.3-.05h.1l7.6-.65a.24.24,0,0,0,.1-.05l.4-.05h.2a.42.42,0,0,0,.2,0l4.3-1a.16.16,0,0,0,.1,0l1.45-.5.15,0,.3-.1h.05l.3.1.35.15a.85.85,0,0,0,.4.1l.15,0a.53.53,0,0,0,.25.05l.85.2.3.1.2,0,1.45.2h.15l.15,0h.1l1,.1h.4l.3.05h1.1a.94.94,0,0,0,.7-.3l.1,0,.1-.1a1,1,0,0,0,0-1.4l0-.05a1,1,0,0,0-.25-.2l-.15-.1a1.27,1.27,0,0,0-.35-.15l-.4-.15-.15-.05-.25,0-.55-.2h0l-.65-.15h.05l-.2-.1h-.1a.94.94,0,0,0-.3,0h0l-.1-.05-1.18-.21.68-.24,3.7-1.9.4-.25.15-.05v0h0l0-.05.45-.25,6-4.3.1.1.15,0,.1.05.05.05h.1l.11,0a.94.94,0,0,0,.54.17h.4a1.48,1.48,0,0,0,.35.05h.15l.1,0h.15l.1.05-.25-.18,0,0h.25l.25-.1h.1l.1,0,.2-.05.1-.1c.07,0,.1,0,.1-.1l-.05-.05-.3-.2-.1-.05h0l-.05-.05-.25,0-.15-.05h0l0,0,.19-.08.35-.15h-.2l-.15.05-.1,0-.12.12,0,0h-.26l.11-.05h-.2l-.06,0-.19,0h.25a1.48,1.48,0,0,1,.35-.05h.05a1,1,0,0,1,.35-.1,1,1,0,0,1,.6-.2,3.66,3.66,0,0,1-.3.5l.9-.5-.3-.2.15.15-.1,0a.83.83,0,0,0-.3-.2.54.54,0,0,0-.2-.1l-.25-.05-.12,0,5-2.8.15,0V142h.1l3.3-1.7v-.05l.1.05.05,0h.1l.75.25h.2l.07,0a.91.91,0,0,0,.53.18h.1a.85.85,0,0,0,.22,0l.43,0,.4,0a1.41,1.41,0,0,0,.35,0h.1l.3.05a.56.56,0,0,0,.25,0h.05l.55.15a.74.74,0,0,0,.35.1h.1l-.55-.25-.15-.3h.2l.15-.05.25,0h0l.05-.05h.05l0-.05c.07,0,.1,0,.1-.1l0,0,.38,0a.59.59,0,0,0,.2-.05h.8a43.62,43.62,0,0,1,6.55.5l0-.05,14.7,2.65a.58.58,0,0,0,.2.05l8.6-.05a.94.94,0,0,0,.3,0l3.75-.15L181,146a.53.53,0,0,1,0,.15l-.8,2-.2.4-.15.45V149L158.7,188.35l-.1.15-.9,1.45V190a21.94,21.94,0,0,1-2.25,3.15v0a35.28,35.28,0,0,1-2.5,3.05H153l-4.6,4.6-.15.15v.05l-4.4,3.65s0,.05,0,.05L129.75,218.3a.46.46,0,0,1-.05.1L117,233.05l0,0-12.1,16.5-1.19,1.29-1.71,1.51.1-.05-.87.59.47-.09,0,.05-.15,0h-.28l-.07.05-.2.1a5.53,5.53,0,0,1-1.35.6.16.16,0,0,1-.1.05l-2.6.7h-.1l-.1.05h-.1l-.25.05h-.1l-3.5.3c-.75.07-1.3.1-1.65.1h-.1l-8.6.85H82l-2.45.5A33.39,33.39,0,0,0,74,258l-.55.25a1,1,0,0,0-.45.2l-.15.05-.1.05-1.15.6a16.89,16.89,0,0,0-2.25,1.35,24.08,24.08,0,0,0-3.3,2.7l0,.05-.6.6-.15.1-1.55,2a.31.31,0,0,1-.1.15l-1.2,2.25s0,.05,0,.05c-.2.44-.38.91-.55,1.4l.05-.05v.05H61.8l-1.85.4-.1,0-.15.05-.25.05-2,.65-.15.05-2.2,1.1h0a20.63,20.63,0,0,0-2.2,1.55s0,0,0,0c-.73.72-1.33,1.35-1.8,1.9v.05l-.3.4.1-.1-.05.1-.15.1-.7,1,.15-.1-.05.15-.1.1-.25.4.1-.1,0,.15,0,.1a.9.9,0,0,0-.3.4l-.1.25-.35.8.2-.25,0,.15a1.37,1.37,0,0,0-.3.45,0,0,0,0,1,0,.05l-.2.6a14.1,14.1,0,0,0-.6,2.6v0l-.1.5v.15l-.1,2.35.05.35v.45l0,.15v.4l.15.95a15.82,15.82,0,0,0,.6,2.65l0-.05a16.12,16.12,0,0,0,.9,2.5l1,2.25.05.15,1.4,2.1.1.1,1.75,1.9a21.55,21.55,0,0,0,2,1.7,1,1,0,0,0,.95.3,1,1,0,0,0,1-.65,1,1,0,0,0,.2-.35l2.6,1.5a.24.24,0,0,0,.1.05c.73.39,1.35.17,1.85-.65a.84.84,0,0,0,.15-.5v-.3a.74.74,0,0,0-.1-.35l-1.15-3.15,2.8,2.4s0,0,0,.05l3.25,2.3s0,0,0,0a1.36,1.36,0,0,0,2.05-.4.46.46,0,0,0,0-.1,1.36,1.36,0,0,0,0-1.5s0,0,0,0l-.55-1s0,0-.05-.05V299l1.25.65.15.05,6.25,1.9h0a1.27,1.27,0,0,0,1.75-1.1v.05A1.19,1.19,0,0,0,78,299l-.1-.1-.25-.3-.3-.25h0l-.8-.85-1.7-2.8,0-.2a1,1,0,0,0-.1-.15l0-.1,0,.05,2,2.35,0,0,.2.15,0,.05,0,.1a1,1,0,0,0,.25.25l5,3.7a.24.24,0,0,0,.1.05l3.2,1.85a.23.23,0,0,0,.15.05,1.35,1.35,0,0,0,1.8-.55.48.48,0,0,0,.15-.25,1.19,1.19,0,0,0-.25-1.4l-1-1.45,2.4,1.55a.37.37,0,0,0,.15.05l4.65,1.9.1.05a1.25,1.25,0,0,0,1.7-.8.82.82,0,0,0,.1-.4v-.25a.82.82,0,0,0-.1-.4l-1.8-4.1L95.45,298a.31.31,0,0,0,.15.1l.1.05h0l.35.25h.05l1.7.75a.17.17,0,0,0,.1,0l3.65,1a.92.92,0,0,0,.25.05l3.8.15c.8.07,1.2-.35,1.2-1.25a1,1,0,0,0-.25-.65l-1.4-2.55,1.3,1,.15.1.2.05.05.05,1.35.8a.12.12,0,0,0,.1,0l3,1.3a.23.23,0,0,0,0,.05q1.37.45,1.8-.75a1.07,1.07,0,0,0,.1-1.15l-.4-1.05a.47.47,0,0,0-.1-.1l-1-2.05.6.3-.25-.2.15.1a.73.73,0,0,0,.35.2l2.15.8a.21.21,0,0,0,.15,0l3.2.65c.52.18.9.12,1.15-.2.3-.12.45-.44.45-1v-.1a.88.88,0,0,0-.1-.4l-1-2.6a1.18,1.18,0,0,0,1.55-.05.44.44,0,0,0,.15-.1,1.13,1.13,0,0,0,.45-.95l.4-1.95a.08.08,0,0,0,.05-.05l.15-1.25a1.36,1.36,0,0,0,1.35-.95.23.23,0,0,0,0-.15l.85-3.2v2.2A1.28,1.28,0,0,0,125,286.8a1.47,1.47,0,0,0,1.4-.85,1,1,0,0,0,0-.2l2.7-9.4.7,2.9c.13.54.37.86.7.95a1,1,0,0,0,.95.1c.44,0,.77-.26,1-.9,0,0,0,0,.05,0l.35-.9a0,0,0,0,0,0-.05l1-3.6v.7c0,.89.38,1.29,1.15,1.2a1.09,1.09,0,0,0,1.15-.85l3.15-6.7a.31.31,0,0,0,.05-.1q2.29-1,4.8-2.2l.05-.05,14.9-8.5q1.89-1.16,4.8-3.2H164l10.6-7.8h.05q11.85-8.49,23.7-17.45l14-10.3.4,2.95a1.35,1.35,0,0,0,1.55,1.3c.69,0,1.14-.32,1.35-1.1v.05l.85-2.35.05-.05,2.65-4.6a.16.16,0,0,0,0-.1l1.6-2.35a.14.14,0,0,0,0-.1l2-3.8a.31.31,0,0,0,.1-.15l.1-.15a1.31,1.31,0,0,0,0-.15l.6-1.7.1-.15a1,1,0,0,0,0-.2l.15-.45,1.1-2.1.7-1,1.75-2v0l1.95-1.8v-.05q2.4-2.14,4.15-3.6h0L247.45,184l.05-.05a.87.87,0,0,0,.25-.15l.05-.05v-.05l.25-.15a.55.55,0,0,0,.25-.25l.3-.2a0,0,0,0,0,.05,0,14.56,14.56,0,0,1,2.15-1.35h0l1.25-.6,1.15-.35a13.22,13.22,0,0,1,2.5-.45h2.65l.35.05,5.85.35a.62.62,0,0,0,.35.1h2l5.65-.65.2,0,5.4-1.65a.73.73,0,0,0,.25-.15l.15-.1a.85.85,0,0,0,.55-.25l.1-.05-.25.2.65-.25a.12.12,0,0,0,.05-.05l.45-.25v.05a1,1,0,0,0,.65.4.85.85,0,0,0,.75-.15.83.83,0,0,0,.29-.3,3.29,3.29,0,0,0,.58.19c.12.19.27.42.48.71l1.9,5.5s0,.05,0,.05q1.53,3.85,3.95,8.6,1.88,3.63,4.75,8.2v.05l5.25,7.75.05,0q2.26,3.06,5.7,7.4v.05l15.4,18.35.05.05a1,1,0,0,0,.2.25l.1.1.55.8,1.55,2.9.15.4a1.18,1.18,0,0,0,.1.3l0,.15.1.2.5,2.1v-.05a27.36,27.36,0,0,1,.45,4.4v2.3a14.71,14.71,0,0,1-.15,2.15v0a10.93,10.93,0,0,1-.35,2.1l-.25,1.05.05-.05-.1.3.05-.1-.05.25,0,.1-.5,1.3,0-.15-.7,1.2.05-.05a7.29,7.29,0,0,1-1.25,1.5l-.15.15-.6.55-.9.6a8.43,8.43,0,0,1-1.8.8l.15,0-.05,0H317l-.1.05-.55.05h-.2a1.58,1.58,0,0,1-.75,0h-.15a9.43,9.43,0,0,1-2.05-.25h.05l-2.65-.6-.15,0-.15-.05h-.05L309.1,259l-.3-.05-.05,0-2.3-.55a.09.09,0,0,1-.1,0,17.18,17.18,0,0,0-2.5-.3h-.05a8,8,0,0,0-1.2,0l-.35.05h-.15l-.15.05h-.15l-.7.15h-.05a1.33,1.33,0,0,0-.3.05l-1.45.5-.1.05-.6.3a12,12,0,0,0-2.2,1.4h.05a13.23,13.23,0,0,0-1.95,1.8v0a1.16,1.16,0,0,0-.2.25l-.5.65a.94.94,0,0,1-.1.1l-1.95,3a.47.47,0,0,1-.05.1l-1.5,3.1a1.11,1.11,0,0,0-.25.45l-1.7,4.55a0,0,0,0,1,0,0,.93.93,0,0,1-.05.1l-.05.3-.1.3s0,0-.05,0a24.61,24.61,0,0,0-.45,2.45v-.05c-.09.58-.18,1.43-.25,2.55v.1l.15,2.4a.17.17,0,0,1,0,.1l.45,2.35a1.16,1.16,0,0,0,.2.45l.1.3a.3.3,0,0,0,.05.1l.85,1.7a.93.93,0,0,0,.2.3l.15.25.1.15.3.4a2,2,0,0,0,.35.45.83.83,0,0,0,.35.35l.1.15.2.15a1,1,0,0,0,.85.5,1.08,1.08,0,0,0,1.05-.4,1.15,1.15,0,0,0,.4-1.2l-.55-5.4,1.75,2.75a.62.62,0,0,0,.15.2l.15.15.15.2-.15-.15.2.3a1.15,1.15,0,0,0,.15.2l3.2,3.45a.88.88,0,0,0,.35.25l.05.05a1,1,0,0,0,1.3-.25.94.94,0,0,0,.3-.7v-.1l.15-.9.7.9.1.1.4.4a1,1,0,0,0,.25.2l.15.15a.93.93,0,0,1,.05.1l.9.7,0-.1.2.2.15.15.85.5a1,1,0,0,0,.25.1l.25.15h.05a1.15,1.15,0,0,0,1.65-.55.87.87,0,0,0,.15-.5l.05-.15a.82.82,0,0,0-.1-.4l-.4-3.75.95.95a.44.44,0,0,0,.15.1l4.6,3.1.1.1,1.4.7-.1-.1a1.17,1.17,0,0,0,1.2.25c.41-.06.7-.36.9-.9v.1a1.32,1.32,0,0,0,.1-1.1l-.1-.4,2.75,2.25a.87.87,0,0,0,.3.2,1.23,1.23,0,0,0,1.8-.5.67.67,0,0,0,.2-.4l.15-.65v-.1l.15-3.35,1.9,2.3.1.1a1.08,1.08,0,0,0,.9.4,1,1,0,0,0,1-.5l.1-.15.1-.2a1,1,0,0,0,.05-.65l-.25-1.65a.82.82,0,0,0,.25.2l.35.35a.93.93,0,0,0,.1.1l2.75,1.9.15.1.25.1.4.25.2.1.3.1.95.4a.26.26,0,0,0,.15.05l1.95.55h.05l.55.1a.49.49,0,0,0,.2.05h.1l.15.05.85.05.3.05h1.7a.85.85,0,0,0,.3-.05.15.15,0,0,0,.1-.05l1.15-.15h0a1.15,1.15,0,0,0,.9-.55,1.17,1.17,0,0,0,.2-1.15.46.46,0,0,0-.05-.2l-.05-.15a1,1,0,0,0-.15-.2l-1.15-1.35H339a.73.73,0,0,0,.3-.05h.25a.49.49,0,0,0,.2-.05l1.4-.25a.17.17,0,0,0,.15,0l.55-.15h.1a1.11,1.11,0,0,0,.65-1.45.85.85,0,0,0-.25-.45l-.05-.1a.46.46,0,0,1-.05-.1L341,284l-1-1.2,3.7.65a1.3,1.3,0,0,0,1.2,1.15.79.79,0,0,0,.25,0,1.32,1.32,0,0,0,1.4-1.1.66.66,0,0,0,.05-.25l.05-.1-.1.35.9-2.25.2,1.8a1.16,1.16,0,0,0,.55,1,1.18,1.18,0,0,0,1,.25,1.3,1.3,0,0,0,1.25-.75.3.3,0,0,0,.05-.1l1.8-3.85.2.5.1.25a.17.17,0,0,1,0,.1l.35.75v-.05q.35.81.9.9a1.08,1.08,0,0,0,1.05-.15h0a1.23,1.23,0,0,0,.85-1.2l.25-2.5,1.35,1.25.1.05a1.25,1.25,0,0,0,1.95-.2.87.87,0,0,0,.2-.35l.1-.3a.92.92,0,0,0,.05-.35l-.05-3.65.75.7a0,0,0,0,1,0,.05l.95.7.2.1.2.05a.76.76,0,0,0,.8.2,1,1,0,0,0,.9-.6.87.87,0,0,0,.15-.5l.05-.15.05-2.35,1.25-.05a.79.79,0,0,0,.25,0h.05a1.06,1.06,0,0,0,.35-.05,1,1,0,0,0,1-1.15l.05-.35V271l.05-.3V269.4l.08-.16.12.16.2.2.15.2c.07.07.15.07.25,0v-.05l.2-.61.25,0,.2.25-.15-.2a1,1,0,0,0-.2-.25l0,0,.42-1.28.6-3.05.1-2.92a2,2,0,0,0,.25-.13,1,1,0,0,0,.2-.5.28.28,0,0,1-.1-.2,2.44,2.44,0,0,0,.81-.33l.19.33-.8.95a2.79,2.79,0,0,0,.8-.25,1,1,0,0,0-.12-1.08,1.49,1.49,0,0,0,.22-.21l.4.54.15.35a1.24,1.24,0,0,0,.3-.4.47.47,0,0,0,.1-.1,1.8,1.8,0,0,0,.18-.51l.12.16.75,1.5.1.75v-.1l.15-.15.15.3c.13.27.28.33.45.2a.35.35,0,0,0,.25-.35l-.06-.51c.24.27.33.34.26.21l-.32-.64-.38-3-1.3-4.8-2-4.45h.3a.73.73,0,0,0,.3,0h.05a.73.73,0,0,0,.3-.05h.05v0l-.38-.9h0l.2-.05h.15l.35-.1a.36.36,0,0,0,.3-.5l-.15-.65c-.07-.3-.12-.53-.15-.7l-.75-2.55-.15-.3-.2-.65-.3-.6-.1-.35-.45-.9v-.05l-.05-.05v0l-1.27-2.15a1.22,1.22,0,0,0,.17-.15.82.82,0,0,0,.3-.65v-.1l-.87.23-.13-.23v.1l0-.1,1-.1-.05-.35,0-.05a1,1,0,0,0-.5-.45,1.11,1.11,0,0,0-.6-.05h0a20.72,20.72,0,0,0-1.69-4l-2.75-4.05-4.28-4.4h.58l.3.05h.55l-1.05-1.05h.2l.3.05h.65l.3-.05c.37,0,.52-.17.45-.5v-.15l-4.2-8.8L354,210a2.07,2.07,0,0,0,.49-.32.89.89,0,0,0,.2-.55V207.9a1.33,1.33,0,0,0-.1-.6,1.86,1.86,0,0,0-.85-.45,6.81,6.81,0,0,0-1.9-.18l-1-1.47h.1v.05h.05l.3.1.3.05.15,0h.47l.13.2a8,8,0,0,1,1.6.2l.55-.5a.74.74,0,0,1-.3.6l-.25-.1-.25.25-.7.3h.15a.7.7,0,0,0,.25-.05,1.87,1.87,0,0,0,.75-.35c.05,0,.08,0,.1-.05a4.32,4.32,0,0,0,.9-.3,1.47,1.47,0,0,0,1-.8,1.55,1.55,0,0,0,.2-.8,2.11,2.11,0,0,0-.15-.75,2.66,2.66,0,0,1-.15-.9c0-.07,0-.47.1-1.2v0a3.35,3.35,0,0,0-.45-1.9c-.27-.59-1-.93-2.15-1.05h-.1a7.38,7.38,0,0,0-1.05,0l-1.75-5.65.35.2a1.18,1.18,0,0,0,.3.1l.15,0a.47.47,0,0,0,.25.05l.15.1a.46.46,0,0,0,.2.05l.45.1a.56.56,0,0,0,.25,0h.1l.35.05a.56.56,0,0,0,.25.05q.84.09,1.2-.9a.6.6,0,0,0,.1-.35V192a.88.88,0,0,0-.1-.4l-2.6-6.45a.5.5,0,0,0-.05-.15l-3.7-6.1v-.45a3.12,3.12,0,0,0,2-1.2s0,0,0,0a1.68,1.68,0,0,0,.35-.8l-1-.14s0-.08,0-.11-.1-.25-.3-.35a4.34,4.34,0,0,0-1.35-.4,6.16,6.16,0,0,0-1.82.06l-.08-.11,0-.1v0h0l.12-.29h.73l.16.35v0a1,1,0,0,0-.06-.3h.21l3.23.46a.91.91,0,0,1,.22.54.8.8,0,0,1,.05.5l24,3.45h.5l3.35.25c.74.07,1.84.14,3.3.2l3.35.1c1.53,0,3.78,0,6.75,0l3.75-.1a.85.85,0,0,0,.3,0h.2l7.05-.55h.5l13.25-2a.19.19,0,0,0,.1-.05l16.3-4.6a.21.21,0,0,0,.15-.05l.2-.1h-.05L464.8,159.9h.05a6.83,6.83,0,0,1,.95,1s0,.05.05.05l.7.95.95,1.9,1.5,4.9v.1a.36.36,0,0,1,0,.15l1.8,6.65v-.25l.05.1v.05a1.34,1.34,0,0,0,0,.35l.3.85v-.05a19.82,19.82,0,0,0,1,2.4s0,.05,0,.05l1.2,2.2.1.15.8,1a.46.46,0,0,0,.1.1l4.45,4.2a11.86,11.86,0,0,1,1.4,1.65l.7,1.05.05.05a.53.53,0,0,0,.05.15,1.31,1.31,0,0,0,.05.15l.1.2a.93.93,0,0,1,.05.1l.05,0a6.44,6.44,0,0,1,.35,2v1l-.2,1.45a1,1,0,0,0-.1.4v0l-.05.25-1.6,4.55.25-.35-.15.25-.05.15a2.21,2.21,0,0,0-.25.3.25.25,0,0,1-.05.15l-2.55,4.7-3.6,5.4v.05l-.05.15-.2.2-.05,0-3.95,4.6.05-.1-4.7,4.25-.2.1-.5.4a1.42,1.42,0,0,0-.3.25l-.1.1-.7.45-.25.2-3.7,2.2-.3.1-.1.05-.95.5-.3.1-.25.15-4.25,1.55h-.2l-1.15.35h.05l-2.85.6H448l-1.5.2h-.25l-.9.1-4.65-.2-1.3-.25h-.25l-.3-.05a.94.94,0,0,0-.3,0h-.2l-4.6-1.1.05.05c-2-.57-3.54-1-4.75-1.3l-1.2-.3,0,0-.3,0-.3-.1-.15-.05-.6-.1h-.1a1.11,1.11,0,0,0-.25-.05l-2.2-.2H424c-.83,0-1.7,0-2.6,0a13.22,13.22,0,0,0-2.65.4,23.12,23.12,0,0,0-2.55.9.12.12,0,0,1-.1.05l-.9.5a1,1,0,0,1-.2.15l-1.05.75a.56.56,0,0,1-.15.1c-.64.59-1.26,1.21-1.85,1.85H412l-.2.25-.1.1a.56.56,0,0,1-.15.1l-.9,1.3.15-.1-.05.15a2.43,2.43,0,0,0-.2.25l-1.25,2.5a.23.23,0,0,1-.05.1l-.05.15a1.4,1.4,0,0,0-.15.3l-.9,2.8a.08.08,0,0,1-.05.05l-.2.9.1,0a1.05,1.05,0,0,0-.15.3.19.19,0,0,1-.05.1l-.45,2.75a.16.16,0,0,1,0,.1c-.08.93-.13,1.8-.15,2.6a1.7,1.7,0,0,0-1,1.35,1.15,1.15,0,0,0,.05.5,1.22,1.22,0,0,0,.25.45,4,4,0,0,0,.95.6l.4,2.15a.89.89,0,0,0,.05.1,14.11,14.11,0,0,0,.95,2.55v0l.6,1.1a1.29,1.29,0,0,0,.2.25l.15.25a1,1,0,0,0,.2.25l.4.45-.1,0a9.35,9.35,0,0,0,2.15,1.8v.05a1,1,0,0,0,.75.2l.15.3a1.24,1.24,0,0,0,.1.2l.2.3.1.2.05.1,1.5,2.2.15.15.1.1.3.4a.23.23,0,0,0,.05.05l1.45,1.55c0,.05.07.09.1.1l2.45,2a.48.48,0,0,0,.15.1l.6.4a1,1,0,0,0,.3.2,1.26,1.26,0,0,0,1.9-.45.54.54,0,0,0,.15-.35l1.85,2.4a.92.92,0,0,0,.35.3l.1.1.05.05,1.95,1.55a.48.48,0,0,0,.15.1l1.75.95.15.1.9.3h.1c.89.24,1.44,0,1.65-.8a1.13,1.13,0,0,0,0-1.15l-2.55-5.45.65.5.1.1a.47.47,0,0,1,.05.1l2.35,1.8.2.1.2.1,1.75,1.1.15.05L438,266l.1.05.7.25h.1l.4.2h.05a1.17,1.17,0,0,0,1.2,0,1.21,1.21,0,0,0,.75-.85.11.11,0,0,0,.05-.1,1.36,1.36,0,0,0-.05-.95.81.81,0,0,0-.1-.3l-2.25-3.7,1.65,1.35a.35.35,0,0,0,.15.1l1.95,1.05a.57.57,0,0,0,.25.1,1,1,0,0,0,.2.25l.2.15.35.45a1.22,1.22,0,0,0,.35.3l.15.15.05.05.65.55a.87.87,0,0,0,.3.2l.15.05.05,0a1,1,0,0,0,.25.2l.65.35.15.05.45.15h0l.1.1a.88.88,0,0,0,.3.1l1.2.3a.56.56,0,0,0,.25.05h.2l.2.05h.2l.2.05h.05l3.55-.2a.16.16,0,0,0,.1-.05l1-.15h.05a.6.6,0,0,0,.35-.1.53.53,0,0,0,.25-.05l.2-.05-.3.1,2.7-.4h.15a1,1,0,0,0,.45-.1l.55-.05h.6a.25.25,0,0,0,.15-.05l.05.05a1,1,0,0,0,.6.2h.05l-.25-.25-.25-.25a.33.33,0,0,0,.2.05l-.74-.74h.19l.55-.05h.1v.15a1,1,0,0,0,.3.5l-.25-.6,0-.05h0l.05.1V265h.05l0,.1.05.05.15.1h.1l-.1.05h.1l-.25.1h.1l.2.1a1.34,1.34,0,0,0,.35.05h0l-.2-.2.05-.05v-.1l.15-.1-.3.15.1-.1h.05l.1-.1,0-.1.05-.15-.05-.1v-.15l.2.4a.81.81,0,0,0-.15-.45v-.05h-.05l0,0v0l0,.1h0l-.05-.1-.05,0-.15-.1h-.25l-.1.1h-.05l-.1.1-.05.1-.12-.07.17-.08v0l.25-.1,0-.05.05.05.15-.05h-.1l.15-.1h0a.84.84,0,0,0-.5-.15h-.05l.25.25a.83.83,0,0,0-.3.2l-.08.08-1.26-.71.59,0h.15l.1-.1a1.57,1.57,0,0,1,.25-.2l-.1.1-.1.1.7-.3h-.35l-1.6-.9h.15A1.26,1.26,0,0,0,459.7,261l.05-.35v-.35l.05-.35v-.15l.2-1.35.05-.2a.94.94,0,0,0,.05-.3l0-.33.25-1a.25.25,0,0,1-.15.05h-.05l.1-.05a.36.36,0,0,0,.15-.15l-.05.1v0h.25l.15.05h.1l.15.05a1,1,0,0,0,.25.2l.2.1.95.6a.78.78,0,0,0,.25.15s.05,0,.05.05l.1,0,.4.2a.37.37,0,0,0,.15,0l.2.1a1,1,0,0,0,.45.1l.15,0,.1.05h.15l.25.05h.35a.94.94,0,0,0,.3-.05l.6-.2a1,1,0,0,0,.4-.25l.1-.1.1,0,.5-.45a.62.62,0,0,0,.15-.2l.3-.5a.63.63,0,0,0,.1-.2.87.87,0,0,0,.2-.35l.2-.55a1.22,1.22,0,0,0,.05-.25l.05-.15a.83.83,0,0,0,0-.2l.1-.8v-.15l.15-.65v-.05l.15-1.8a.66.66,0,0,1-.2-.25.82.82,0,0,1-.6.25h-.05l.5-.55a.52.52,0,0,1-.25-.2.94.94,0,0,1-.15-.3l.05-.05v0h0l.1-.1v-.05h.05l.05-.05h0l.05,0h.07a1,1,0,0,0-.07.35v.5l.05.05h-.05l.05,0-.05.05h.05v0s.06.07.05.1h.05a.14.14,0,0,0,.1-.05l.05-.1h.05l.05,0v-.35l0-.1v-.05l.05,0a.66.66,0,0,0,.05.25,1.3,1.3,0,0,1-.1.15l.05-.05.05-.05v.25h.15l.1.1-.4-.1v.15l-.05.2a.8.8,0,0,0,.2.15l.1.05a.93.93,0,0,0,.65.25h.25a.6.6,0,0,0,.35-.1l0,0,.35.3.15.1.35.3.05,0,1.1,1.35.4.8-.05-.4.05.15a.8.8,0,0,0,.15.5.16.16,0,0,1,0,.1l.15.4c0,.07.07.14.1.2a1,1,0,0,0,.65.6,1,1,0,0,0,1-.15.62.62,0,0,0,.3-.35v.1l2.25-2.9-.05.05,7.35-8,9.15-7.35.3-.15a4.68,4.68,0,0,0,2.05.15l.05,0a5.25,5.25,0,0,0,3.4-1.85l-.05.05a7.38,7.38,0,0,0,.55-.6.56.56,0,0,0,.1-.15l.2-.3a2.84,2.84,0,0,0,.55-.4h.05a1.42,1.42,0,0,0,.7-1.2l.45-.25v1.25c0,1,.47,1.45,1.5,1.45a1.28,1.28,0,0,0,1.35-1l-.05,0a17.15,17.15,0,0,1,1.3-2.5l-.05.05a23.59,23.59,0,0,1,1.8-2.3,23.3,23.3,0,0,1,2-1.95l-.1,0,5-3.45c.78-.46,1.63-.93,2.55-1.4a.12.12,0,0,0,0,0l10.8-6.05s0,0,0-.05a29.17,29.17,0,0,0,4.9-4.15V213l.3-.2a.55.55,0,0,0,.15-.2l.55-.6a.55.55,0,0,0,.15-.2l.25-.35.7-1a15.62,15.62,0,0,0,1.65-2.9,13.83,13.83,0,0,0,1-3.25.25.25,0,0,0,.05-.15l0-.4,0-.2v-.2l.05-.4v-.2l0-.2,0-2.05a1.17,1.17,0,0,0-.05-.3v0a.74.74,0,0,0,0-.25l0-.4a.17.17,0,0,0,0-.1.87.87,0,0,0-.1-.25,8.84,8.84,0,0,0-.45-1.65,16.66,16.66,0,0,0-1.5-3.05s0,0,0,0l-.45-.65a.93.93,0,0,0-.1-.1l0-.05-.25-.45a.93.93,0,0,0-.1-.1l-1-1.2a27.5,27.5,0,0,0-2.2-2.35l-5.8-5.5a1.06,1.06,0,0,0-.15-.15l-.15-.15a.8.8,0,0,0-.15-.2l-.05-.05,0,0-.3-.25c-.73-.8-1.34-1.53-1.85-2.2l0,.05-1.45-2.35,0-.1a13.18,13.18,0,0,1-.9-2.65,24.08,24.08,0,0,1-.3-2.85,20.93,20.93,0,0,1,.15-2.85v0l.1-1,.7-3a.42.42,0,0,0,0-.2V166l.05,0v-.1l0-.2,0,.3.5-1.45-.05.05c.4-1,1-2.39,1.85-4.15l1,.05,2.95,1.5a.82.82,0,0,0,.45.1.85.85,0,0,0,.25-.05.88.88,0,0,0,.6-.45.58.58,0,0,0,0-.14l.15.09c.72.42,1.58,1,2.58,1.66a.89.89,0,0,0-.13.14,1.09,1.09,0,0,0-.15.75.65.65,0,0,1,0,.15,4.89,4.89,0,0,1,.5.35l-.1.15a.56.56,0,0,1,.15.1l.2.15.25.15s0,0,.05,0l7.6,5.3,1.45,1,.65.65.1.1a2.91,2.91,0,0,1,.9.9l.1.15a9.08,9.08,0,0,1,.4.95l.1.1c.29.48.54.86.75,1.15l0,.05a3.64,3.64,0,0,0,2.5,1.15,8.13,8.13,0,0,0,1.85,0q1.8,1.23,3.65,2.45h0l8,5.55,0,0q4,2.42,6.65,3.8s.05,0,.05.05l3.4,1.65c1.14.55,2.36,1.07,3.65,1.55v-.05a41.06,41.06,0,0,0,7.45,2.2l0,0,8.25,1.15h.3l2.8.3c1.26.16,2.46.34,3.6.55a.49.49,0,0,0,.2.05l.25.05h.1l.15,0-.2,0,1.4.35.15,0a.46.46,0,0,0,.2.05l.35.1,4.4,1.6q3.24,1.41,6.65,3.2l13.1,7.6,0,.05c1.23.63,2.4,1.18,3.5,1.65a0,0,0,0,0,0,0,13.79,13.79,0,0,0,1.9.7h-.05a10.35,10.35,0,0,0,2,.5l3.9,1.25a1.17,1.17,0,0,0,.3,0h.05l7,1.55.15.05,24.6,1.8h1.1l.1.05,3.25,0c2.53.07,4.43.15,5.7.25l5.75.45c1.27.14,3.16.4,5.65.8l0,0a64.17,64.17,0,0,1,10.95,2.9l.35.15a.16.16,0,0,0,.1,0,.26.26,0,0,0,.15.05l4.5,2.15a41.3,41.3,0,0,1,4.65,3h0a38.46,38.46,0,0,1,4.15,3.7h.05a37.2,37.2,0,0,1,3.55,4.25l0,.05a30.12,30.12,0,0,1,2.8,4.7,23.06,23.06,0,0,1,1.75,5.15,23.35,23.35,0,0,1,.55,5.3,1.57,1.57,0,0,0,0,.25l-.2,2.3v.15l-.6,2.7a24.7,24.7,0,0,1-.95,2.45.3.3,0,0,1-.05.1l-.2.4a.36.36,0,0,1-.1.15,1.24,1.24,0,0,1-.1.2l-.1.1-.95,1.35a9.66,9.66,0,0,1-1.75,1.75l0-.05-.45.4-.25.1-.35.25a10.5,10.5,0,0,1-1.2.55.3.3,0,0,1-.1.05,16,16,0,0,1-2.5.9l.05,0-5.6,1.55h0a12.28,12.28,0,0,0-1.6.5h.1l-.7.25-.15.05h-.05a1.09,1.09,0,0,1-.25.1l-2.65,1.55s0,0,0,0l-.3.25a.12.12,0,0,1-.1.05,15.29,15.29,0,0,0-2.25,2.15,23.56,23.56,0,0,0-1.75,2.55.93.93,0,0,1,0,.1c-.44.89-.86,1.81-1.25,2.75v.05a17.84,17.84,0,0,0-1.1,6.1v.05a27.67,27.67,0,0,0,.35,3.05v.05a29.07,29.07,0,0,0,1,2.95,1.16,1.16,0,0,0,.2.4l.2.4c.05.13.1.25.15.35l1,1.55a12.71,12.71,0,0,0,2.15,2.4,13.24,13.24,0,0,0,2.5,1.8A17.42,17.42,0,0,0,705,296v.05l.35.1s0,0,0,0l.2.1.15.05,1.4.4h.1a5.91,5.91,0,0,0,.65.15,15.85,15.85,0,0,0,3.1.45h0a13.78,13.78,0,0,0,3.1-.3,13.12,13.12,0,0,0,2.4-.6l.15.05.7.45.15.05,2.25.9a.31.31,0,0,0,.2,0l3.15.65a.24.24,0,0,0,.1.05l1,.1h.35l.25.05h.5a16,16,0,0,0,2.1.05h0a8.86,8.86,0,0,0,1.2-.05h.1a.42.42,0,0,0,.2-.05l1.85-.4a.28.28,0,0,0,.2-.05l1-.35h0a1,1,0,0,0,.35-.2l.1-.05a1,1,0,0,0,.25-.2l.15-.05.1,0-.1.1,1.7-1.25a.4.4,0,0,0,.1-.15l1.1-1.15a.64.64,0,0,0,.2-.2.44.44,0,0,0,.1-.15l.2-.3v.05l.3-.4,0,.05.4.35a1.73,1.73,0,0,0,.15.2l0,.05a.77.77,0,0,0,.15.1l.05.05.15.1a1,1,0,0,0,.25.2l.2.1-.1-.1.6.4a.61.61,0,0,0,.35.15.65.65,0,0,0,.2.15l.35.15.35.1.35.15h.05l.7.2a1.17,1.17,0,0,0,.3.05l3.4.3h.25a.94.94,0,0,0,.3,0h.25l2.9-.35.2-.05,3.2-1a.94.94,0,0,0,.4-.25l.15-.1-.2.15.55-.25,0-.05,1.5-.95a.44.44,0,0,0,.15-.1l.25-.2.4-.4.15-.1a1,1,0,0,0,.2-.25l.35-.45a.59.59,0,0,0,.2-.3l.2-.25a.4.4,0,0,0,.1-.15l.55-1.05s0,0,0-.05a6.8,6.8,0,0,0,.45-1.35,5.68,5.68,0,0,0,.2-1.2l.35-3.15V283.4l11.35-5.7.25-.1.05-.05,1.95-1.2a.36.36,0,0,0,.15-.1l.9-.8a.24.24,0,0,0,.1-.1,4.26,4.26,0,0,0,.75-1.1.61.61,0,0,0,.15-.35l.25-1a.49.49,0,0,0,0-.2l.05-1.55a.58.58,0,0,0-.05-.2l-.25-1.75a.36.36,0,0,0,0-.15.5.5,0,0,0,0-.15l-6.05-26.8q-1.71-7.24-3.75-15a2.33,2.33,0,0,0-.35-1.2s0,0,0,0l-4.05-14.65-5.85-18.8,0-.15-.1-.25-.1-.15a25,25,0,0,0-2.3-3.6l-1.4-1.55-.15-.15-.4-.3-.2-.2-.1-.05a.94.94,0,0,0-.1-.1l-.4-.3a1,1,0,0,0-.25-.2l-.35-.2.25.2-.2-.15-.05,0a.87.87,0,0,0-.35-.2l-.25-.1-1.7-.9-.15,0-.25-.05-.4-.2h0l.25.2-.1,0a1.16,1.16,0,0,0-.35-.25l-.5-.15h0a23.07,23.07,0,0,0-4.2-.85,38,38,0,0,0-4.15-.25h-.5l-.25,0-11.25.35c-.4,0-1,0-1.85-.1h.1l-2.7-.45-.1-.05-.15,0-.25-.05-2.3-.8a26.35,26.35,0,0,1-3.45-1.55c-1.17-.58-2.31-1.22-3.4-1.9l-8.55-5.2a1,1,0,0,0-.4-.25l-.15-.1-1.2-.65a.12.12,0,0,0,0-.05c-1.63-.81-2.88-1.4-3.75-1.75h-.05L693,169.1h0l-.15,0-.1-.05h0l-.25-.05-.05,0-1.45-.4c-.82-.19-2.17-.42-4.05-.7H687l-1-.15h-.45a.94.94,0,0,0-.3-.05h-.4l-5.8-.55a1.34,1.34,0,0,0-.35-.05h-.25l-3.45-.45a38,38,0,0,1-3.75-.85l.1.05-.45-.15s0,0-.05,0l-.2,0-.1-.05-.1-.05-2-.7-1.5-.75a1.15,1.15,0,0,0-.2-.15l-.5-.25-.05,0-.15-.1-.1,0a.94.94,0,0,0-.1-.1l-1.15-.9.05,0a25.83,25.83,0,0,1-2.6-2.7l-1-1.15a.83.83,0,0,0-.2-.3l-.05-.05,0-.1-29.15-54.9,30.75,26.9,4.95,3.95.05.05q4.77,3.61,6.3,4.7s0,0,0,.05l11.55,7.35.1.05,1.75.85a67.93,67.93,0,0,0,7.3,3.2h0l2.8.9h.1l.5.1,0,.05.15,0a.53.53,0,0,0,.2.05c1.78.43,3.1.71,3.95.85l0,0a58.32,58.32,0,0,0,8,.9h0l7.9,0c2.3-.17,4.91-.45,7.85-.85,0,0,0,0,0-.05l3.85-.65H730q3.7-.67,3.9-.75L746.2,148a.17.17,0,0,0,.1,0l2.8-.9a62,62,0,0,0,7.45-2.85h.05l2.65-1.3.1-.05,19.1-12.3,8.35-4.15a31.48,31.48,0,0,1,3.45-1.2l.7-.15h0l.15,0,1.45-.35-.1,0,.7-.1a.77.77,0,0,0,.25-.1l.5,0h0l.35,0h.1a.73.73,0,0,0,.3-.05h.45a.73.73,0,0,0,.3,0l2.55,0,.25,0h.1l1.45.15h.1l.25,0h.1l1.35.25a.49.49,0,0,0,.2,0h.25l5.5,1.6h-.05l1.15.45a.2.2,0,0,0,.15,0,.24.24,0,0,0,.1.05l10.9,4.2a.21.21,0,0,0,.15.05l6.35,1.25a.58.58,0,0,0,.2,0h1a13.88,13.88,0,0,0,2.15-.2.12.12,0,0,0,0-.05,9.48,9.48,0,0,0,2.15-.65.11.11,0,0,0,.1-.05l1.35-.7a.33.33,0,0,0,.15-.05l.45-.3.1-.1.2-.2.1-.05.1-.1.2-.15a1,1,0,0,0,.2-.25l.7-.75a8.16,8.16,0,0,0,1.2-1.9,9,9,0,0,0,.9-2,.17.17,0,0,0,0-.1l.15-.5.3-1.5a.49.49,0,0,0,0-.2l.05-.1v-.15l0-.25v-.25l0-.25v.1l.1-1v0A20.62,20.62,0,0,0,838.2,116.45ZM437.05,258.2v.05l-.05-.15ZM111.35,294l-.25-.2.15.1Zm340.35-35.5.15.15-.1-.05Zm-.65.45h.1l.15.05Zm-101.15-67,.1,0-.15,0Zm78.45,67.75.1.05-.15-.05ZM694.55,124l-.1,0-.05-.05ZM574.1,25.7l-.1-.05,0,0ZM63.45,55.25l-.05,0h-.1Zm-12.4,9.1-.1.05H50.9Zm-45.2,90.4H5.9l.1.05Zm48.6,33h0l.1.05Zm47.5-24.1h.1l.1,0Zm30.3-16.85h-.05l-.12-.06,0,0A.28.28,0,0,0,132.25,146.8Zm-.85-1.05h-.1l-.08,0,.15-.08Zm-81,131.8,0,.05h-.1Zm11.19,23Zm157.76-85.29v-.05l.05-.1Zm3.65-6.2V209l.05-.15Zm81.5,83.4h.1l.15.05Zm40.1-9.25-.05.1v-.2l.05,0Zm1-.1.07-.18v.23Zm16.11-7.8-.05.15.05-.2Zm8.93-16a2.28,2.28,0,0,0,0-.27c0-.05,0-.1,0-.16l.11.16.13.17Zm-1.38-11.07v0l.05,0h.57l-.36.58ZM357.1,222.9l.36.06-.09.21Zm124.6-28.65-.05.15-.1,0Zm-.05.3,0,.15h-.05Zm-72.8,41.65-.05.05h-.05Zm-.75.45-.05.15H408Zm50.95,28.15v.35l-.62-.35h0a4.39,4.39,0,0,1,.58,0Zm4.55-6.6h.1l.15.05Zm5.15-7.9,0-.13.09,0h-.05l.05,0S468.76,250.27,468.75,250.3Zm4.4,5.1,0,0,0-.1Zm2,.15v-.1l0,0ZM700.3,221.3h.1l.15,0ZM696,287.65l0-.3,0,.2Zm.4.75v.05l0-.25,0,.15ZM717,296.5h0l.15.05Zm20.95-1.65H738l.1,0Zm-69-129.8-.1-.05-.1-.1Z"/></g></g></svg>