<svg xmlns="http://www.w3.org/2000/svg" viewBox="0 0 325.09 363.44"><defs><style>.cls-1{fill:#231f20;}</style></defs><g id="Layer_2" data-name="Layer 2"><g id="Layer_1-2" data-name="Layer 1"><path class="cls-1" d="M324.92,311.08c-.93-5.78,0-21.76,0-21.76s-26.91-26.87-27.84-34,1.85-33.67,2.47-37.75,4.33-16.67,4.95-25.51-1.23-13.61-4-24.49-7.42-12.24-8.66-15S281,144.43,281,144.43l-7.42-3.06c-9-11.9-54.76-14.62-54.76-14.62l-9.9-.34c-9.89-.34-18.56-1.7-28.77-2s-28.46-4.08-37.74-6.8-32.48-15.65-32.48-15.65c-4.33-2-10.83-7.82-12.68-10.54S86.1,70.63,81.15,61.79s-3.4-4.08-10.21-13.94S55.48,1.76,55.48,1.76L55.17.23c0-1.7-2.79,6.46-3.41,8.16s-.31,19.39-.61,15.31-.62,11.22-4.34,7.14S45,24.72,42.48,20.3s.93-10.55,1.24-12.59,4.64-5.44,3.4-5.78-4.64,3.4-6.18,4.42S36.3,26.08,35.68,30.84,30.11,38,26.4,39.68s-6.81,8.51-5.88,9.53a4.69,4.69,0,0,1-2.78,7.14C13.09,57.71,3.5,62.81,2.27,64.17S-1.13,68.25.72,70-.51,74.37.72,82.2,10,95.46,12.48,93.76s4.64-2,5.57-1.7,5.56,6.12,8.35,3.06,4.33-.68,7.73-2.38A18.94,18.94,0,0,0,40.94,87c1.23-1.7,6.49,11.22,6.49,11.22,4,4.76,7.74,29.25,10.21,37.07s-.93,22.11-2.47,27.89S58,184.91,61,190s15.78,29.25,18.26,35.71,4.64,43.53,5.56,52.71l3.41,33.67s-1.55,20.07-5.88,19-9,4.42-13,8.84c0,0,3.09,8.51,5.56,9.19s6.5-1.37,9.6,0,5.25-3.41,9.89-6.13,5.57-21.42,5-25.5c-.43-2.85,3-2.39,4.41-2,1.18-.4,5.1-1.61,2.09-7.23-4-7.48-.62-44.21-1.24-48.63s4-21.09,3.41-24.15,1.54-9.52,1.54-9.52c2.48,3.4,14.85-2,23.82-2.72s74.25-15.65,76.1-16,7.12-2.38,9.27-.34.32,8.84,0,10.89,7.43,0,10.83-2.05,5,.35,5,.35c5.76,23.72,45.48,62.92,45.48,62.92,13.3,13.26,13,25.84,14.54,32.65s.61,14.62-1.55,19-4.64,2.72-8.35,4.42-3.1,9.86,1.23,11.91,7.43,1,13.3,0,5.88-9.87,5.57-16.33,2.17-15.3,2.48-18,.62-4.08.62-4.08c7.77,8.12,1.85,34.35,1.85,34.35s-13.92,6.8-10.52,16.33,13.31-.68,13.31-.68l2.16,3.06s6.81-4.08,7.74-10.2.31-13.27.31-17.69S325.85,316.87,324.92,311.08ZM294.29,208.6c-.3,1.7-1,9.41-4,11.34s1.65-26.3,1.35-30.16a8.4,8.4,0,0,1,2.67-6.46c.52,1.59.83,9.07.93,11.68A126.11,126.11,0,0,1,294.29,208.6Z"/></g></g></svg>