<svg xmlns="http://www.w3.org/2000/svg" viewBox="0 0 186.79 186.79"><defs><style>.cls-1{fill:#e3e0e4;stroke:#231f20;}.cls-2{fill:#d4cfd5;}.cls-3{fill:#c5bec6;}</style></defs><g id="Layer_2" data-name="Layer 2"><g id="Layer_2-2" data-name="Layer 2"><circle class="cls-1" cx="93.39" cy="93.39" r="92.89"/><circle class="cls-2" cx="137.5" cy="56.78" r="10.18"/><path class="cls-3" d="M146.56,61.41A10.18,10.18,0,1,1,132.4,48a10,10,0,0,0-1.12,4.63,10.18,10.18,0,0,0,15.28,8.8Z"/><circle class="cls-2" cx="49.63" cy="79.57" r="16.55"/><path class="cls-3" d="M64.38,87.09a16.55,16.55,0,1,1-23-21.85,16.36,16.36,0,0,0-1.82,7.54A16.56,16.56,0,0,0,64.38,87.09Z"/><circle class="cls-2" cx="91.39" cy="149.44" r="16.55"/><path class="cls-3" d="M106.14,157a16.55,16.55,0,1,1-23-21.85,16.29,16.29,0,0,0-1.82,7.53A16.56,16.56,0,0,0,106.14,157Z"/><circle class="cls-2" cx="144.5" cy="133.88" r="10.18"/><path class="cls-3" d="M153.56,138.51a10.18,10.18,0,1,1-14.16-13.43,10,10,0,0,0-1.12,4.63,10.18,10.18,0,0,0,15.28,8.8Z"/><circle class="cls-2" cx="156.75" cy="99.7" r="6.54"/><path class="cls-3" d="M162.57,102.67a6.53,6.53,0,1,1-9.09-8.62,6.45,6.45,0,0,0-.72,3,6.53,6.53,0,0,0,9.81,5.65Z"/><circle class="cls-2" cx="92.85" cy="87.41" r="6.54"/><circle class="cls-2" cx="22.9" cy="111.7" r="6.54"/><path class="cls-3" d="M28.73,114.66a6.54,6.54,0,1,1-9.1-8.62,6.45,6.45,0,0,0-.72,3,6.54,6.54,0,0,0,9.82,5.65Z"/><circle class="cls-2" cx="97.36" cy="29.31" r="6.54"/><path class="cls-3" d="M103.18,32.28a6.53,6.53,0,1,1-9.09-8.62,6.33,6.33,0,0,0-.72,3,6.53,6.53,0,0,0,9.81,5.65Z"/><circle class="cls-2" cx="169.78" cy="76.81" r="3.57"/><circle class="cls-2" cx="132.99" cy="156.16" r="3.57"/><path class="cls-3" d="M136.17,157.79a3.57,3.57,0,1,1-5-4.72,3.45,3.45,0,0,0-.4,1.63,3.57,3.57,0,0,0,5.36,3.09Z"/><circle class="cls-2" cx="48.29" cy="134.81" r="3.57"/><circle class="cls-2" cx="53.19" cy="46.61" r="3.57"/><circle class="cls-2" cx="124.34" cy="28.32" r="3.57"/></g></g></svg>