<svg xmlns="http://www.w3.org/2000/svg" viewBox="0 0 1194 1194"><defs><style>.cls-1{fill:#efefef;}.cls-2{fill:#f7ff08;}.cls-3{fill:#010101;opacity:0.4;}.cls-4{fill:#7dff6f;}.cls-5{fill:#ff6b83;}.cls-6{fill:#5aa1ff;}</style></defs><g id="Layer_2" data-name="Layer 2"><g id="Layer_1-2" data-name="Layer 1"><rect class="cls-1" width="1194" height="1194" rx="203.93"/><rect class="cls-2" x="198.5" y="183" width="368" height="368" rx="102.49"/><path class="cls-3" d="M552.66,500A102.44,102.44,0,0,1,464,551H301A102.5,102.5,0,0,1,198.5,448.5v-163a102.45,102.45,0,0,1,51.35-88.84A101.88,101.88,0,0,0,236,248.11v163A102.49,102.49,0,0,0,338.49,513.62h163A102,102,0,0,0,552.66,500Z"/><rect class="cls-4" x="627.5" y="183" width="368" height="368" rx="102.49"/><path class="cls-3" d="M981.66,500A102.44,102.44,0,0,1,893,551H730A102.5,102.5,0,0,1,627.5,448.5v-163a102.45,102.45,0,0,1,51.35-88.84A101.88,101.88,0,0,0,665,248.11v163A102.49,102.49,0,0,0,767.49,513.62h163A102,102,0,0,0,981.66,500Z"/><rect class="cls-5" x="198.5" y="643" width="368" height="368" rx="102.49"/><path class="cls-3" d="M552.66,960A102.44,102.44,0,0,1,464,1011H301A102.5,102.5,0,0,1,198.5,908.5v-163a102.45,102.45,0,0,1,51.35-88.84A101.88,101.88,0,0,0,236,708.11v163A102.49,102.49,0,0,0,338.49,973.62h163A102,102,0,0,0,552.66,960Z"/><rect class="cls-6" x="627.5" y="643" width="368" height="368" rx="102.49"/><path class="cls-3" d="M981.66,960A102.44,102.44,0,0,1,893,1011H730A102.5,102.5,0,0,1,627.5,908.5v-163a102.45,102.45,0,0,1,51.35-88.84A101.88,101.88,0,0,0,665,708.11v163A102.49,102.49,0,0,0,767.49,973.62h163A102,102,0,0,0,981.66,960Z"/></g></g></svg>