<svg xmlns="http://www.w3.org/2000/svg" viewBox="0 0 11104 5234"><defs><style>.cls-1{fill:#feff61;}</style></defs><g id="Layer_2" data-name="Layer 2"><g id="Layer_1-2" data-name="Layer 1"><circle class="cls-1" cx="5106" cy="4936" r="8"/><circle class="cls-1" cx="5557" cy="4878" r="8"/><circle class="cls-1" cx="5604" cy="5226" r="8"/><circle class="cls-1" cx="4754" cy="4644" r="8"/><circle class="cls-1" cx="5027" cy="5183" r="8"/><circle class="cls-1" cx="4449" cy="4576" r="8"/><circle class="cls-1" cx="5090" cy="4521" r="8"/><circle class="cls-1" cx="6264" cy="3952" r="8"/><circle class="cls-1" cx="6098" cy="3560" r="8"/><circle class="cls-1" cx="6021" cy="4273" r="8"/><circle class="cls-1" cx="6152" cy="4568" r="8"/><circle class="cls-1" cx="5488" cy="3921" r="8"/><circle class="cls-1" cx="5549" cy="3653" r="8"/><circle class="cls-1" cx="4588" cy="3801" r="8"/><circle class="cls-1" cx="4707" cy="3552" r="8"/><circle class="cls-1" cx="4356" cy="3592" r="8"/><circle class="cls-1" cx="6399" cy="3693" r="8"/><circle class="cls-1" cx="6567" cy="3872" r="8"/><circle class="cls-1" cx="6511" cy="4127" r="8"/><circle class="cls-1" cx="6551" cy="4437" r="8"/><circle class="cls-1" cx="5098" cy="3727" r="8"/><circle class="cls-1" cx="5200" cy="3516" r="8"/><circle class="cls-1" cx="4762" cy="3944" r="8"/><circle class="cls-1" cx="4340" cy="3960" r="8"/><circle class="cls-1" cx="4770" cy="4329" r="8"/><circle class="cls-1" cx="4482" cy="4192" r="8"/><circle class="cls-1" cx="5141" cy="4067" r="8"/><circle class="cls-1" cx="4699" cy="4988" r="8"/><circle class="cls-1" cx="4411" cy="5191" r="8"/><circle class="cls-1" cx="4419" cy="4944" r="8"/><circle class="cls-1" cx="6272" cy="4878" r="8"/><circle class="cls-1" cx="6223" cy="5183" r="8"/><circle class="cls-1" cx="6519" cy="5183" r="8"/><circle class="cls-1" cx="5879" cy="3793" r="8"/><circle class="cls-1" cx="5847" cy="4075" r="8"/><circle class="cls-1" cx="5871" cy="5145" r="8"/><circle class="cls-1" cx="5308" cy="5106" r="8"/><circle class="cls-1" cx="6369" cy="4429" r="8"/><circle class="cls-1" cx="6535" cy="4781" r="8"/><circle class="cls-1" cx="5855" cy="4677" r="8"/><circle class="cls-1" cx="5106" cy="3210" r="8"/><circle class="cls-1" cx="5557" cy="3152" r="8"/><circle class="cls-1" cx="5604" cy="3500" r="8"/><circle class="cls-1" cx="4754" cy="2918" r="8"/><circle class="cls-1" cx="5027" cy="3457" r="8"/><circle class="cls-1" cx="4449" cy="2850" r="8"/><circle class="cls-1" cx="5090" cy="2795" r="8"/><circle class="cls-1" cx="6264" cy="2226" r="8"/><circle class="cls-1" cx="6098" cy="1834" r="8"/><circle class="cls-1" cx="6021" cy="2547" r="8"/><circle class="cls-1" cx="6152" cy="2842" r="8"/><circle class="cls-1" cx="5488" cy="2195" r="8"/><circle class="cls-1" cx="5549" cy="1927" r="8"/><circle class="cls-1" cx="4588" cy="2075" r="8"/><circle class="cls-1" cx="4707" cy="1826" r="8"/><circle class="cls-1" cx="4356" cy="1866" r="8"/><circle class="cls-1" cx="6399" cy="1967" r="8"/><circle class="cls-1" cx="6567" cy="2146" r="8"/><circle class="cls-1" cx="6511" cy="2401" r="8"/><circle class="cls-1" cx="6551" cy="2711" r="8"/><circle class="cls-1" cx="5098" cy="2001" r="8"/><circle class="cls-1" cx="5200" cy="1790" r="8"/><circle class="cls-1" cx="4762" cy="2218" r="8"/><circle class="cls-1" cx="4340" cy="2234" r="8"/><circle class="cls-1" cx="4770" cy="2603" r="8"/><circle class="cls-1" cx="4482" cy="2466" r="8"/><circle class="cls-1" cx="5141" cy="2341" r="8"/><circle class="cls-1" cx="4699" cy="3262" r="8"/><circle class="cls-1" cx="4411" cy="3465" r="8"/><circle class="cls-1" cx="4419" cy="3218" r="8"/><circle class="cls-1" cx="6272" cy="3152" r="8"/><circle class="cls-1" cx="6223" cy="3457" r="8"/><circle class="cls-1" cx="6519" cy="3457" r="8"/><circle class="cls-1" cx="5879" cy="2067" r="8"/><circle class="cls-1" cx="5847" cy="2349" r="8"/><circle class="cls-1" cx="5820" cy="2845" r="8"/><circle class="cls-1" cx="5881" cy="2577" r="8"/><circle class="cls-1" cx="5430" cy="2651" r="8"/><circle class="cls-1" cx="5532" cy="2440" r="8"/><circle class="cls-1" cx="5473" cy="2991" r="8"/><circle class="cls-1" cx="6211" cy="2717" r="8"/><circle class="cls-1" cx="6179" cy="2999" r="8"/><circle class="cls-1" cx="5871" cy="3419" r="8"/><circle class="cls-1" cx="5308" cy="3380" r="8"/><circle class="cls-1" cx="6369" cy="2703" r="8"/><circle class="cls-1" cx="6535" cy="3055" r="8"/><circle class="cls-1" cx="5855" cy="2951" r="8"/><circle class="cls-1" cx="4922" cy="2677" r="8"/><circle class="cls-1" cx="5321" cy="2546" r="8"/><circle class="cls-1" cx="4590" cy="2680" r="8"/><circle class="cls-1" cx="4651" cy="2412" r="8"/><circle class="cls-1" cx="4981" cy="2552" r="8"/><circle class="cls-1" cx="4949" cy="2834" r="8"/><circle class="cls-1" cx="5139" cy="2538" r="8"/><circle class="cls-1" cx="4625" cy="2786" r="8"/><circle class="cls-1" cx="7349" cy="4936" r="8"/><circle class="cls-1" cx="7800" cy="4878" r="8"/><circle class="cls-1" cx="7847" cy="5226" r="8"/><circle class="cls-1" cx="6997" cy="4644" r="8"/><circle class="cls-1" cx="7270" cy="5183" r="8"/><circle class="cls-1" cx="6692" cy="4576" r="8"/><circle class="cls-1" cx="7333" cy="4521" r="8"/><circle class="cls-1" cx="8507" cy="3952" r="8"/><circle class="cls-1" cx="8341" cy="3560" r="8"/><circle class="cls-1" cx="8264" cy="4273" r="8"/><circle class="cls-1" cx="8395" cy="4568" r="8"/><circle class="cls-1" cx="7731" cy="3921" r="8"/><circle class="cls-1" cx="7792" cy="3653" r="8"/><circle class="cls-1" cx="6831" cy="3801" r="8"/><circle class="cls-1" cx="6950" cy="3552" r="8"/><circle class="cls-1" cx="6599" cy="3592" r="8"/><circle class="cls-1" cx="8642" cy="3693" r="8"/><circle class="cls-1" cx="8810" cy="3872" r="8"/><circle class="cls-1" cx="8754" cy="4127" r="8"/><circle class="cls-1" cx="8794" cy="4437" r="8"/><circle class="cls-1" cx="7341" cy="3727" r="8"/><circle class="cls-1" cx="7443" cy="3516" r="8"/><circle class="cls-1" cx="7005" cy="3944" r="8"/><circle class="cls-1" cx="6583" cy="3960" r="8"/><circle class="cls-1" cx="7013" cy="4329" r="8"/><circle class="cls-1" cx="6725" cy="4192" r="8"/><circle class="cls-1" cx="7384" cy="4067" r="8"/><circle class="cls-1" cx="6942" cy="4988" r="8"/><circle class="cls-1" cx="6654" cy="5191" r="8"/><circle class="cls-1" cx="6662" cy="4944" r="8"/><circle class="cls-1" cx="8515" cy="4878" r="8"/><circle class="cls-1" cx="8466" cy="5183" r="8"/><circle class="cls-1" cx="8762" cy="5183" r="8"/><circle class="cls-1" cx="8122" cy="3793" r="8"/><circle class="cls-1" cx="8090" cy="4075" r="8"/><circle class="cls-1" cx="8114" cy="5145" r="8"/><circle class="cls-1" cx="7551" cy="5106" r="8"/><circle class="cls-1" cx="8612" cy="4429" r="8"/><circle class="cls-1" cx="8778" cy="4781" r="8"/><circle class="cls-1" cx="8098" cy="4677" r="8"/><circle class="cls-1" cx="7349" cy="3210" r="8"/><circle class="cls-1" cx="7800" cy="3152" r="8"/><circle class="cls-1" cx="7847" cy="3500" r="8"/><circle class="cls-1" cx="6997" cy="2918" r="8"/><circle class="cls-1" cx="7270" cy="3457" r="8"/><circle class="cls-1" cx="6692" cy="2850" r="8"/><circle class="cls-1" cx="7333" cy="2795" r="8"/><circle class="cls-1" cx="8507" cy="2226" r="8"/><circle class="cls-1" cx="8341" cy="1834" r="8"/><circle class="cls-1" cx="8264" cy="2547" r="8"/><circle class="cls-1" cx="8395" cy="2842" r="8"/><circle class="cls-1" cx="7731" cy="2195" r="8"/><circle class="cls-1" cx="7792" cy="1927" r="8"/><circle class="cls-1" cx="6831" cy="2075" r="8"/><circle class="cls-1" cx="6950" cy="1826" r="8"/><circle class="cls-1" cx="6599" cy="1866" r="8"/><circle class="cls-1" cx="8642" cy="1967" r="8"/><circle class="cls-1" cx="8810" cy="2146" r="8"/><circle class="cls-1" cx="8754" cy="2401" r="8"/><circle class="cls-1" cx="8794" cy="2711" r="8"/><circle class="cls-1" cx="7341" cy="2001" r="8"/><circle class="cls-1" cx="7443" cy="1790" r="8"/><circle class="cls-1" cx="7005" cy="2218" r="8"/><circle class="cls-1" cx="6583" cy="2234" r="8"/><circle class="cls-1" cx="7013" cy="2603" r="8"/><circle class="cls-1" cx="6725" cy="2466" r="8"/><circle class="cls-1" cx="7384" cy="2341" r="8"/><circle class="cls-1" cx="6942" cy="3262" r="8"/><circle class="cls-1" cx="6654" cy="3465" r="8"/><circle class="cls-1" cx="6662" cy="3218" r="8"/><circle class="cls-1" cx="8515" cy="3152" r="8"/><circle class="cls-1" cx="8466" cy="3457" r="8"/><circle class="cls-1" cx="8762" cy="3457" r="8"/><circle class="cls-1" cx="8122" cy="2067" r="8"/><circle class="cls-1" cx="8090" cy="2349" r="8"/><circle class="cls-1" cx="8114" cy="3419" r="8"/><circle class="cls-1" cx="7551" cy="3380" r="8"/><circle class="cls-1" cx="8609" cy="4701" r="8"/><circle class="cls-1" cx="8443" cy="4309" r="8"/><circle class="cls-1" cx="7833" cy="4670" r="8"/><circle class="cls-1" cx="7894" cy="4402" r="8"/><circle class="cls-1" cx="7443" cy="4476" r="8"/><circle class="cls-1" cx="7545" cy="4265" r="8"/><circle class="cls-1" cx="8224" cy="4542" r="8"/><circle class="cls-1" cx="7949" cy="4249" r="8"/><circle class="cls-1" cx="8568" cy="4206" r="8"/><circle class="cls-1" cx="8216" cy="4168" r="8"/><circle class="cls-1" cx="7653" cy="4129" r="8"/><circle class="cls-1" cx="8612" cy="2703" r="8"/><circle class="cls-1" cx="8778" cy="3055" r="8"/><circle class="cls-1" cx="8098" cy="2951" r="8"/><circle class="cls-1" cx="9592" cy="4936" r="8"/><circle class="cls-1" cx="10043" cy="4878" r="8"/><circle class="cls-1" cx="10090" cy="5226" r="8"/><circle class="cls-1" cx="9240" cy="4644" r="8"/><circle class="cls-1" cx="9513" cy="5183" r="8"/><circle class="cls-1" cx="8935" cy="4576" r="8"/><circle class="cls-1" cx="9576" cy="4521" r="8"/><circle class="cls-1" cx="10750" cy="3952" r="8"/><circle class="cls-1" cx="10584" cy="3560" r="8"/><circle class="cls-1" cx="10507" cy="4273" r="8"/><circle class="cls-1" cx="10638" cy="4568" r="8"/><circle class="cls-1" cx="9974" cy="3921" r="8"/><circle class="cls-1" cx="10035" cy="3653" r="8"/><circle class="cls-1" cx="9074" cy="3801" r="8"/><circle class="cls-1" cx="9193" cy="3552" r="8"/><circle class="cls-1" cx="8842" cy="3592" r="8"/><circle class="cls-1" cx="10885" cy="3693" r="8"/><circle class="cls-1" cx="11053" cy="3872" r="8"/><circle class="cls-1" cx="10997" cy="4127" r="8"/><circle class="cls-1" cx="11037" cy="4437" r="8"/><circle class="cls-1" cx="9584" cy="3727" r="8"/><circle class="cls-1" cx="9686" cy="3516" r="8"/><circle class="cls-1" cx="9248" cy="3944" r="8"/><circle class="cls-1" cx="8826" cy="3960" r="8"/><circle class="cls-1" cx="9256" cy="4329" r="8"/><circle class="cls-1" cx="8968" cy="4192" r="8"/><circle class="cls-1" cx="9627" cy="4067" r="8"/><circle class="cls-1" cx="9185" cy="4988" r="8"/><circle class="cls-1" cx="8897" cy="5191" r="8"/><circle class="cls-1" cx="8905" cy="4944" r="8"/><circle class="cls-1" cx="10758" cy="4878" r="8"/><circle class="cls-1" cx="10709" cy="5183" r="8"/><circle class="cls-1" cx="11005" cy="5183" r="8"/><circle class="cls-1" cx="10365" cy="3793" r="8"/><circle class="cls-1" cx="10333" cy="4075" r="8"/><circle class="cls-1" cx="10357" cy="5145" r="8"/><circle class="cls-1" cx="9794" cy="5106" r="8"/><circle class="cls-1" cx="10855" cy="4429" r="8"/><circle class="cls-1" cx="11021" cy="4781" r="8"/><circle class="cls-1" cx="10341" cy="4677" r="8"/><circle class="cls-1" cx="9592" cy="3210" r="8"/><circle class="cls-1" cx="10043" cy="3152" r="8"/><circle class="cls-1" cx="10090" cy="3500" r="8"/><circle class="cls-1" cx="9240" cy="2918" r="8"/><circle class="cls-1" cx="9513" cy="3457" r="8"/><circle class="cls-1" cx="8935" cy="2850" r="8"/><circle class="cls-1" cx="9576" cy="2795" r="8"/><circle class="cls-1" cx="10750" cy="2226" r="8"/><circle class="cls-1" cx="10584" cy="1834" r="8"/><circle class="cls-1" cx="10507" cy="2547" r="8"/><circle class="cls-1" cx="10638" cy="2842" r="8"/><circle class="cls-1" cx="9974" cy="2195" r="8"/><circle class="cls-1" cx="10035" cy="1927" r="8"/><circle class="cls-1" cx="9074" cy="2075" r="8"/><circle class="cls-1" cx="9193" cy="1826" r="8"/><circle class="cls-1" cx="8842" cy="1866" r="8"/><circle class="cls-1" cx="10885" cy="1967" r="8"/><circle class="cls-1" cx="11053" cy="2146" r="8"/><circle class="cls-1" cx="10997" cy="2401" r="8"/><circle class="cls-1" cx="11037" cy="2711" r="8"/><circle class="cls-1" cx="9584" cy="2001" r="8"/><circle class="cls-1" cx="9686" cy="1790" r="8"/><circle class="cls-1" cx="9248" cy="2218" r="8"/><circle class="cls-1" cx="8826" cy="2234" r="8"/><circle class="cls-1" cx="9256" cy="2603" r="8"/><circle class="cls-1" cx="8968" cy="2466" r="8"/><circle class="cls-1" cx="9627" cy="2341" r="8"/><circle class="cls-1" cx="9185" cy="3262" r="8"/><circle class="cls-1" cx="8897" cy="3465" r="8"/><circle class="cls-1" cx="9787" cy="4268" r="8"/><circle class="cls-1" cx="9955" cy="4447" r="8"/><circle class="cls-1" cx="9899" cy="4702" r="8"/><circle class="cls-1" cx="9907" cy="4032" r="8"/><circle class="cls-1" cx="10219" cy="4376" r="8"/><circle class="cls-1" cx="10338" cy="4127" r="8"/><circle class="cls-1" cx="9987" cy="4167" r="8"/><circle class="cls-1" cx="10393" cy="4519" r="8"/><circle class="cls-1" cx="9971" cy="4535" r="8"/><circle class="cls-1" cx="10042" cy="4040" r="8"/><circle class="cls-1" cx="9643" cy="2750" r="8"/><circle class="cls-1" cx="9811" cy="2929" r="8"/><circle class="cls-1" cx="9763" cy="2514" r="8"/><circle class="cls-1" cx="10075" cy="2858" r="8"/><circle class="cls-1" cx="10194" cy="2609" r="8"/><circle class="cls-1" cx="9843" cy="2649" r="8"/><circle class="cls-1" cx="10249" cy="3001" r="8"/><circle class="cls-1" cx="9827" cy="3017" r="8"/><circle class="cls-1" cx="10186" cy="2319" r="8"/><circle class="cls-1" cx="9898" cy="2522" r="8"/><circle class="cls-1" cx="7773" cy="2777" r="8"/><circle class="cls-1" cx="7597" cy="2541" r="8"/><circle class="cls-1" cx="7791" cy="2880" r="8"/><circle class="cls-1" cx="7512" cy="3321" r="8"/><circle class="cls-1" cx="7451" cy="2886" r="8"/><circle class="cls-1" cx="7609" cy="2872" r="8"/><circle class="cls-1" cx="7775" cy="3224" r="8"/><circle class="cls-1" cx="8589" cy="3379" r="8"/><circle class="cls-1" cx="8237" cy="3087" r="8"/><circle class="cls-1" cx="7932" cy="3019" r="8"/><circle class="cls-1" cx="8573" cy="2964" r="8"/><circle class="cls-1" cx="8253" cy="2772" r="8"/><circle class="cls-1" cx="8182" cy="3431" r="8"/><circle class="cls-1" cx="7902" cy="3387" r="8"/><circle class="cls-1" cx="8791" cy="3549" r="8"/><circle class="cls-1" cx="9013" cy="2946" r="8"/><circle class="cls-1" cx="8837" cy="2710" r="8"/><circle class="cls-1" cx="7893" cy="2541" r="8"/><circle class="cls-1" cx="7973" cy="2676" r="8"/><circle class="cls-1" cx="8028" cy="2549" r="8"/><circle class="cls-1" cx="8905" cy="3218" r="8"/><circle class="cls-1" cx="10758" cy="3152" r="8"/><circle class="cls-1" cx="10709" cy="3457" r="8"/><circle class="cls-1" cx="11005" cy="3457" r="8"/><circle class="cls-1" cx="10365" cy="2067" r="8"/><circle class="cls-1" cx="10333" cy="2349" r="8"/><circle class="cls-1" cx="10357" cy="3419" r="8"/><circle class="cls-1" cx="9794" cy="3380" r="8"/><circle class="cls-1" cx="10855" cy="2703" r="8"/><circle class="cls-1" cx="11021" cy="3055" r="8"/><circle class="cls-1" cx="10341" cy="2951" r="8"/><circle class="cls-1" cx="5149" cy="1428" r="8"/><circle class="cls-1" cx="5600" cy="1370" r="8"/><circle class="cls-1" cx="4797" cy="1136" r="8"/><circle class="cls-1" cx="5070" cy="1675" r="8"/><circle class="cls-1" cx="4492" cy="1068" r="8"/><circle class="cls-1" cx="5133" cy="1013" r="8"/><circle class="cls-1" cx="6307" cy="444" r="8"/><circle class="cls-1" cx="6141" cy="52" r="8"/><circle class="cls-1" cx="6064" cy="765" r="8"/><circle class="cls-1" cx="6195" cy="1060" r="8"/><circle class="cls-1" cx="5531" cy="413" r="8"/><circle class="cls-1" cx="5592" cy="145" r="8"/><circle class="cls-1" cx="4631" cy="293" r="8"/><circle class="cls-1" cx="4750" cy="44" r="8"/><circle class="cls-1" cx="4399" cy="84" r="8"/><circle class="cls-1" cx="6442" cy="185" r="8"/><circle class="cls-1" cx="6610" cy="364" r="8"/><circle class="cls-1" cx="6554" cy="619" r="8"/><circle class="cls-1" cx="6594" cy="929" r="8"/><circle class="cls-1" cx="5141" cy="219" r="8"/><circle class="cls-1" cx="5243" cy="8" r="8"/><circle class="cls-1" cx="4805" cy="436" r="8"/><circle class="cls-1" cx="4383" cy="452" r="8"/><circle class="cls-1" cx="4813" cy="821" r="8"/><circle class="cls-1" cx="4525" cy="684" r="8"/><circle class="cls-1" cx="5184" cy="559" r="8"/><circle class="cls-1" cx="4742" cy="1480" r="8"/><circle class="cls-1" cx="4454" cy="1683" r="8"/><circle class="cls-1" cx="4462" cy="1436" r="8"/><circle class="cls-1" cx="6315" cy="1370" r="8"/><circle class="cls-1" cx="6266" cy="1675" r="8"/><circle class="cls-1" cx="6562" cy="1675" r="8"/><circle class="cls-1" cx="5922" cy="285" r="8"/><circle class="cls-1" cx="5890" cy="567" r="8"/><circle class="cls-1" cx="5863" cy="1063" r="8"/><circle class="cls-1" cx="5924" cy="795" r="8"/><circle class="cls-1" cx="5473" cy="869" r="8"/><circle class="cls-1" cx="5575" cy="658" r="8"/><circle class="cls-1" cx="5516" cy="1209" r="8"/><circle class="cls-1" cx="6254" cy="935" r="8"/><circle class="cls-1" cx="6222" cy="1217" r="8"/><circle class="cls-1" cx="5914" cy="1637" r="8"/><circle class="cls-1" cx="5351" cy="1598" r="8"/><circle class="cls-1" cx="6412" cy="921" r="8"/><circle class="cls-1" cx="6578" cy="1273" r="8"/><circle class="cls-1" cx="5898" cy="1169" r="8"/><circle class="cls-1" cx="4965" cy="895" r="8"/><circle class="cls-1" cx="5364" cy="764" r="8"/><circle class="cls-1" cx="4633" cy="898" r="8"/><circle class="cls-1" cx="4694" cy="630" r="8"/><circle class="cls-1" cx="5024" cy="770" r="8"/><circle class="cls-1" cx="4992" cy="1052" r="8"/><circle class="cls-1" cx="5182" cy="756" r="8"/><circle class="cls-1" cx="4668" cy="1004" r="8"/><circle class="cls-1" cx="7392" cy="1428" r="8"/><circle class="cls-1" cx="7843" cy="1370" r="8"/><circle class="cls-1" cx="7040" cy="1136" r="8"/><circle class="cls-1" cx="7313" cy="1675" r="8"/><circle class="cls-1" cx="6735" cy="1068" r="8"/><circle class="cls-1" cx="7376" cy="1013" r="8"/><circle class="cls-1" cx="8550" cy="444" r="8"/><circle class="cls-1" cx="8384" cy="52" r="8"/><circle class="cls-1" cx="8307" cy="765" r="8"/><circle class="cls-1" cx="8438" cy="1060" r="8"/><circle class="cls-1" cx="7774" cy="413" r="8"/><circle class="cls-1" cx="7835" cy="145" r="8"/><circle class="cls-1" cx="6874" cy="293" r="8"/><circle class="cls-1" cx="6993" cy="44" r="8"/><circle class="cls-1" cx="6642" cy="84" r="8"/><circle class="cls-1" cx="8685" cy="185" r="8"/><circle class="cls-1" cx="8853" cy="364" r="8"/><circle class="cls-1" cx="8797" cy="619" r="8"/><circle class="cls-1" cx="8837" cy="929" r="8"/><circle class="cls-1" cx="7384" cy="219" r="8"/><circle class="cls-1" cx="7486" cy="8" r="8"/><circle class="cls-1" cx="7048" cy="436" r="8"/><circle class="cls-1" cx="6626" cy="452" r="8"/><circle class="cls-1" cx="7056" cy="821" r="8"/><circle class="cls-1" cx="6768" cy="684" r="8"/><circle class="cls-1" cx="7427" cy="559" r="8"/><circle class="cls-1" cx="6985" cy="1480" r="8"/><circle class="cls-1" cx="6697" cy="1683" r="8"/><circle class="cls-1" cx="6705" cy="1436" r="8"/><circle class="cls-1" cx="8558" cy="1370" r="8"/><circle class="cls-1" cx="8509" cy="1675" r="8"/><circle class="cls-1" cx="8805" cy="1675" r="8"/><circle class="cls-1" cx="8165" cy="285" r="8"/><circle class="cls-1" cx="8133" cy="567" r="8"/><circle class="cls-1" cx="8157" cy="1637" r="8"/><circle class="cls-1" cx="7594" cy="1598" r="8"/><circle class="cls-1" cx="8655" cy="921" r="8"/><circle class="cls-1" cx="8821" cy="1273" r="8"/><circle class="cls-1" cx="8141" cy="1169" r="8"/><circle class="cls-1" cx="9635" cy="1428" r="8"/><circle class="cls-1" cx="10086" cy="1370" r="8"/><circle class="cls-1" cx="9283" cy="1136" r="8"/><circle class="cls-1" cx="9556" cy="1675" r="8"/><circle class="cls-1" cx="8978" cy="1068" r="8"/><circle class="cls-1" cx="9619" cy="1013" r="8"/><circle class="cls-1" cx="10793" cy="444" r="8"/><circle class="cls-1" cx="10627" cy="52" r="8"/><circle class="cls-1" cx="10550" cy="765" r="8"/><circle class="cls-1" cx="10681" cy="1060" r="8"/><circle class="cls-1" cx="10017" cy="413" r="8"/><circle class="cls-1" cx="10078" cy="145" r="8"/><circle class="cls-1" cx="9117" cy="293" r="8"/><circle class="cls-1" cx="9236" cy="44" r="8"/><circle class="cls-1" cx="8885" cy="84" r="8"/><circle class="cls-1" cx="10928" cy="185" r="8"/><circle class="cls-1" cx="11096" cy="364" r="8"/><circle class="cls-1" cx="11040" cy="619" r="8"/><circle class="cls-1" cx="11080" cy="929" r="8"/><circle class="cls-1" cx="9627" cy="219" r="8"/><circle class="cls-1" cx="9729" cy="8" r="8"/><circle class="cls-1" cx="9291" cy="436" r="8"/><circle class="cls-1" cx="8869" cy="452" r="8"/><circle class="cls-1" cx="9299" cy="821" r="8"/><circle class="cls-1" cx="9011" cy="684" r="8"/><circle class="cls-1" cx="9670" cy="559" r="8"/><circle class="cls-1" cx="9228" cy="1480" r="8"/><circle class="cls-1" cx="8940" cy="1683" r="8"/><circle class="cls-1" cx="9686" cy="968" r="8"/><circle class="cls-1" cx="9854" cy="1147" r="8"/><circle class="cls-1" cx="9806" cy="732" r="8"/><circle class="cls-1" cx="10118" cy="1076" r="8"/><circle class="cls-1" cx="10237" cy="827" r="8"/><circle class="cls-1" cx="9886" cy="867" r="8"/><circle class="cls-1" cx="10292" cy="1219" r="8"/><circle class="cls-1" cx="9870" cy="1235" r="8"/><circle class="cls-1" cx="10229" cy="537" r="8"/><circle class="cls-1" cx="9941" cy="740" r="8"/><circle class="cls-1" cx="7816" cy="995" r="8"/><circle class="cls-1" cx="7640" cy="759" r="8"/><circle class="cls-1" cx="7834" cy="1098" r="8"/><circle class="cls-1" cx="7555" cy="1539" r="8"/><circle class="cls-1" cx="7494" cy="1104" r="8"/><circle class="cls-1" cx="7652" cy="1090" r="8"/><circle class="cls-1" cx="7818" cy="1442" r="8"/><circle class="cls-1" cx="8632" cy="1597" r="8"/><circle class="cls-1" cx="8280" cy="1305" r="8"/><circle class="cls-1" cx="7975" cy="1237" r="8"/><circle class="cls-1" cx="8616" cy="1182" r="8"/><circle class="cls-1" cx="8296" cy="990" r="8"/><circle class="cls-1" cx="8225" cy="1649" r="8"/><circle class="cls-1" cx="7945" cy="1605" r="8"/><circle class="cls-1" cx="9056" cy="1164" r="8"/><circle class="cls-1" cx="8880" cy="928" r="8"/><circle class="cls-1" cx="7936" cy="759" r="8"/><circle class="cls-1" cx="8016" cy="894" r="8"/><circle class="cls-1" cx="8071" cy="767" r="8"/><circle class="cls-1" cx="8948" cy="1436" r="8"/><circle class="cls-1" cx="10801" cy="1370" r="8"/><circle class="cls-1" cx="10752" cy="1675" r="8"/><circle class="cls-1" cx="11048" cy="1675" r="8"/><circle class="cls-1" cx="10408" cy="285" r="8"/><circle class="cls-1" cx="10376" cy="567" r="8"/><circle class="cls-1" cx="10400" cy="1637" r="8"/><circle class="cls-1" cx="9837" cy="1598" r="8"/><circle class="cls-1" cx="10898" cy="921" r="8"/><circle class="cls-1" cx="11064" cy="1273" r="8"/><circle class="cls-1" cx="10384" cy="1169" r="8"/><circle class="cls-1" cx="483" cy="4936" r="8"/><circle class="cls-1" cx="934" cy="4878" r="8"/><circle class="cls-1" cx="981" cy="5226" r="8"/><circle class="cls-1" cx="131" cy="4644" r="8"/><circle class="cls-1" cx="404" cy="5183" r="8"/><circle class="cls-1" cx="467" cy="4521" r="8"/><circle class="cls-1" cx="1641" cy="3952" r="8"/><circle class="cls-1" cx="1475" cy="3560" r="8"/><circle class="cls-1" cx="1398" cy="4273" r="8"/><circle class="cls-1" cx="1529" cy="4568" r="8"/><circle class="cls-1" cx="865" cy="3921" r="8"/><circle class="cls-1" cx="926" cy="3653" r="8"/><circle class="cls-1" cx="84" cy="3552" r="8"/><circle class="cls-1" cx="1776" cy="3693" r="8"/><circle class="cls-1" cx="1944" cy="3872" r="8"/><circle class="cls-1" cx="1888" cy="4127" r="8"/><circle class="cls-1" cx="1928" cy="4437" r="8"/><circle class="cls-1" cx="475" cy="3727" r="8"/><circle class="cls-1" cx="577" cy="3516" r="8"/><circle class="cls-1" cx="139" cy="3944" r="8"/><circle class="cls-1" cx="147" cy="4329" r="8"/><circle class="cls-1" cx="518" cy="4067" r="8"/><circle class="cls-1" cx="76" cy="4988" r="8"/><circle class="cls-1" cx="1649" cy="4878" r="8"/><circle class="cls-1" cx="1600" cy="5183" r="8"/><circle class="cls-1" cx="1896" cy="5183" r="8"/><circle class="cls-1" cx="1256" cy="3793" r="8"/><circle class="cls-1" cx="1224" cy="4075" r="8"/><circle class="cls-1" cx="1248" cy="5145" r="8"/><circle class="cls-1" cx="685" cy="5106" r="8"/><circle class="cls-1" cx="1746" cy="4429" r="8"/><circle class="cls-1" cx="1912" cy="4781" r="8"/><circle class="cls-1" cx="1232" cy="4677" r="8"/><circle class="cls-1" cx="483" cy="3210" r="8"/><circle class="cls-1" cx="934" cy="3152" r="8"/><circle class="cls-1" cx="981" cy="3500" r="8"/><circle class="cls-1" cx="131" cy="2918" r="8"/><circle class="cls-1" cx="404" cy="3457" r="8"/><circle class="cls-1" cx="467" cy="2795" r="8"/><circle class="cls-1" cx="1641" cy="2226" r="8"/><circle class="cls-1" cx="1475" cy="1834" r="8"/><circle class="cls-1" cx="1398" cy="2547" r="8"/><circle class="cls-1" cx="1529" cy="2842" r="8"/><circle class="cls-1" cx="865" cy="2195" r="8"/><circle class="cls-1" cx="926" cy="1927" r="8"/><circle class="cls-1" cx="84" cy="1826" r="8"/><circle class="cls-1" cx="1776" cy="1967" r="8"/><circle class="cls-1" cx="1944" cy="2146" r="8"/><circle class="cls-1" cx="1888" cy="2401" r="8"/><circle class="cls-1" cx="1928" cy="2711" r="8"/><circle class="cls-1" cx="475" cy="2001" r="8"/><circle class="cls-1" cx="577" cy="1790" r="8"/><circle class="cls-1" cx="139" cy="2218" r="8"/><circle class="cls-1" cx="147" cy="2603" r="8"/><circle class="cls-1" cx="518" cy="2341" r="8"/><circle class="cls-1" cx="76" cy="3262" r="8"/><circle class="cls-1" cx="1649" cy="3152" r="8"/><circle class="cls-1" cx="1600" cy="3457" r="8"/><circle class="cls-1" cx="1896" cy="3457" r="8"/><circle class="cls-1" cx="1256" cy="2067" r="8"/><circle class="cls-1" cx="1224" cy="2349" r="8"/><circle class="cls-1" cx="1248" cy="3419" r="8"/><circle class="cls-1" cx="685" cy="3380" r="8"/><circle class="cls-1" cx="1743" cy="4701" r="8"/><circle class="cls-1" cx="1577" cy="4309" r="8"/><circle class="cls-1" cx="967" cy="4670" r="8"/><circle class="cls-1" cx="1028" cy="4402" r="8"/><circle class="cls-1" cx="577" cy="4476" r="8"/><circle class="cls-1" cx="679" cy="4265" r="8"/><circle class="cls-1" cx="1358" cy="4542" r="8"/><circle class="cls-1" cx="1083" cy="4249" r="8"/><circle class="cls-1" cx="1702" cy="4206" r="8"/><circle class="cls-1" cx="1350" cy="4168" r="8"/><circle class="cls-1" cx="787" cy="4129" r="8"/><circle class="cls-1" cx="1746" cy="2703" r="8"/><circle class="cls-1" cx="1912" cy="3055" r="8"/><circle class="cls-1" cx="1232" cy="2951" r="8"/><circle class="cls-1" cx="2726" cy="4936" r="8"/><circle class="cls-1" cx="3177" cy="4878" r="8"/><circle class="cls-1" cx="3224" cy="5226" r="8"/><circle class="cls-1" cx="2374" cy="4644" r="8"/><circle class="cls-1" cx="2647" cy="5183" r="8"/><circle class="cls-1" cx="2069" cy="4576" r="8"/><circle class="cls-1" cx="2710" cy="4521" r="8"/><circle class="cls-1" cx="3884" cy="3952" r="8"/><circle class="cls-1" cx="3718" cy="3560" r="8"/><circle class="cls-1" cx="3641" cy="4273" r="8"/><circle class="cls-1" cx="3772" cy="4568" r="8"/><circle class="cls-1" cx="3108" cy="3921" r="8"/><circle class="cls-1" cx="3169" cy="3653" r="8"/><circle class="cls-1" cx="2208" cy="3801" r="8"/><circle class="cls-1" cx="2327" cy="3552" r="8"/><circle class="cls-1" cx="1976" cy="3592" r="8"/><circle class="cls-1" cx="4019" cy="3693" r="8"/><circle class="cls-1" cx="4187" cy="3872" r="8"/><circle class="cls-1" cx="4131" cy="4127" r="8"/><circle class="cls-1" cx="4171" cy="4437" r="8"/><circle class="cls-1" cx="2718" cy="3727" r="8"/><circle class="cls-1" cx="2820" cy="3516" r="8"/><circle class="cls-1" cx="2382" cy="3944" r="8"/><circle class="cls-1" cx="1960" cy="3960" r="8"/><circle class="cls-1" cx="2390" cy="4329" r="8"/><circle class="cls-1" cx="2102" cy="4192" r="8"/><circle class="cls-1" cx="2761" cy="4067" r="8"/><circle class="cls-1" cx="2319" cy="4988" r="8"/><circle class="cls-1" cx="2031" cy="5191" r="8"/><circle class="cls-1" cx="2039" cy="4944" r="8"/><circle class="cls-1" cx="3892" cy="4878" r="8"/><circle class="cls-1" cx="3843" cy="5183" r="8"/><circle class="cls-1" cx="4139" cy="5183" r="8"/><circle class="cls-1" cx="3499" cy="3793" r="8"/><circle class="cls-1" cx="3467" cy="4075" r="8"/><circle class="cls-1" cx="3491" cy="5145" r="8"/><circle class="cls-1" cx="2928" cy="5106" r="8"/><circle class="cls-1" cx="3989" cy="4429" r="8"/><circle class="cls-1" cx="4155" cy="4781" r="8"/><circle class="cls-1" cx="3475" cy="4677" r="8"/><circle class="cls-1" cx="2726" cy="3210" r="8"/><circle class="cls-1" cx="3177" cy="3152" r="8"/><circle class="cls-1" cx="3224" cy="3500" r="8"/><circle class="cls-1" cx="2374" cy="2918" r="8"/><circle class="cls-1" cx="2647" cy="3457" r="8"/><circle class="cls-1" cx="2069" cy="2850" r="8"/><circle class="cls-1" cx="2710" cy="2795" r="8"/><circle class="cls-1" cx="3884" cy="2226" r="8"/><circle class="cls-1" cx="3718" cy="1834" r="8"/><circle class="cls-1" cx="3641" cy="2547" r="8"/><circle class="cls-1" cx="3772" cy="2842" r="8"/><circle class="cls-1" cx="3108" cy="2195" r="8"/><circle class="cls-1" cx="3169" cy="1927" r="8"/><circle class="cls-1" cx="2208" cy="2075" r="8"/><circle class="cls-1" cx="2327" cy="1826" r="8"/><circle class="cls-1" cx="1976" cy="1866" r="8"/><circle class="cls-1" cx="4019" cy="1967" r="8"/><circle class="cls-1" cx="4187" cy="2146" r="8"/><circle class="cls-1" cx="4131" cy="2401" r="8"/><circle class="cls-1" cx="4171" cy="2711" r="8"/><circle class="cls-1" cx="2718" cy="2001" r="8"/><circle class="cls-1" cx="2820" cy="1790" r="8"/><circle class="cls-1" cx="2382" cy="2218" r="8"/><circle class="cls-1" cx="1960" cy="2234" r="8"/><circle class="cls-1" cx="2390" cy="2603" r="8"/><circle class="cls-1" cx="2102" cy="2466" r="8"/><circle class="cls-1" cx="2761" cy="2341" r="8"/><circle class="cls-1" cx="2319" cy="3262" r="8"/><circle class="cls-1" cx="2031" cy="3465" r="8"/><circle class="cls-1" cx="2921" cy="4268" r="8"/><circle class="cls-1" cx="3089" cy="4447" r="8"/><circle class="cls-1" cx="3033" cy="4702" r="8"/><circle class="cls-1" cx="3041" cy="4032" r="8"/><circle class="cls-1" cx="3353" cy="4376" r="8"/><circle class="cls-1" cx="3472" cy="4127" r="8"/><circle class="cls-1" cx="3121" cy="4167" r="8"/><circle class="cls-1" cx="3527" cy="4519" r="8"/><circle class="cls-1" cx="3105" cy="4535" r="8"/><circle class="cls-1" cx="3176" cy="4040" r="8"/><circle class="cls-1" cx="2777" cy="2750" r="8"/><circle class="cls-1" cx="2945" cy="2929" r="8"/><circle class="cls-1" cx="2897" cy="2514" r="8"/><circle class="cls-1" cx="3209" cy="2858" r="8"/><circle class="cls-1" cx="3328" cy="2609" r="8"/><circle class="cls-1" cx="2977" cy="2649" r="8"/><circle class="cls-1" cx="3383" cy="3001" r="8"/><circle class="cls-1" cx="2961" cy="3017" r="8"/><circle class="cls-1" cx="3320" cy="2319" r="8"/><circle class="cls-1" cx="3032" cy="2522" r="8"/><circle class="cls-1" cx="907" cy="2777" r="8"/><circle class="cls-1" cx="731" cy="2541" r="8"/><circle class="cls-1" cx="925" cy="2880" r="8"/><circle class="cls-1" cx="646" cy="3321" r="8"/><circle class="cls-1" cx="585" cy="2886" r="8"/><circle class="cls-1" cx="743" cy="2872" r="8"/><circle class="cls-1" cx="909" cy="3224" r="8"/><circle class="cls-1" cx="1723" cy="3379" r="8"/><circle class="cls-1" cx="1371" cy="3087" r="8"/><circle class="cls-1" cx="1066" cy="3019" r="8"/><circle class="cls-1" cx="1707" cy="2964" r="8"/><circle class="cls-1" cx="1387" cy="2772" r="8"/><circle class="cls-1" cx="1316" cy="3431" r="8"/><circle class="cls-1" cx="1036" cy="3387" r="8"/><circle class="cls-1" cx="1925" cy="3549" r="8"/><circle class="cls-1" cx="2147" cy="2946" r="8"/><circle class="cls-1" cx="1971" cy="2710" r="8"/><circle class="cls-1" cx="1027" cy="2541" r="8"/><circle class="cls-1" cx="1107" cy="2676" r="8"/><circle class="cls-1" cx="1162" cy="2549" r="8"/><circle class="cls-1" cx="2039" cy="3218" r="8"/><circle class="cls-1" cx="3892" cy="3152" r="8"/><circle class="cls-1" cx="3843" cy="3457" r="8"/><circle class="cls-1" cx="4139" cy="3457" r="8"/><circle class="cls-1" cx="3499" cy="2067" r="8"/><circle class="cls-1" cx="3467" cy="2349" r="8"/><circle class="cls-1" cx="3491" cy="3419" r="8"/><circle class="cls-1" cx="2928" cy="3380" r="8"/><circle class="cls-1" cx="3989" cy="2703" r="8"/><circle class="cls-1" cx="4155" cy="3055" r="8"/><circle class="cls-1" cx="3475" cy="2951" r="8"/><circle class="cls-1" cx="526" cy="1428" r="8"/><circle class="cls-1" cx="977" cy="1370" r="8"/><circle class="cls-1" cx="174" cy="1136" r="8"/><circle class="cls-1" cx="447" cy="1675" r="8"/><circle class="cls-1" cx="510" cy="1013" r="8"/><circle class="cls-1" cx="1684" cy="444" r="8"/><circle class="cls-1" cx="1518" cy="52" r="8"/><circle class="cls-1" cx="1441" cy="765" r="8"/><circle class="cls-1" cx="1572" cy="1060" r="8"/><circle class="cls-1" cx="908" cy="413" r="8"/><circle class="cls-1" cx="969" cy="145" r="8"/><circle class="cls-1" cx="8" cy="293" r="8"/><circle class="cls-1" cx="127" cy="44" r="8"/><circle class="cls-1" cx="1819" cy="185" r="8"/><circle class="cls-1" cx="1987" cy="364" r="8"/><circle class="cls-1" cx="1931" cy="619" r="8"/><circle class="cls-1" cx="1971" cy="929" r="8"/><circle class="cls-1" cx="518" cy="219" r="8"/><circle class="cls-1" cx="620" cy="8" r="8"/><circle class="cls-1" cx="182" cy="436" r="8"/><circle class="cls-1" cx="190" cy="821" r="8"/><circle class="cls-1" cx="561" cy="559" r="8"/><circle class="cls-1" cx="119" cy="1480" r="8"/><circle class="cls-1" cx="1692" cy="1370" r="8"/><circle class="cls-1" cx="1643" cy="1675" r="8"/><circle class="cls-1" cx="1939" cy="1675" r="8"/><circle class="cls-1" cx="1299" cy="285" r="8"/><circle class="cls-1" cx="1267" cy="567" r="8"/><circle class="cls-1" cx="1291" cy="1637" r="8"/><circle class="cls-1" cx="728" cy="1598" r="8"/><circle class="cls-1" cx="1789" cy="921" r="8"/><circle class="cls-1" cx="1955" cy="1273" r="8"/><circle class="cls-1" cx="1275" cy="1169" r="8"/><circle class="cls-1" cx="2769" cy="1428" r="8"/><circle class="cls-1" cx="3220" cy="1370" r="8"/><circle class="cls-1" cx="2417" cy="1136" r="8"/><circle class="cls-1" cx="2690" cy="1675" r="8"/><circle class="cls-1" cx="2112" cy="1068" r="8"/><circle class="cls-1" cx="2753" cy="1013" r="8"/><circle class="cls-1" cx="3927" cy="444" r="8"/><circle class="cls-1" cx="3761" cy="52" r="8"/><circle class="cls-1" cx="3684" cy="765" r="8"/><circle class="cls-1" cx="3815" cy="1060" r="8"/><circle class="cls-1" cx="3151" cy="413" r="8"/><circle class="cls-1" cx="3212" cy="145" r="8"/><circle class="cls-1" cx="2251" cy="293" r="8"/><circle class="cls-1" cx="2370" cy="44" r="8"/><circle class="cls-1" cx="2019" cy="84" r="8"/><circle class="cls-1" cx="4062" cy="185" r="8"/><circle class="cls-1" cx="4230" cy="364" r="8"/><circle class="cls-1" cx="4174" cy="619" r="8"/><circle class="cls-1" cx="4214" cy="929" r="8"/><circle class="cls-1" cx="2761" cy="219" r="8"/><circle class="cls-1" cx="2863" cy="8" r="8"/><circle class="cls-1" cx="2425" cy="436" r="8"/><circle class="cls-1" cx="2003" cy="452" r="8"/><circle class="cls-1" cx="2433" cy="821" r="8"/><circle class="cls-1" cx="2145" cy="684" r="8"/><circle class="cls-1" cx="2804" cy="559" r="8"/><circle class="cls-1" cx="2362" cy="1480" r="8"/><circle class="cls-1" cx="2074" cy="1683" r="8"/><circle class="cls-1" cx="2820" cy="968" r="8"/><circle class="cls-1" cx="2988" cy="1147" r="8"/><circle class="cls-1" cx="2940" cy="732" r="8"/><circle class="cls-1" cx="3252" cy="1076" r="8"/><circle class="cls-1" cx="3371" cy="827" r="8"/><circle class="cls-1" cx="3020" cy="867" r="8"/><circle class="cls-1" cx="3426" cy="1219" r="8"/><circle class="cls-1" cx="3004" cy="1235" r="8"/><circle class="cls-1" cx="3363" cy="537" r="8"/><circle class="cls-1" cx="3075" cy="740" r="8"/><circle class="cls-1" cx="950" cy="995" r="8"/><circle class="cls-1" cx="774" cy="759" r="8"/><circle class="cls-1" cx="968" cy="1098" r="8"/><circle class="cls-1" cx="689" cy="1539" r="8"/><circle class="cls-1" cx="628" cy="1104" r="8"/><circle class="cls-1" cx="786" cy="1090" r="8"/><circle class="cls-1" cx="952" cy="1442" r="8"/><circle class="cls-1" cx="1766" cy="1597" r="8"/><circle class="cls-1" cx="1414" cy="1305" r="8"/><circle class="cls-1" cx="1109" cy="1237" r="8"/><circle class="cls-1" cx="1750" cy="1182" r="8"/><circle class="cls-1" cx="1430" cy="990" r="8"/><circle class="cls-1" cx="1359" cy="1649" r="8"/><circle class="cls-1" cx="1079" cy="1605" r="8"/><circle class="cls-1" cx="2190" cy="1164" r="8"/><circle class="cls-1" cx="2014" cy="928" r="8"/><circle class="cls-1" cx="1070" cy="759" r="8"/><circle class="cls-1" cx="1150" cy="894" r="8"/><circle class="cls-1" cx="1205" cy="767" r="8"/><circle class="cls-1" cx="2082" cy="1436" r="8"/><circle class="cls-1" cx="3935" cy="1370" r="8"/><circle class="cls-1" cx="3886" cy="1675" r="8"/><circle class="cls-1" cx="4182" cy="1675" r="8"/><circle class="cls-1" cx="3542" cy="285" r="8"/><circle class="cls-1" cx="3510" cy="567" r="8"/><circle class="cls-1" cx="3534" cy="1637" r="8"/><circle class="cls-1" cx="2971" cy="1598" r="8"/><circle class="cls-1" cx="4032" cy="921" r="8"/><circle class="cls-1" cx="4198" cy="1273" r="8"/><circle class="cls-1" cx="3518" cy="1169" r="8"/></g></g></svg>