<svg xmlns="http://www.w3.org/2000/svg" viewBox="0 0 452.01 452"><g id="Layer_2" data-name="Layer 2"><g id="Layer_1-2" data-name="Layer 1"><path d="M16,227H0V225H16a1,1,0,0,1,1,1h0A1,1,0,0,1,16,227Z"/><path d="M436.05,225h16V227h-16a1,1,0,0,1-1-1h0A1,1,0,0,1,436.05,225Z"/><path d="M225,16V0H227V16a1,1,0,0,1-1,1h0A1,1,0,0,1,225,16Z"/><path d="M227,436v16H225V436a1,1,0,0,1,1-1h0A1,1,0,0,1,227,436Z"/><path d="M44.63,331.92l-13.83,8-1-1.79,13.83-8a1,1,0,0,1,1.41.38h0A1,1,0,0,1,44.63,331.92Z"/><path d="M407.39,120.09l13.83-8,1,1.8-13.82,8a1,1,0,0,1-1.42-.38h0A1,1,0,0,1,407.39,120.09Z"/><path d="M120.09,44.62l-8-13.82,1.79-1,8,13.83A1,1,0,0,1,121.5,45h0A1,1,0,0,1,120.09,44.62Z"/><path d="M331.92,407.38l8,13.82-1.8,1-8-13.83a1,1,0,0,1,.38-1.41h0A1,1,0,0,1,331.92,407.38Z"/><path d="M121.89,408.42l-8,13.83-1.8-1,8-13.83a1,1,0,0,1,1.42-.37h0A1,1,0,0,1,121.89,408.42Z"/><path d="M330.13,43.58l8-13.82,1.79,1-8,13.83a1.05,1.05,0,0,1-1.42.38h0A1.05,1.05,0,0,1,330.13,43.58Z"/><path d="M43.59,121.88l-13.82-8,1-1.8,13.83,8A1,1,0,0,1,45,121.5h0A1,1,0,0,1,43.59,121.88Z"/><path d="M408.42,330.12l13.82,8-1,1.8-13.83-8a1,1,0,0,1-.38-1.42h0A1,1,0,0,1,408.42,330.12Z"/></g></g></svg>