<svg xmlns="http://www.w3.org/2000/svg" viewBox="0 0 567 567.47"><defs><style>.cls-1{fill:#f8ff79;}</style></defs><g id="Layer_2" data-name="Layer 2"><g id="Layer_1-2" data-name="Layer 1"><rect class="cls-1" x="2.5" y="2.5" width="562" height="562.47" rx="33.08"/><path d="M531.42,5A30.62,30.62,0,0,1,562,35.58V531.9a30.61,30.61,0,0,1-30.58,30.57H35.58A30.61,30.61,0,0,1,5,531.9V35.58A30.62,30.62,0,0,1,35.58,5H531.42m0-5H35.58A35.58,35.58,0,0,0,0,35.58V531.9a35.58,35.58,0,0,0,35.58,35.57H531.42A35.58,35.58,0,0,0,567,531.9V35.58A35.58,35.58,0,0,0,531.42,0Z"/><path d="M143.1,467.84a9.87,9.87,0,0,0-8.48,4.12q-3,4.11-3,11.47,0,15.31,11.49,15.32a36.49,36.49,0,0,0,11.68-2.41v8.14a32.5,32.5,0,0,1-12.59,2.35q-10,0-15.28-6.06t-5.29-17.4a28.44,28.44,0,0,1,2.6-12.51,18.76,18.76,0,0,1,7.47-8.24,22.07,22.07,0,0,1,11.41-2.86A30.83,30.83,0,0,1,156.51,463l-3.14,7.9a49.27,49.27,0,0,0-5.16-2.13A15.37,15.37,0,0,0,143.1,467.84Z"/><path d="M186,506.2l-1.85-4.76h-.25a14.07,14.07,0,0,1-5,4.21,16.07,16.07,0,0,1-6.65,1.18,10.73,10.73,0,0,1-7.94-2.89q-2.9-2.88-2.9-8.2,0-5.58,3.9-8.22t11.76-2.93l6.08-.19v-1.53q0-5.33-5.45-5.32a24.84,24.84,0,0,0-9.87,2.53l-3.16-6.45a28.45,28.45,0,0,1,13.4-3.16q7,0,10.81,3.07t3.76,9.33V506.2ZM183.19,490l-3.7.12a11.87,11.87,0,0,0-6.2,1.51,4.7,4.7,0,0,0-2,4.19c0,2.7,1.54,4,4.63,4a7.33,7.33,0,0,0,5.31-1.91,6.72,6.72,0,0,0,2-5.07Z"/><path d="M212.06,506.2h-9.55V457.47h9.55Z"/><path d="M236.3,506.83q-16.35,0-16.35-17.95,0-8.92,4.45-13.64t12.74-4.71a24.38,24.38,0,0,1,10.9,2.38l-2.82,7.39c-1.5-.6-2.9-1.1-4.19-1.49a13.79,13.79,0,0,0-3.89-.58q-7.44,0-7.45,10.59,0,10.28,7.45,10.27a17.06,17.06,0,0,0,5.11-.73,18.42,18.42,0,0,0,4.7-2.31v8.18a15.32,15.32,0,0,1-4.69,2A26,26,0,0,1,236.3,506.83Z"/><path d="M279.86,506.2l-1.28-4.48h-.51a10.07,10.07,0,0,1-4.35,3.78,15,15,0,0,1-6.42,1.33q-6.17,0-9.3-3.31t-3.13-9.5V471.19h9.55v20.45a9.8,9.8,0,0,0,1.35,5.68,4.87,4.87,0,0,0,4.29,1.9c2.67,0,4.6-.9,5.79-2.68s1.79-4.74,1.79-8.88V471.19h9.55v35Z"/><path d="M306.76,506.2h-9.55V457.47h9.55Z"/><path d="M339,506.2l-1.85-4.76h-.25a14.07,14.07,0,0,1-5,4.21,16.07,16.07,0,0,1-6.65,1.18,10.73,10.73,0,0,1-7.94-2.89q-2.89-2.88-2.9-8.2,0-5.58,3.9-8.22t11.76-2.93l6.08-.19v-1.53q0-5.33-5.45-5.32a24.84,24.84,0,0,0-9.87,2.53l-3.16-6.45a28.45,28.45,0,0,1,13.4-3.16q7,0,10.81,3.07t3.76,9.33V506.2ZM336.2,490l-3.7.12a11.87,11.87,0,0,0-6.2,1.51,4.7,4.7,0,0,0-2,4.19c0,2.7,1.54,4,4.63,4a7.33,7.33,0,0,0,5.31-1.91,6.72,6.72,0,0,0,2-5.07Z"/><path d="M370.27,499.22a20.75,20.75,0,0,0,6-1.1v7.11a21.51,21.51,0,0,1-8.77,1.6q-5.73,0-8.34-2.9t-2.62-8.69V478.36H352v-4l5.26-3.19,2.76-7.39h6.1v7.45h9.81v7.17H366.1v16.88a3.71,3.71,0,0,0,1.15,3A4.54,4.54,0,0,0,370.27,499.22Z"/><path d="M415.18,488.63q0,8.55-4.51,13.37t-12.56,4.83a17.62,17.62,0,0,1-8.9-2.21,14.69,14.69,0,0,1-5.91-6.34,21.3,21.3,0,0,1-2.07-9.65q0-8.58,4.48-13.34t12.59-4.76a17.67,17.67,0,0,1,8.89,2.19,14.67,14.67,0,0,1,5.92,6.3A21.07,21.07,0,0,1,415.18,488.63Zm-24.21,0q0,5.21,1.7,7.86c1.14,1.78,3,2.66,5.56,2.66s4.38-.88,5.5-2.64,1.67-4.39,1.67-7.88-.56-6.06-1.69-7.8-3-2.6-5.54-2.6-4.38.87-5.51,2.59S391,485.15,391,488.63Z"/><path d="M442.61,470.53a15.9,15.9,0,0,1,3.22.28l-.72,9a10.85,10.85,0,0,0-2.81-.31,10.16,10.16,0,0,0-7.13,2.34,8.51,8.51,0,0,0-2.55,6.58V506.2h-9.55v-35h7.23l1.41,5.89h.47a13.13,13.13,0,0,1,4.4-4.75A10.87,10.87,0,0,1,442.61,470.53Z"/><path d="M375,293.05q0,27.63-20,44.4t-56,20.08v35.63H275.21V358.22q-42.4-.86-74.39-14.94V297.39a200.22,200.22,0,0,0,36.41,13.21q21.3,5.73,38,6.78V263.5L263.57,259q-34.42-13.56-48.76-29.46t-14.34-39.37q0-25.2,19.73-41.45t55-19.73V102.38H299v25.89q39.81,1.74,72,16l-16.34,40.68A187.6,187.6,0,0,0,299,171.38v51.27q33.9,13,48.24,22.6t21,21Q375,277.76,375,293.05ZM252.79,190.15a16.5,16.5,0,0,0,5.3,12.6q5.31,5,17.12,10.17V172.07Q252.79,175.39,252.79,190.15Zm69.87,105.5a15.65,15.65,0,0,0-5.91-12.34q-5.91-5-17.73-10.43v43.28Q322.66,312.17,322.66,295.65Z"/></g></g></svg>