<svg xmlns="http://www.w3.org/2000/svg" viewBox="0 0 329 329"><defs><style>.cls-1{fill:#00dff8;}.cls-2{fill:none;stroke:#7dacbc;stroke-linecap:round;stroke-linejoin:round;stroke-width:3.5px;}.cls-3{fill:#7dacbc;}.cls-4{fill:#efec7f;}</style></defs><g id="Layer_2" data-name="Layer 2"><g id="Capa_1" data-name="Capa 1"><rect class="cls-1" width="329" height="329" rx="47.93"/><g id="hueso"><path class="cls-2" d="M173.19,97.58c-4.11-6-11.38-8.7-19.3-7.4a13.35,13.35,0,0,0-11.84,14.07c-1.07,10.68,8.19,16.64,16.11,23,6.55,4.85,10.82,11.68,13.57,19.26,3.56,9.8,6.68,19.69,9.81,29.65,1.38,4.37,2.53,8.81,4,13.12,2.74,8.09,5.2,16.71,4.05,25.33-1.2,9-9.26,16.68-4.49,25.85,6.95,13.33,26,9,27.95-4.79"/><path class="cls-2" d="M210.3,232a19.77,19.77,0,0,0,9.71,7.33c11.11,2.42,19.25-4.57,22.1-14.33,2.42-11.11-9.54-16.22-17.46-22.6-4.38-3.53-9.07-8.5-10.78-13.92q-1.62-5.14-3.23-10.29-4.62-14.7-9.25-29.4-3-9.45-5.95-18.92a34.29,34.29,0,0,1-1.91-7.81c-.51-6.59,1.32-12.3,3.84-18.26,2.19-5.18,3.69-10.49.75-15.73-7.42-13.2-26.68-8-27.8,6.28"/></g><polygon class="cls-3" points="213.31 236.14 211.55 240.89 207.76 245.33 202.61 248.52 197.19 248.75 192.27 247.65 188.44 245.12 185.35 241.01 183.66 235.64 184.51 228.74 187.54 221.33 189.41 214.86 189.68 208.97 188.87 202.04 187.1 194.91 172.75 150.02 169.47 141.74 164.96 134.36 158.7 128.02 151.86 122.59 147.3 118.38 143.15 112.38 141.9 104.47 142.83 98.04 147.75 92.06 155.61 90.44 162.37 90.63 167.31 92.55 170.17 94.58 171.45 89.53 174.4 85.26 179.14 82.19 186.25 80.74 193.84 83.11 199.59 90.97 198.55 100.54 195.47 108.54 193.51 116.62 193.77 124.31 196.84 134.2 212.61 184.36 216.34 194.05 222.09 200.59 230.05 206.71 237.06 212.14 241.41 218.04 241.71 226.04 238.84 231.97 234.03 236.97 229.02 239.71 222.28 239.97 216.4 238.03 213.31 236.14"/><polygon class="cls-4" points="216.62 231.4 214.86 236.14 211.07 240.58 205.91 243.77 200.49 244 195.57 242.88 191.75 240.35 188.66 236.25 186.97 230.88 187.82 223.97 190.86 216.56 192.73 210.1 193 204.21 192.2 197.28 190.44 190.15 176.11 145.25 172.83 136.96 168.33 129.59 162.07 123.24 155.24 117.81 150.67 113.6 146.53 107.59 145.29 99.68 146.22 93.25 151.14 87.27 159 85.65 165.76 85.85 170.7 87.78 173.56 89.81 174.85 84.76 177.8 80.49 182.54 77.42 189.65 75.98 197.23 78.35 202.99 86.21 201.94 95.78 198.85 103.78 196.89 111.86 197.15 119.55 200.21 129.44 215.95 179.61 219.68 189.3 225.42 195.85 233.37 201.97 240.39 207.41 244.73 213.31 245.03 221.31 242.16 227.24 237.34 232.23 232.33 234.97 225.59 235.22 219.71 233.28 216.62 231.4"/></g></g></svg>