<svg id="Layer_1" enable-background="new 0 0 512 512" height="512" viewBox="0 0 512 512" width="512" xmlns="http://www.w3.org/2000/svg"><path d="m457.489 171.693c9.963-11.84 15.982-27.104 15.982-43.753 0-37.529-30.532-68.061-68.062-68.061-37.528 0-68.061 30.532-68.061 68.061 0 16.647 6.017 31.909 15.978 43.748-2.168.097-4.204.658-6.03 1.572-12.696-22.326-33.338-39.568-58.053-47.85 20.204-11.586 33.854-33.357 33.854-58.27 0-37.021-30.119-67.14-67.14-67.14s-67.139 30.119-67.139 67.14c0 24.913 13.65 46.684 33.854 58.27-24.89 8.341-45.646 25.769-58.318 48.324-1.727-1.021-3.672-1.706-5.753-1.963 10.003-11.851 16.05-27.145 16.05-43.832 0-37.529-30.532-68.061-68.061-68.061s-68.062 30.532-68.062 68.061c0 16.649 6.018 31.913 15.982 43.753-25.816 1.008-46.51 22.164-46.51 48.038v109.184c0 18.53 10.619 34.634 26.126 42.66l13.792 127.044c.826 7.614 7.255 13.382 14.912 13.382h87.52c7.657 0 14.086-5.768 14.912-13.381l13.796-127.076c.342-.177 5.135-.543 5.135-.543l13.855 127.619c.826 7.613 7.255 13.381 14.912 13.381h86c7.657 0 14.086-5.768 14.912-13.381l13.853-127.619s4.899.348 5.214.512l13.799 127.107c.826 7.613 7.255 13.381 14.912 13.381h87.52c7.657 0 14.086-5.768 14.912-13.381l13.792-127.044c15.507-8.026 26.126-24.13 26.126-42.66v-109.185c0-25.874-20.694-47.03-46.511-48.037zm-52.08-81.815c20.987 0 38.062 17.074 38.062 38.061s-17.075 38.061-38.062 38.061c-20.986 0-38.061-17.074-38.061-38.061s17.075-38.061 38.061-38.061zm50.155 111.766c10.165 0 18.436 8.113 18.436 18.086v109.184c0 9.973-8.271 18.086-18.436 18.086h-94.608v-122.003c0-8.024-.908-15.84-2.621-23.353zm-189.668 1.927-9.938 12.877-9.938-12.877 9.938-25.401zm-9.938-173.571c20.479 0 37.14 16.661 37.14 37.14s-16.661 37.139-37.14 37.139-37.139-16.661-37.139-37.139c0-20.479 16.66-37.14 37.139-37.14zm-74.997 194.997c0-33.499 22.08-61.933 52.448-71.528l-18.419 47.08c-1.92 4.906-1.125 10.458 2.094 14.629l27 34.987c2.84 3.681 7.227 5.836 11.875 5.836s9.035-2.155 11.875-5.836l27-34.987c3.219-4.17 4.014-9.723 2.094-14.629l-18.419-47.079c30.368 9.596 52.447 38.029 52.447 71.527v116.003h-149.995zm-74.37-135.119c20.986 0 38.061 17.074 38.061 38.061s-17.075 38.061-38.061 38.061c-20.987 0-38.062-17.074-38.062-38.061s17.075-38.061 38.062-38.061zm-68.591 129.852c0-9.973 8.271-18.086 18.436-18.086h97.146c-1.713 7.513-2.621 15.328-2.621 23.353v122.003h-94.525c-10.165 0-18.436-8.113-18.436-18.086zm38.29 262.27-11.399-105h83.398l-11.4 105zm209.209 0h-59.08l-12.051-111h83.181zm89.611 0-11.399-105h83.398l-11.399 105z"/></svg>