<svg height="512pt" viewBox="0 0 512 512" width="512pt" xmlns="http://www.w3.org/2000/svg"><path d="m512 256c0 141.386719-114.613281 256-256 256s-256-114.613281-256-256 114.613281-256 256-256 256 114.613281 256 256zm0 0" fill="#ffaf10"/><path d="m256 476.992188c-121.855469 0-220.992188-99.136719-220.992188-220.992188s99.136719-220.992188 220.992188-220.992188 220.992188 99.136719 220.992188 220.992188-99.136719 220.992188-220.992188 220.992188zm0 0" fill="#445ea0"/><path d="m85.007812 256c0-113.402344 85.863282-207.113281 195.992188-219.570312-8.210938-.925782-16.546875-1.421876-25-1.421876-121.855469 0-220.992188 99.136719-220.992188 220.992188s99.136719 220.992188 220.992188 220.992188c8.453125 0 16.789062-.496094 25-1.421876-110.128906-12.457031-195.992188-106.167968-195.992188-219.570312zm0 0" fill="#2e4c89"/><path d="m256 441c-102.007812 0-185-82.992188-185-185s82.992188-185 185-185 185 82.992188 185 185-82.992188 185-185 185zm0 0" fill="#fff"/><path d="m121 256c0-93.53125 69.773438-171.0625 160-183.304688-8.179688-1.109374-16.523438-1.695312-25-1.695312-102.007812 0-185 82.992188-185 185s82.992188 185 185 185c8.476562 0 16.820312-.585938 25-1.695312-90.226562-12.242188-160-89.773438-160-183.304688zm0 0" fill="#d9eafc"/><path d="m252.410156 354.90625c-4.144531 0-7.5-3.355469-7.5-7.5v-91.40625c0-1.988281.789063-3.898438 2.195313-5.304688l49.296875-49.292968c2.929687-2.929688 7.675781-2.929688 10.605468 0 2.929688 2.929687 2.929688 7.675781 0 10.605468l-47.097656 47.097657v88.300781c0 4.144531-3.355468 7.5-7.5 7.5zm0 0" fill="#2e4c89"/><path d="m272.367188 256c0 11.023438-8.933594 19.957031-19.957032 19.957031-11.023437 0-19.957031-8.933593-19.957031-19.957031s8.933594-19.957031 19.957031-19.957031c11.023438 0 19.957032 8.933593 19.957032 19.957031zm0 0" fill="#d9eafc"/><path d="m252.410156 143.550781c-4.140625 0-7.5-3.355469-7.5-7.5v-40.523437c0-4.140625 3.359375-7.5 7.5-7.5s7.5 3.359375 7.5 7.5v40.527344c0 4.140624-3.359375 7.496093-7.5 7.496093zm0 0" fill="#aec1ed"/><path d="m252.410156 423.972656c-4.140625 0-7.5-3.359375-7.5-7.5v-40.527344c0-4.140624 3.359375-7.5 7.5-7.5s7.5 3.359376 7.5 7.5v40.527344c0 4.140625-3.359375 7.5-7.5 7.5zm0 0" fill="#aec1ed"/><path d="m364.855469 256c0-4.140625 3.359375-7.5 7.5-7.5h40.527343c4.140626 0 7.5 3.359375 7.5 7.5s-3.359374 7.5-7.5 7.5h-40.527343c-4.140625 0-7.5-3.359375-7.5-7.5zm0 0" fill="#aec1ed"/><path d="m84.4375 256c0-4.140625 3.359375-7.5 7.5-7.5h40.527344c4.140625 0 7.5 3.359375 7.5 7.5s-3.359375 7.5-7.5 7.5h-40.527344c-4.140625 0-7.5-3.359375-7.5-7.5zm0 0" fill="#aec1ed"/><path d="m191.1875 149.957031c-3.589844 2.070313-8.175781.84375-10.246094-2.746093l-10.261718-17.773438c-2.070313-3.585938-.84375-8.175781 2.746093-10.246094 3.585938-2.070312 8.171875-.839844 10.242188 2.746094l10.261719 17.773438c2.074218 3.589843.84375 8.175781-2.742188 10.246093zm0 0" fill="#5dc1d8"/><g fill="#d9eafc"><path d="m331.394531 392.808594c-3.585937 2.070312-8.171875.839844-10.242187-2.746094l-10.261719-17.773438c-2.074219-3.589843-.84375-8.175781 2.742187-10.246093 3.589844-2.070313 8.175782-.84375 10.246094 2.746093l10.261719 17.773438c2.070313 3.585938.84375 8.175781-2.746094 10.246094zm0 0"/><path d="m358.453125 194.777344c-2.070313-3.589844-.84375-8.175782 2.746094-10.246094l17.773437-10.261719c3.585938-2.070312 8.175782-.84375 10.246094 2.746094 2.070312 3.585937.839844 8.171875-2.746094 10.242187l-17.773437 10.261719c-3.589844 2.074219-8.175781.84375-10.246094-2.742187zm0 0"/><path d="m115.601562 334.984375c-2.070312-3.585937-.839843-8.171875 2.746094-10.242187l17.773438-10.261719c3.589844-2.074219 8.175781-.84375 10.246094 2.742187 2.070312 3.589844.84375 8.175782-2.746094 10.246094l-17.773438 10.261719c-3.585937 2.070312-8.175781.84375-10.246094-2.746094zm0 0"/><path d="m146.367188 194.777344c-2.070313 3.585937-6.65625 4.816406-10.246094 2.742187l-17.773438-10.261719c-3.585937-2.070312-4.816406-6.65625-2.746094-10.242187 2.070313-3.589844 6.660157-4.816406 10.246094-2.746094l17.773438 10.261719c3.589844 2.070312 4.816406 6.65625 2.746094 10.246094zm0 0"/><path d="m389.21875 334.984375c-2.070312 3.589844-6.660156 4.816406-10.246094 2.746094l-17.773437-10.261719c-3.589844-2.070312-4.816407-6.65625-2.746094-10.246094 2.070313-3.585937 6.65625-4.816406 10.246094-2.742187l17.773437 10.261719c3.585938 2.070312 4.816406 6.65625 2.746094 10.242187zm0 0"/><path d="m313.632812 149.957031c-3.585937-2.070312-4.816406-6.65625-2.742187-10.246093l10.261719-17.773438c2.070312-3.585938 6.65625-4.816406 10.242187-2.746094 3.589844 2.070313 4.816407 6.660156 2.746094 10.246094l-10.261719 17.773438c-2.070312 3.589843-6.65625 4.816406-10.246094 2.746093zm0 0"/><path d="m173.425781 392.808594c-3.589843-2.070313-4.816406-6.660156-2.746093-10.246094l10.261718-17.773438c2.070313-3.589843 6.65625-4.816406 10.246094-2.746093 3.585938 2.070312 4.816406 6.65625 2.742188 10.246093l-10.261719 17.773438c-2.070313 3.585938-6.65625 4.816406-10.242188 2.746094zm0 0"/></g></svg>