<svg xmlns="http://www.w3.org/2000/svg" viewBox="0 0 862 862"><defs><style>.cls-1{fill:#fff;}</style></defs><g id="Layer_2" data-name="Layer 2"><g id="Layer_1-2" data-name="Layer 1"><path class="cls-1" d="M431,842A411.11,411.11,0,0,1,271,52.29,411.11,411.11,0,0,1,591,809.71,408.31,408.31,0,0,1,431,842Z"/><path d="M431,40A391.11,391.11,0,0,1,583.18,791.29,391.11,391.11,0,0,1,278.82,70.71,388.48,388.48,0,0,1,431,40m0-40C193,0,0,193,0,431S193,862,431,862,862,669,862,431,669,0,431,0Z"/><path d="M335.5,348.68q-29.19,0-45.21,21.93t-16,61.14q0,81.57,61.22,81.57,25.68,0,62.22-12.84v43.37q-30,12.51-67.06,12.51-53.22,0-81.4-32.28t-28.19-92.66q0-38,13.84-66.64T274.7,320.9q25.94-15.25,60.8-15.26,35.53,0,71.4,17.18l-16.69,42a276.74,276.74,0,0,0-27.52-11.35A82.21,82.21,0,0,0,335.5,348.68Z"/><path d="M588.72,309.14h52.21L558,553H501.65L418.91,309.14h52.21L517,454.27q3.84,12.86,7.93,29.94T530,508q1.85-15.35,12.51-53.71Z"/></g></g></svg>